<svg viewBox="0 0 18 19" fill="none" xmlns="http://www.w3.org/2000/svg">
<ellipse cx="9" cy="9.9436" rx="9" ry="8.98119" fill="#334758"/>
<path fill-rule="evenodd" clip-rule="evenodd" d="M12.165 5.66273L9.00002 8.82111L5.83502 5.66273C5.71837 5.54862 5.53168 5.54862 5.41502 5.66273L4.71002 6.36625C4.59568 6.48266 4.59568 6.66897 4.71002 6.78538L7.87502 9.94376L4.71002 13.1021C4.59568 13.2186 4.59568 13.4049 4.71002 13.5213L5.41502 14.2248C5.53168 14.3389 5.71837 14.3389 5.83502 14.2248L9.00002 11.0664L12.165 14.2248C12.2817 14.3389 12.4684 14.3389 12.585 14.2248L13.29 13.5213C13.4044 13.4049 13.4044 13.2186 13.29 13.1021L10.125 9.94376L13.29 6.78538C13.4044 6.66897 13.4044 6.48266 13.29 6.36625L12.585 5.66273C12.4684 5.54862 12.2817 5.54862 12.165 5.66273Z" fill="#F5F8FA"/>
</svg>
