<svg viewBox="0 0 20 20" fill="none" xmlns="http://www.w3.org/2000/svg">
<circle cx="10.2671" cy="10.2275" r="9.45826" fill="#E7EDF3"/>
<path fill-rule="evenodd" clip-rule="evenodd" d="M13.5933 5.71909L10.2671 9.04525L6.94099 5.71909C6.81839 5.59893 6.62219 5.59893 6.4996 5.71909L5.7587 6.45999C5.63854 6.58258 5.63854 6.77878 5.7587 6.90137L9.08486 10.2275L5.7587 13.5537C5.63854 13.6763 5.63854 13.8725 5.7587 13.9951L6.4996 14.736C6.62219 14.8561 6.81839 14.8561 6.94099 14.736L10.2671 11.4098L13.5933 14.736C13.7159 14.8561 13.9121 14.8561 14.0347 14.736L14.7756 13.9951C14.8957 13.8725 14.8957 13.6763 14.7756 13.5537L11.4494 10.2275L14.7756 6.90137C14.8957 6.77878 14.8957 6.58258 14.7756 6.45999L14.0347 5.71909C13.9121 5.59893 13.7159 5.59893 13.5933 5.71909Z" fill="#868E96"/>
</svg>
