<svg viewBox="0 0 232 220" fill="none" xmlns="http://www.w3.org/2000/svg">
<path d="M111.397 0L115.095 14.2389C116.095 18.0886 119.102 21.0949 122.951 22.0948L137.19 25.7933L122.951 29.4918C119.102 30.4917 116.095 33.4979 115.095 37.3477L111.397 51.5866L107.698 37.3477C106.698 33.498 103.692 30.4917 99.8425 29.4918L85.6035 25.7933L99.8425 22.0948C103.692 21.0949 106.698 18.0887 107.698 14.2389L111.397 0Z" fill="url(#paint0_linear)"/>
<path d="M20.992 67.9912L23.063 75.965C23.623 78.1208 25.3065 79.8043 27.4623 80.3642L35.4361 82.4353L27.4623 84.5063C25.3065 85.0663 23.623 86.7498 23.063 88.9056L20.992 96.8794L18.9209 88.9056C18.361 86.7498 16.6774 85.0663 14.5216 84.5063L6.54785 82.4353L14.5216 80.3642C16.6774 79.8043 18.361 78.1208 18.9209 75.965L20.992 67.9912Z" fill="url(#paint1_linear)"/>
<path d="M40.3268 159.003L42.0421 165.606C42.5059 167.392 43.9001 168.786 45.6856 169.25L52.2894 170.965L45.6856 172.681C43.9002 173.144 42.5059 174.539 42.0421 176.324L40.3268 182.928L38.6115 176.324C38.1477 174.539 36.7535 173.144 34.968 172.681L28.3643 170.965L34.968 169.25C36.7534 168.786 38.1477 167.392 38.6115 165.606L40.3268 159.003Z" fill="url(#paint2_linear)"/>
<path d="M213.947 112.866L215.662 119.47C216.126 121.255 217.52 122.649 219.306 123.113L225.909 124.828L219.306 126.544C217.52 127.008 216.126 128.402 215.662 130.187L213.947 136.791L212.232 130.187C211.768 128.402 210.374 127.008 208.588 126.544L201.984 124.828L208.588 123.113C210.374 122.649 211.768 121.255 212.232 119.47L213.947 112.866Z" fill="url(#paint3_linear)"/>
<path d="M222.587 82.0147L223.868 86.9473C224.214 88.2809 225.256 89.3224 226.589 89.6688L231.522 90.9501L226.589 92.2314C225.256 92.5777 224.214 93.6192 223.868 94.9528L222.587 99.8855L221.305 94.9528C220.959 93.6192 219.918 92.5777 218.584 92.2314L213.651 90.9501L218.584 89.6688C219.918 89.3224 220.959 88.2809 221.305 86.9473L222.587 82.0147Z" fill="url(#paint4_linear)"/>
<path d="M142.531 189.902H61.1841C59.843 189.902 58.7559 188.815 58.7559 187.473V92.8649C58.7559 91.5238 59.843 90.4366 61.1841 90.4366H142.531C143.872 90.4366 144.959 91.5238 144.959 92.8649V187.474C144.959 188.815 143.872 189.902 142.531 189.902Z" fill="url(#paint5_linear)"/>
<path opacity="0.6" d="M142.531 174.834H84.2525C82.9113 174.834 81.8242 173.747 81.8242 172.406V93.4879C81.8242 92.1467 82.9113 91.0596 84.2525 91.0596H142.531C143.872 91.0596 144.959 92.1467 144.959 93.4879V172.406C144.959 173.747 143.872 174.834 142.531 174.834Z" fill="url(#paint6_linear)"/>
<path d="M207.717 120.191H168.03C165.366 120.191 163.206 122.35 163.206 125.014V192.314C163.206 194.977 165.366 197.137 168.03 197.137H222.696C225.36 197.137 227.52 194.977 227.52 192.314V139.993C227.52 139.079 227.156 138.203 226.51 137.557L210.153 121.2C209.507 120.554 208.631 120.191 207.717 120.191Z" fill="url(#paint7_linear)"/>
<path d="M80.6645 152.939L64.4866 163.03V155.502C55.3564 155.502 47.8281 147.973 47.8281 138.843H52.7937C52.7937 145.25 57.9194 150.376 64.3264 150.376V142.848L80.6645 152.939Z" fill="#15D996"/>
<path d="M94.8846 47.351H52.9275C50.1112 47.351 47.8281 49.634 47.8281 52.4503V123.598C47.8281 126.415 50.1112 128.698 52.9275 128.698H110.72C113.536 128.698 115.819 126.415 115.819 123.598V68.2857C115.819 67.3196 115.436 66.3933 114.752 65.7102L97.4601 48.4178C96.777 47.7348 95.8505 47.351 94.8846 47.351Z" fill="url(#paint8_linear)"/>
<path opacity="0.6" d="M112.178 128.698H64.8267C63.4856 128.698 62.3984 127.61 62.3984 126.269V103.201C62.3984 101.86 63.4856 100.773 64.8267 100.773H112.178C113.519 100.773 114.606 101.86 114.606 103.201V126.269C114.606 127.61 113.519 128.698 112.178 128.698Z" fill="url(#paint9_linear)"/>
<path d="M100.369 65.5629H114.605L97.6074 48.5651V62.8017C97.6074 64.2334 98.8347 65.5629 100.369 65.5629Z" fill="url(#paint10_linear)"/>
<path d="M72.0441 91.7349H70.8299V95.1345H67.916V83.7217H72.0441C75.4436 83.7217 77.1434 85.0572 77.1434 87.6069C77.1434 90.1565 75.3222 91.7349 72.0441 91.7349ZM72.0441 86.1499H70.8299V89.5495H72.0441C73.6224 89.5495 74.2295 88.821 74.2295 87.8497C74.2295 86.8784 73.501 86.1499 72.0441 86.1499Z" fill="white"/>
<path d="M82.364 95.1345H78.3574V83.7217H82.364C86.7349 83.7217 89.1632 85.4214 89.1632 89.3066C89.1632 92.949 86.8563 95.1345 82.364 95.1345ZM82.364 86.1499H81.2713V92.5848H82.364C85.0351 92.5848 86.2493 91.4921 86.2493 89.3066C86.2493 87.1212 85.0351 86.1499 82.364 86.1499Z" fill="white"/>
<path d="M98.5129 86.1499H93.535V88.9424H98.0273V91.3707H93.535V95.0131H90.6211V83.6002H98.5129C98.5129 83.7217 98.5129 86.1499 98.5129 86.1499Z" fill="white"/>
<path d="M203.21 73.1942L205.986 83.8829C206.737 86.7728 208.993 89.0295 211.883 89.78L222.572 92.5564L211.883 95.3327C208.993 96.0833 206.737 98.34 205.986 101.23L203.21 111.919L200.434 101.23C199.683 98.34 197.426 96.0833 194.536 95.3327L183.848 92.5564L194.536 89.78C197.426 89.0295 199.683 86.7728 200.434 83.8829L203.21 73.1942Z" fill="url(#paint11_radial)"/>
<path d="M187.098 65.3758L188.475 70.6773C188.847 72.1106 189.966 73.2299 191.4 73.6023L196.701 74.9792L191.4 76.3561C189.966 76.7284 188.847 77.8477 188.475 79.2811L187.098 84.5826L185.721 79.2811C185.348 77.8478 184.229 76.7285 182.796 76.3561L177.494 74.9792L182.796 73.6023C184.229 73.23 185.348 72.1107 185.721 70.6773L187.098 65.3758Z" fill="url(#paint12_radial)"/>
<path d="M210.534 59.4923L211.285 62.3814C211.488 63.1626 212.098 63.7726 212.879 63.9754L215.768 64.7259L212.879 65.4763C212.098 65.6792 211.488 66.2892 211.285 67.0704L210.534 69.9595L209.784 67.0704C209.581 66.2892 208.971 65.6792 208.19 65.4763L205.301 64.7259L208.19 63.9754C208.971 63.7726 209.581 63.1626 209.784 62.3814L210.534 59.4923Z" fill="url(#paint13_radial)"/>
<path d="M182.112 220H95.6656C91.6424 220 88.3809 216.738 88.3809 212.715V112.671C88.3809 108.648 91.6424 105.386 95.6656 105.386H182.112C186.135 105.386 189.396 108.648 189.396 112.671V212.715C189.396 216.738 186.135 220 182.112 220Z" fill="url(#paint14_linear)"/>
<path d="M169.915 205.429H164.255L159.302 190.287L154.348 205.429H148.688L143.027 182.362H149.112L151.943 196.938L156.471 182.362H162.132L166.66 196.938L169.49 182.362H175.576L169.915 205.429Z" fill="url(#paint15_linear)"/>
<path d="M176.768 130.155H101.978V124.327H176.768V130.155ZM176.768 138.896H101.978V144.724H176.768V138.896ZM176.768 153.466H101.978V159.294H176.768V153.466ZM176.768 168.035H101.978V173.863H176.768V168.035ZM131.117 182.605H101.978V188.433H131.117V182.605ZM131.117 197.174H101.978V203.002H131.117V197.174Z" fill="white"/>
<path d="M28.5709 133.554H3.52197C1.84052 133.554 0.477539 134.917 0.477539 136.599V179.075C0.477539 180.756 1.84052 182.119 3.52197 182.119H38.0249C39.7063 182.119 41.0694 180.756 41.0694 179.075V146.052C41.0694 145.476 40.8403 144.923 40.4324 144.515L30.1086 134.191C29.7007 133.783 29.1476 133.554 28.5709 133.554Z" fill="url(#paint16_linear)"/>
<path d="M169.155 97.1302H125.533C124.192 97.1302 123.104 96.0431 123.104 94.702V43.7086C123.104 42.3675 124.192 41.2804 125.533 41.2804H169.155C170.496 41.2804 171.583 42.3675 171.583 43.7086V94.702C171.583 96.0431 170.496 97.1302 169.155 97.1302Z" fill="url(#paint17_linear)"/>
<defs>
<linearGradient id="paint0_linear" x1="111.397" y1="51.5865" x2="111.397" y2="0" gradientUnits="userSpaceOnUse">
<stop stop-color="#E7EFF6" stop-opacity="0"/>
<stop offset="1" stop-color="#E4F4FF"/>
</linearGradient>
<linearGradient id="paint1_linear" x1="20.992" y1="96.8793" x2="20.992" y2="67.9912" gradientUnits="userSpaceOnUse">
<stop stop-color="#E7EFF6" stop-opacity="0"/>
<stop offset="1" stop-color="#E4F4FF"/>
</linearGradient>
<linearGradient id="paint2_linear" x1="40.3268" y1="182.928" x2="40.3268" y2="159.003" gradientUnits="userSpaceOnUse">
<stop stop-color="#E7EFF6" stop-opacity="0"/>
<stop offset="1" stop-color="#E4F4FF"/>
</linearGradient>
<linearGradient id="paint3_linear" x1="213.947" y1="136.791" x2="213.947" y2="112.866" gradientUnits="userSpaceOnUse">
<stop stop-color="#E7EFF6" stop-opacity="0"/>
<stop offset="1" stop-color="#E4F4FF"/>
</linearGradient>
<linearGradient id="paint4_linear" x1="222.587" y1="99.8853" x2="222.587" y2="82.0147" gradientUnits="userSpaceOnUse">
<stop stop-color="#E7EFF6" stop-opacity="0"/>
<stop offset="1" stop-color="#E4F4FF"/>
</linearGradient>
<linearGradient id="paint5_linear" x1="101.857" y1="90.4366" x2="101.857" y2="189.902" gradientUnits="userSpaceOnUse">
<stop stop-color="#C9D6E3"/>
<stop offset="1" stop-color="#F0F4F7" stop-opacity="0.3"/>
</linearGradient>
<linearGradient id="paint6_linear" x1="113.392" y1="91.0596" x2="113.392" y2="174.834" gradientUnits="userSpaceOnUse">
<stop offset="0.0029" stop-color="#2651A1" stop-opacity="0.3"/>
<stop offset="1" stop-color="#2651A1" stop-opacity="0"/>
</linearGradient>
<linearGradient id="paint7_linear" x1="195.363" y1="197.137" x2="195.363" y2="120.191" gradientUnits="userSpaceOnUse">
<stop stop-color="#F3F5F9" stop-opacity="0.3"/>
<stop offset="1" stop-color="#E2E7F0"/>
</linearGradient>
<linearGradient id="paint8_linear" x1="81.8237" y1="128.698" x2="81.8237" y2="47.351" gradientUnits="userSpaceOnUse">
<stop stop-color="#09BDF8"/>
<stop offset="1" stop-color="#1591D4"/>
</linearGradient>
<linearGradient id="paint9_linear" x1="88.5022" y1="100.773" x2="88.5022" y2="128.698" gradientUnits="userSpaceOnUse">
<stop stop-color="#2651A1" stop-opacity="0"/>
<stop offset="0.9971" stop-color="#2651A1" stop-opacity="0.3"/>
</linearGradient>
<linearGradient id="paint10_linear" x1="98.4531" y1="64.7174" x2="106.128" y2="57.0427" gradientUnits="userSpaceOnUse">
<stop stop-color="#2651A1"/>
<stop offset="1" stop-color="#1E3C74"/>
</linearGradient>
<radialGradient id="paint11_radial" cx="0" cy="0" r="1" gradientUnits="userSpaceOnUse" gradientTransform="translate(203.21 92.5564) scale(19.3622)">
<stop stop-color="#FF9057"/>
<stop offset="1" stop-color="#FFCB5D"/>
</radialGradient>
<radialGradient id="paint12_radial" cx="0" cy="0" r="1" gradientUnits="userSpaceOnUse" gradientTransform="translate(187.098 74.9792) scale(9.60339)">
<stop stop-color="#FF9057"/>
<stop offset="1" stop-color="#FFCB5D"/>
</radialGradient>
<radialGradient id="paint13_radial" cx="0" cy="0" r="1" gradientUnits="userSpaceOnUse" gradientTransform="translate(210.534 64.7259) scale(5.23362)">
<stop stop-color="#FF9057"/>
<stop offset="1" stop-color="#FFCB5D"/>
</radialGradient>
<linearGradient id="paint14_linear" x1="138.889" y1="105.386" x2="138.889" y2="220" gradientUnits="userSpaceOnUse">
<stop stop-color="#F0F4F7"/>
<stop offset="1" stop-color="#C9D6E3"/>
</linearGradient>
<linearGradient id="paint15_linear" x1="159.302" y1="205.429" x2="159.302" y2="182.362" gradientUnits="userSpaceOnUse">
<stop stop-color="#09BDF8"/>
<stop offset="1" stop-color="#1591D4"/>
</linearGradient>
<linearGradient id="paint16_linear" x1="20.7735" y1="182.119" x2="20.7735" y2="133.554" gradientUnits="userSpaceOnUse">
<stop stop-color="#F3F5F9" stop-opacity="0.3"/>
<stop offset="1" stop-color="#E2E7F0"/>
</linearGradient>
<linearGradient id="paint17_linear" x1="147.344" y1="41.2804" x2="147.344" y2="97.1302" gradientUnits="userSpaceOnUse">
<stop stop-color="#F3F5F9"/>
<stop offset="1" stop-color="#E2E7F0"/>
</linearGradient>
</defs>
</svg>
