<?xml version="1.0" encoding="UTF-8"?>
<svg fill="none" version="1.1" viewBox="0 0 169 116" xmlns="http://www.w3.org/2000/svg"><rect width="169" height="115.3" fill="#fff"/><mask id="mask0" x="0" y="0" width="169" height="116" mask-type="alpha" maskUnits="userSpaceOnUse"><rect width="169" height="115.3" fill="url(#paint0_linear)"/></mask><g mask="url(#mask0)"><rect width="169" height="115.3" fill="url(#paint0_linear)"/><path d="m-3.8147e-6 115h55l-55-46-4.0214e-6 46z" fill="url(#paint2_linear)" fill-opacity=".6"/><path d="m-3.8147e-6 115h37l-37-31-2.7101e-6 31z" fill="url(#paint3_linear)" fill-opacity=".8"/><path d="M169 0H117L169 31V0Z" fill="url(#paint4_linear)" fill-opacity=".5"/><path d="m156.8 32.5-21.1-28.5-21.1 28.5h8.6v83h25v-83h8.6z" fill="url(#paint5_linear)"/><path d="M115 48.7446L100 29L85 48.7446H91.1137V109H108.886V48.7446H115Z" fill="url(#paint6_linear)"/><path d="m130.3 16 0.8 2.9c0.2 0.8 0.8 1.4 1.6 1.6l2.9 0.8-2.9 0.8c-0.8 0.2-1.4 0.8-1.6 1.6l-0.8 2.9-0.8-2.9c-0.2-0.8-0.8-1.4-1.6-1.6l-2.9-0.8 2.9-0.8c0.8-0.2 1.4-0.8 1.6-1.6l0.8-2.9z" fill="url(#paint7_linear)"/><defs><linearGradient id="paint0_linear" x1="84.5" x2="84.5" y1="115.3" gradientUnits="userSpaceOnUse"><stop stop-color="#D9EBFB" offset="0"/><stop stop-color="#F8FBFE" offset=".9987"/></linearGradient><linearGradient id="paint2_linear" x1="27.5" x2="27.5" y1="115" y2="69" gradientUnits="userSpaceOnUse"><stop stop-color="#C6DFF9" stop-opacity=".5054" offset="0"/><stop stop-color="#9ECCFD" stop-opacity="0" offset="1"/></linearGradient><linearGradient id="paint3_linear" x1="18.5" x2="18.5" y1="115" y2="84" gradientUnits="userSpaceOnUse"><stop stop-color="#C6DFF9" stop-opacity=".5054" offset="0"/><stop stop-color="#9ECCFD" stop-opacity="0" offset="1"/></linearGradient><linearGradient id="paint4_linear" x1="143" x2="143" y2="31" gradientUnits="userSpaceOnUse"><stop stop-color="#C6DFF9" stop-opacity=".5054" offset="0"/><stop stop-color="#9ECCFD" stop-opacity="0" offset="1"/></linearGradient><linearGradient id="paint5_linear" x1="135.7" x2="135.7" y1="146.9" y2="4" gradientUnits="userSpaceOnUse"><stop stop-color="#E7EFF6" stop-opacity="0" offset="0"/><stop stop-color="#DEEBF7" stop-opacity=".035937" offset=".1797"/><stop stop-color="#C6DFF9" stop-opacity=".094576" offset=".4729"/><stop stop-color="#9ECCFD" stop-opacity=".1682" offset=".841"/><stop stop-color="#8BC3FF" stop-opacity=".2" offset="1"/></linearGradient><linearGradient id="paint6_linear" x1="100" x2="100" y1="128" y2="29" gradientUnits="userSpaceOnUse"><stop stop-color="#E7EFF6" stop-opacity="0" offset="0"/><stop stop-color="#DEEBF7" stop-opacity=".035937" offset=".1797"/><stop stop-color="#C6DFF9" stop-opacity=".094576" offset=".4729"/><stop stop-color="#9ECCFD" stop-opacity=".1682" offset=".841"/><stop stop-color="#8BC3FF" stop-opacity=".2" offset="1"/></linearGradient><linearGradient id="paint7_linear" x1="130.28" x2="130.28" y1="26.501" y2="15.996" gradientUnits="userSpaceOnUse"><stop stop-color="#E7EFF6" stop-opacity=".6" offset="0"/><stop stop-color="#DEEBF7" stop-opacity=".5641" offset=".1797"/><stop stop-color="#C6DFF9" stop-opacity=".5054" offset=".4729"/><stop stop-color="#9ECCFD" stop-opacity=".4318" offset=".841"/><stop stop-color="#8BC3FF" stop-opacity=".4" offset="1"/></linearGradient></defs></g></svg>
