<svg viewBox="0 0 49 53" fill="none" xmlns="http://www.w3.org/2000/svg">
<g filter="url(#filter0_d)">
<rect x="19.6799" y="-18.6323" width="68.3664" height="20.202" transform="rotate(45 19.6799 -18.6323)" fill="#FF4949"/>
<rect x="19.6799" y="-17.6793" width="67.0187" height="18.8543" transform="rotate(45 19.6799 -17.6793)" stroke="#EB1C1C" stroke-width="1.34774"/>
</g>
<path d="M28.6596 4.63915L29.1917 4.10702C29.2666 4.41842 29.4131 4.68317 29.6312 4.90128C29.7954 5.06552 29.9623 5.15486 30.1318 5.16931C30.3039 5.18377 30.457 5.12398 30.591 4.98997C30.8709 4.71011 30.8131 4.37243 30.4176 3.97695C30.2888 3.84819 30.1213 3.70431 29.915 3.54533L31.4937 1.96668L33.0585 3.53154L32.55 4.04002L31.5173 3.00729L30.9517 3.57292C31.0423 3.64782 31.1245 3.72205 31.198 3.79563C31.4884 4.086 31.6395 4.38951 31.6513 4.70616C31.6632 5.02281 31.5403 5.3099 31.2828 5.56743C30.9977 5.85254 30.6666 5.98787 30.2895 5.97342C29.9137 5.95766 29.5583 5.78225 29.2232 5.4472C28.9513 5.17523 28.7634 4.90588 28.6596 4.63915ZM31.6829 7.90683C31.0102 7.23411 31.1461 6.4254 32.0908 5.48071C32.5809 4.99062 33.0447 4.70813 33.4823 4.63324C33.9224 4.55835 34.3153 4.69368 34.6608 5.03924C35.3178 5.69619 35.166 6.5049 34.2056 7.46536C33.7273 7.94362 33.2707 8.22019 32.8358 8.29509C32.4022 8.37129 32.0179 8.24187 31.6829 7.90683ZM34.1583 5.48662C33.8889 5.21727 33.4159 5.42093 32.7392 6.09759C32.102 6.73483 31.9154 7.1855 32.1795 7.44959C32.437 7.70712 32.8943 7.5074 33.5512 6.85045C34.2082 6.1935 34.4105 5.73889 34.1583 5.48662ZM35.1476 8.48626C34.9466 8.28523 34.8481 8.05924 34.852 7.80829C34.8573 7.55864 34.9676 7.32608 35.1831 7.1106C35.4183 6.87542 35.6699 6.75388 35.9379 6.746C36.2073 6.73943 36.451 6.8452 36.6691 7.0633C36.878 7.27221 36.9786 7.49755 36.9707 7.73931C36.9641 7.98238 36.8478 8.21691 36.6218 8.4429C36.3893 8.67546 36.1396 8.79503 35.8729 8.8016C35.6062 8.80817 35.3644 8.70305 35.1476 8.48626ZM36.3104 7.39835C36.1186 7.20652 35.8893 7.24397 35.6226 7.51069C35.3703 7.76296 35.3355 7.98041 35.5181 8.16304C35.7047 8.34961 35.9294 8.31151 36.1922 8.04873C36.4484 7.79252 36.4878 7.57573 36.3104 7.39835ZM38.6439 9.11693L33.9769 10.1024L33.4961 9.62147L38.1591 8.6321L38.6439 9.11693ZM35.4748 11.679C35.2738 11.478 35.1752 11.252 35.1792 11.0011C35.1844 10.7514 35.2948 10.5189 35.5103 10.3034C35.7455 10.0682 35.9971 9.94666 36.2651 9.93878C36.5345 9.93221 36.7782 10.038 36.9963 10.2561C37.2065 10.4663 37.3083 10.6916 37.3018 10.9321C37.2952 11.1725 37.1789 11.4058 36.9529 11.6317C36.7204 11.8643 36.4701 11.9845 36.202 11.9924C35.934 12.0003 35.6916 11.8958 35.4748 11.679ZM36.6317 10.5852C36.4412 10.3947 36.2125 10.4328 35.9458 10.6995C35.6936 10.9518 35.66 11.1706 35.8453 11.3558C36.0319 11.5424 36.2566 11.5043 36.5193 11.2415C36.6415 11.1193 36.7112 10.9998 36.7283 10.8828C36.7453 10.7659 36.7131 10.6667 36.6317 10.5852ZM38.6971 14.9211C38.3608 14.5847 38.19 14.226 38.1847 13.845C38.1821 13.464 38.3424 13.1119 38.6656 12.7886C38.9993 12.4549 39.36 12.2939 39.7476 12.3058C40.1365 12.3163 40.5011 12.4917 40.8414 12.832C41.1765 13.167 41.3446 13.5244 41.346 13.9041C41.3486 14.2825 41.1949 14.6268 40.8848 14.9369C40.5497 15.2719 40.1864 15.4381 39.7949 15.4355C39.4047 15.4342 39.0387 15.2627 38.6971 14.9211ZM40.3527 13.2971C40.2055 13.15 40.0406 13.0862 39.858 13.1059C39.6753 13.1256 39.4914 13.2281 39.3061 13.4134C38.9185 13.801 38.8811 14.1511 39.1938 14.4639C39.492 14.7621 39.8402 14.7122 40.2383 14.3141C40.6154 13.937 40.6535 13.598 40.3527 13.2971ZM44.0165 15.1202C43.9679 15.0085 43.9068 14.9158 43.8332 14.8423C43.6335 14.6425 43.4252 14.6511 43.2084 14.8679L42.9936 15.0827L43.4548 15.5439L42.9956 16.0031L42.5344 15.5419L40.9754 17.1009L40.3546 16.48L41.9136 14.9211L41.5746 14.5821L42.0338 14.1229L42.3728 14.4619L42.6231 14.2116C42.853 13.9817 43.1132 13.8713 43.4035 13.8805C43.6939 13.8897 43.9679 14.023 44.2254 14.2806C44.3515 14.4067 44.4435 14.525 44.5013 14.6353L44.0165 15.1202ZM45.5656 16.6692C45.5169 16.5576 45.4558 16.4649 45.3823 16.3914C45.1826 16.1916 44.9743 16.2002 44.7575 16.417L44.5427 16.6318L45.0039 17.093L44.5447 17.5522L44.0835 17.091L42.5245 18.6499L41.9037 18.0291L43.4627 16.4702L43.1237 16.1312L43.5829 15.672L43.9219 16.011L44.1722 15.7607C44.4021 15.5307 44.6622 15.4204 44.9526 15.4296C45.243 15.4388 45.5169 15.5721 45.7745 15.8297C45.9006 15.9558 45.9926 16.074 46.0504 16.1844L45.5656 16.6692Z" fill="white"/>
<path d="M29.7879 9.25851C29.7672 9.1846 29.7268 9.11759 29.6667 9.05748C29.4972 8.88799 29.3055 8.91016 29.0917 9.124L28.8581 9.35755L29.2129 9.7123L29.006 9.91924L28.6512 9.56449L27.3445 10.8712L27.1036 10.6302L28.4103 9.32355L28.1516 9.06487L28.3585 8.85793L28.6172 9.11661L28.8626 8.87124C29.0212 8.71258 29.1922 8.63326 29.3755 8.63326C29.5598 8.63227 29.7204 8.70027 29.8574 8.83724C29.9313 8.91115 29.981 8.97865 30.0067 9.03975L29.7879 9.25851ZM29.983 9.71378C29.9396 9.67042 29.9175 9.61868 29.9165 9.55857C29.9155 9.49846 29.9377 9.44574 29.983 9.40041C30.0283 9.35508 30.0811 9.33291 30.1412 9.3339C30.2023 9.3339 30.2545 9.35558 30.2979 9.39893C30.3422 9.44328 30.3644 9.496 30.3644 9.5571C30.3663 9.61819 30.3447 9.6714 30.2993 9.71673C30.256 9.76009 30.2032 9.78128 30.1412 9.78029C30.0801 9.78029 30.0274 9.75812 29.983 9.71378ZM28.2033 11.73L27.9609 11.4875L29.4745 9.97393L29.7169 10.2163L28.2033 11.73ZM30.7516 11.7418C30.7418 11.6669 30.6969 11.5895 30.6171 11.5097C30.5137 11.4062 30.3782 11.3683 30.2106 11.3959C30.0441 11.4245 29.8766 11.523 29.7081 11.6915L28.9365 12.4631L28.6941 12.2207L30.2077 10.7071L30.4501 10.9495L30.1382 11.2614L30.1441 11.2673C30.285 11.1954 30.4205 11.1653 30.5506 11.1771C30.6817 11.188 30.7911 11.2372 30.8788 11.325C30.9418 11.388 30.9832 11.4432 31.0029 11.4905L30.7516 11.7418ZM29.7302 13.1475L29.9904 12.8873C30.0249 13.1169 30.1215 13.3111 30.2801 13.4697C30.493 13.6826 30.6703 13.7181 30.8122 13.5762C30.8526 13.5358 30.8773 13.4924 30.8862 13.4461C30.897 13.3998 30.8975 13.35 30.8876 13.2968C30.8788 13.2446 30.8615 13.1889 30.8359 13.1298C30.8122 13.0706 30.7856 13.0076 30.7561 12.9406C30.7157 12.8469 30.6832 12.7612 30.6585 12.6834C30.6359 12.6055 30.624 12.5326 30.623 12.4646C30.624 12.3966 30.6373 12.3321 30.663 12.271C30.6896 12.2108 30.7319 12.1517 30.7901 12.0936C30.861 12.0226 30.9399 11.9763 31.0266 11.9546C31.1143 11.932 31.2035 11.9295 31.2941 11.9472C31.3858 11.964 31.4754 11.9975 31.5631 12.0478C31.6518 12.099 31.7331 12.1616 31.807 12.2355C31.9381 12.3665 32.0327 12.5065 32.0908 12.6553L31.8455 12.9006C31.807 12.7164 31.7154 12.5518 31.5705 12.4069C31.5252 12.3616 31.4789 12.3261 31.4316 12.3005C31.3853 12.2739 31.3394 12.2567 31.2941 12.2488C31.2498 12.2419 31.2069 12.2444 31.1655 12.2562C31.1261 12.268 31.0906 12.2897 31.0591 12.3212C31.0197 12.3606 30.9936 12.4005 30.9808 12.4409C30.9689 12.4823 30.9665 12.5272 30.9734 12.5755C30.9803 12.6237 30.995 12.676 31.0177 12.7321C31.0404 12.7883 31.067 12.8514 31.0975 12.9213C31.1389 13.014 31.1724 13.1007 31.198 13.1815C31.2246 13.2613 31.2394 13.3372 31.2424 13.4091C31.2463 13.4801 31.236 13.5476 31.2113 13.6116C31.1877 13.6767 31.1453 13.7397 31.0842 13.8008C31.0093 13.8757 30.9275 13.924 30.8388 13.9457C30.7511 13.9684 30.6615 13.9703 30.5698 13.9516C30.4782 13.9329 30.3875 13.8964 30.2979 13.8422C30.2082 13.788 30.1239 13.7215 30.0451 13.6427C29.8894 13.487 29.7844 13.3219 29.7302 13.1475ZM31.7701 15.2671C31.6814 15.2415 31.5902 15.1819 31.4966 15.0883C31.2315 14.8232 31.2468 14.5429 31.5424 14.2472L32.4382 13.3515L32.178 13.0913L32.385 12.8844L32.6451 13.1445L33.0147 12.775L33.3354 12.9391L32.8876 13.387L33.2689 13.7683L33.062 13.9753L32.6806 13.5939L31.8277 14.4468C31.7262 14.5483 31.671 14.638 31.6622 14.7158C31.6533 14.7937 31.6888 14.8725 31.7686 14.9523C31.8297 15.0134 31.8992 15.0494 31.977 15.0602L31.7701 15.2671ZM35.628 16.1274L33.1758 17.1873C32.7383 17.3765 32.4072 17.3587 32.1825 17.134C32.1194 17.071 32.0731 17.0118 32.0435 16.9567L32.2608 16.7394C32.2953 16.8093 32.3342 16.866 32.3776 16.9094C32.4998 17.0316 32.6644 17.0503 32.8713 16.9655L33.2793 16.8L34.1987 14.6981L34.4677 14.9671L33.7124 16.5413C33.7025 16.561 33.6744 16.6098 33.6281 16.6876L33.637 16.6965C33.6655 16.6778 33.7128 16.6502 33.7789 16.6137L35.3767 15.8761L35.628 16.1274ZM36.274 18.4082L35.2053 17.3395C35.0407 17.512 34.956 17.6874 34.951 17.8657C34.9461 18.0441 35.0195 18.2091 35.1713 18.3609C35.3418 18.5314 35.5546 18.6319 35.8098 18.6624L35.5822 18.8901C35.3526 18.8536 35.1284 18.726 34.9096 18.5072C34.6958 18.2934 34.5963 18.0569 34.6111 17.7977C34.6268 17.5376 34.7594 17.2828 35.0087 17.0335C35.2442 16.798 35.5024 16.6729 35.7832 16.6581C36.066 16.6433 36.3065 16.7349 36.5046 16.933C36.7026 17.1311 36.7918 17.3484 36.7721 17.5849C36.7524 17.8214 36.6287 18.0534 36.4011 18.2811L36.274 18.4082ZM36.2311 17.9544C36.37 17.8135 36.4449 17.6706 36.4558 17.5257C36.4676 17.3819 36.4144 17.2508 36.2961 17.1326C36.1818 17.0183 36.0439 16.9621 35.8823 16.9641C35.7207 16.966 35.5645 17.0237 35.4137 17.137L36.2311 17.9544ZM37.0293 20.5559L36.7869 20.3135L37.0234 20.077L37.0175 20.0711C36.7307 20.147 36.4849 20.0824 36.2799 19.8775C36.1291 19.7267 36.0508 19.5685 36.0449 19.403C36.0399 19.2384 36.1035 19.0901 36.2355 18.9581C36.5184 18.6752 36.8495 18.6772 37.2288 18.964L37.7462 19.3542C38.0034 19.097 38.028 18.8644 37.8201 18.6565C37.6378 18.4742 37.4112 18.3717 37.1402 18.3491L37.3885 18.1007C37.6319 18.1549 37.8507 18.2791 38.0448 18.4732C38.4005 18.829 38.3902 19.1951 38.0137 19.5715L37.0293 20.5559ZM37.5526 19.5478L37.1372 19.233C37.0091 19.1364 36.8963 19.0798 36.7987 19.063C36.7021 19.0453 36.6031 19.0872 36.5016 19.1887C36.4277 19.2626 36.3932 19.3493 36.3981 19.4488C36.405 19.5483 36.4523 19.642 36.54 19.7297C36.6603 19.8499 36.8012 19.907 36.9628 19.9011C37.1264 19.8952 37.2727 19.8277 37.4018 19.6986L37.5526 19.5478ZM39.5436 20.5338C39.5338 20.4589 39.4889 20.3815 39.4091 20.3017C39.3056 20.1982 39.1701 20.1603 39.0026 20.1879C38.8361 20.2165 38.6686 20.315 38.5 20.4835L37.7285 21.2551L37.486 21.0127L38.9997 19.4991L39.2421 19.7415L38.9302 20.0534L38.9361 20.0593C39.077 19.9873 39.2125 19.9573 39.3426 19.9691C39.4737 19.98 39.583 20.0292 39.6707 20.1169C39.7338 20.18 39.7752 20.2352 39.7949 20.2825L39.5436 20.5338Z" fill="white"/>
<defs>
<filter id="filter0_d" x="0.00405693" y="-21.3278" width="73.4093" height="73.4093" filterUnits="userSpaceOnUse" color-interpolation-filters="sRGB">
<feFlood flood-opacity="0" result="BackgroundImageFix"/>
<feColorMatrix in="SourceAlpha" type="matrix" values="0 0 0 0 0 0 0 0 0 0 0 0 0 0 0 0 0 0 127 0"/>
<feOffset dy="2.69548"/>
<feGaussianBlur stdDeviation="2.69548"/>
<feColorMatrix type="matrix" values="0 0 0 0 0.304167 0 0 0 0 0.193273 0 0 0 0 0.145747 0 0 0 0.11 0"/>
<feBlend mode="normal" in2="BackgroundImageFix" result="effect1_dropShadow"/>
<feBlend mode="normal" in="SourceGraphic" in2="effect1_dropShadow" result="shape"/>
</filter>
</defs>
</svg>
