<svg viewBox="0 0 168 198" fill="none" xmlns="http://www.w3.org/2000/svg">
<rect x="10.5024" y="50.3538" width="149.017" height="99.4255" rx="4" fill="white"/>
<rect x="12.4539" y="51.7574" width="145.114" height="95.3051" rx="2" fill="#F1F3F5"/>
<path d="M155.568 51.7572H14.4539C13.3493 51.7572 12.4539 52.6526 12.4539 53.7572V64.0723H157.568V53.7572C157.568 52.6526 156.672 51.7572 155.568 51.7572Z" fill="#E5E9EC"/>
<path d="M102.406 58.4973L102.396 58.4933L102.385 58.4915C102.145 58.4514 101.935 58.5736 101.852 58.781L101.852 58.7807L101.848 58.7939C101.817 58.9174 101.739 59.1527 101.614 59.3712C101.527 59.5239 101.423 59.6574 101.305 59.7436C101.307 59.7365 101.308 59.7294 101.31 59.7224C101.326 59.6437 101.341 59.5763 101.356 59.5339L101.356 59.534L101.358 59.5265C101.361 59.5123 101.365 59.4981 101.368 59.484C101.428 59.2453 101.483 59.0275 101.487 58.849C101.489 58.7524 101.477 58.6593 101.439 58.576C101.399 58.4909 101.335 58.4229 101.245 58.3728C101.127 58.3057 100.97 58.2296 100.788 58.2296C100.601 58.2296 100.405 58.3099 100.211 58.5211C100.168 58.5639 100.138 58.6153 100.111 58.6619C100.11 58.6644 100.108 58.6669 100.107 58.6694C100.079 58.7166 100.05 58.7665 100.007 58.8233L100.002 58.8305L99.9979 58.8386C99.8674 59.0995 99.651 59.496 99.321 59.7082C99.2899 59.7234 99.2244 59.7522 99.1594 59.7738C99.1251 59.7852 99.0942 59.7935 99.0702 59.7974C99.0601 59.799 99.0529 59.7996 99.0484 59.7996L99.0353 59.7931H99.0117C99.0122 59.7931 99.012 59.793 99.011 59.7928C99.0079 59.7922 98.9968 59.79 98.9761 59.7826C98.9522 59.7741 98.9234 59.7616 98.8935 59.7466C98.8304 59.7151 98.7772 59.6802 98.7564 59.6595C98.7529 59.656 98.7497 59.6527 98.7466 59.6496C100.441 57.9912 100.547 56.5559 100.513 56.1071C100.48 55.6417 100.345 55.2777 100.08 55.0885L100.074 55.084L100.067 55.0805C100.018 55.0562 99.9634 55.0464 99.918 55.0419C99.8723 55.0373 99.8274 55.0373 99.7955 55.0373L99.794 55.0373H99.7838L99.7738 55.0394C99.2631 55.145 98.8589 55.4969 98.5482 56.0927C98.2388 56.6861 98.0168 57.5302 97.8696 58.6422L97.8687 58.642V58.6553V58.6555V58.6557V58.6559V58.6561V58.6562V58.6564V58.6566V58.6568V58.657V58.6572V58.6574V58.6576V58.6578V58.658V58.6582V58.6583V58.6585V58.6587V58.6589V58.6591V58.6593V58.6595V58.6597V58.6599V58.6601V58.6603V58.6604V58.6606V58.6608V58.661V58.6612V58.6614V58.6616V58.6618V58.662V58.6622V58.6624V58.6625V58.6627V58.6629V58.6631V58.6633V58.6635V58.6637V58.6639V58.6641V58.6643V58.6645V58.6646V58.6648V58.665V58.6652V58.6654V58.6656V58.6658V58.666V58.6662V58.6664V58.6666V58.6667V58.6669V58.6671V58.6673V58.6675V58.6677V58.6679V58.6681V58.6683V58.6685V58.6687V58.6688V58.669V58.6692V58.6694V58.6696V58.6698V58.67V58.6702V58.6704V58.6706V58.6708V58.6709V58.6711V58.6713V58.6715V58.6717V58.6719V58.6721V58.6723V58.6725V58.6727V58.6729V58.673V58.6732V58.6734V58.6736V58.6738V58.674V58.6742V58.6744V58.6746V58.6748V58.675V58.6751V58.6753V58.6755V58.6757V58.6759V58.6761V58.6763V58.6765V58.6767V58.6769V58.6771V58.6772V58.6774V58.6776V58.6778V58.678V58.6782V58.6784V58.6786V58.6788V58.679V58.6792V58.6793V58.6795V58.6797V58.6799V58.6801V58.6803V58.6805V58.6807V58.6809V58.6811V58.6813V58.6814V58.6816V58.6818V58.682V58.6822V58.6824V58.6826V58.6828V58.683V58.6832V58.6834V58.6835V58.6837V58.6839V58.6841V58.6843V58.6845V58.6847V58.6849V58.6851V58.6853V58.6855V58.6856V58.6858V58.686V58.6862V58.6864V58.6866V58.6868V58.687V58.6872V58.6874V58.6875V58.6877V58.6879V58.6881V58.6883V58.6885V58.6887V58.6889V58.6891V58.6893V58.6895V58.6896V58.6898V58.69V58.6902V58.6904V58.6906V58.6908V58.691V58.6912V58.6914V58.6916V58.6917V58.6919V58.6921V58.6923V58.6925V58.6927V58.6929V58.6931V58.6933V58.6935V58.6937V58.6938V58.694V58.6942V58.6944V58.6946V58.6948V58.695V58.6952V58.6954V58.6956V58.6958V58.6959V58.6961V58.6963V58.6965V58.6967V58.6969V58.6971V58.6973V58.6975V58.6977V58.6979V58.698V58.6982V58.6984V58.6986V58.6988V58.699V58.6992V58.6994V58.6996V58.6998V58.7V58.7001V58.7003V58.7005V58.7007V58.7009V58.7011V58.7013V58.7015V58.7017V58.7019V58.7021V58.7022V58.7024V58.7026V58.7028V58.703V58.7032V58.7034V58.7036V58.7038V58.704V58.7042V58.7043V58.7045V58.7047V58.7049V58.7051V58.7053V58.7055V58.7057V58.7059V58.7061V58.7063V58.7064V58.7066V58.7068V58.707V58.7072V58.7074V58.7076V58.7078V58.708V58.7082V58.7084V58.7085V58.7087V58.7089V58.7091V58.7093V58.7095V58.7097V58.7099V58.7101V58.7103V58.7104V58.7106V58.7108V58.711V58.7112V58.7114V58.7116V58.7118V58.712V58.7122V58.7124V58.7125V58.7127V58.7129V58.7131V58.7133V58.7135V58.7137V58.7139V58.7141V58.7143V58.7145V58.7146V58.7148V58.715V58.7152V58.7154V58.7156V58.7158V58.716V58.7162V58.7164V58.7166V58.7167V58.7169V58.7171V58.7173V58.7175V58.7177V58.7179V58.7181V58.7183V58.7185V58.7187V58.7188V58.719V58.7192V58.7194V58.7196V58.7198V58.72V58.7202V58.7204V58.7206V58.7208V58.7209V58.7211V58.7213V58.7215V58.7217V58.7219V58.7221V58.7223V58.7225V58.7227V58.7229V58.723V58.7232V58.7234V58.7236V58.7238V58.724V58.7242V58.7244V58.7246V58.7248V58.725V58.7251V58.7253V58.7255V58.7257V58.7259V58.7261V58.7263V58.7265V58.7267V58.7269V58.7271V58.7272V58.7274V58.7276V58.7278V58.728V58.7282V58.7284V58.7286V58.7288V58.729V58.7292V58.7293V58.7295V58.7297V58.7299V58.7301V58.7303V58.7305V58.7307V58.7309V58.7311V58.7313V58.7314V58.7316V58.7318V58.732V58.7322V58.7324V58.7326V58.7328V58.733V58.7332V58.7334V58.7335V58.7337V58.7339V58.7341V58.7343V58.7345V58.7347V58.7349V58.7351V58.7353V58.7355V58.7356V58.7358V58.736V58.7362V58.7364V58.7366V58.7368V58.737V58.7372V58.7374V58.7375V58.7377V58.7379V58.7381V58.7383V58.7385V58.7387V58.7389V58.7391V58.7393V58.7395V58.7396V58.7398V58.74V58.7402V58.7404V58.7406V58.7408V58.741V58.7412V58.7414V58.7416V58.7417V58.7419V58.7421V58.7423V58.7425V58.7427V58.7429V58.743C97.8659 58.7567 97.8629 58.7713 97.8597 58.7866C97.828 58.9382 97.7803 59.1669 97.7988 59.423C97.7632 59.4521 97.7323 59.4831 97.705 59.5103L97.7024 59.5129C97.6606 59.5547 97.6266 59.5882 97.5873 59.6144L97.5869 59.6138L97.5777 59.6217C97.5139 59.6763 97.4585 59.7226 97.4107 59.7616C97.4784 59.5761 97.4261 59.3664 97.2378 59.2536L97.2378 59.2536C97.0364 59.1328 96.7775 59.1675 96.6462 59.3825C96.5205 59.5634 96.4504 59.803 96.4549 60.0335C96.4593 60.2653 96.54 60.5011 96.7328 60.6552L96.7411 60.6618L96.7505 60.6666L96.7523 60.6675C96.8192 60.7009 96.9671 60.7749 97.1538 60.7749C97.4132 60.7749 97.7552 60.6312 98.147 60.2778L98.1588 60.2896C98.2327 60.3635 98.3638 60.4586 98.5086 60.5352C98.65 60.61 98.8196 60.6754 98.9729 60.6771C99.124 60.6944 99.3011 60.6567 99.4541 60.6071C99.6113 60.5562 99.7568 60.488 99.8454 60.4349L99.8455 60.435L99.8495 60.4324C100.071 60.2845 100.252 60.0977 100.398 59.9102C100.391 59.9571 100.386 60.0019 100.383 60.0449C100.37 60.2319 100.395 60.3964 100.494 60.5363C100.537 60.6008 100.6 60.6512 100.663 60.6856C100.725 60.7188 100.796 60.7408 100.863 60.7422C101.284 60.7932 101.67 60.6506 101.985 60.3526C102.3 60.0557 102.543 59.6066 102.693 59.0421C102.779 58.7792 102.597 58.5735 102.406 58.4973ZM99.4083 56.3439C99.4903 56.2064 99.5783 56.0962 99.6722 56.0164C99.6852 56.0753 99.694 56.1459 99.694 56.2448C99.694 56.5236 99.6179 57.325 98.8072 58.3745C98.8829 57.9125 98.9816 57.4375 99.115 57.0248C99.1993 56.7643 99.2963 56.5317 99.4083 56.3439ZM102.565 58.4296C102.876 58.4296 103.121 58.1942 103.121 57.9061C103.121 57.758 103.047 57.6267 102.945 57.5347C102.844 57.4428 102.706 57.3826 102.565 57.3826C102.254 57.3826 102.008 57.618 102.008 57.9061C102.008 58.1942 102.254 58.4296 102.565 58.4296Z" fill="#CFD4DA" stroke="#CFD4DA" stroke-width="0.2"/>
<path fill-rule="evenodd" clip-rule="evenodd" d="M125.562 57.0839L123.222 57.9059L125.562 58.604L126.468 61.1378L127.368 58.604L129.712 57.9059L127.368 57.0839L126.468 54.6741L125.562 57.0839Z" fill="#CFD4DA"/>
<path d="M72.5795 60.4499C72.5448 60.484 72.4767 60.551 72.4091 60.551C72.4091 60.551 70.7976 60.8949 70.7046 60.8901C70.6272 60.9033 70.4845 60.896 70.4281 60.8399C70.3551 60.7678 70.3326 60.7125 70.3624 60.5623L70.6715 58.8252C70.6715 58.7574 70.7054 58.7233 70.7729 58.6556L70.774 58.6545L73.0725 56.3724L74.3072 55.1458C74.6159 54.8393 75.1646 54.8393 75.4732 55.1458L76.1134 55.7816C76.2506 55.9179 76.3535 56.1563 76.3535 56.3607C76.3535 56.565 76.2849 56.7694 76.1134 56.9401L72.5806 60.4488L72.5795 60.4499Z" fill="#CFD4DA"/>
<path d="M150.909 61.4798H137.736C135.943 61.4798 134.489 60.3778 134.489 59.0183V56.8114C134.489 55.452 135.943 54.35 137.736 54.35H150.909C152.702 54.35 154.156 55.452 154.156 56.8114V59.0183C154.156 60.3777 152.702 61.4798 150.909 61.4798Z" fill="#F3F4F5"/>
<path d="M23.3487 54.9888H17.5122V60.8214H23.3487V54.9888Z" fill="#CFD4DA"/>
<path d="M63.3015 57.906L60.0591 54.6656L56.8166 57.906L60.0591 61.1463L63.3015 57.906Z" fill="#CFD4DA"/>
<path d="M33.3162 60.8222C31.7045 60.8222 30.3979 59.5165 30.3979 57.9059C30.3979 56.2952 31.7045 54.9895 33.3162 54.9895C34.9279 54.9895 36.2345 56.2952 36.2345 57.9059C36.2344 59.5165 34.9279 60.8222 33.3162 60.8222Z" fill="#CFD4DA"/>
<path d="M46.5252 55.3137L43.2827 60.4983H49.7678L46.5252 55.3137Z" fill="#CFD4DA"/>
<rect width="1.82756" height="6.80222" rx="0.913782" transform="matrix(0.707846 -0.706367 0.707846 0.706367 83.4019 56.1476)" fill="#CFD4DA"/>
<rect width="1.82757" height="6.80223" rx="0.913783" transform="matrix(0.706598 0.707615 -0.706598 0.707615 88.2134 54.856)" fill="#CFD4DA"/>
<path fill-rule="evenodd" clip-rule="evenodd" d="M113.529 61.3013C112.844 61.2851 112.195 60.9893 111.734 60.4827L110.878 59.6083L110.349 59.0688C110.048 58.7857 109.982 58.3325 110.189 57.9749C110.447 57.5827 110.924 57.3938 111.381 57.5024C111.497 57.5383 111.61 57.587 111.716 57.6475L111.861 57.748V55.4076C111.877 54.8947 112.304 54.4909 112.818 54.5035C113.086 54.4989 113.345 54.6052 113.533 54.7974C113.582 54.85 113.625 54.9088 113.659 54.9723C113.91 54.8697 114.193 54.8784 114.437 54.9962C114.681 55.114 114.864 55.3298 114.94 55.5899C115.044 55.5525 115.154 55.5336 115.264 55.5341C115.507 55.5255 115.745 55.6138 115.923 55.7797C116.092 55.9441 116.183 56.1729 116.172 56.4085C116.172 56.8215 116.172 57.6401 116.172 57.6401V57.9414C116.172 58.2317 116.172 58.533 116.172 58.8344C116.136 59.7629 115.587 60.5943 114.746 60.9925C114.37 61.1932 113.952 61.3016 113.525 61.3087" fill="#CFD4DA"/>
<path opacity="0.3" d="M61.771 116.315H104.452V142.871V150.424C98.6642 150.424 61.771 149.841 61.771 149.841V116.315Z" fill="url(#paint0_linear)"/>
<path fill-rule="evenodd" clip-rule="evenodd" d="M5.29033 50.0343C4.39185 53.3722 4.3593 56.7053 4.8734 59.1558C6.63704 67.5625 11.9243 71.4476 16.9897 73.1062C22.8205 75.0154 25.685 73.7802 26.5917 72.1292C27.5549 70.3755 26.6878 68.4787 25.9326 66.8268C25.389 65.6378 24.9034 64.5756 25.2001 63.7849C26.294 60.8696 28.4601 61.2879 31.1143 61.8004C33.5248 62.2659 36.3381 62.8092 39.1164 61.0034C42.1112 59.057 43.751 54.5986 43.1654 50.0343H5.29033Z" fill="url(#paint1_linear)" fill-opacity="0.8"/>
<path d="M71.7882 23.4129L54.4517 0L37.1152 23.4129H44.2182V117.245H64.6853V23.4129H71.7882Z" fill="url(#paint2_linear)"/>
<path d="M100.861 35.3748L89.7802 20.4098L78.6992 35.3748H83.2392V95.3499H96.3212V35.3748H100.861Z" fill="url(#paint3_linear)"/>
<path d="M76.2803 164.348C76.2803 164.348 42.4349 168.776 21.7685 168.776C-4.06445 168.776 -10.2819 187.373 21.7685 187.373C42.4349 187.373 65.6846 198 95.3926 198C127.684 198 130.913 184.716 150.934 184.716C170.954 184.716 179.859 164.348 140.6 164.348C110.11 164.348 99.7925 164.348 76.2803 164.348Z" fill="url(#paint4_radial)"/>
<path opacity="0.7" d="M148.656 175.479C148.656 178.86 119.657 178.229 83.8847 178.229C48.1123 178.229 19.113 178.86 19.113 175.479C19.113 172.098 48.1123 169.357 83.8847 169.357C119.657 169.357 148.656 172.098 148.656 175.479Z" fill="url(#paint5_radial)"/>
<path d="M20.7882 60.0527C22.8757 54.4898 28.8671 61.0652 34.7045 57.2712C42.4576 52.2323 41.1294 30.3581 15.6184 33.3939C1.81581 35.0365 -0.964581 48.6259 0.461536 55.4236C2.22517 63.8303 7.51239 67.7154 12.5779 69.374C18.4087 71.2832 21.2731 70.048 22.1799 68.397C23.8364 65.3809 20.0793 61.9419 20.7882 60.0527Z" fill="url(#paint6_radial)"/>
<path d="M25.8432 40.721C26.0783 39.3457 24.7814 37.9767 22.9463 37.6634C21.1113 37.3501 19.4331 38.2111 19.1979 39.5865C18.9628 40.9618 20.2598 42.3308 22.0948 42.6441C23.9299 42.9574 25.6081 42.0964 25.8432 40.721Z" fill="#FF4949"/>
<path d="M33.2919 47.7421C34.0807 46.8144 33.7156 45.2117 32.4764 44.1624C31.2371 43.1131 29.5931 43.0145 28.8043 43.9422C28.0154 44.8699 28.3806 46.4726 29.6198 47.5219C30.859 48.5712 32.5031 48.6698 33.2919 47.7421Z" fill="#FFD961"/>
<path d="M15.718 44.758C16.012 43.0385 14.3905 41.3271 12.0964 40.9355C9.80236 40.5438 7.70435 41.6202 7.41041 43.3396C7.11646 45.059 8.7379 46.7704 11.032 47.1621C13.3261 47.5537 15.4241 46.4774 15.718 44.758Z" fill="#15D996"/>
<path d="M7.77146 56.1539C9.86584 56.1539 11.5637 54.8814 11.5637 53.3116C11.5637 51.7419 9.86584 50.4694 7.77146 50.4694C5.67708 50.4694 3.97925 51.7419 3.97925 53.3116C3.97925 54.8814 5.67708 56.1539 7.77146 56.1539Z" fill="#09BDF8"/>
<path d="M14.9153 60.552C15.0562 61.7648 13.8587 62.9001 12.2406 63.0878C10.6225 63.2755 9.19656 62.4446 9.05569 61.2318C8.91482 60.019 10.1123 58.8837 11.7304 58.696C13.3485 58.5083 14.7744 59.3393 14.9153 60.552Z" fill="url(#paint7_linear)"/>
<g opacity="0.6">
<path opacity="0.6" d="M68.3737 80.1226H27.7722V82.376H68.3737V80.1226ZM68.3737 87.7564H27.7722V90.0098H68.3737V87.7564ZM68.3737 95.3902H27.7722V97.6437H68.3737V95.3902ZM65.3714 104.024H27.7722V106.278H65.3714V104.024Z" fill="url(#paint8_linear)"/>
<path opacity="0.5" d="M51.7084 87.8237H47.1841V90.0769H51.7084V87.8237Z" fill="url(#paint9_linear)"/>
<path opacity="0.5" d="M53.782 79.0386H39.1406V83.2761H53.782V79.0386Z" fill="url(#paint10_linear)"/>
<path opacity="0.5" d="M65.0947 102.389H49.2576V106.775H65.0947V102.389Z" fill="url(#paint11_linear)"/>
<path opacity="0.5" d="M41.293 95.2544H35.072V98.011H41.293V95.2544Z" fill="url(#paint12_linear)"/>
<path opacity="0.5" d="M61.1351 79.9977H58.3074V82.2508H61.1351V79.9977Z" fill="url(#paint13_linear)"/>
<path opacity="0.5" d="M33.4282 87.8236H31.166V90.0768H33.4282V87.8236Z" fill="url(#paint14_linear)"/>
<path opacity="0.5" d="M71.125 79.9977H65.0947V82.2508H71.125V79.9977Z" fill="url(#paint15_linear)"/>
<path opacity="0.5" d="M89.1673 95.2544H54.2825V98.0114H89.1673V95.2544Z" fill="url(#paint16_linear)"/>
<path opacity="0.5" d="M68.8316 87.8237H58.4963V90.0772H68.8316V87.8237Z" fill="url(#paint17_linear)"/>
<path d="M90.7058 77.4734L87.3611 74.1419L81.5077 79.9719L75.6543 74.1419L72.3094 77.4734L78.1628 83.3032L72.3094 89.1332L75.6543 92.4647L81.5077 86.6347L87.3611 92.4647L90.7058 89.1332L84.8524 83.3032L90.7058 77.4734Z" fill="#FF4949"/>
</g>
<path d="M114.286 31.9495L115.55 37.2271C115.892 38.654 116.919 39.7683 118.235 40.1389L123.101 41.5097L118.235 42.8805C116.919 43.2511 115.892 44.3654 115.55 45.7922L114.286 51.0699L113.022 45.7922C112.681 44.3654 111.653 43.2511 110.337 42.8805L105.471 41.5097L110.337 40.1389C111.653 39.7683 112.68 38.654 113.022 37.2271L114.286 31.9495Z" fill="url(#paint18_linear)"/>
<path d="M103.237 20.5658L103.983 23.4384C104.185 24.2151 104.792 24.8216 105.569 25.0233L108.444 25.7694L105.569 26.5156C104.792 26.7173 104.185 27.3237 103.983 28.1004L103.237 30.973L102.49 28.1004C102.288 27.3237 101.681 26.7172 100.904 26.5156L98.0298 25.7694L100.904 25.0233C101.681 24.8215 102.288 24.2151 102.49 23.4384L103.237 20.5658Z" fill="url(#paint19_linear)"/>
<path d="M61.0377 23.8734L61.656 26.2525C61.8231 26.8957 62.3258 27.398 62.9694 27.565L65.35 28.1829L62.9694 28.8008C62.3258 28.9679 61.8231 29.4702 61.656 30.1134L61.0377 32.4925L60.4194 30.1134C60.2522 29.4702 59.7496 28.9679 59.106 28.8008L56.7253 28.1829L59.106 27.565C59.7496 27.398 60.2522 26.8957 60.4194 26.2525L61.0377 23.8734Z" fill="url(#paint20_linear)"/>
<path d="M97.7126 110.61H69.6841C68.4215 110.61 67.3979 111.633 67.3979 112.895V159.053C67.3979 160.315 68.4215 161.338 69.6841 161.338H107.673C108.936 161.338 109.959 160.315 109.959 159.053V122.785L97.7126 110.61Z" fill="url(#paint21_linear)"/>
<path d="M99.7828 122.805H109.959L97.7476 110.602V120.771C97.7476 121.895 98.6587 122.805 99.7828 122.805Z" fill="url(#paint22_linear)"/>
<path d="M81.9242 137.401H81.1753V139.417H79.4277V132.53H81.9444C84.022 132.53 85.0206 133.368 85.0206 134.915C85.0205 136.452 83.9215 137.401 81.9242 137.401ZM81.9242 133.987H81.1753V136.033H81.9143C82.8333 136.033 83.263 135.624 83.263 134.985C83.263 134.347 82.8432 133.987 81.9242 133.987Z" fill="white"/>
<path d="M88.1828 139.417H85.7559V132.53H88.1828C90.8595 132.53 92.3172 133.578 92.3172 135.894C92.3173 138.119 90.919 139.417 88.1828 139.417ZM88.1628 134.007H87.5034V137.91H88.1628C89.7906 137.91 90.5396 137.23 90.5396 135.904C90.5395 134.616 89.7905 134.007 88.1628 134.007Z" fill="white"/>
<path d="M97.9289 134.007H94.8928V135.704H97.639V137.182H94.8928V139.417H93.1453V132.53H97.9289C97.9289 132.53 97.9289 134.007 97.9289 134.007Z" fill="white"/>
<path opacity="0.3" d="M113.59 77.4731H156.271V105.421V133.37H117.176C115.196 133.37 113.59 131.681 113.59 129.598V77.4731Z" fill="url(#paint23_linear)"/>
<path d="M164.548 129.158H123.02C122.023 129.158 121.215 128.283 121.215 127.203V73.803C121.215 72.723 122.023 71.8475 123.02 71.8475H164.548C165.545 71.8475 166.353 72.723 166.353 73.803V127.203C166.353 128.283 165.545 129.158 164.548 129.158Z" fill="url(#paint24_linear)"/>
<path d="M164.548 128.658H123.02C122.336 128.658 121.715 128.045 121.715 127.203V73.803C121.715 72.9607 122.336 72.3475 123.02 72.3475H164.548C165.232 72.3475 165.853 72.9607 165.853 73.803V127.203C165.853 128.045 165.232 128.658 164.548 128.658Z" stroke="white" stroke-opacity="0.5"/>
<path d="M158.434 93.4574H129.346C128.693 93.4574 128.164 93.9865 128.164 94.6395C128.164 95.2923 128.693 95.8216 129.346 95.8216H158.434C159.087 95.8216 159.617 95.2924 159.617 94.6395C159.617 93.9866 159.087 93.4574 158.434 93.4574ZM158.434 86.9227H129.346C128.693 86.9227 128.164 87.4519 128.164 88.1049C128.164 88.7577 128.693 89.287 129.346 89.287H158.434C159.087 89.287 159.617 88.7578 159.617 88.1049C159.617 87.4519 159.087 86.9227 158.434 86.9227ZM158.434 99.9963H129.346C128.693 99.9963 128.164 100.525 128.164 101.178C128.164 101.831 128.693 102.361 129.346 102.361H158.434C159.087 102.361 159.617 101.831 159.617 101.178C159.617 100.525 159.087 99.9963 158.434 99.9963ZM134.917 106.535H129.346C128.693 106.535 128.164 107.064 128.164 107.717C128.164 108.37 128.693 108.899 129.346 108.899H134.917C135.57 108.899 136.1 108.37 136.1 107.717C136.1 107.064 135.57 106.535 134.917 106.535ZM134.917 113.074H129.346C128.693 113.074 128.164 113.603 128.164 114.256C128.164 114.909 128.693 115.438 129.346 115.438H134.917C135.57 115.438 136.1 114.909 136.1 114.256C136.1 113.603 135.57 113.074 134.917 113.074Z" fill="white"/>
<path d="M158.555 80.0466H129.467C128.814 80.0466 128.284 80.5758 128.284 81.2288C128.284 81.8816 128.814 82.4109 129.467 82.4109H158.555C159.208 82.4109 159.738 81.8817 159.738 81.2288C159.738 80.5758 159.208 80.0466 158.555 80.0466Z" fill="white"/>
<path d="M156.634 121.068H153.495L150.709 112.639H150.671L147.885 121.068H144.726L141.624 108.257H144.987L146.565 116.37H146.603L149.092 108.257H152.269L154.777 116.37H154.815L156.393 108.257H159.738L156.634 121.068Z" fill="url(#paint25_linear)"/>
<path opacity="0.7" d="M123.794 115.424L123.807 118.237C123.049 118.276 122.307 118.407 121.586 118.603V122.793C121.841 122.773 122.099 122.76 122.36 122.759C122.859 122.757 123.346 122.802 123.827 122.869V122.869L123.841 126.028L130.322 120.698L123.794 115.424Z" fill="url(#paint26_linear)"/>
<path d="M119.972 108.257L119.991 112.718C111.808 113.132 104.555 119.703 103.854 127.744C106.694 123.062 111.817 119.913 117.697 119.888C118.489 119.884 119.261 119.957 120.023 120.062V120.062L120.045 125.072L130.322 116.619L119.972 108.257Z" fill="url(#paint27_linear)"/>
<path d="M44.6946 54.6741L46.2524 57.3713L49.3007 58.0185L47.2152 60.3326L47.5413 63.4297L44.6946 62.1627L41.8478 63.4297L42.1739 60.3326L40.0884 58.0185L43.1368 57.3713L44.6946 54.6741Z" fill="url(#paint28_radial)"/>
<path d="M36.7465 72.7347L36.7378 70.7517C40.3756 70.568 43.5996 67.6469 43.9113 64.0725C42.6486 66.1538 40.3715 67.5533 37.7577 67.5648C37.4057 67.5664 37.0623 67.5342 36.7236 67.4872V67.4873L36.7138 65.2605L32.1455 69.0176L36.7465 72.7347Z" fill="url(#paint29_linear)"/>
<path d="M149.307 41.1516H141.897C141.184 41.1516 140.508 41.4691 140.054 42.0172L135.503 47.5014C135.117 47.9674 135.139 48.6484 135.555 49.0882L144.733 58.7798C144.968 59.0292 145.285 59.1539 145.602 59.1539C145.919 59.1539 146.236 59.0292 146.471 58.7798L155.649 49.0882C156.065 48.6484 156.087 47.9674 155.701 47.5014L151.15 42.0172C150.696 41.4691 150.02 41.1516 149.307 41.1516Z" fill="url(#paint30_linear)"/>
<path d="M155.455 48.7757L150.94 47.9553C150.227 47.9553 146.058 58.2318 145.603 58.7799L141.908 47.9553L135.556 49.0883L144.733 58.7799C144.969 59.0294 145.286 59.1541 145.603 59.1541C145.92 59.1541 146.236 59.0294 146.472 58.7799L155.65 49.0883C156.066 48.6486 156.088 47.9676 155.702 47.5024L151.151 42.0174C150.697 41.4693 156.168 48.7757 155.455 48.7757Z" fill="url(#paint31_linear)"/>
<path d="M145.601 35.1703C145.106 35.1703 144.703 35.5715 144.703 36.067V38.46C144.703 38.9555 145.106 39.3575 145.601 39.3575C146.097 39.3575 146.5 38.9555 146.5 38.46V36.067C146.5 35.5715 146.097 35.1703 145.601 35.1703Z" fill="url(#paint32_linear)"/>
<path d="M136.921 37.4165C136.707 37.4165 136.492 37.4928 136.32 37.647C135.952 37.9785 135.922 38.5462 136.254 38.9145L137.856 40.6923C138.034 40.8892 138.278 40.9893 138.524 40.9893C138.738 40.9893 138.952 40.9138 139.124 40.7587C139.492 40.4273 139.523 39.8604 139.19 39.4921L137.589 37.7135C137.411 37.5166 137.167 37.4165 136.921 37.4165Z" fill="url(#paint33_linear)"/>
<path d="M154.282 37.4169C154.036 37.4169 153.792 37.517 153.614 37.7138L152.012 39.4924C151.68 39.8608 151.71 40.4277 152.079 40.7591C152.25 40.9141 152.465 40.9896 152.679 40.9896C152.925 40.9896 153.17 40.8895 153.347 40.6926L154.949 38.9149C155.281 38.5465 155.251 37.9788 154.883 37.6474C154.711 37.4932 154.496 37.4169 154.282 37.4169Z" fill="url(#paint34_linear)"/>
<path d="M149.307 41.1516H141.897C141.184 41.1516 140.508 41.4691 140.053 42.0172L135.503 47.5014C135.117 47.9674 135.139 48.6484 135.555 49.0882L144.732 58.7798C144.968 59.0292 145.285 59.1539 145.602 59.1539C145.919 59.1539 146.235 59.0292 146.472 58.7798L155.649 49.0882C156.065 48.6484 156.087 47.9674 155.701 47.5014L151.151 42.0172C150.696 41.4691 150.02 41.1516 149.307 41.1516Z" fill="url(#paint35_linear)"/>
<path d="M149.307 41.1516H141.897C141.184 41.1516 140.508 41.4691 140.054 42.0172L135.503 47.5014C135.117 47.9674 135.139 48.6484 135.555 49.0882L144.733 58.7798C144.968 59.0292 145.285 59.1539 145.602 59.1539C145.919 59.1539 146.235 59.0292 146.472 58.7798L155.649 49.0882C156.065 48.6484 156.087 47.9674 155.701 47.5014L151.151 42.0172C150.696 41.4691 150.02 41.1516 149.307 41.1516Z" fill="url(#paint36_linear)"/>
<path d="M136.16 48.3663L145.602 58.6224L140.676 48.3663H136.16Z" fill="url(#paint37_linear)"/>
<path d="M141.907 48.3663L145.602 58.6224L149.297 48.3663H141.907Z" fill="url(#paint38_linear)"/>
<path d="M155.044 48.3663L145.602 58.6224L150.528 48.3663H155.044Z" fill="url(#paint39_linear)"/>
<path d="M141.496 42.2118L136.981 47.545H154.222L149.707 42.2118H141.496Z" fill="url(#paint40_linear)"/>
<rect x="0.544932" y="120.895" width="41.7394" height="21.9715" rx="1.25394" stroke="#71BFD5" stroke-width="0.835957" stroke-linejoin="round" stroke-dasharray="2.51 1.67"/>
<path d="M26.5021 133.443H33.8164L31.2378 136.02C30.6755 136.582 30.6755 137.49 31.2378 138.052C31.8002 138.614 32.7091 138.614 33.2714 138.052L38.3048 133.022C38.4371 132.889 38.5421 132.73 38.6154 132.555C38.7607 132.202 38.7607 131.807 38.6154 131.457C38.5421 131.281 38.4371 131.122 38.3048 130.989L33.2714 125.959C32.9909 125.679 32.6228 125.538 32.2546 125.538C31.8864 125.538 31.5183 125.679 31.2378 125.959C30.6755 126.521 30.6755 127.43 31.2378 127.991L33.8164 130.568H26.5021C25.7068 130.568 25.064 131.212 25.064 132.006C25.064 132.799 25.7068 133.443 26.5021 133.443Z" fill="#15D996"/>
<defs>
<linearGradient id="paint0_linear" x1="70.1012" y1="169.427" x2="70.1012" y2="116.315" gradientUnits="userSpaceOnUse">
<stop stop-color="#364F7F" stop-opacity="0.1"/>
<stop offset="0.1767" stop-color="#364F7F" stop-opacity="0.3"/>
<stop offset="1" stop-color="#364F7F" stop-opacity="0.4"/>
</linearGradient>
<linearGradient id="paint1_linear" x1="23.9109" y1="36.8384" x2="23.9109" y2="74.0728" gradientUnits="userSpaceOnUse">
<stop stop-color="#C9C7C7" stop-opacity="0"/>
<stop offset="1" stop-color="#C9C7C7"/>
</linearGradient>
<linearGradient id="paint2_linear" x1="54.4517" y1="117.245" x2="54.4517" y2="0" gradientUnits="userSpaceOnUse">
<stop stop-color="#E7EFF6" stop-opacity="0"/>
<stop offset="1" stop-color="#E4F4FF"/>
</linearGradient>
<linearGradient id="paint3_linear" x1="89.7802" y1="95.3499" x2="89.7802" y2="20.4098" gradientUnits="userSpaceOnUse">
<stop stop-color="#E7EFF6" stop-opacity="0"/>
<stop offset="1" stop-color="#E4F4FF"/>
</linearGradient>
<radialGradient id="paint4_radial" cx="0" cy="0" r="1" gradientUnits="userSpaceOnUse" gradientTransform="translate(83.7206 178.358) scale(97.4022 24.1543)">
<stop offset="0.0029" stop-color="#2651A1" stop-opacity="0.3"/>
<stop offset="1" stop-color="#2651A1" stop-opacity="0"/>
</radialGradient>
<radialGradient id="paint5_radial" cx="0" cy="0" r="1" gradientUnits="userSpaceOnUse" gradientTransform="translate(83.8848 173.824) scale(59.9667 5.72543)">
<stop stop-color="#22478C" stop-opacity="0.7"/>
<stop offset="0.1306" stop-color="#264B8E" stop-opacity="0.6086"/>
<stop offset="0.2675" stop-color="#335595" stop-opacity="0.5127"/>
<stop offset="0.4074" stop-color="#4867A0" stop-opacity="0.4148"/>
<stop offset="0.5494" stop-color="#657FAF" stop-opacity="0.3154"/>
<stop offset="0.6929" stop-color="#8B9FC3" stop-opacity="0.215"/>
<stop offset="0.8378" stop-color="#B9C6DB" stop-opacity="0.1136"/>
<stop offset="0.9811" stop-color="#EFF3F7" stop-opacity="0.0132"/>
<stop offset="1" stop-color="#F7F9FB" stop-opacity="0"/>
</radialGradient>
<radialGradient id="paint6_radial" cx="0" cy="0" r="1" gradientUnits="userSpaceOnUse" gradientTransform="translate(15.5228 45.8457) rotate(-177.807) scale(24.1907 24.1749)">
<stop stop-color="#FFCB5D"/>
<stop offset="1" stop-color="#FF9057"/>
</radialGradient>
<linearGradient id="paint7_linear" x1="9.0547" y1="61.23" x2="14.914" y2="60.5494" gradientUnits="userSpaceOnUse">
<stop stop-color="#1E3C74"/>
<stop offset="1" stop-color="#2651A1"/>
</linearGradient>
<linearGradient id="paint8_linear" x1="48.073" y1="117.545" x2="48.073" y2="87.1235" gradientUnits="userSpaceOnUse">
<stop stop-color="#BACEE2"/>
<stop offset="1" stop-color="#ABC3DD"/>
</linearGradient>
<linearGradient id="paint9_linear" x1="49.4463" y1="90.0769" x2="49.4463" y2="87.8237" gradientUnits="userSpaceOnUse">
<stop stop-color="#2651A1"/>
<stop offset="1" stop-color="#1E3C74"/>
</linearGradient>
<linearGradient id="paint10_linear" x1="46.4614" y1="83.2761" x2="46.4614" y2="79.0386" gradientUnits="userSpaceOnUse">
<stop stop-color="#2651A1"/>
<stop offset="1" stop-color="#1E3C74"/>
</linearGradient>
<linearGradient id="paint11_linear" x1="57.1761" y1="106.775" x2="57.1761" y2="102.389" gradientUnits="userSpaceOnUse">
<stop stop-color="#2651A1"/>
<stop offset="1" stop-color="#1E3C74"/>
</linearGradient>
<linearGradient id="paint12_linear" x1="38.1825" y1="98.011" x2="38.1825" y2="95.2544" gradientUnits="userSpaceOnUse">
<stop stop-color="#2651A1"/>
<stop offset="1" stop-color="#1E3C74"/>
</linearGradient>
<linearGradient id="paint13_linear" x1="59.7213" y1="82.2508" x2="59.7213" y2="79.9977" gradientUnits="userSpaceOnUse">
<stop stop-color="#2651A1"/>
<stop offset="1" stop-color="#1E3C74"/>
</linearGradient>
<linearGradient id="paint14_linear" x1="32.2971" y1="90.0768" x2="32.2971" y2="87.8236" gradientUnits="userSpaceOnUse">
<stop stop-color="#2651A1"/>
<stop offset="1" stop-color="#1E3C74"/>
</linearGradient>
<linearGradient id="paint15_linear" x1="68.1098" y1="82.2508" x2="68.1098" y2="79.9977" gradientUnits="userSpaceOnUse">
<stop stop-color="#2651A1"/>
<stop offset="1" stop-color="#1E3C74"/>
</linearGradient>
<linearGradient id="paint16_linear" x1="71.7251" y1="98.0114" x2="71.7251" y2="95.2544" gradientUnits="userSpaceOnUse">
<stop stop-color="#2651A1"/>
<stop offset="1" stop-color="#1E3C74"/>
</linearGradient>
<linearGradient id="paint17_linear" x1="63.664" y1="90.0772" x2="63.664" y2="87.8237" gradientUnits="userSpaceOnUse">
<stop stop-color="#2651A1"/>
<stop offset="1" stop-color="#1E3C74"/>
</linearGradient>
<linearGradient id="paint18_linear" x1="114.286" y1="51.0698" x2="114.286" y2="31.9495" gradientUnits="userSpaceOnUse">
<stop stop-color="#E7EFF6" stop-opacity="0"/>
<stop offset="1" stop-color="#E4F4FF"/>
</linearGradient>
<linearGradient id="paint19_linear" x1="103.237" y1="30.973" x2="103.237" y2="20.5658" gradientUnits="userSpaceOnUse">
<stop stop-color="#E7EFF6" stop-opacity="0"/>
<stop offset="1" stop-color="#E4F4FF"/>
</linearGradient>
<linearGradient id="paint20_linear" x1="61.0377" y1="32.4925" x2="61.0377" y2="23.8734" gradientUnits="userSpaceOnUse">
<stop stop-color="#E7EFF6" stop-opacity="0"/>
<stop offset="1" stop-color="#E4F4FF"/>
</linearGradient>
<linearGradient id="paint21_linear" x1="88.6786" y1="161.338" x2="88.6786" y2="110.61" gradientUnits="userSpaceOnUse">
<stop stop-color="#09BDF8"/>
<stop offset="1" stop-color="#1591D4"/>
</linearGradient>
<linearGradient id="paint22_linear" x1="98.3437" y1="122.21" x2="103.85" y2="116.7" gradientUnits="userSpaceOnUse">
<stop stop-color="#2651A1"/>
<stop offset="1" stop-color="#1E3C74"/>
</linearGradient>
<linearGradient id="paint23_linear" x1="121.921" y1="133.37" x2="121.921" y2="77.4731" gradientUnits="userSpaceOnUse">
<stop stop-color="#364F7F" stop-opacity="0.1"/>
<stop offset="0.1767" stop-color="#364F7F" stop-opacity="0.3"/>
<stop offset="1" stop-color="#364F7F" stop-opacity="0.4"/>
</linearGradient>
<linearGradient id="paint24_linear" x1="143.784" y1="129.158" x2="143.784" y2="71.8476" gradientUnits="userSpaceOnUse">
<stop stop-color="#C9D6E3"/>
<stop offset="1" stop-color="#F0F4F7"/>
</linearGradient>
<linearGradient id="paint25_linear" x1="141.624" y1="114.663" x2="159.738" y2="114.663" gradientUnits="userSpaceOnUse">
<stop stop-color="#09BDF8"/>
<stop offset="1" stop-color="#1591D4"/>
</linearGradient>
<linearGradient id="paint26_linear" x1="125.954" y1="126.028" x2="125.954" y2="115.424" gradientUnits="userSpaceOnUse">
<stop offset="0.4163" stop-color="#7B8CAB" stop-opacity="0.1931"/>
<stop offset="0.4257" stop-color="#798AAA" stop-opacity="0.1948"/>
<stop offset="0.5734" stop-color="#5C7097" stop-opacity="0.2219"/>
<stop offset="0.7198" stop-color="#475E8A" stop-opacity="0.2487"/>
<stop offset="0.8631" stop-color="#3A5382" stop-opacity="0.2749"/>
<stop offset="1" stop-color="#364F7F" stop-opacity="0.3"/>
</linearGradient>
<linearGradient id="paint27_linear" x1="117.088" y1="127.744" x2="117.088" y2="108.257" gradientUnits="userSpaceOnUse">
<stop stop-color="#FFCB5D"/>
<stop offset="1" stop-color="#FFA961"/>
</linearGradient>
<radialGradient id="paint28_radial" cx="0" cy="0" r="1" gradientUnits="userSpaceOnUse" gradientTransform="translate(44.6946 59.0519) scale(4.49485 4.49192)">
<stop stop-color="#FF9057"/>
<stop offset="1" stop-color="#FFCB5D"/>
</radialGradient>
<linearGradient id="paint29_linear" x1="38.0285" y1="64.0725" x2="38.0285" y2="72.7347" gradientUnits="userSpaceOnUse">
<stop stop-color="#09BDF8"/>
<stop offset="1" stop-color="#1591D4"/>
</linearGradient>
<linearGradient id="paint30_linear" x1="145.602" y1="59.1227" x2="145.602" y2="41.1204" gradientUnits="userSpaceOnUse">
<stop stop-color="#FFCB5D"/>
<stop offset="1" stop-color="#FFA961"/>
</linearGradient>
<linearGradient id="paint31_linear" x1="145.767" y1="59.1237" x2="145.767" y2="41.1314" gradientUnits="userSpaceOnUse">
<stop offset="0.4115" stop-color="#FFD25D"/>
<stop offset="1" stop-color="#FFA962"/>
</linearGradient>
<linearGradient id="paint32_linear" x1="145.601" y1="39.3501" x2="145.601" y2="35.1629" gradientUnits="userSpaceOnUse">
<stop stop-color="#FFCB5D"/>
<stop offset="1" stop-color="#FFA961"/>
</linearGradient>
<linearGradient id="paint33_linear" x1="137.722" y1="40.9835" x2="137.722" y2="37.4108" gradientUnits="userSpaceOnUse">
<stop stop-color="#FFCB5D"/>
<stop offset="1" stop-color="#FFA961"/>
</linearGradient>
<linearGradient id="paint34_linear" x1="153.481" y1="40.9839" x2="153.481" y2="37.4111" gradientUnits="userSpaceOnUse">
<stop stop-color="#FFCB5D"/>
<stop offset="1" stop-color="#FFA961"/>
</linearGradient>
<linearGradient id="paint35_linear" x1="145.602" y1="59.1539" x2="145.602" y2="41.0983" gradientUnits="userSpaceOnUse">
<stop stop-color="#FFA961"/>
<stop offset="1" stop-color="#FFCB5D"/>
</linearGradient>
<linearGradient id="paint36_linear" x1="145.602" y1="59.1539" x2="145.602" y2="41.0983" gradientUnits="userSpaceOnUse">
<stop stop-color="#FFC752"/>
<stop offset="1" stop-color="#FFB374"/>
</linearGradient>
<linearGradient id="paint37_linear" x1="140.881" y1="58.6053" x2="140.881" y2="48.3492" gradientUnits="userSpaceOnUse">
<stop stop-color="#FFF6A3"/>
<stop offset="1" stop-color="#FF675D" stop-opacity="0.09"/>
</linearGradient>
<linearGradient id="paint38_linear" x1="145.602" y1="58.6053" x2="145.602" y2="48.3492" gradientUnits="userSpaceOnUse">
<stop stop-color="#FFF6A3"/>
<stop offset="1" stop-color="#FF675D" stop-opacity="0.09"/>
</linearGradient>
<linearGradient id="paint39_linear" x1="150.323" y1="58.6053" x2="150.323" y2="48.3492" gradientUnits="userSpaceOnUse">
<stop stop-color="#FFF6A3"/>
<stop offset="1" stop-color="#FF675D" stop-opacity="0.09"/>
</linearGradient>
<linearGradient id="paint40_linear" x1="145.601" y1="47.5368" x2="145.601" y2="42.6163" gradientUnits="userSpaceOnUse">
<stop stop-color="#FF975D" stop-opacity="0.38"/>
<stop offset="1" stop-color="#FFD9B6" stop-opacity="0.67"/>
</linearGradient>
</defs>
</svg>
