<svg viewBox="0 0 168 185" fill="none" xmlns="http://www.w3.org/2000/svg">
<path d="M108.951 23.7901L91.6285 0.38031L74.3057 23.7901H81.4031V117.61H101.854V23.7901H108.951Z" fill="url(#paint0_linear)"/>
<path d="M131.414 30.7505L120.342 15.7874L109.27 30.7505H113.806V90.7176H126.878V30.7505H131.414Z" fill="url(#paint1_linear)"/>
<path d="M76.316 150.644C76.316 150.644 42.4972 155.071 21.847 155.071C-3.96568 155.071 -10.1782 173.666 21.847 173.666C42.4972 173.666 65.7286 184.291 95.4133 184.291C127.679 184.291 130.906 171.009 150.911 171.009C170.915 171.009 179.814 150.644 140.586 150.644C110.119 150.644 99.8098 150.644 76.316 150.644Z" fill="url(#paint2_radial)"/>
<path opacity="0.7" d="M150.499 165.836C150.499 169.217 121.523 168.586 85.7782 168.586C50.0339 168.586 21.0574 169.217 21.0574 165.836C21.0574 162.455 50.0339 159.715 85.7782 159.715C121.523 159.715 150.499 162.455 150.499 165.836Z" fill="url(#paint3_radial)"/>
<path d="M85.7781 151.945C65.8299 151.945 49.6587 135.774 49.6587 115.826V57.5228H121.898V115.826C121.898 135.774 105.726 151.945 85.7781 151.945Z" fill="url(#paint4_linear)"/>
<path d="M62.7847 163.889C55.773 163.889 50.0688 158.185 50.0688 151.173V58.2949C50.0688 51.2832 55.773 45.579 62.7847 45.579H108.772C115.783 45.579 121.487 51.2832 121.487 58.2949V151.173C121.487 158.185 115.783 163.889 108.772 163.889H62.7847Z" fill="#F3F4F5"/>
<path d="M108.771 45.9889C115.557 45.9889 121.077 51.5092 121.077 58.2946V151.173C121.077 157.958 115.557 163.479 108.771 163.479H62.7847C55.9994 163.479 50.4791 157.958 50.4791 151.173V58.2946C50.4791 51.5092 55.9994 45.9889 62.7847 45.9889H108.771ZM108.771 45.1685H62.7847C55.5355 45.1685 49.6587 51.0453 49.6587 58.2946V151.173C49.6587 158.422 55.5355 164.299 62.7847 164.299H108.771C116.021 164.299 121.898 158.422 121.898 151.173V58.2946C121.897 51.0452 116.021 45.1685 108.771 45.1685Z" fill="#F9FAFB"/>
<path d="M52.1938 151.099V58.3681C52.1938 52.478 56.9687 47.7032 62.8588 47.7032H108.698C114.588 47.7032 119.363 52.478 119.363 58.3681V151.099C119.363 156.99 114.588 161.764 108.698 161.764H62.8588C56.9687 161.764 52.1938 156.99 52.1938 151.099Z" fill="#F1F3F5"/>
<path d="M108.698 161.764H62.8585C56.9685 161.764 52.1936 156.99 52.1936 151.099V147.507H119.363V151.099C119.363 156.99 114.588 161.764 108.698 161.764Z" fill="white"/>
<path d="M65.991 153.036V155.587H63.4398V153.036H65.991ZM65.991 151.395H63.4398C62.5336 151.395 61.7991 152.13 61.7991 153.036V155.587C61.7991 156.493 62.5336 157.228 63.4398 157.228H65.991C66.8971 157.228 67.6317 156.493 67.6317 155.587V153.036C67.6317 152.13 66.8971 151.395 65.991 151.395Z" fill="#D9DDE1"/>
<path d="M80.2489 153.036V155.587H77.6978V153.036H80.2489ZM80.2489 151.395H77.6978C76.7916 151.395 76.057 152.13 76.057 153.036V155.587C76.057 156.493 76.7916 157.228 77.6978 157.228H80.2489C81.1551 157.228 81.8896 156.493 81.8896 155.587V153.036C81.8896 152.13 81.155 151.395 80.2489 151.395Z" fill="#D9DDE1"/>
<path d="M93.8584 153.036V155.587H91.3073V153.036H93.8584ZM93.8584 151.395H91.3073C90.4011 151.395 89.6665 152.13 89.6665 153.036V155.587C89.6665 156.493 90.4011 157.228 91.3073 157.228H93.8584C94.7646 157.228 95.4991 156.493 95.4991 155.587V153.036C95.4991 152.13 94.7645 151.395 93.8584 151.395Z" fill="#D9DDE1"/>
<path d="M107.468 153.036V155.587H104.916V153.036H107.468ZM107.468 151.395H104.916C104.01 151.395 103.276 152.13 103.276 153.036V155.587C103.276 156.493 104.01 157.228 104.916 157.228H107.468C108.374 157.228 109.108 156.493 109.108 155.587V153.036C109.108 152.13 108.374 151.395 107.468 151.395Z" fill="#D9DDE1"/>
<path d="M119.997 62.6088H51.5599V74.9223H119.997V62.6088Z" fill="#E5E9EC"/>
<path d="M113.129 72.3299H103.145C101.786 72.3299 100.684 71.2281 100.684 69.8688V67.6622C100.684 66.303 101.786 65.2011 103.145 65.2011H113.129C114.488 65.2011 115.59 66.303 115.59 67.6622V69.8688C115.59 71.228 114.488 72.3299 113.129 72.3299Z" fill="#F3F4F5"/>
<path d="M62.4476 65.8492H56.615V71.6819H62.4476V65.8492Z" fill="#CFD4DA"/>
<path d="M95.1754 68.7645L91.9351 65.5242L88.6947 68.7645L91.9351 72.0048L95.1754 68.7645Z" fill="#CFD4DA"/>
<path d="M70.5483 71.6818C68.9377 71.6818 67.632 70.3761 67.632 68.7654C67.632 67.1548 68.9377 65.8491 70.5483 65.8491C72.159 65.8491 73.4647 67.1548 73.4647 68.7654C73.4646 70.3761 72.159 71.6818 70.5483 71.6818Z" fill="#CFD4DA"/>
<path d="M81.242 65.8492L78.0016 71.0338H84.4824L81.242 65.8492Z" fill="#CFD4DA"/>
<path d="M119.363 62.6089H52.1938V58.3681C52.1938 52.478 56.9687 47.7032 62.8588 47.7032H108.698C114.588 47.7032 119.363 52.478 119.363 58.3681V62.6089H119.363Z" fill="white"/>
<path d="M114.294 52.2398H108.462V58.0724H114.294V52.2398Z" fill="#E9EBED"/>
<path d="M56.6151 55.0482L61.7997 58.2885V51.8078L56.6151 55.0482Z" fill="#E9EBED"/>
<path d="M97.444 58.0724H73.4651C72.0334 58.0724 70.8728 56.9118 70.8728 55.4801C70.8728 54.0483 72.0334 52.8878 73.4651 52.8878H97.4439C98.8756 52.8878 100.036 54.0483 100.036 55.4801C100.036 56.9118 98.8756 58.0724 97.444 58.0724Z" fill="#ECEEF0"/>
<path d="M93.5047 88.9963H69.5323C68.4525 88.9963 67.577 89.8718 67.577 90.9516V130.456C67.577 131.536 68.4525 132.412 69.5323 132.412H102.024C103.104 132.412 103.979 131.536 103.979 130.456V99.416L93.5047 88.9963Z" fill="url(#paint5_linear)"/>
<path d="M95.2751 99.4336H103.979L93.5344 88.9891V97.6928C93.5344 98.6542 94.3137 99.4336 95.2751 99.4336Z" fill="url(#paint6_linear)"/>
<path opacity="0.3" d="M49.6586 72.9682C50.232 73.0224 50.7895 73.05 51.3267 73.05C51.3271 73.05 51.3271 73.05 51.3274 73.05C54.6744 73.05 57.0931 72.0023 58.137 70.1008C59.3504 67.8903 58.9167 66.2048 58.2385 65.0757C60.7023 65.0472 64.409 64.9948 68.0526 62.6252C72.6015 59.6662 74.8041 52.0363 73.2469 45.1683H49.6586V72.9682Z" fill="url(#paint7_linear)"/>
<path d="M51.2015 60.4249C53.2873 54.8628 59.274 61.4373 65.1068 57.6439C72.8538 52.6056 71.5267 30.7343 46.0357 33.7697C32.2439 35.412 29.4657 48.9996 30.8907 55.7964C32.653 64.202 37.936 68.0866 42.9975 69.745C48.8238 71.6539 51.686 70.4189 52.592 68.7682C54.2472 65.7525 50.4931 62.3139 51.2015 60.4249Z" fill="url(#paint8_radial)"/>
<path d="M56.2536 41.0959C56.4886 39.7205 55.1925 38.3516 53.3586 38.0383C51.5248 37.725 49.8477 38.586 49.6127 39.9614C49.3777 41.3367 50.6739 42.7056 52.5077 43.0189C54.3416 43.3322 56.0187 42.4713 56.2536 41.0959Z" fill="#FF4949"/>
<path d="M63.6922 48.119C64.4799 47.1907 64.115 45.5869 62.8774 44.5367C61.6397 43.4865 59.9979 43.3876 59.2102 44.3159C58.4226 45.2441 58.7874 46.848 60.025 47.8982C61.2627 48.9484 62.9046 49.0472 63.6922 48.119Z" fill="#FFD961"/>
<path d="M46.1354 45.1324C46.4291 43.4132 44.8089 41.702 42.5167 41.3104C40.2244 40.9188 38.128 41.995 37.8343 43.7142C37.5406 45.4334 39.1608 47.1446 41.453 47.5362C43.7453 47.9278 45.8417 46.8516 46.1354 45.1324Z" fill="#15D996"/>
<path d="M38.1955 56.5275C40.2885 56.5275 41.9852 55.2549 41.9852 53.6852C41.9852 52.1154 40.2885 50.8429 38.1955 50.8429C36.1025 50.8429 34.4058 52.1154 34.4058 53.6852C34.4058 55.2549 36.1025 56.5275 38.1955 56.5275Z" fill="#09BDF8"/>
<path d="M45.3338 60.9247C45.4746 62.1375 44.2779 63.2728 42.6609 63.4605C41.0438 63.6482 39.6188 62.8173 39.478 61.6045C39.3373 60.3917 40.534 59.2564 42.151 59.0687C43.7681 58.881 45.1931 59.712 45.3338 60.9247Z" fill="url(#paint9_linear)"/>
<path d="M140.376 28.9928L141.639 33.8553C141.98 35.1698 143.007 36.1965 144.322 36.5379L149.184 37.8009L144.322 39.0638C143.007 39.4053 141.98 40.4319 141.639 41.7465L140.376 46.6089L139.113 41.7465C138.772 40.4319 137.745 39.4053 136.43 39.0638L131.568 37.8009L136.43 36.5379C137.745 36.1965 138.771 35.1698 139.113 33.8553L140.376 28.9928Z" fill="url(#paint10_linear)"/>
<path d="M115.115 6.9433L115.861 9.81552C116.063 10.5921 116.669 11.1985 117.446 11.4002L120.318 12.1462L117.446 12.8923C116.669 13.094 116.063 13.7003 115.861 14.4769L115.115 17.3491L114.369 14.4769C114.167 13.7003 113.561 13.0939 112.784 12.8923L109.912 12.1462L112.784 11.4002C113.561 11.1984 114.167 10.5921 114.369 9.81552L115.115 6.9433Z" fill="url(#paint11_linear)"/>
<path d="M69.9488 24.2504L70.5667 26.6292C70.7337 27.2723 71.2359 27.7745 71.879 27.9416L74.2578 28.5594L71.879 29.1772C71.2359 29.3442 70.7337 29.8465 70.5667 30.4896L69.9488 32.8683L69.331 30.4896C69.164 29.8465 68.6618 29.3442 68.0187 29.1772L65.6399 28.5594L68.0187 27.9416C68.6618 27.7745 69.164 27.2723 69.331 26.6292L69.9488 24.2504Z" fill="url(#paint12_linear)"/>
<path d="M133.939 22.0593L134.4 23.836C134.525 24.3165 134.9 24.6915 135.38 24.8163L137.157 25.2778L135.38 25.7392C134.9 25.864 134.525 26.2392 134.4 26.7195L133.939 28.4963L133.477 26.7195C133.352 26.2391 132.977 25.864 132.497 25.7392L130.72 25.2778L132.497 24.8163C132.977 24.6915 133.352 24.3164 133.477 23.836L133.939 22.0593Z" fill="url(#paint13_linear)"/>
<path d="M79.2909 113.015H78.5424V115.031H76.796V108.144H79.3111C81.3873 108.144 82.3853 108.982 82.3853 110.529C82.3852 112.066 81.2869 113.015 79.2909 113.015ZM79.2909 109.601H78.5424V111.647H79.2809C80.1994 111.647 80.6288 111.238 80.6288 110.6C80.6288 109.961 80.2093 109.601 79.2909 109.601Z" fill="white"/>
<path d="M85.5457 115.031H83.1204V108.144H85.5457C88.2207 108.144 89.6774 109.192 89.6774 111.508C89.6775 113.734 88.2801 115.031 85.5457 115.031ZM85.5257 109.621H84.8668V113.524H85.5257C87.1524 113.524 87.901 112.844 87.901 111.518C87.9009 110.23 87.1524 109.621 85.5257 109.621Z" fill="white"/>
<path d="M95.2836 109.621H92.2495V111.318H94.9939V112.796H92.2495V115.031H90.5031V108.144H95.2836C95.2836 108.144 95.2836 109.621 95.2836 109.621Z" fill="white"/>
<path opacity="0.3" d="M107.397 63.3184H121.898V109.577H110.518C108.794 109.577 107.397 108.179 107.397 106.455V63.3184Z" fill="url(#paint14_linear)"/>
<path d="M151.75 105.909H115.604C114.736 105.909 114.033 105.205 114.033 104.337V61.4328C114.033 60.5651 114.736 59.8617 115.604 59.8617H151.75C152.617 59.8617 153.321 60.5651 153.321 61.4328V104.337C153.321 105.205 152.617 105.909 151.75 105.909Z" fill="url(#paint15_linear)"/>
<path d="M146.428 74.8145H121.111C120.542 74.8145 120.081 75.2754 120.081 75.8441C120.081 76.4127 120.542 76.8737 121.111 76.8737H146.428C146.997 76.8737 147.458 76.4128 147.458 75.8441C147.458 75.2755 146.997 74.8145 146.428 74.8145ZM146.428 69.1232H121.111C120.542 69.1232 120.081 69.5841 120.081 70.1527C120.081 70.7214 120.542 71.1823 121.111 71.1823H146.428C146.997 71.1823 147.458 70.7214 147.458 70.1527C147.458 69.5841 146.997 69.1232 146.428 69.1232ZM146.428 80.5097H121.111C120.542 80.5097 120.081 80.9706 120.081 81.5393C120.081 82.1079 120.542 82.5688 121.111 82.5688H146.428C146.997 82.5688 147.458 82.108 147.458 81.5393C147.458 80.9706 146.997 80.5097 146.428 80.5097ZM125.959 86.2048H121.111C120.542 86.2048 120.081 86.6656 120.081 87.2343C120.081 87.8029 120.542 88.2639 121.111 88.2639H125.959C126.528 88.2639 126.989 87.803 126.989 87.2343C126.989 86.6657 126.528 86.2048 125.959 86.2048ZM125.959 91.8999H121.111C120.542 91.8999 120.081 92.3609 120.081 92.9295C120.081 93.4981 120.542 93.9591 121.111 93.9591H125.959C126.528 93.9591 126.989 93.4982 126.989 92.9295C126.989 92.3608 126.528 91.8999 125.959 91.8999Z" fill="white"/>
<path d="M144.862 98.8622H142.13L139.704 91.5213H139.671L137.246 98.8622H134.497L131.797 87.7048H134.724L136.098 94.7707H136.131L138.297 87.7048H141.062L143.245 94.7707H143.278L144.652 87.7048H147.563L144.862 98.8622Z" fill="url(#paint16_linear)"/>
<path opacity="0.7" d="M115.955 90.855L115.966 93.3054C115.306 93.3387 114.661 93.4529 114.033 93.624V97.2736C114.255 97.256 114.48 97.2444 114.707 97.2434C115.141 97.2415 115.565 97.2811 115.984 97.3393V97.3392L115.996 100.091L121.637 95.4483L115.955 90.855Z" fill="url(#paint17_linear)"/>
<path d="M112.628 84.6134L112.645 88.4989C105.522 88.8588 99.2094 94.5821 98.599 101.586C101.072 97.5076 105.53 94.7653 110.648 94.743C111.337 94.74 112.01 94.8029 112.673 94.8951V94.895L112.692 99.2581L121.637 91.8965L112.628 84.6134Z" fill="url(#paint18_linear)"/>
<path d="M38.5696 75.5847L40.1262 78.2816L43.1721 78.9287L41.0883 81.2425L41.4141 84.3392L38.5696 83.0723L35.7251 84.3392L36.051 81.2425L33.967 78.9287L37.013 78.2816L38.5696 75.5847Z" fill="url(#paint19_radial)"/>
<path d="M51.243 75.5847L52.7996 78.2816L55.8456 78.9287L53.7616 81.2425L54.0875 84.3392L51.243 83.0723L48.3985 84.3392L48.7243 81.2425L46.6405 78.9287L49.6864 78.2816L51.243 75.5847Z" fill="url(#paint20_radial)"/>
<path d="M64.3672 83.9391L64.3585 81.9564C67.9934 81.7727 71.2149 78.852 71.5264 75.2781C70.2646 77.3591 67.9893 78.7584 65.3776 78.7699C65.0259 78.7715 64.6827 78.7393 64.3443 78.6923V78.6924L64.3345 76.4659L59.7698 80.2225L64.3672 83.9391Z" fill="url(#paint21_linear)"/>
<path d="M136.104 39.8625H128.7C127.988 39.8625 127.312 40.18 126.858 40.728L122.311 46.2115C121.925 46.6774 121.947 47.3583 122.363 47.7981L131.533 57.4884C131.769 57.7378 132.085 57.8625 132.402 57.8625C132.719 57.8625 133.035 57.7378 133.271 57.4884L142.441 47.7981C142.857 47.3583 142.879 46.6774 142.494 46.2115L137.946 40.728C137.492 40.18 136.817 39.8625 136.104 39.8625Z" fill="url(#paint22_linear)"/>
<path d="M142.247 47.4856L137.735 46.6652C137.023 46.6652 132.857 56.9405 132.403 57.4885L128.711 46.6652L122.364 47.7982L131.533 57.4885C131.769 57.7379 132.086 57.8626 132.403 57.8626C132.719 57.8626 133.035 57.7379 133.271 57.4885L142.442 47.7982C142.858 47.3584 142.88 46.6775 142.493 46.2124L137.947 40.7282C137.492 40.1801 142.959 47.4856 142.247 47.4856Z" fill="url(#paint23_linear)"/>
<path d="M132.402 33.8812C131.906 33.8812 131.504 34.2823 131.504 34.7778V37.1709C131.504 37.6664 131.906 38.0684 132.402 38.0684C132.897 38.0684 133.299 37.6664 133.299 37.1709V34.7778C133.299 34.2823 132.897 33.8812 132.402 33.8812Z" fill="url(#paint24_linear)"/>
<path d="M123.728 36.1274C123.514 36.1274 123.299 36.2037 123.128 36.358C122.76 36.6894 122.73 37.2571 123.061 37.6255L124.663 39.4032C124.84 39.6001 125.085 39.7002 125.33 39.7002C125.544 39.7002 125.758 39.6247 125.93 39.4697C126.298 39.1382 126.328 38.5713 125.996 38.203L124.395 36.4244C124.218 36.2275 123.974 36.1274 123.728 36.1274Z" fill="url(#paint25_linear)"/>
<path d="M141.076 36.1274C140.83 36.1274 140.586 36.2275 140.409 36.4244L138.807 38.203C138.476 38.5713 138.505 39.1382 138.874 39.4697C139.045 39.6247 139.26 39.7002 139.474 39.7002C139.72 39.7002 139.964 39.6001 140.141 39.4032L141.743 37.6255C142.074 37.2571 142.044 36.6894 141.676 36.358C141.505 36.2037 141.29 36.1274 141.076 36.1274Z" fill="url(#paint26_linear)"/>
<path d="M136.105 39.8625H128.7C127.988 39.8625 127.313 40.18 126.857 40.728L122.311 46.2115C121.925 46.6774 121.947 47.3583 122.363 47.7981L131.533 57.4884C131.769 57.7378 132.086 57.8625 132.402 57.8625C132.719 57.8625 133.035 57.7378 133.271 57.4884L142.441 47.7981C142.857 47.3583 142.879 46.6774 142.493 46.2115L137.946 40.728C137.492 40.18 136.817 39.8625 136.105 39.8625Z" fill="url(#paint27_linear)"/>
<path d="M136.105 39.8625H128.7C127.988 39.8625 127.313 40.18 126.858 40.728L122.311 46.2115C121.925 46.6774 121.947 47.3583 122.363 47.7981L131.533 57.4884C131.769 57.7378 132.086 57.8625 132.402 57.8625C132.719 57.8625 133.035 57.7378 133.271 57.4884L142.441 47.7981C142.857 47.3583 142.879 46.6774 142.493 46.2115L137.946 40.728C137.492 40.18 136.817 39.8625 136.105 39.8625Z" fill="url(#paint28_linear)"/>
<path d="M122.968 47.0754L132.402 57.3301L127.48 47.0754H122.968Z" fill="url(#paint29_linear)"/>
<path d="M128.711 47.0754L132.402 57.3301L136.094 47.0754H128.711Z" fill="url(#paint30_linear)"/>
<path d="M141.836 47.0754L132.402 57.3301L137.324 47.0754H141.836Z" fill="url(#paint31_linear)"/>
<path d="M128.3 40.9225L123.788 46.2549H141.016L136.504 40.9225H128.3Z" fill="url(#paint32_linear)"/>
<path d="M126.042 133.629H145.011C145.712 133.629 146.28 133.097 146.28 132.442V110.53C146.28 109.874 145.712 109.343 145.011 109.343H131.169L124.693 115.819V132.367C124.693 133.064 125.297 133.629 126.042 133.629Z" fill="url(#paint33_linear)"/>
<path d="M134.19 116.181L134.801 118.533C134.966 119.168 135.462 119.665 136.098 119.83L138.449 120.44L136.098 121.051C135.462 121.216 134.966 121.713 134.801 122.348L134.19 124.7L133.579 122.348C133.414 121.713 132.918 121.216 132.282 121.051L129.931 120.44L132.282 119.83C132.918 119.665 133.414 119.168 133.579 118.533L134.19 116.181Z" fill="url(#paint34_radial)"/>
<path d="M137.714 114.118L137.948 115.019C138.011 115.263 138.202 115.453 138.445 115.516L139.346 115.75L138.445 115.985C138.202 116.048 138.011 116.238 137.948 116.482L137.714 117.383L137.48 116.482C137.417 116.238 137.227 116.048 136.983 115.985L136.082 115.75L136.983 115.516C137.227 115.453 137.417 115.263 137.48 115.019L137.714 114.118Z" fill="url(#paint35_radial)"/>
<path fill-rule="evenodd" clip-rule="evenodd" d="M139.636 126.809L137.044 127.561C136.773 127.64 136.521 127.389 136.6 127.118L137.353 124.525C137.487 124.062 137.737 123.64 138.078 123.299L145.912 115.465L148.697 118.25L140.863 126.083C140.521 126.425 140.099 126.674 139.636 126.809Z" fill="url(#paint36_linear)"/>
<path fill-rule="evenodd" clip-rule="evenodd" d="M148.443 117.995L146.165 115.717L147.684 114.198C147.964 113.918 148.417 113.918 148.697 114.198L149.962 115.464C150.242 115.743 150.242 116.197 149.962 116.476L148.443 117.995Z" fill="url(#paint37_radial)"/>
<path fill-rule="evenodd" clip-rule="evenodd" d="M148.19 118.755L145.405 115.97L145.911 115.464C146.051 115.324 146.278 115.324 146.418 115.464L148.696 117.742C148.836 117.882 148.836 118.109 148.696 118.249L148.19 118.755Z" fill="url(#paint38_linear)"/>
<path fill-rule="evenodd" clip-rule="evenodd" d="M137.829 123.583C137.614 123.864 137.452 124.183 137.352 124.525L136.6 127.117C136.521 127.388 136.772 127.639 137.043 127.561L139.636 126.808C139.977 126.709 140.296 126.546 140.577 126.331L137.829 123.583Z" fill="url(#paint39_linear)"/>
<path fill-rule="evenodd" clip-rule="evenodd" d="M136.165 127.996C135.955 127.786 135.955 127.446 136.165 127.236L136.798 126.603L137.558 127.363L136.925 127.996C136.715 128.206 136.375 128.206 136.165 127.996Z" fill="url(#paint40_linear)"/>
<path d="M2.8125 89.8905C2.8125 88.9672 3.56104 88.2186 4.48441 88.2186H45.5125C46.4359 88.2186 47.1844 88.9672 47.1844 89.8905V115.524C47.1844 116.448 46.4359 117.196 45.5125 117.196H4.48441C3.56104 117.196 2.8125 116.448 2.8125 115.524V89.8905Z" fill="url(#paint41_linear)"/>
<path fill-rule="evenodd" clip-rule="evenodd" d="M10.5088 92.17C10.567 92.17 10.6143 92.2173 10.6143 92.2755V92.9251H8.31778V92.2755C8.31778 92.2174 8.36509 92.17 8.42327 92.17H10.5088ZM7.49748 92.9251V92.2755C7.49748 91.7641 7.91195 91.3497 8.42327 91.3497H10.5088C11.0201 91.3497 11.4346 91.7642 11.4347 92.2755V92.9251H12.6162H13.4032V93.7126H12.6162V99.6578C12.6163 100.071 12.2814 100.406 11.8683 100.406H7.06472C6.65164 100.406 6.31678 100.071 6.31678 99.6578V93.7126H5.52881V92.9251H6.31678H7.49748ZM7.48124 94.8931H8.26867V99.2837H7.48124V94.8931ZM9.90927 94.8931H9.12184V99.2837H9.90927V94.8931ZM10.6635 94.8931H11.4509V99.2837H10.6635V94.8931Z" fill="url(#paint42_linear)"/>
<rect x="16.8135" y="91.3532" width="26.3305" height="10.9362" rx="1.25394" stroke="#71BFD5" stroke-width="0.835957" stroke-linejoin="round" stroke-dasharray="2.51 1.67"/>
<rect x="6.43469" y="104.518" width="37.1275" height="9.96105" rx="1.67191" fill="#E9F1F8"/>
<rect x="19.4535" y="94.0662" width="5.4333" height="5.4333" rx="0.835957" fill="#DDE6EE"/>
<rect x="9.49231" y="106.744" width="5.4333" height="5.4333" rx="0.835957" fill="white"/>
<rect opacity="0.7" x="27.6036" y="94.0662" width="5.4333" height="5.4333" rx="2.71665" fill="#DDE6EE"/>
<rect opacity="0.7" width="4.84331" height="4.84331" rx="0.835957" transform="matrix(0.707106 0.707107 -0.707106 0.707107 20.3591 106.036)" fill="white"/>
<rect opacity="0.5" x="38.4701" y="93.4086" width="4.77222" height="4.77222" rx="0.835957" transform="rotate(45 38.4701 93.4086)" fill="#DDE6EE"/>
<rect opacity="0.5" x="26.698" y="106.744" width="5.4333" height="5.4333" rx="2.71665" fill="white"/>
<rect opacity="0.3" x="34.8479" y="106.744" width="5.4333" height="5.4333" rx="0.835957" fill="white"/>
<defs>
<linearGradient id="paint0_linear" x1="91.6285" y1="117.61" x2="91.6285" y2="0.38031" gradientUnits="userSpaceOnUse">
<stop stop-color="#E7EFF6" stop-opacity="0"/>
<stop offset="1" stop-color="#E4F4FF"/>
</linearGradient>
<linearGradient id="paint1_linear" x1="120.342" y1="90.7176" x2="120.342" y2="15.7874" gradientUnits="userSpaceOnUse">
<stop stop-color="#E7EFF6" stop-opacity="0"/>
<stop offset="1" stop-color="#E4F4FF"/>
</linearGradient>
<radialGradient id="paint2_radial" cx="0" cy="0" r="1" gradientUnits="userSpaceOnUse" gradientTransform="translate(83.7505 164.651) scale(97.3258 24.1512)">
<stop offset="0.0029" stop-color="#2651A1" stop-opacity="0.3"/>
<stop offset="1" stop-color="#2651A1" stop-opacity="0"/>
</radialGradient>
<radialGradient id="paint3_radial" cx="0" cy="0" r="1" gradientUnits="userSpaceOnUse" gradientTransform="translate(85.7783 164.181) scale(59.9196 5.72468)">
<stop stop-color="#22478C" stop-opacity="0.7"/>
<stop offset="0.1306" stop-color="#264B8E" stop-opacity="0.6086"/>
<stop offset="0.2675" stop-color="#335595" stop-opacity="0.5127"/>
<stop offset="0.4074" stop-color="#4867A0" stop-opacity="0.4148"/>
<stop offset="0.5494" stop-color="#657FAF" stop-opacity="0.3154"/>
<stop offset="0.6929" stop-color="#8B9FC3" stop-opacity="0.215"/>
<stop offset="0.8378" stop-color="#B9C6DB" stop-opacity="0.1136"/>
<stop offset="0.9811" stop-color="#EFF3F7" stop-opacity="0.0132"/>
<stop offset="1" stop-color="#F7F9FB" stop-opacity="0"/>
</radialGradient>
<linearGradient id="paint4_linear" x1="85.7781" y1="151.945" x2="85.7781" y2="57.5228" gradientUnits="userSpaceOnUse">
<stop stop-color="#EFF1F7" stop-opacity="0.2"/>
<stop offset="0.9984" stop-color="#FAFBFD" stop-opacity="0.02"/>
</linearGradient>
<linearGradient id="paint5_linear" x1="85.7781" y1="132.411" x2="85.7781" y2="88.9963" gradientUnits="userSpaceOnUse">
<stop stop-color="#09BDF8"/>
<stop offset="1" stop-color="#1591D4"/>
</linearGradient>
<linearGradient id="paint6_linear" x1="94.0443" y1="98.9238" x2="98.7567" y2="94.2112" gradientUnits="userSpaceOnUse">
<stop stop-color="#2651A1"/>
<stop offset="1" stop-color="#1E3C74"/>
</linearGradient>
<linearGradient id="paint7_linear" x1="48.6056" y1="46.2212" x2="66.6693" y2="64.2849" gradientUnits="userSpaceOnUse">
<stop offset="0.3816" stop-color="#453223"/>
<stop offset="1" stop-color="#3B1908" stop-opacity="0.2"/>
</linearGradient>
<radialGradient id="paint8_radial" cx="0" cy="0" r="1" gradientUnits="userSpaceOnUse" gradientTransform="translate(45.9402 46.2198) rotate(-177.805) scale(24.1717)">
<stop stop-color="#FFCB5D"/>
<stop offset="1" stop-color="#FF9057"/>
</radialGradient>
<linearGradient id="paint9_linear" x1="39.4771" y1="61.6027" x2="45.3326" y2="60.923" gradientUnits="userSpaceOnUse">
<stop stop-color="#1E3C74"/>
<stop offset="1" stop-color="#2651A1"/>
</linearGradient>
<linearGradient id="paint10_linear" x1="140.376" y1="46.6089" x2="140.376" y2="28.9928" gradientUnits="userSpaceOnUse">
<stop stop-color="#E7EFF6" stop-opacity="0"/>
<stop offset="1" stop-color="#E4F4FF"/>
</linearGradient>
<linearGradient id="paint11_linear" x1="115.115" y1="17.3491" x2="115.115" y2="6.9433" gradientUnits="userSpaceOnUse">
<stop stop-color="#E7EFF6" stop-opacity="0"/>
<stop offset="1" stop-color="#E4F4FF"/>
</linearGradient>
<linearGradient id="paint12_linear" x1="69.9488" y1="32.8683" x2="69.9488" y2="24.2504" gradientUnits="userSpaceOnUse">
<stop stop-color="#E7EFF6" stop-opacity="0"/>
<stop offset="1" stop-color="#E4F4FF"/>
</linearGradient>
<linearGradient id="paint13_linear" x1="133.939" y1="28.4964" x2="133.939" y2="22.0593" gradientUnits="userSpaceOnUse">
<stop stop-color="#E7EFF6" stop-opacity="0"/>
<stop offset="1" stop-color="#E4F4FF"/>
</linearGradient>
<linearGradient id="paint14_linear" x1="114.647" y1="109.577" x2="114.647" y2="63.3184" gradientUnits="userSpaceOnUse">
<stop stop-color="#364F7F" stop-opacity="0.1"/>
<stop offset="0.1767" stop-color="#364F7F" stop-opacity="0.3"/>
<stop offset="1" stop-color="#364F7F" stop-opacity="0.4"/>
</linearGradient>
<linearGradient id="paint15_linear" x1="133.677" y1="105.909" x2="133.677" y2="59.8618" gradientUnits="userSpaceOnUse">
<stop stop-color="#C9D6E3"/>
<stop offset="1" stop-color="#F0F4F7"/>
</linearGradient>
<linearGradient id="paint16_linear" x1="131.797" y1="93.2835" x2="147.563" y2="93.2835" gradientUnits="userSpaceOnUse">
<stop stop-color="#09BDF8"/>
<stop offset="1" stop-color="#1591D4"/>
</linearGradient>
<linearGradient id="paint17_linear" x1="117.835" y1="100.091" x2="117.835" y2="90.855" gradientUnits="userSpaceOnUse">
<stop offset="0.4163" stop-color="#7B8CAB" stop-opacity="0.1931"/>
<stop offset="0.4257" stop-color="#798AAA" stop-opacity="0.1948"/>
<stop offset="0.5734" stop-color="#5C7097" stop-opacity="0.2219"/>
<stop offset="0.7198" stop-color="#475E8A" stop-opacity="0.2487"/>
<stop offset="0.8631" stop-color="#3A5382" stop-opacity="0.2749"/>
<stop offset="1" stop-color="#364F7F" stop-opacity="0.3"/>
</linearGradient>
<linearGradient id="paint18_linear" x1="110.118" y1="101.586" x2="110.118" y2="84.6134" gradientUnits="userSpaceOnUse">
<stop stop-color="#FFCB5D"/>
<stop offset="1" stop-color="#FFA961"/>
</linearGradient>
<radialGradient id="paint19_radial" cx="0" cy="0" r="1" gradientUnits="userSpaceOnUse" gradientTransform="translate(38.5696 79.9619) scale(4.49132)">
<stop stop-color="#FF9057"/>
<stop offset="1" stop-color="#FFCB5D"/>
</radialGradient>
<radialGradient id="paint20_radial" cx="0" cy="0" r="1" gradientUnits="userSpaceOnUse" gradientTransform="translate(51.243 79.9619) scale(4.49132)">
<stop stop-color="#FF9057"/>
<stop offset="1" stop-color="#FFCB5D"/>
</radialGradient>
<linearGradient id="paint21_linear" x1="65.6481" y1="75.2781" x2="65.6481" y2="83.9391" gradientUnits="userSpaceOnUse">
<stop stop-color="#09BDF8"/>
<stop offset="1" stop-color="#1591D4"/>
</linearGradient>
<linearGradient id="paint22_linear" x1="132.402" y1="57.8313" x2="132.402" y2="39.8314" gradientUnits="userSpaceOnUse">
<stop stop-color="#FFCB5D"/>
<stop offset="1" stop-color="#FFA961"/>
</linearGradient>
<linearGradient id="paint23_linear" x1="132.566" y1="57.8322" x2="132.566" y2="39.8422" gradientUnits="userSpaceOnUse">
<stop offset="0.4115" stop-color="#FFD25D"/>
<stop offset="1" stop-color="#FFA962"/>
</linearGradient>
<linearGradient id="paint24_linear" x1="132.402" y1="38.061" x2="132.402" y2="33.8738" gradientUnits="userSpaceOnUse">
<stop stop-color="#FFCB5D"/>
<stop offset="1" stop-color="#FFA961"/>
</linearGradient>
<linearGradient id="paint25_linear" x1="124.529" y1="39.6944" x2="124.529" y2="36.1217" gradientUnits="userSpaceOnUse">
<stop stop-color="#FFCB5D"/>
<stop offset="1" stop-color="#FFA961"/>
</linearGradient>
<linearGradient id="paint26_linear" x1="140.275" y1="39.6944" x2="140.275" y2="36.1217" gradientUnits="userSpaceOnUse">
<stop stop-color="#FFCB5D"/>
<stop offset="1" stop-color="#FFA961"/>
</linearGradient>
<linearGradient id="paint27_linear" x1="132.402" y1="57.8625" x2="132.402" y2="39.8092" gradientUnits="userSpaceOnUse">
<stop stop-color="#FFA961"/>
<stop offset="1" stop-color="#FFCB5D"/>
</linearGradient>
<linearGradient id="paint28_linear" x1="132.402" y1="57.8625" x2="132.402" y2="39.8092" gradientUnits="userSpaceOnUse">
<stop stop-color="#FFC752"/>
<stop offset="1" stop-color="#FFB374"/>
</linearGradient>
<linearGradient id="paint29_linear" x1="127.685" y1="57.313" x2="127.685" y2="47.0582" gradientUnits="userSpaceOnUse">
<stop stop-color="#FFF6A3"/>
<stop offset="1" stop-color="#FF675D" stop-opacity="0.09"/>
</linearGradient>
<linearGradient id="paint30_linear" x1="132.402" y1="57.313" x2="132.402" y2="47.0582" gradientUnits="userSpaceOnUse">
<stop stop-color="#FFF6A3"/>
<stop offset="1" stop-color="#FF675D" stop-opacity="0.09"/>
</linearGradient>
<linearGradient id="paint31_linear" x1="137.119" y1="57.313" x2="137.119" y2="47.0582" gradientUnits="userSpaceOnUse">
<stop stop-color="#FFF6A3"/>
<stop offset="1" stop-color="#FF675D" stop-opacity="0.09"/>
</linearGradient>
<linearGradient id="paint32_linear" x1="132.402" y1="46.2468" x2="132.402" y2="41.3269" gradientUnits="userSpaceOnUse">
<stop stop-color="#FF975D" stop-opacity="0.38"/>
<stop offset="1" stop-color="#FFD9B6" stop-opacity="0.67"/>
</linearGradient>
<linearGradient id="paint33_linear" x1="135.487" y1="133.629" x2="135.487" y2="109.343" gradientUnits="userSpaceOnUse">
<stop stop-color="#F0F4F7"/>
<stop offset="1" stop-color="#D2DDE8"/>
</linearGradient>
<radialGradient id="paint34_radial" cx="0" cy="0" r="1" gradientUnits="userSpaceOnUse" gradientTransform="translate(134.19 120.441) scale(4.25926)">
<stop stop-color="#FF9057"/>
<stop offset="1" stop-color="#FFCB5D"/>
</radialGradient>
<radialGradient id="paint35_radial" cx="0" cy="0" r="1" gradientUnits="userSpaceOnUse" gradientTransform="translate(137.714 115.751) scale(1.63231)">
<stop stop-color="#FF9057"/>
<stop offset="1" stop-color="#FFCB5D"/>
</radialGradient>
<linearGradient id="paint36_linear" x1="136.69" y1="127.47" x2="147.304" y2="116.857" gradientUnits="userSpaceOnUse">
<stop stop-color="#09BDF8"/>
<stop offset="1" stop-color="#1591D4"/>
</linearGradient>
<radialGradient id="paint37_radial" cx="0" cy="0" r="1" gradientUnits="userSpaceOnUse" gradientTransform="translate(148.315 115.84) rotate(45) scale(1.4718 1.59901)">
<stop stop-color="#FF9057"/>
<stop offset="1" stop-color="#FFCB5D"/>
</radialGradient>
<linearGradient id="paint38_linear" x1="146.797" y1="117.362" x2="147.557" y2="116.603" gradientUnits="userSpaceOnUse">
<stop stop-color="#BACEE2"/>
<stop offset="1" stop-color="#ABC3DD"/>
</linearGradient>
<linearGradient id="paint39_linear" x1="136.69" y1="127.469" x2="139.203" y2="124.957" gradientUnits="userSpaceOnUse">
<stop stop-color="#FF9057"/>
<stop offset="1" stop-color="#FFCB5D"/>
</linearGradient>
<linearGradient id="paint40_linear" x1="136.165" y1="127.995" x2="137.178" y2="126.982" gradientUnits="userSpaceOnUse">
<stop stop-color="#09BDF8"/>
<stop offset="1" stop-color="#1591D4"/>
</linearGradient>
<linearGradient id="paint41_linear" x1="2.8125" y1="102.707" x2="47.1844" y2="102.707" gradientUnits="userSpaceOnUse">
<stop stop-color="white"/>
<stop offset="1" stop-color="#F9FCFF"/>
</linearGradient>
<linearGradient id="paint42_linear" x1="9.46601" y1="91.3497" x2="9.46601" y2="100.406" gradientUnits="userSpaceOnUse">
<stop stop-color="#1591D4"/>
<stop offset="1" stop-color="#09BDF8"/>
</linearGradient>
</defs>
</svg>
