<svg viewBox="0 0 180 188" fill="none" xmlns="http://www.w3.org/2000/svg">
<path d="M163.72 40.449H154V43.2709H163.72V40.449Z" fill="#15CD83"/>
<path d="M160.271 46.7199V37H157.449V46.7199H160.271Z" fill="#15CD83"/>
<g opacity="0.6">
<path opacity="0.6" d="M71.9428 40.4636H65V42.4793H71.9428V40.4636Z" fill="#15CD83"/>
<path opacity="0.6" d="M69.479 44.9428V38H67.4633V44.9428H69.479Z" fill="#15CD83"/>
</g>
<path d="M81.416 165.6C81.416 165.6 59.4289 168.478 46.0034 168.478C29.2214 168.478 25.1824 180.567 46.0034 180.567C59.4289 180.567 74.5327 187.475 93.8319 187.475C114.809 187.475 116.907 178.84 129.913 178.84C142.919 178.84 148.704 165.6 123.2 165.6C103.393 165.6 96.6903 165.6 81.416 165.6Z" fill="url(#paint0_radial)"/>
<g opacity="0.2">
<path opacity="0.05" d="M87.9036 187.267C87.5552 187.267 87.2111 187.211 86.8809 187.1L45.9696 173.365C45.1712 173.097 44.6553 172.38 44.6553 171.537C44.6553 170.695 45.1712 169.977 45.9696 169.709L86.8809 155.975C87.2111 155.864 87.5552 155.808 87.9036 155.808C88.252 155.808 88.5961 155.864 88.9263 155.975L129.836 169.709C130.635 169.977 131.151 170.695 131.151 171.537C131.151 172.38 130.635 173.097 129.837 173.365L88.9265 187.1C88.5961 187.211 88.2519 187.267 87.9036 187.267Z" fill="#CA7222"/>
<path opacity="0.1" d="M87.2223 157.205L46.3113 170.939C45.5323 171.2 45.5323 172.302 46.3113 172.564L87.2223 186.299C87.6647 186.447 88.1436 186.447 88.586 186.299L129.496 172.564C130.275 172.302 130.275 171.201 129.496 170.939L88.5859 157.205C88.1435 157.057 87.6647 157.057 87.2223 157.205Z" fill="#1E3C74"/>
<path opacity="0.25" d="M87.9039 185.553C87.7878 185.553 87.6731 185.534 87.5629 185.497L47.2568 171.966L87.5629 158.435C87.6731 158.398 87.7877 158.379 87.9039 158.379C88.0201 158.379 88.1347 158.398 88.2449 158.435L128.55 171.966L88.2447 185.497C88.1347 185.534 88.02 185.553 87.9039 185.553Z" fill="#1E3C74"/>
<path opacity="0.35" d="M50.6226 172.18L87.9035 159.665L125.184 172.18L87.9035 184.696L87.9045 184.697L50.6226 172.18Z" fill="#1E3C74"/>
<path opacity="0.45" d="M53.989 172.394L87.904 161.009L121.819 172.394L87.904 183.78L53.989 172.394Z" fill="#1E3C74"/>
<path opacity="0.6" d="M57.355 172.608L87.9041 162.353L118.453 172.608L87.9041 182.865L57.355 172.608Z" fill="#1E3C74"/>
<path opacity="0.7" d="M60.7207 173.037L87.9038 163.912L115.087 173.037L87.9038 182.163L60.7207 173.037Z" fill="#CA7222"/>
</g>
<path d="M113.96 143.056L87.9888 134.341L96.5907 132L122.563 140.715L113.96 143.056Z" fill="#FFC541"/>
<path d="M62.0169 143.056L87.9889 134.341L79.3861 132L53.2432 140.29L62.0169 143.056Z" fill="#FFC541"/>
<path d="M87.9888 134.341L113.96 143.056L114.047 174.209L88.0134 182.814L87.9888 134.341Z" fill="url(#paint1_linear)"/>
<path d="M87.9892 134.341L62.0172 143.056L61.9797 174.209L88.0138 182.814L87.9892 134.341Z" fill="#FCB532"/>
<path d="M113.96 174.181L87.9893 182.896V151.772L113.96 143.056V174.181Z" fill="url(#paint2_linear)"/>
<path d="M87.9889 182.896L62.0168 174.181V143.056L87.9889 151.772V182.896Z" fill="url(#paint3_linear)"/>
<path d="M72.9424 160.296C73.1403 160.359 73.3018 160.624 73.3037 160.888L73.3128 162.158C73.3147 162.422 73.1563 162.584 72.9584 162.521C72.7625 162.458 72.6011 162.194 72.5991 161.93L72.59 160.659C72.5882 160.395 72.7465 160.233 72.9424 160.296ZM69.26 160.429C69.1133 160.558 69.1035 160.856 69.2369 161.095L69.8813 162.244C69.954 162.371 70.0503 162.455 70.1483 162.487C70.2342 162.514 70.3199 162.502 70.3873 162.441C70.5319 162.311 70.5417 162.014 70.4084 161.777L69.764 160.628C69.6932 160.499 69.5949 160.414 69.497 160.383C69.413 160.356 69.3274 160.371 69.26 160.429ZM76.1424 162.67L75.5115 163.41C75.381 163.563 75.3951 163.868 75.5423 164.091C75.6109 164.195 75.6971 164.263 75.7811 164.29C75.879 164.321 75.9766 164.299 76.0458 164.218L76.6766 163.477C76.8071 163.322 76.795 163.017 76.6458 162.794C76.5773 162.692 76.491 162.622 76.407 162.595C76.3092 162.563 76.2115 162.585 76.1424 162.67ZM71.4921 163.005C71.2083 162.914 70.9396 162.996 70.7618 163.229L68.9718 165.563C68.8196 165.762 68.8302 166.128 68.9978 166.413L72.6868 172.735C72.7817 172.898 72.9082 173.005 73.0341 173.046C73.162 173.087 73.2875 173.06 73.3805 172.957L76.9954 168.973C77.1577 168.793 77.165 168.434 77.0093 168.136L75.1774 164.642C74.9935 164.293 74.7244 164.04 74.4405 163.949L71.4921 163.005Z" fill="url(#paint4_linear)"/>
<path d="M93.7501 162.516L119.563 153.397L113.96 143.056L87.9893 151.772L93.7501 162.516Z" fill="#FFC541"/>
<path d="M82.2768 162.516L56.4138 153.397L62.0166 143.056L87.9886 151.772L82.2768 162.516Z" fill="#FFC541"/>
<path opacity="0.45" d="M103.903 146.712L87.9022 152.046L71.9014 146.712V133.378H103.903V146.712Z" fill="url(#paint5_radial)"/>
<path d="M138.418 142.837L134 138.418L138.418 134L142.837 138.418L138.418 142.837Z" fill="url(#paint6_linear)"/>
<path d="M3.83151 106H0V109.832H3.83151V106Z" fill="#FFC541"/>
<path d="M7.42886 40H2V45.4289H7.42886V40Z" fill="#FFC541"/>
<path d="M64.7771 5.55426L62 2.7771L64.7771 0L67.5543 2.7771L64.7771 5.55426Z" fill="url(#paint7_linear)"/>
<path d="M28.0546 134.109L26 132.055L28.0546 130L30.1093 132.055L28.0546 134.109Z" fill="url(#paint8_linear)"/>
<path d="M150.471 109.206C151.72 109.206 152.736 110.223 152.736 111.471C152.736 112.72 151.72 113.736 150.471 113.736C149.222 113.736 148.206 112.72 148.206 111.471C148.206 110.223 149.222 109.206 150.471 109.206ZM150.471 108C148.554 108 147 109.554 147 111.471C147 113.389 148.554 114.943 150.471 114.943C152.389 114.943 153.943 113.389 153.943 111.471C153.943 109.554 152.389 108 150.471 108Z" fill="url(#paint9_linear)"/>
<path d="M18.3531 82.011C17.4759 82.8882 16.0537 82.8882 15.1765 82.011C14.2994 81.1338 15 79.5 15.1765 78.8344C15.3531 78.1689 16.0537 76.5351 15.1765 75.6579C14.2994 74.7807 12.8772 74.7807 12 75.6579" stroke="url(#paint10_linear)" stroke-width="1.22308" stroke-miterlimit="10"/>
<path d="M108 35.011C108.877 35.8882 110.299 35.8882 111.177 35.011C112.054 34.1338 111.5 33 111.177 31.8344C110.853 30.6689 110.299 29.5351 111.177 28.6579C112.054 27.7807 113.476 27.7807 114.353 28.6579" stroke="url(#paint11_linear)" stroke-width="1.22308" stroke-miterlimit="10"/>
<rect x="32" y="51" width="112.953" height="75.4124" rx="3.03433" fill="white"/>
<rect x="33.4792" y="52.0648" width="109.994" height="72.2871" rx="1.51716" fill="#F1F3F5"/>
<path d="M141.956 52.0646H34.9964C34.1585 52.0646 33.4792 52.7439 33.4792 53.5818V61.4054H143.474V53.5818C143.474 52.7439 142.794 52.0646 141.956 52.0646Z" fill="#E5E9EC"/>
<path d="M101.655 57.1739L101.662 57.177C101.807 57.2348 101.945 57.3909 101.88 57.5902C101.766 58.0184 101.582 58.3591 101.343 58.5843C101.104 58.8104 100.812 58.9186 100.492 58.8799C100.441 58.8789 100.388 58.8622 100.341 58.8369C100.293 58.8109 100.246 58.7726 100.213 58.7237C100.212 58.7233 100.212 58.723 100.212 58.7226L100.275 58.6806C100.179 58.5455 100.188 58.3653 100.243 58.1046L101.655 57.1739ZM101.655 57.1739L101.647 57.1726C101.464 57.1421 101.305 57.2349 101.242 57.3922L101.242 57.3919L101.239 57.402C101.216 57.4956 101.156 57.6742 101.062 57.8399C100.995 57.9557 100.917 58.0569 100.828 58.1223C100.829 58.1169 100.83 58.1116 100.831 58.1062C100.844 58.0466 100.855 57.9954 100.866 57.9633L100.866 57.9633L100.868 57.9577C100.87 57.9469 100.873 57.9361 100.876 57.9255C100.921 57.7444 100.962 57.5791 100.966 57.4437C100.967 57.3705 100.958 57.2999 100.929 57.2367C100.899 57.1722 100.85 57.1205 100.782 57.0825C100.693 57.0316 100.573 56.9738 100.436 56.9738C100.294 56.9738 100.145 57.0348 99.9978 57.195C99.9657 57.2275 99.9429 57.2665 99.9223 57.3018C99.9212 57.3037 99.92 57.3056 99.9189 57.3076C99.8981 57.3433 99.876 57.3812 99.8437 57.4243L99.8427 57.4235L99.8365 57.4358C99.7376 57.6338 99.5735 57.9346 99.3234 58.0955C99.2998 58.107 99.2501 58.1289 99.2009 58.1453C99.1749 58.1539 99.1514 58.1603 99.1333 58.1632C99.1256 58.1644 99.1202 58.1648 99.1168 58.1649L99.1069 58.1599H99.089C99.0894 58.1599 99.0892 58.1599 99.0884 58.1597C99.086 58.1592 99.0777 58.1576 99.062 58.152C99.0439 58.1455 99.022 58.136 98.9993 58.1247C98.9516 58.1008 98.9113 58.0743 98.8955 58.0586C98.8928 58.0559 98.8904 58.0534 98.888 58.0511C100.172 56.793 100.253 55.7042 100.227 55.3638C100.202 55.0107 100.1 54.7346 99.8991 54.5911L99.8996 54.5904L99.8889 54.585C99.852 54.5666 99.8104 54.5592 99.776 54.5557C99.7414 54.5523 99.7073 54.5523 99.6831 54.5523L99.682 54.5523H99.6742L99.6666 54.5539C99.2794 54.634 98.9731 54.9009 98.7375 55.3529C98.503 55.803 98.3347 56.4433 98.2231 57.2868L98.2224 57.2868V57.2968V57.2969V57.2971V57.2972V57.2974V57.2975V57.2977V57.2978V57.298V57.2981V57.2982V57.2984V57.2985V57.2987V57.2988V57.299V57.2991V57.2993V57.2994V57.2995V57.2997V57.2998V57.3V57.3001V57.3003V57.3004V57.3006V57.3007V57.3009V57.301V57.3011V57.3013V57.3014V57.3016V57.3017V57.3019V57.302V57.3022V57.3023V57.3024V57.3026V57.3027V57.3029V57.303V57.3032V57.3033V57.3035V57.3036V57.3037V57.3039V57.304V57.3042V57.3043V57.3045V57.3046V57.3048V57.3049V57.3051V57.3052V57.3053V57.3055V57.3056V57.3058V57.3059V57.3061V57.3062V57.3064V57.3065V57.3066V57.3068V57.3069V57.3071V57.3072V57.3074V57.3075V57.3077V57.3078V57.3079V57.3081V57.3082V57.3084V57.3085V57.3087V57.3088V57.309V57.3091V57.3093V57.3094V57.3095V57.3097V57.3098V57.31V57.3101V57.3103V57.3104V57.3106V57.3107V57.3108V57.311V57.3111V57.3113V57.3114V57.3116V57.3117V57.3119V57.312V57.3121V57.3123V57.3124V57.3126V57.3127V57.3129V57.313V57.3132V57.3133V57.3134V57.3136V57.3137V57.3139V57.314V57.3142V57.3143V57.3145V57.3146V57.3148V57.3149V57.315V57.3152V57.3153V57.3155V57.3156V57.3158V57.3159V57.3161V57.3162V57.3163V57.3165V57.3166V57.3168V57.3169V57.3171V57.3172V57.3174V57.3175V57.3176V57.3178V57.3179V57.3181V57.3182V57.3184V57.3185V57.3187V57.3188V57.319V57.3191V57.3192V57.3194V57.3195V57.3197V57.3198V57.32V57.3201V57.3203V57.3204V57.3205V57.3207V57.3208V57.321V57.3211V57.3213V57.3214V57.3216V57.3217V57.3218V57.322V57.3221V57.3223V57.3224V57.3226V57.3227V57.3229V57.323V57.3231V57.3233V57.3234V57.3236V57.3237V57.3239V57.324V57.3242V57.3243V57.3245V57.3246V57.3247V57.3249V57.325V57.3252V57.3253V57.3255V57.3256V57.3258V57.3259V57.326V57.3262V57.3263V57.3265V57.3266V57.3268V57.3269V57.3271V57.3272V57.3273V57.3275V57.3276V57.3278V57.3279V57.3281V57.3282V57.3284V57.3285V57.3287V57.3288V57.3289V57.3291V57.3292V57.3294V57.3295V57.3297V57.3298V57.33V57.3301V57.3302V57.3304V57.3305V57.3307V57.3308V57.331V57.3311V57.3313V57.3314V57.3315V57.3317V57.3318V57.332V57.3321V57.3323V57.3324V57.3326V57.3327V57.3328V57.333V57.3331V57.3333V57.3334V57.3336V57.3337V57.3339V57.334V57.3342V57.3343V57.3344V57.3346V57.3347V57.3349V57.335V57.3352V57.3353V57.3355V57.3356V57.3357V57.3359V57.336V57.3362V57.3363V57.3365V57.3366V57.3368V57.3369V57.337V57.3372V57.3373V57.3375V57.3376V57.3378V57.3379V57.3381V57.3382V57.3383V57.3385V57.3386V57.3388V57.3389V57.3391V57.3392V57.3394V57.3395V57.3397V57.3398V57.3399V57.3401V57.3402V57.3404V57.3405V57.3407V57.3408V57.341V57.3411V57.3412V57.3414V57.3415V57.3417V57.3418V57.342V57.3421V57.3423V57.3424V57.3425V57.3427V57.3428V57.343V57.3431V57.3433V57.3434V57.3436V57.3437V57.3439V57.344V57.3441V57.3443V57.3444V57.3446V57.3447V57.3449V57.345V57.3452V57.3453V57.3454V57.3456V57.3457V57.3459V57.346V57.3462V57.3463V57.3465V57.3466V57.3467V57.3469V57.347V57.3472V57.3473V57.3475V57.3476V57.3478V57.3479V57.348V57.3482V57.3483V57.3485V57.3486V57.3488V57.3489V57.3491V57.3492V57.3494V57.3495V57.3496V57.3498V57.3499V57.3501V57.3502V57.3504V57.3505V57.3507V57.3508V57.3509V57.3511V57.3512V57.3514V57.3515V57.3517V57.3518V57.352V57.3521V57.3522V57.3524V57.3525V57.3527V57.3528V57.353V57.3531V57.3533V57.3534V57.3535V57.3537V57.3538V57.354V57.3541V57.3543V57.3544V57.3546V57.3547V57.3549V57.355V57.3551V57.3553V57.3554V57.3556V57.3557V57.3559V57.356V57.3562V57.3563V57.3564V57.3566V57.3567V57.3569V57.357V57.3572V57.3573V57.3575V57.3576V57.3577V57.3579V57.358V57.3582V57.3583V57.3585V57.3586V57.3588V57.3589V57.3591V57.3592V57.3593V57.3595V57.3596V57.3598V57.3599V57.3601V57.3602V57.3604V57.3605V57.3606V57.3608V57.3609V57.3611V57.3612V57.3614V57.3615V57.3617V57.3618V57.3619V57.3621V57.3622V57.3624V57.3625V57.3627V57.3628V57.363V57.3631V57.3633V57.3634C98.2203 57.3738 98.218 57.3848 98.2156 57.3964C98.1916 57.5114 98.1554 57.6849 98.1694 57.8792C98.1424 57.9013 98.119 57.9248 98.0983 57.9454L98.0964 57.9474C98.0646 57.9791 98.0389 58.0045 98.0091 58.0244L98.0088 58.0239L98.0018 58.0299C97.9535 58.0713 97.9116 58.1064 97.8753 58.1359C97.9266 57.9953 97.8869 57.8363 97.7443 57.7507L97.7443 57.7507C97.5915 57.659 97.3952 57.6854 97.2956 57.8484C97.2003 57.9857 97.1472 58.1674 97.1506 58.3422C97.154 58.5181 97.2152 58.697 97.3613 58.8139L97.3676 58.8189L97.3747 58.8225L97.3761 58.8232C97.4268 58.8486 97.5389 58.9047 97.6805 58.9047C97.8771 58.9047 98.1364 58.7957 98.4334 58.5276L98.4423 58.5365C98.4984 58.5926 98.5977 58.6647 98.7075 58.7229C98.8147 58.7796 98.9433 58.8292 99.0595 58.8305C99.1741 58.8436 99.3084 58.815 99.4243 58.7774C99.5435 58.7388 99.6538 58.6871 99.721 58.6468L99.7211 58.6468L99.7241 58.6448C99.8922 58.5327 100.029 58.3911 100.14 58.2489L101.655 57.1739ZM99.3897 55.5434C99.4518 55.4391 99.5185 55.3556 99.5896 55.2951C99.5995 55.3397 99.6061 55.3933 99.6061 55.4683C99.6061 55.6797 99.5485 56.2876 98.934 57.0837C98.9914 56.7332 99.0662 56.373 99.1673 56.0599C99.2312 55.8623 99.3048 55.6858 99.3897 55.5434ZM101.782 57.1256C102.018 57.1256 102.204 56.947 102.204 56.7285C102.204 56.6161 102.148 56.5166 102.071 56.4467C101.994 56.377 101.89 56.3314 101.782 56.3314C101.546 56.3314 101.361 56.51 101.361 56.7285C101.361 56.947 101.546 57.1256 101.782 57.1256Z" fill="#CFD4DA" stroke="#CFD4DA" stroke-width="0.151716"/>
<path fill-rule="evenodd" clip-rule="evenodd" d="M119.214 56.105L117.44 56.7285L119.214 57.258L119.901 59.1801L120.583 57.258L122.36 56.7285L120.583 56.105L119.901 54.2769L119.214 56.105Z" fill="#CFD4DA"/>
<path d="M79.0537 58.6583C79.0274 58.6842 78.9758 58.735 78.9246 58.735C78.9246 58.735 77.7029 58.9959 77.6324 58.9923C77.5737 59.0023 77.4655 58.9967 77.4227 58.9542C77.3674 58.8995 77.3504 58.8575 77.373 58.7436L77.6073 57.4259C77.6073 57.3745 77.633 57.3486 77.6842 57.2972L77.685 57.2964L79.4275 55.5652L80.3635 54.6348C80.5975 54.4022 81.0134 54.4022 81.2474 54.6348L81.7328 55.1171C81.8368 55.2204 81.9148 55.4013 81.9148 55.5563C81.9148 55.7114 81.8627 55.8664 81.7328 55.9959L79.0546 58.6575L79.0537 58.6583Z" fill="#CFD4DA"/>
<path d="M138.426 59.4389H128.441C127.082 59.4389 125.98 58.603 125.98 57.5719V55.8981C125.98 54.8669 127.082 54.0311 128.441 54.0311H138.426C139.785 54.0311 140.888 54.8669 140.888 55.8981V57.5719C140.888 58.603 139.785 59.4389 138.426 59.4389Z" fill="#F3F4F5"/>
<path d="M41.7385 54.5162H37.314V58.9407H41.7385V54.5162Z" fill="#CFD4DA"/>
<path d="M72.0213 56.7285L69.5632 54.2704L67.1052 56.7285L69.5632 59.1865L72.0213 56.7285Z" fill="#CFD4DA"/>
<path d="M49.2929 58.9408C48.0711 58.9408 47.0806 57.9503 47.0806 56.7285C47.0806 55.5067 48.0711 54.5162 49.2929 54.5162C50.5147 54.5162 51.5052 55.5067 51.5052 56.7285C51.5051 57.9503 50.5147 58.9408 49.2929 58.9408Z" fill="#CFD4DA"/>
<path d="M59.3053 54.762L56.8472 58.6949H61.7634L59.3053 54.762Z" fill="#CFD4DA"/>
<rect x="87.2568" y="55.3947" width="1.3859" height="5.15835" rx="0.692952" transform="rotate(-45 87.2568 55.3947)" fill="#CFD4DA"/>
<rect x="90.9043" y="54.4148" width="1.3859" height="5.15835" rx="0.692952" transform="rotate(45 90.9043 54.4148)" fill="#CFD4DA"/>
<path fill-rule="evenodd" clip-rule="evenodd" d="M110.093 59.3041C109.574 59.2919 109.082 59.0675 108.733 58.6832L108.083 58.0199L107.683 57.6106C107.454 57.3958 107.404 57.052 107.561 56.7808C107.757 56.4833 108.118 56.34 108.464 56.4224C108.553 56.4496 108.638 56.4865 108.719 56.5324L108.829 56.6086V54.8333C108.841 54.4442 109.165 54.1379 109.554 54.1474C109.758 54.144 109.954 54.2246 110.096 54.3704C110.133 54.4103 110.166 54.4549 110.192 54.5031C110.382 54.4253 110.596 54.4318 110.782 54.5212C110.967 54.6105 111.105 54.7742 111.163 54.9716C111.242 54.9432 111.325 54.9289 111.408 54.9293C111.593 54.9227 111.773 54.9897 111.908 55.1155C112.036 55.2403 112.105 55.4139 112.097 55.5925C112.097 55.9058 112.097 56.5268 112.097 56.5268V56.7554C112.097 56.9756 112.097 57.2042 112.097 57.4328C112.069 58.1371 111.653 58.7679 111.016 59.0699C110.731 59.2221 110.414 59.3044 110.09 59.3098" fill="#CFD4DA"/>
<path d="M88 104C81.3725 104 76 98.6274 76 92C76 85.3726 81.3725 80 88 80C94.6274 80 100 85.3726 100 92C100 98.6274 94.6274 104 88 104ZM93.8668 91.9411L87.8054 84.5L81.7441 91.9411H84.9776V98.4158H90.6335V91.9411H93.8668Z" fill="url(#paint12_linear)"/>
<path opacity="0.8" d="M169.861 73.0321H169.257V67H169.861V73.0321ZM163.953 68.7235L163.465 69.0781L167.01 73.9582L167.498 73.6036L163.953 68.7235ZM160.186 73.5905L160 74.1642L165.737 76.0282L165.923 75.4545L160.186 73.5905ZM160 79.7417L160.186 80.3154L165.923 78.4513L165.737 77.8776L160 79.7417ZM163.465 84.8277L163.953 85.1823L167.498 80.3022L167.01 79.9476L163.465 84.8277ZM169.257 86.9058H169.861V80.8737H169.257V86.9058ZM175.165 85.1823L175.653 84.8277L172.108 79.9476L171.62 80.3022L175.165 85.1823ZM178.932 80.3154L179.118 79.7417L173.381 77.8777L173.195 78.4514L178.932 80.3154ZM179.118 74.1641L178.932 73.5904L173.195 75.4544L173.381 76.0281L179.118 74.1641ZM175.653 69.0781L175.165 68.7235L171.62 73.6036L172.108 73.9582L175.653 69.0781Z" fill="url(#paint13_linear)"/>
<path opacity="0.8" d="M35.1337 23.4226H34.3914V16H35.1337V23.4226ZM27.864 18.1209L27.2635 18.5572L31.6264 24.5622L32.2269 24.1259L27.864 18.1209ZM23.2293 24.1097L23 24.8156L30.0593 27.1093L30.2887 26.4034L23.2293 24.1097ZM23 31.6789L23.2293 32.3848L30.2887 30.0911L30.0593 29.3852L23 31.6789ZM27.2635 37.9373L27.864 38.3736L32.2269 32.3687L31.6264 31.9324L27.2635 37.9373ZM34.3914 40.4945H35.1336V33.0719H34.3914V40.4945ZM41.661 38.3736L42.2615 37.9373L37.8987 31.9324L37.2982 32.3687L41.661 38.3736ZM46.2957 32.3848L46.525 31.6789L39.4657 29.3852L39.2364 30.0911L46.2957 32.3848ZM46.525 24.8156L46.2957 24.1097L39.2364 26.4034L39.4657 27.1093L46.525 24.8156ZM42.2615 18.5572L41.661 18.1209L37.2982 24.1259L37.8987 24.5622L42.2615 18.5572Z" fill="url(#paint14_linear)"/>
<defs>
<radialGradient id="paint0_radial" cx="0" cy="0" r="1" gradientUnits="userSpaceOnUse" gradientTransform="translate(86.2899 174.667) scale(63.2972 15.669)">
<stop offset="0.00290438" stop-color="#2651A1" stop-opacity="0.3"/>
<stop offset="1" stop-color="#2651A1" stop-opacity="0"/>
</radialGradient>
<linearGradient id="paint1_linear" x1="101.018" y1="182.814" x2="101.018" y2="134.341" gradientUnits="userSpaceOnUse">
<stop stop-color="#FCAA14"/>
<stop offset="1" stop-color="#FFD45B"/>
</linearGradient>
<linearGradient id="paint2_linear" x1="106.095" y1="177.044" x2="95.8548" y2="148.909" gradientUnits="userSpaceOnUse">
<stop stop-color="#FBAA32"/>
<stop offset="0.0952" stop-color="#FBAF32"/>
<stop offset="0.3246" stop-color="#FCB532"/>
<stop offset="0.5159" stop-color="#FCAE29"/>
<stop offset="0.8291" stop-color="#FC9D10"/>
<stop offset="1" stop-color="#FC9100"/>
</linearGradient>
<linearGradient id="paint3_linear" x1="66.9045" y1="177.003" x2="83.101" y2="148.95" gradientUnits="userSpaceOnUse">
<stop stop-color="#FFD45B"/>
<stop offset="1" stop-color="#FCAA14"/>
</linearGradient>
<linearGradient id="paint4_linear" x1="68.9619" y1="169.051" x2="75.9413" y2="162.072" gradientUnits="userSpaceOnUse">
<stop stop-color="#FBAA32"/>
<stop offset="0.0952" stop-color="#FBAF32"/>
<stop offset="0.3246" stop-color="#FCB532"/>
<stop offset="0.5159" stop-color="#FCAE29"/>
<stop offset="0.8291" stop-color="#FC9D10"/>
<stop offset="1" stop-color="#FC9100"/>
</linearGradient>
<radialGradient id="paint5_radial" cx="0" cy="0" r="1" gradientUnits="userSpaceOnUse" gradientTransform="translate(88.0384 145.303) scale(19.1136 8.81327)">
<stop stop-color="#FF7900"/>
<stop offset="0.9671" stop-color="#CA7222" stop-opacity="0"/>
</radialGradient>
<linearGradient id="paint6_linear" x1="134" y1="138.418" x2="142.837" y2="138.418" gradientUnits="userSpaceOnUse">
<stop offset="0.0016" stop-color="#FF7240"/>
<stop offset="1" stop-color="#FE4C49"/>
</linearGradient>
<linearGradient id="paint7_linear" x1="62" y1="2.7771" x2="67.5543" y2="2.7771" gradientUnits="userSpaceOnUse">
<stop offset="0.0016" stop-color="#FF7240"/>
<stop offset="1" stop-color="#FE4C49"/>
</linearGradient>
<linearGradient id="paint8_linear" x1="26" y1="132.055" x2="30.1093" y2="132.055" gradientUnits="userSpaceOnUse">
<stop offset="0.0016" stop-color="#FF7240"/>
<stop offset="1" stop-color="#FE4C49"/>
</linearGradient>
<linearGradient id="paint9_linear" x1="147" y1="111.471" x2="153.943" y2="111.471" gradientUnits="userSpaceOnUse">
<stop stop-color="#09BDF8"/>
<stop offset="1" stop-color="#1591D4"/>
</linearGradient>
<linearGradient id="paint10_linear" x1="17.1927" y1="76.8181" x2="13.1631" y2="80.8477" gradientUnits="userSpaceOnUse">
<stop stop-color="#09BDF8"/>
<stop offset="1" stop-color="#1591D4"/>
</linearGradient>
<linearGradient id="paint11_linear" x1="109.16" y1="29.8184" x2="113.189" y2="33.848" gradientUnits="userSpaceOnUse">
<stop stop-color="#09BDF8"/>
<stop offset="1" stop-color="#1591D4"/>
</linearGradient>
<linearGradient id="paint12_linear" x1="88" y1="79.9999" x2="88" y2="104" gradientUnits="userSpaceOnUse">
<stop stop-color="#1591D4"/>
<stop offset="1" stop-color="#09BDF8"/>
</linearGradient>
<linearGradient id="paint13_linear" x1="169.314" y1="66.9038" x2="169.314" y2="87.0021" gradientUnits="userSpaceOnUse">
<stop stop-color="#C6DFF9" stop-opacity="0.5054"/>
<stop offset="1" stop-color="#9ECCFD" stop-opacity="0.4318"/>
</linearGradient>
<linearGradient id="paint14_linear" x1="34.4609" y1="15.8816" x2="34.4609" y2="40.6131" gradientUnits="userSpaceOnUse">
<stop stop-color="#C6DFF9" stop-opacity="0.5054"/>
<stop offset="1" stop-color="#9ECCFD" stop-opacity="0.4318"/>
</linearGradient>
</defs>
</svg>
