<svg viewBox="0 0 14 14" fill="none" xmlns="http://www.w3.org/2000/svg">
<path d="M8.80517 5.25004L10.6921 7.5258H3.30784L5.19481 5.25004H8.80517ZM8.80517 4.08337H5.19481C4.84755 4.08337 4.51837 4.23807 4.29671 4.50536L2.07987 7.17901C1.89157 7.4061 1.90247 7.73802 2.10524 7.95227L6.57631 12.6773C6.69141 12.7989 6.8457 12.8597 7.00005 12.8597C7.1544 12.8597 7.30869 12.7989 7.42378 12.6773L11.8949 7.95227C12.0976 7.73802 12.1085 7.4061 11.9202 7.17901L9.70339 4.50536C9.48166 4.23807 9.15243 4.08337 8.80517 4.08337Z" fill="white"/>
<path d="M7 1.16663C6.75838 1.16663 6.5625 1.36251 6.5625 1.60413V2.77079C6.5625 3.01241 6.75838 3.20829 7 3.20829C7.24162 3.20829 7.4375 3.01241 7.4375 2.77079V1.60413C7.4375 1.36251 7.24162 1.16663 7 1.16663Z" fill="white"/>
<path d="M11.2293 2.26215C11.1096 2.26215 10.9904 2.31097 10.904 2.40693L10.1234 3.27394C9.96167 3.45349 9.9762 3.7301 10.1557 3.8918C10.2393 3.96711 10.344 4.00415 10.4483 4.00415C10.568 4.00415 10.6872 3.95533 10.7736 3.85943L11.5543 2.99242C11.716 2.81287 11.7015 2.5362 11.5219 2.37455C11.4383 2.29925 11.3336 2.26215 11.2293 2.26215Z" fill="white"/>
<path d="M2.34648 2.26215C2.24218 2.26215 2.13747 2.29925 2.05388 2.3745C1.87427 2.5362 1.8598 2.81281 2.02144 2.99236L2.80212 3.85937C2.88851 3.95533 3.00769 4.00415 3.12739 4.00415C3.23169 4.00415 3.33639 3.96705 3.41999 3.8918C3.59954 3.7301 3.61406 3.45349 3.45236 3.27394L2.67174 2.40687C2.58535 2.31097 2.46612 2.26215 2.34648 2.26215Z" fill="white"/>
</svg>
