<svg viewBox="0 0 24 24" fill="none" xmlns="http://www.w3.org/2000/svg">
<path fill-rule="evenodd" clip-rule="evenodd" d="M19 9.6L21.4 12.1C21.8 12.4 22 12.9 22 13.5V20C22 21.1 21.1 22 20 22H13C11.9 22 11 21.1 11 20V13C11.5 12 12 9 13 9H17.5C18.1 9 18.6 9.2 19 9.6Z" fill="#2651A1"/>
<path fill-rule="evenodd" clip-rule="evenodd" d="M4 2C2.89543 2 2 2.89543 2 4V14C2 15.1046 2.89543 16 4 16H12C13.1046 16 14 15.1046 14 14V6.82843C14 6.29799 13.7893 5.78929 13.4142 5.41421L10.5858 2.58579C10.2107 2.21071 9.70201 2 9.17157 2H4ZM10.6775 14.0025H9.3125L8.555 10.8675L7.7975 14.0025H6.4325L5 9H6.4475L7.205 12.3375L8.06 9H9.05L9.905 12.3375L10.655 9H12.1025L10.6775 14.0025Z" fill="#00A5E4"/>
<path fill-rule="evenodd" clip-rule="evenodd" d="M7 20.7939V22.5L10 19.7939L7 17V18.7939H6C5.44772 18.7939 5 18.3462 5 17.7939H3C3 19.4507 4.34315 20.7939 6 20.7939H7Z" fill="#2651A1"/>
<path fill-rule="evenodd" clip-rule="evenodd" d="M19 9.6L21.4 12.1C21.8 12.4 22 12.9 22 13.5V20C22 21.1 21.1 22 20 22H13C11.9 22 11 21.1 11 20V13C11.5 12 12 9 13 9H17.5C18.1 9 18.6 9.2 19 9.6Z" fill="#2651A1"/>
<path fill-rule="evenodd" clip-rule="evenodd" d="M4 2C2.89543 2 2 2.89543 2 4V14C2 15.1046 2.89543 16 4 16H12C13.1046 16 14 15.1046 14 14V6.82843C14 6.29799 13.7893 5.78929 13.4142 5.41421L10.5858 2.58579C10.2107 2.21071 9.70201 2 9.17157 2H4ZM10.6775 14.0025H9.3125L8.555 10.8675L7.7975 14.0025H6.4325L5 9H6.4475L7.205 12.3375L8.06 9H9.05L9.905 12.3375L10.655 9H12.1025L10.6775 14.0025Z" fill="#00A5E4"/>
<path fill-rule="evenodd" clip-rule="evenodd" d="M7 20.7939V22.5L10 19.7939L7 17V18.7939H6C5.44772 18.7939 5 18.3462 5 17.7939H3C3 19.4507 4.34315 20.7939 6 20.7939H7Z" fill="#2651A1"/>
</svg>
