<svg viewBox="0 0 24 24" fill="none" xmlns="http://www.w3.org/2000/svg">
<path fill-rule="evenodd" clip-rule="evenodd" d="M21.4 12C21.8 12.4 22 12.9 22 13.4V20C22 21.1 21.1 22 20 22H13C11.9 22 11 21.1 11 20V11C11 9.9 11.9 9 13 9H17.6C18.1 9 18.6 9.2 19 9.6L21.4 12Z" fill="#00A5E4"/>
<path d="M2 4C2 2.89543 2.89543 2 4 2H9.90639C10.4324 2 10.9372 2.20719 11.3115 2.57669L13.4051 4.64346C13.7857 5.01924 14 5.53186 14 6.06676V14C14 15.1046 13.1046 16 12 16H4C2.89543 16 2 15.1046 2 14V4Z" fill="#2651A1"/>
<path fill-rule="evenodd" clip-rule="evenodd" d="M7 7.5H4V9H7V7.5ZM7 10H4V11.5H7V10ZM4 12.5H7V14H4V12.5ZM12 7.5H8V9H12V7.5ZM8 10H12V11.5H8V10ZM12 12.5H8V14H12V12.5Z" fill="white"/>
<path fill-rule="evenodd" clip-rule="evenodd" d="M7 20.7939V22.5L10 19.7939L7 17V18.7939H6C5.44772 18.7939 5 18.3462 5 17.7939H3C3 19.4507 4.34315 20.7939 6 20.7939H7Z" fill="#2651A1"/>
</svg>
