<svg viewBox="0 0 24 24" fill="none" xmlns="http://www.w3.org/2000/svg">
<path fill-rule="evenodd" clip-rule="evenodd" d="M21.3996 12C21.7996 12.4 21.9996 12.9 21.9996 13.4V20C21.9996 21.1 21.0996 22 19.9996 22H12.9996C11.8996 22 10.9996 21.1 10.9996 20V11C10.9996 9.9 11.8996 9 12.9996 9H17.5996C18.0996 9 18.5996 9.2 18.9996 9.6L21.3996 12Z" fill="#00A5E4"/>
<path d="M2 4C2 2.89543 2.89543 2 4 2H9.90639C10.4324 2 10.9372 2.20719 11.3115 2.57669L13.4051 4.64346C13.7857 5.01924 14 5.53186 14 6.06676V14C14 15.1046 13.1046 16 12 16H4C2.89543 16 2 15.1046 2 14V4Z" fill="#0070CA"/>
<path fill-rule="evenodd" clip-rule="evenodd" d="M7 7C5.34315 7 4 8.34315 4 10C4 11.6569 5.34315 13 7 13C8.65685 13 10 11.6569 10 10H7V7Z" fill="white"/>
<path fill-rule="evenodd" clip-rule="evenodd" d="M11 9C11 7.34315 9.65685 6 8 6V9H11Z" fill="white"/>
<path fill-rule="evenodd" clip-rule="evenodd" d="M7 20.7939V22.5L10 19.7939L7 17V18.7939H6C5.44772 18.7939 5 18.3462 5 17.7939H3C3 19.4507 4.34315 20.7939 6 20.7939H7Z" fill="#0070CA"/>
</svg>
