<svg viewBox="0 0 24 24" fill="none" xmlns="http://www.w3.org/2000/svg">
<path fill-rule="evenodd" clip-rule="evenodd" d="M18.984 9.60601L21.419 12.057C21.793 12.434 22.002 12.943 22 13.473L21.978 20.007C21.974 21.111 21.075 22.004 19.971 22L12.993 21.977C11.888 21.973 10.996 21.074 11 19.97L11.03 10.993C11.034 9.88901 11.932 8.99601 13.037 9.00001L17.571 9.01601C18.102 9.01701 18.61 9.23001 18.984 9.60601Z" fill="#00A5E4"/>
<path d="M14.5 17.2857L16.375 19L19.5 15" stroke="white" stroke-width="1.5"/>
<path fill-rule="evenodd" clip-rule="evenodd" d="M10.7098 2.65263L13.3662 5.29216C13.7742 5.69816 14.0022 6.24631 14 6.81708L13.976 13.8537C13.9716 15.0426 12.9909 16.0043 11.7865 16L4.17419 15.9752C2.96874 15.9709 1.99565 15.0028 2.00001 13.8138L2.03274 4.14632C2.03711 2.9574 3.01674 1.99571 4.22219 2.00001L9.16836 2.01725C9.74763 2.01832 10.3018 2.24771 10.7098 2.65263Z" fill="#0070CA"/>
<path fill-rule="evenodd" clip-rule="evenodd" d="M7 20.7939V22.5L10 19.7939L7 17V18.7939H6C5.44772 18.7939 5 18.3462 5 17.7939H3C3 19.4507 4.34315 20.7939 6 20.7939H7Z" fill="#0070CA"/>
</svg>
