<svg viewBox="0 0 24 24" fill="none" xmlns="http://www.w3.org/2000/svg">
<path fill-rule="evenodd" clip-rule="evenodd" d="M21.4 12.1L19 9.6C18.6 9.2 18.1 9 17.5 9H13C11.9 9 11 9.9 11 11V11.5L12 13H11V20C11 21.1 11.9 22 13 22H20C21.1 22 22 21.1 22 20V13.5C22 12.9 21.8 12.4 21.4 12.1Z" fill="#2651A1"/>
<path fill-rule="evenodd" clip-rule="evenodd" d="M7 20.7939V22.5L10 19.7939L7 17V18.7939H6C5.44772 18.7939 5 18.3462 5 17.7939H3C3 19.4507 4.34315 20.7939 6 20.7939H7Z" fill="#00A5E4"/>
<path fill-rule="evenodd" clip-rule="evenodd" d="M4 2C2.89543 2 2 2.89543 2 4V14C2 15.1046 2.89543 16 4 16H12C13.1046 16 14 15.1046 14 14V6.82843C14 6.29799 13.7893 5.78929 13.4142 5.41421L10.5858 2.58579C10.2107 2.21071 9.70201 2 9.17157 2H4ZM11 7C11 7.55228 10.5523 8 10 8C9.44772 8 9 7.55228 9 7C9 6.44772 9.44772 6 10 6C10.5523 6 11 6.44772 11 7ZM4 13H12L10 10L9 11.5L7 9L4 13Z" fill="#00A5E4"/>
</svg>
