<svg viewBox="0 0 24 24" fill="none" xmlns="http://www.w3.org/2000/svg">
<path fill-rule="evenodd" clip-rule="evenodd" d="M10 2.6L12.4 5.1C12.8 5.4 13 5.9 13 6.5V13C13 14.1 12.1 15 11 15H4C2.9 15 2 14.1 2 13V4C2 2.9 2.9 2 4 2H8.5C9.1 2 9.6 2.2 10 2.6Z" fill="#2651A1"/>
<path fill-rule="evenodd" clip-rule="evenodd" d="M6 20.7939V22.5L9 19.7939L6 17V18.7939H5C4.44772 18.7939 4 18.3462 4 17.7939H2C2 19.4507 3.34315 20.7939 5 20.7939H6Z" fill="#2651A1"/>
<path fill-rule="evenodd" clip-rule="evenodd" d="M12 8C10.8954 8 10 8.89543 10 10V20C10 21.1046 10.8954 22 12 22H20C21.1046 22 22 21.1046 22 20V12.8284C22 12.298 21.7893 11.7893 21.4142 11.4142L18.5858 8.58579C18.2107 8.21071 17.702 8 17.1716 8H12ZM18.6775 20.0025H17.3125L16.555 16.8675L15.7975 20.0025H14.4325L13 15H14.4475L15.205 18.3375L16.06 15H17.05L17.905 18.3375L18.655 15H20.1025L18.6775 20.0025Z" fill="#00A5E4"/>
</svg>
