<svg viewBox="0 0 24 24" fill="none" xmlns="http://www.w3.org/2000/svg">
<path fill-rule="evenodd" clip-rule="evenodd" d="M12.4 5C12.8 5.4 13 5.9 13 6.4V13C13 14.1 12.1 15 11 15H4C2.9 15 2 14.1 2 13V4C2 2.9 2.9 2 4 2H8.6C9.1 2 9.6 2.2 10 2.6L12.4 5Z" fill="#2651A1"/>
<path fill-rule="evenodd" clip-rule="evenodd" d="M19 9.6L21.4 12.1C21.8 12.5 22 13 22 13.5V20C22 21.1 21.1 22 20 22H13C11.9 22 11 21.1 11 20V11C11 9.9 11.9 9 13 9H17.5C18.1 9 18.6 9.2 19 9.6Z" fill="#6BD8FF"/>
<path fill-rule="evenodd" clip-rule="evenodd" d="M6 20.7939V22.5L9 19.7939L6 17V18.7939H5C4.44772 18.7939 4 18.3462 4 17.7939H2C2 19.4507 3.34315 20.7939 5 20.7939H6Z" fill="#2651A1"/>
<path d="M10 10C10 8.89543 10.8954 8 12 8H17.1716C17.702 8 18.2107 8.21071 18.5858 8.58579L21.4142 11.4142C21.7893 11.7893 22 12.298 22 12.8284V20C22 21.1046 21.1046 22 20 22H12C10.8954 22 10 21.1046 10 20V10Z" fill="#00A5E4"/>
<path d="M15.9 20V18.9L14 18L15.9 17.1V16L13 17.5V18.4L15.9 20ZM17.1 20L20 18.5V17.6L17.1 16V17.1L19 18.1L17.1 19V20Z" fill="white"/>
</svg>
