<?xml version="1.0" encoding="utf-8"?>
<!-- Generator: Adobe Illustrator 24.3.0, SVG Export Plug-In . SVG Version: 6.00 Build 0)  -->
<!DOCTYPE svg PUBLIC "-//W3C//DTD SVG 1.1//EN" "http://www.w3.org/Graphics/SVG/1.1/DTD/svg11.dtd" [
	<!ENTITY ns_extend "http://ns.adobe.com/Extensibility/1.0/">
	<!ENTITY ns_ai "http://ns.adobe.com/AdobeIllustrator/10.0/">
	<!ENTITY ns_graphs "http://ns.adobe.com/Graphs/1.0/">
	<!ENTITY ns_vars "http://ns.adobe.com/Variables/1.0/">
	<!ENTITY ns_imrep "http://ns.adobe.com/ImageReplacement/1.0/">
	<!ENTITY ns_sfw "http://ns.adobe.com/SaveForWeb/1.0/">
	<!ENTITY ns_custom "http://ns.adobe.com/GenericCustomNamespace/1.0/">
	<!ENTITY ns_adobe_xpath "http://ns.adobe.com/XPath/1.0/">
]>
<svg version="1.1" id="Layer_1" xmlns:x="&ns_extend;" xmlns:i="&ns_ai;" xmlns:graph="&ns_graphs;"
	 xmlns="http://www.w3.org/2000/svg" xmlns:xlink="http://www.w3.org/1999/xlink" x="0px" y="0px" viewBox="0 0 24 24"
	 enable-background="new 0 0 24 24" xml:space="preserve">
<metadata>
	<sfw  xmlns="&ns_sfw;">
		<slices></slices>
		<sliceSourceBounds  bottomLeftOrigin="true" height="24" width="24" x="0" y="0"></sliceSourceBounds>
	</sfw>
</metadata>
<g id="icons-_x2F_-24px-_x2F_-pdfonline--_x2F_-pdf-to-jpg">
	<g id="pdf-to-jpg">
		<rect id="Rectangle" fill="none" width="24" height="24"/>
		<path id="Fill-1-Copy_1_" fill-rule="evenodd" clip-rule="evenodd" fill="#2651A1" d="M13,5.828V13c0,1.1-0.9,2-2,2H4
			c-1.1,0-2-0.9-2-2V4c0-1.105,0.895-2,2-2h5.172c0.53,0,1.039,0.211,1.414,0.586l1.828,1.828C12.789,4.789,13,5.298,13,5.828z"/>
		<path id="Fill-8_1_" fill-rule="evenodd" clip-rule="evenodd" fill="#2651A1" d="M4.5,17v0.2c0,0.6,0.5,1.2,1.1,1.2h0.1H7V17
			l2.5,2.2L7,21.5V20H5.5C4.1,20,3,18.9,3,17.5V17H4.5z"/>
		<path id="Shape" fill-rule="evenodd" clip-rule="evenodd" fill="#09BDF8" d="M21.414,11.414l-1.828-1.828
			C19.211,9.211,18.702,9,18.172,9H13c-1.105,0-2,0.895-2,2v9c0,1.1,0.9,2,2,2h7c1.1,0,2-0.9,2-2v-7.172
			C22,12.298,21.789,11.789,21.414,11.414z M15.5,15.5L13,19h7.5l-2-2.5l-1,1.5L15.5,15.5z M18,13c-0.552,0-1,0.448-1,1s0.448,1,1,1
			s1-0.448,1-1S18.552,13,18,13z"/>
	</g>
</g>
</svg>
