<svg width="24" height="24" viewBox="0 0 24 24" fill="none" xmlns="http://www.w3.org/2000/svg">
<path fill-rule="evenodd" clip-rule="evenodd" d="M21.4 12C21.8 12.4 22 12.9 22 13.4V20C22 21.1 21.1 22 20 22H13C11.9 22 11 21.1 11 20V11C11 9.9 11.9 9 13 9H17.6C18.1 9 18.6 9.2 19 9.6L21.4 12Z" fill="#2651A1"/>
<path fill-rule="evenodd" clip-rule="evenodd" d="M10.7102 2.65263L13.3665 5.29216C13.7745 5.69816 14.0025 6.24631 14.0004 6.81708L13.9764 13.8537C13.972 15.0426 12.9913 16.0043 11.7869 16L4.17456 15.9752C2.96911 15.9709 1.99602 15.0028 2.00038 13.8138L2.03311 4.14632C2.03747 2.9574 3.01711 1.99571 4.22256 2.00001L9.16873 2.01725C9.748 2.01832 10.3022 2.24771 10.7102 2.65263Z" fill="#00A5E4"/>
<path fill-rule="evenodd" clip-rule="evenodd" d="M7 20.7939V22.5L10 19.7939L7 17V18.7939H6C5.44772 18.7939 5 18.3462 5 17.7939H3C3 19.4507 4.34315 20.7939 6 20.7939H7Z" fill="#00A5E4"/>
<path fill-rule="evenodd" clip-rule="evenodd" d="M18 3.7061L18 2L15 4.70612L18 7.5L18 5.7061L19 5.7061C19.5523 5.7061 20 6.15382 20 6.7061L22 6.70611C22 5.04925 20.6569 3.7061 19 3.7061L18 3.7061Z" fill="#2651A1"/>
</svg>
