<svg viewBox="0 0 24 24" fill="none" xmlns="http://www.w3.org/2000/svg">
<path fill-rule="evenodd" clip-rule="evenodd" d="M18.5 15.0002C19.1072 14.5441 19.5 13.8179 19.5 13C19.5 11.6193 18.3807 10.5 17 10.5C15.6193 10.5 14.5 11.6193 14.5 13C14.5 13.8179 14.8928 14.5441 15.5 15.0002V17H13.553C13.1609 17 12.8049 17.2292 12.6426 17.5862L12 19H22L21.3574 17.5862C21.1951 17.2292 20.8391 17 20.447 17H18.5V15.0002ZM22 21.5V20H12V21.5H22Z" fill="#00A5E4"/>
<path fill-rule="evenodd" clip-rule="evenodd" d="M3 3H13V4V5V6H11.5V5H9V12H10.5V13.5H5.5V12H7V5H4.5V6H3V5V4V3Z" fill="#0070CA"/>
</svg>
