<svg viewBox="0 0 24 24" fill="none" xmlns="http://www.w3.org/2000/svg">
<path fill-rule="evenodd" clip-rule="evenodd" d="M12.4 5L10 2.6C9.6 2.2 9.1 2 8.6 2H4C2.9 2 2 2.9 2 4V13C2 14.1 2.9 15 4 15H11C12.1 15 13 14.1 13 13V6.4C13 5.9 12.8 5.4 12.4 5ZM9 6C9.552 6 10 6.448 10 7C10 7.552 9.552 8 9 8C8.448 8 8 7.552 8 7C8 6.448 8.448 6 9 6ZM4 12L6.5 8.5L8.5 11L9.5 9.5L11.5 12H4Z" fill="#0070CA"/>
<path fill-rule="evenodd" clip-rule="evenodd" d="M18.5 15.0002C19.1072 14.5441 19.5 13.8179 19.5 13C19.5 11.6193 18.3807 10.5 17 10.5C15.6193 10.5 14.5 11.6193 14.5 13C14.5 13.8179 14.8928 14.5441 15.5 15.0002V17H13.553C13.1609 17 12.8049 17.2292 12.6426 17.5862L12 19H22L21.3574 17.5862C21.1951 17.2292 20.8391 17 20.447 17H18.5V15.0002ZM22 21.5V20H12V21.5H22Z" fill="#00A5E4"/>
</svg>
