<svg viewBox="0 0 44 45" fill="none" xmlns="http://www.w3.org/2000/svg">
<path d="M22 3.79688C11.891 3.79688 3.66669 12.0212 3.66669 22.1302C3.66669 32.2392 11.891 40.4635 22 40.4635C32.109 40.4635 40.3334 32.2392 40.3334 22.1302C40.3334 12.0212 32.109 3.79688 22 3.79688ZM7.33335 22.1302C7.33335 20.482 7.61935 18.8999 8.12352 17.4204L11 20.2969L14.6667 23.9635V27.6302L18.3334 31.2969L20.1667 33.1302V36.6704C12.9452 35.7629 7.33335 29.5955 7.33335 22.1302ZM33.605 31.064C32.4079 30.0997 30.5929 29.4635 29.3334 29.4635V27.6302C29.3334 25.6062 27.6907 23.9635 25.6667 23.9635H18.3334V20.2969V18.4635C20.3574 18.4635 22 16.8209 22 14.7969V12.9635H23.8334C25.8574 12.9635 27.5 11.3209 27.5 9.29688V8.54338C32.868 10.7232 36.6667 15.9885 36.6667 22.1302C36.6667 25.4944 35.5172 28.5872 33.605 31.064Z" fill="#ADB5BD"/>
</svg>
