<svg viewBox="0 0 24 24" fill="none" xmlns="http://www.w3.org/2000/svg">
<path fill-rule="evenodd" clip-rule="evenodd" d="M3 4C3 2.89543 3.89543 2 5 2H13.1716C13.702 2 14.2107 2.21071 14.5858 2.58579L18.4142 6.41421C18.7893 6.78929 19 7.29799 19 7.82843V14H17V17H19V20C19 21.1046 18.1046 22 17 22H5C3.89543 22 3 21.1046 3 20V4ZM17.5 7.5L13.5 3.5V7.5H17.5Z" fill="#0070CA"/>
<path fill-rule="evenodd" clip-rule="evenodd" d="M22 15.5C22 17.433 20.433 19 18.5 19C16.7368 19 15.2781 17.6961 15.0354 16H13V18H11V16H9V17.5H7V14H8H9H11H13H15.3368C15.8985 12.8175 17.1038 12 18.5 12C20.433 12 22 13.567 22 15.5ZM18.5 17C19.3284 17 20 16.3284 20 15.5C20 14.6716 19.3284 14 18.5 14C17.6716 14 17 14.6716 17 15.5C17 16.3284 17.6716 17 18.5 17Z" fill="#09BDF8"/>
</svg>
