<svg width="auto" height="auto" viewBox="0 0 32 32" fill="none" xmlns="http://www.w3.org/2000/svg">
<path d="M22.5987 18.828L25.428 16C28.0253 13.4014 28.0253 9.17071 25.428 6.57204C22.828 3.97204 18.5973 3.97471 16 6.57204L15.0573 7.51471L16.9427 9.40004L17.8853 8.45737C19.444 6.90137 21.9813 6.89871 23.5427 8.45737C25.1013 10.0174 25.1013 12.5547 23.5427 14.1147L20.7133 16.9427C20.384 17.272 20.0013 17.5227 19.588 17.7027L17.8853 16L19.7707 14.1147L18.828 13.172C17.5707 11.9134 15.896 11.2187 14.1147 11.2187C13.8013 11.2187 13.496 11.2614 13.1933 11.3067L4.94266 3.05737L3.05733 4.94271L27.0573 28.9427L28.9427 27.0574L21.5613 19.676C21.9307 19.4307 22.2787 19.148 22.5987 18.828ZM14.1147 23.5427C12.556 25.0987 10.0187 25.1014 8.45733 23.5427C6.89866 21.9827 6.89866 19.4454 8.45733 17.8854L10.4253 15.9187L8.53999 14.0334L6.57199 16C3.97466 18.5987 3.97466 22.8294 6.57199 25.428C7.87199 26.728 9.57866 27.3774 11.2853 27.3774C12.9933 27.3774 14.7013 26.728 16 25.428L16.9427 24.4854L15.0573 22.6L14.1147 23.5427Z" fill="#2651A1"/>
</svg>
