<svg id="split-pdf_svg__Layer_1" x="0" y="0" viewBox="0 0 24 24" xml:space="preserve" focusable="false" class="chakra-icon css-1ho21r6" aria-hidden="true"><style>.split-pdf_svg__st1{fill-rule:evenodd;clip-rule:evenodd;fill:#2651a1}</style><g id="split-pdf_svg__icons-_x2F_-24px-_x2F_-pdfonline-_x2F_-split-pdf"><g id="split-pdf_svg__split-pdf"><path id="split-pdf_svg__Rectangle" fill="none" d="M0 0h24v24H0z"></path><path id="split-pdf_svg__Shape" class="split-pdf_svg__st1" d="M4 14H2v-1.5h2V14zm3-1.5H5V14h2v-1.5zm3 0H8V14h2v-1.5zm3 0h-2V14h2v-1.5zm3 0h-2V14h2v-1.5zm3 0h-2V14h2v-1.5zm3 0h-2V14h2v-1.5z" style="fill-rule: evenodd;clip-rule: evenodd;fill: #2651a1"></path><path id="split-pdf_svg__Shape_1_" d="M19 10.5V8.228a2 2 0 00-.586-1.414l-3.229-3.229A2 2 0 0013.771 3H7c-1.1 0-2 .9-2 2v5.5h14zm-5-6L17.5 8H14V4.5z" fill-rule="evenodd" clip-rule="evenodd" fill="#0a93e4"></path><path id="split-pdf_svg__Path" class="split-pdf_svg__st1" d="M5 14v4.133C5 19.16 5.9 20 7 20h10c1.105 0 2-.836 2-1.867V14H5z" style="fill-rule: evenodd;clip-rule: evenodd;fill: #2651a1"></path></g></g></svg>