<svg viewBox="0 0 24 24" fill="none" xmlns="http://www.w3.org/2000/svg">
<path fill-rule="evenodd" clip-rule="evenodd" d="M5.7 4.3L7.6 6.2L8.7 5.1L9.2 9.2L5.2 8.7L6.3 7.6L4.3 5.7C3.9 5.3 3.9 4.7 4.3 4.3C4.7 3.9 5.3 3.9 5.7 4.3Z" fill="#2651A1"/>
<path fill-rule="evenodd" clip-rule="evenodd" d="M19.7 4.3C20.1 4.7 20.1 5.3 19.7 5.7L17.8 7.6L18.9 8.7L14.8 9.2L15.3 5.1L16.4 6.2L18.3 4.3C18.7 3.9 19.4 3.9 19.7 4.3Z" fill="#2651A1"/>
<path fill-rule="evenodd" clip-rule="evenodd" d="M4.3 19.7C3.9 19.3 3.9 18.7 4.3 18.3L6.2 16.4L5.1 15.3L9.2 14.8L8.7 18.9L7.6 17.8L5.7 19.7C5.3 20.1 4.7 20.1 4.3 19.7Z" fill="#2651A1"/>
<path fill-rule="evenodd" clip-rule="evenodd" d="M18.3 19.7L16.4 17.8L15.3 18.9L14.8 14.8L18.9 15.3L17.8 16.4L19.7 18.3C20.1 18.7 20.1 19.3 19.7 19.7C19.4 20.1 18.7 20.1 18.3 19.7Z" fill="#2651A1"/>
<path fill-rule="evenodd" clip-rule="evenodd" d="M11 10H13C13.6 10 14 10.4 14 11V13C14 13.6 13.6 14 13 14H11C10.4 14 10 13.6 10 13V11C10 10.4 10.4 10 11 10Z" fill="#FF723F"/>
</svg>
