<!-- Generator: Adobe Illustrator 24.3.0, SVG Export PlugIn . SVG Version: 6.00 Build 0)  --><svg version="1.1" id="Layer_1" xmlns="http://www.w3.org/2000/svg" xmlns:xlink="http://www.w3.org/1999/xlink" x="0px" y="0px" viewBox="0 0 24 24" style="enable-background:new 0 0 24 24;" xml:space="preserve">
<style type="text/css">
	.st0{fill:none;}
	.st1{fill-rule:evenodd;clip-rule:evenodd;fill:#868E96;}
</style>
<rect class="st0" width="24" height="24" style="fill: none;"></rect>
<path class="st1" d="M19,13V9.8280001c0-0.5299997-0.2110004-1.0390005-0.5860004-1.4140005l-4.8280001-4.8280001
	C13.2110004,3.211,12.7019997,3,12.1719999,3H6C4.895,3,4,3.895,4,5v14c0,1.1049995,0.895,2,2,2h6v-2H6V5h6v5h5v3H19z" style="fill-rule: evenodd;clip-rule: evenodd;fill: #868E96;"></path>
<polygon id="Path_1_" class="st1" points="17.9309998,17.0650005 17.9309998,15 16.059,15 16.059,17.0650005 14,17.0650005 
	14,18.9349995 16.059,18.9349995 16.059,21 17.9309998,21 17.9309998,18.9349995 20,18.9349995 20,17.0650005" style="fill-rule: evenodd;clip-rule: evenodd;fill: #868E96;"></polygon>
</svg>