<!-- Generator: Adobe Illustrator 24.3.0, SVG Export PlugIn . SVG Version: 6.00 Build 0)  --><svg version="1.1" id="Layer_1" xmlns="http://www.w3.org/2000/svg" xmlns:xlink="http://www.w3.org/1999/xlink" x="0px" y="0px" viewBox="0 0 24 24" style="enable-background:new 0 0 24 24;" xml:space="preserve">
<style type="text/css">
	.st0{fill:none;}
	.st1{fill:#868E96;}
</style>
<rect class="st0" width="24" height="24" style="fill: none;"></rect>
<path class="st1" d="M18,6h-1V4c0-1.1030273-0.8969727-2-2-2H9C7.8970337,2,7,2.8969727,7,4v2H6H3v2h2v12
	c0,1.1029663,0.8970337,2,2,2h10c1.1030273,0,2-0.8970337,2-2V8h2V6H18z M9,4h6v2H9V4z M7,20V8h1h8h1l0.0010376,12H7z M9,10h2v8H9
	V10z M13,10h2v8h-2V10z" style="fill: #868E96;"></path>
</svg>