<!-- Generator: Adobe Illustrator 25.0.1, SVG Export PlugIn . SVG Version: 6.00 Build 0)  --><svg version="1.1" id="Layer_1" xmlns="http://www.w3.org/2000/svg" xmlns:xlink="http://www.w3.org/1999/xlink" x="0px" y="0px" viewBox="0 0 24 24" style="enable-background:new 0 0 24 24;" xml:space="preserve">
<style type="text/css">
	.st0{fill-rule:evenodd;clip-rule:evenodd;fill:#2651A1;}
	.st1{fill-rule:evenodd;clip-rule:evenodd;fill:#00A5E4;}
</style>
<path class="st0" d="M8,6C6.9,6,6,6.9,6,8v12c0,1.1,0.9,2,2,2h12c1.1,0,2-0.9,2-2v-8.7c0-0.5-0.2-0.9-0.5-1.3l-2.7-3.3
	C18.5,6.3,17.9,6,17.3,6H8z M10,14c-0.6,0-1,0.4-1,1v4.5c0,0.6,0.4,1,1,1h8c0.6,0,1-0.4,1-1V15c0-0.6-0.4-1-1-1H10z" style="fill-rule: evenodd;clip-rule: evenodd;fill: #2651A1;"></path>
<path class="st1" d="M2,2h2v2H2V2z M6,2h2v2H6V2z M12,2h-2v2h2V2z M14,2h2v2h-2V2z M20,2h-2v2h2V2z M2,6h2v2H2V6z M4,10H2v2h2V10z
	 M2,14h2v2H2V14z M4,18H2v2h2V18z" style="fill-rule: evenodd;clip-rule: evenodd;fill: #00A5E4;"></path>
<path class="st1" d="M17,6H9v5h8V6z M15.5,7.5h-2V10h2V7.5z" style="fill-rule: evenodd;clip-rule: evenodd;fill: #00A5E4;"></path>
</svg>