<svg viewBox="0 0 24 24" fill="none" xmlns="http://www.w3.org/2000/svg">
<path fill-rule="evenodd" clip-rule="evenodd" d="M11 5L11 3L13 3L13 5L11 5Z" fill="#0070CA"/>
<path d="M11.5939 13.1805L4.02804 16.5431C3.63213 16.7191 3.63213 17.2809 4.02804 17.4569L11.5939 20.8195C11.8524 20.9344 12.1476 20.9344 12.4061 20.8195L19.972 17.4569C20.3679 17.2809 20.3679 16.7191 19.972 16.5431L12.4061 13.1805C12.1476 13.0656 11.8524 13.0656 11.5939 13.1805Z" fill="#00A5E4"/>
<path d="M11.5939 9.18051L4.02804 12.5431C3.63213 12.7191 3.63213 13.2809 4.02804 13.4569L11.5939 16.8195C11.8524 16.9344 12.1476 16.9344 12.4061 16.8195L19.972 13.4569C20.3679 13.2809 20.3679 12.7191 19.972 12.5431L12.4061 9.18051C12.1476 9.06559 11.8524 9.06559 11.5939 9.18051Z" fill="#0070CA"/>
<path d="M9.5 5L14.5 5L12 8L9.5 5Z" fill="#0070CA"/>
</svg>
