<?xml version="1.0" encoding="utf-8"?>
<!-- Generator: Adobe Illustrator 24.3.0, SVG Export Plug-In . SVG Version: 6.00 Build 0)  -->
<!DOCTYPE svg PUBLIC "-//W3C//DTD SVG 1.1//EN" "http://www.w3.org/Graphics/SVG/1.1/DTD/svg11.dtd" [
	<!ENTITY ns_extend "http://ns.adobe.com/Extensibility/1.0/">
	<!ENTITY ns_ai "http://ns.adobe.com/AdobeIllustrator/10.0/">
	<!ENTITY ns_graphs "http://ns.adobe.com/Graphs/1.0/">
	<!ENTITY ns_vars "http://ns.adobe.com/Variables/1.0/">
	<!ENTITY ns_imrep "http://ns.adobe.com/ImageReplacement/1.0/">
	<!ENTITY ns_sfw "http://ns.adobe.com/SaveForWeb/1.0/">
	<!ENTITY ns_custom "http://ns.adobe.com/GenericCustomNamespace/1.0/">
	<!ENTITY ns_adobe_xpath "http://ns.adobe.com/XPath/1.0/">
]>
<svg version="1.1" id="Layer_1" xmlns:x="&ns_extend;" xmlns:i="&ns_ai;" xmlns:graph="&ns_graphs;"
	 xmlns="http://www.w3.org/2000/svg" xmlns:xlink="http://www.w3.org/1999/xlink" x="0px" y="0px" viewBox="0 0 24 24"
	 enable-background="new 0 0 24 24" xml:space="preserve">
<metadata>
	<sfw  xmlns="&ns_sfw;">
		<slices></slices>
		<sliceSourceBounds  bottomLeftOrigin="true" height="24" width="24" x="0" y="0"></sliceSourceBounds>
	</sfw>
</metadata>
<rect id="Rectangle" fill="none" width="24" height="24"/>
<path id="Shape" fill-rule="evenodd" clip-rule="evenodd" fill="#09BDF8" d="M16.415,7.815l-3.229-3.229
	C12.811,4.211,12.302,4,11.772,4H5C3.9,4,3,4.9,3,6v13c0,1.1,0.9,2,2,2h10c1.105,0,2-0.895,2-2V9.228
	C17,8.698,16.789,8.189,16.415,7.815z M12,9V5.5L15.5,9H12z"/>
<g>
	<polygon fill-rule="evenodd" clip-rule="evenodd" fill="#2651A1" points="13.3254,15.8336 12.795,18.1317 15.0931,17.6014 
		20.0429,12.6517 18.2751,10.8839 	"/>
	<path fill-rule="evenodd" clip-rule="evenodd" fill="#2651A1" d="M21.6339,9.2929c-0.4882-0.4882-1.2796-0.4882-1.7678,0
		l-0.8839,0.8839l1.7678,1.7678l0.8839-0.8839C22.122,10.5725,22.122,9.781,21.6339,9.2929z"/>
</g>
</svg>
