<svg viewBox="0 0 24 24" focusable="false" class="chakra-icon css-1w3e3u3"><path fill="none" d="M0 0h24v24H0z"></path><path d="M14 3.25c.964 0 1.676.664 1.744 1.6l.006.15v1H19c.557 0 .942.345.994.875L20 7c0 .6-.4 1-1 1H5c-.557 0-.942-.345-.994-.875L4 7c0-.6.4-1 1-1h3.25V5c0-.964.664-1.676 1.6-1.744L10 3.25h4zm0 1.5h-4c-.16 0-.23.047-.246.178L9.75 5v1h4.5V5c0-.16-.047-.23-.178-.246L14 4.75z" fill-rule="evenodd" clip-rule="evenodd" fill="#0a93e4"></path><path d="M5 8l1.7 11.3c.2 1 1 1.7 2 1.7h6.6c1 0 1.8-.7 2-1.7L19 8H5zm9.7 7.6l-1.1 1.1-1.6-1.6-1.6 1.6-1.1-1.1 1.6-1.6-1.6-1.6 1.1-1.1 1.6 1.6 1.6-1.6 1.1 1.1-1.6 1.6 1.6 1.6z" fill-rule="evenodd" clip-rule="evenodd" fill="#2651a1"></path></svg>