<!-- Generator: Adobe Illustrator 24.3.0, SVG Export PlugIn . SVG Version: 6.00 Build 0)  --><svg version="1.1" id="Layer_1" xmlns="http://www.w3.org/2000/svg" xmlns:xlink="http://www.w3.org/1999/xlink" x="0px" y="0px" viewBox="0 0 24 24" style="enable-background:new 0 0 24 24;" xml:space="preserve">
<style type="text/css">
	.st0{fill-rule:evenodd;clip-rule:evenodd;fill:none;}
	.st1{fill-rule:evenodd;clip-rule:evenodd;fill:#868E96;}
	.st2{fill:#868E96;}
</style>
<rect x="0" y="0" class="st0" width="24" height="24" style="fill-rule: evenodd;clip-rule: evenodd;fill: none;"></rect>
<g>
	<g>
		<path class="st1" d="M6,8v11c0,1.1045704,0.8954306,2,2,2h2.5v-2H8V8h9v1.5h2V8c0-1.1045694-0.8954296-2-2-2H8
			C6.8954306,6,6,6.8954306,6,8z" style="fill-rule: evenodd;clip-rule: evenodd;fill: #868E96;"></path>
	</g>
	<g>
		<path class="st1" d="M16,4V2H4C2.8954306,2,2,2.8954306,2,4v13h2V4H16z" style="fill-rule: evenodd;clip-rule: evenodd;fill: #868E96;"></path>
	</g>
</g>
<g>
	<g>
		<path class="st2" d="M15.5,13c1.3785,0,2.5,1.1215,2.5,2.5S16.8785,18,15.5,18S13,16.8785,13,15.5S14.1215,13,15.5,13 M15.5,11
			c-2.48528,0-4.5,2.01472-4.5,4.5s2.01472,4.5,4.5,4.5s4.5-2.0147209,4.5-4.5S17.9852791,11,15.5,11L15.5,11z" style="fill: #868E96;"></path>
	</g>

		<rect x="18.5480976" y="16.7980976" transform="matrix(0.7071068 -0.7071068 0.7071068 0.7071068 -7.9935336 19.2980976)" class="st1" width="1.5" height="5" style="fill-rule: evenodd;clip-rule: evenodd;fill: #868E96;"></rect>
</g>
</svg>