<svg viewBox="0 0 24 24" fill="none" xmlns="http://www.w3.org/2000/svg">
<path fill-rule="evenodd" clip-rule="evenodd" d="M3 4C3 2.89543 3.89543 2 5 2H12.5079C13.0242 2 13.5205 2.19967 13.8929 2.55723L17.3851 5.90966C17.7779 6.28681 18 6.80785 18 7.35244V11H15V15H18V18C18 19.1046 17.1046 20 16 20H5C3.89543 20 3 19.1046 3 18V4ZM16.5 7.5L12.5 3.5V7.5H16.5Z" fill="#0070CA"/>
<path d="M14.5 13.5V16H19.5V13.5C19.5 12.1193 18.3807 11 17 11C15.6193 11 14.5 12.1193 14.5 13.5Z" stroke="#00A5E4" stroke-width="1.5"/>
<rect x="12" y="15" width="10" height="7" rx="1" fill="#00A5E4"/>
</svg>
