<svg width="24" height="24" viewBox="0 0 24 24" fill="none" xmlns="http://www.w3.org/2000/svg">
<path d="M15.0943 9L18.3291 12.9013H5.67025L8.90505 9H15.0943ZM15.0943 7H8.90505C8.30975 7 7.74545 7.2652 7.36545 7.7234L3.56515 12.3068C3.24235 12.6961 3.26105 13.2651 3.60865 13.6324L11.2734 21.7324C11.4707 21.9409 11.7352 22.0451 11.9998 22.0451C12.2644 22.0451 12.5289 21.9409 12.7262 21.7324L20.3909 13.6324C20.7385 13.2651 20.7571 12.6961 20.4344 12.3068L16.6341 7.7234C16.254 7.2652 15.6896 7 15.0943 7Z" fill="#FFC541"/>
<path d="M12 2C11.5858 2 11.25 2.3358 11.25 2.75V4.75C11.25 5.1642 11.5858 5.5 12 5.5C12.4142 5.5 12.75 5.1642 12.75 4.75V2.75C12.75 2.3358 12.4142 2 12 2Z" fill="#FFC541"/>
<path d="M4.74981 3.87793C4.57101 3.87793 4.39151 3.94153 4.24821 4.07053C3.94031 4.34773 3.91551 4.82193 4.19261 5.12973L5.53091 6.61603C5.67901 6.78053 5.88331 6.86423 6.08851 6.86423C6.26731 6.86423 6.44681 6.80063 6.59011 6.67163C6.89791 6.39443 6.92281 5.92023 6.64561 5.61243L5.30741 4.12603C5.15931 3.96163 4.95491 3.87793 4.74981 3.87793Z" fill="#FFC541"/>
<path d="M19.2507 3.87793C19.0455 3.87793 18.8412 3.96163 18.6931 4.12613L17.3548 5.61243C17.0776 5.92023 17.1025 6.39443 17.4103 6.67163C17.5536 6.80073 17.7331 6.86423 17.9119 6.86423C18.1171 6.86423 18.3214 6.78053 18.4695 6.61613L19.8078 5.12983C20.085 4.82203 20.0601 4.34773 19.7523 4.07063C19.609 3.94153 19.4295 3.87793 19.2507 3.87793Z" fill="#FFC541"/>
</svg>
