<svg viewBox="0 0 24 24" fill="none" xmlns="http://www.w3.org/2000/svg">
<path fill-rule="evenodd" clip-rule="evenodd" d="M17 6H4C3.448 6 3 5.552 3 5C3 4.448 3.448 4 4 4H17C17.552 4 18 4.448 18 5C18 5.552 17.552 6 17 6Z" fill="#FF723F"/>
<path fill-rule="evenodd" clip-rule="evenodd" d="M17 6H12V4H17C17.552 4 18 4.448 18 5C18 5.552 17.552 6 17 6Z" fill="#2651A1"/>
<path fill-rule="evenodd" clip-rule="evenodd" d="M19 11H4C3.448 11 3 10.552 3 10C3 9.448 3.448 9 4 9H19C19.552 9 20 9.448 20 10C20 10.552 19.552 11 19 11Z" fill="#FF723F"/>
<path fill-rule="evenodd" clip-rule="evenodd" d="M20 11H10V9H20C20.552 9 21 9.448 21 10C21 10.552 20.552 11 20 11Z" fill="#2651A1"/>
<path fill-rule="evenodd" clip-rule="evenodd" d="M20 16H4C3.448 16 3 15.552 3 15C3 14.448 3.448 14 4 14H20C20.552 14 21 14.448 21 15C21 15.552 20.552 16 20 16Z" fill="#FF723F"/>
<path fill-rule="evenodd" clip-rule="evenodd" d="M20 21H13C12.448 21 12 20.552 12 20C12 19.448 12.448 19 13 19H20C20.552 19 21 19.448 21 20C21 20.552 20.552 21 20 21Z" fill="#2651A1"/>
<path d="M17 14H12V16H17V14Z" fill="#2651A1"/>
</svg>
