<!-- Generator: Adobe Illustrator 24.3.0, SVG Export PlugIn . SVG Version: 6.00 Build 0)  --><svg version="1.1" id="Layer_1" xmlns="http://www.w3.org/2000/svg" xmlns:xlink="http://www.w3.org/1999/xlink" x="0px" y="0px" viewBox="0 0 280 165" style="enable-background:new 0 0 280 165;" xml:space="preserve">
<style type="text/css">
	.st0{fill:url(#SVGID_1_);}
	.st1{fill:url(#SVGID_2_);}
	.st2{fill:#E8EEF4;}
	.st3{fill:url(#SVGID_3_);}
	.st4{opacity:0.7;fill:url(#SVGID_4_);enable-background:new    ;}
	.st5{opacity:0.7;fill:url(#SVGID_5_);enable-background:new    ;}
	.st6{fill:url(#SVGID_6_);}
	.st7{fill:url(#SVGID_7_);}
	.st8{fill:url(#SVGID_8_);}
	.st9{fill:#FFFFFF;}
	.st10{fill:url(#SVGID_9_);}
	.st11{fill:url(#SVGID_10_);}
	.st12{fill:url(#SVGID_11_);}
	.st13{opacity:0.7;fill:url(#SVGID_12_);enable-background:new    ;}
	.st14{fill:url(#SVGID_13_);}
	.st15{fill:#D32630;}
	.st16{fill:url(#SVGID_14_);}
	.st17{fill:url(#SVGID_15_);}
	.st18{fill:url(#SVGID_16_);}
	.st19{fill:url(#SVGID_17_);}
	.st20{fill:url(#SVGID_18_);}
	.st21{fill:url(#SVGID_19_);}
	.st22{fill:url(#SVGID_20_);}
	.st23{fill:url(#SVGID_21_);}
	.st24{fill:url(#SVGID_22_);}
	.st25{fill:url(#SVGID_23_);}
	.st26{fill:url(#SVGID_24_);}
	.st27{opacity:0.7;fill:url(#SVGID_25_);enable-background:new    ;}
	.st28{fill:#94D4F8;}
</style>
<g>

		<linearGradient id="SVGID_1_" gradientUnits="userSpaceOnUse" x1="4.761" y1="54.145" x2="275.239" y2="54.145" gradientTransform="matrix(1 0 0 -1 0 166)">
		<stop offset="0.0016" style="stop-color:#FAFBFD"></stop>
		<stop offset="1" style="stop-color:#EFF1F7"></stop>
	</linearGradient>
	<path class="st0" d="M72.3572,62.7128c-76.0174,0-89.4694,72.5007-32.4632,72.5007c50.4125,0,56.1258,25.7917,114.6206,25.7837
		c35.4238-0.0048,40.6508-17.1746,85.492-17.1746c44.5423,0,53.718-48.278-13.0219-48.278
		C132.5996,95.5446,161.6476,62.7128,72.3572,62.7128z" style="fill: url(#SVGID_1_);"></path>
	<g>
		<g>

				<linearGradient id="SVGID_2_" gradientUnits="userSpaceOnUse" x1="53.2431" y1="104.1203" x2="112.953" y2="104.1203" gradientTransform="matrix(1 0 0 -1 0 166)">
				<stop offset="0" style="stop-color:#FAFCFD"></stop>
				<stop offset="1" style="stop-color:#F9FBFD"></stop>
			</linearGradient>
			<path class="st1" d="M55.5243,82.7859c-1.2578,0-2.2812-1.0234-2.2812-2.2812v-37.25c0-1.2578,1.0234-2.2812,2.2812-2.2812
				h55.1475c1.2578,0,2.2812,1.0234,2.2812,2.2812v37.25c0,1.2578-1.0234,2.2812-2.2812,2.2812H55.5243z" style="fill: url(#SVGID_2_);"></path>
			<g>
				<path class="st2" d="M110.6716,41.4733c0.9822,0,1.7813,0.7991,1.7813,1.7813v37.2503c0,0.9822-0.7991,1.7813-1.7813,1.7813
					H55.5242c-0.9822,0-1.7813-0.7991-1.7813-1.7813V43.2546c0-0.9822,0.7991-1.7813,1.7813-1.7813H110.6716 M110.6716,40.4733
					H55.5242c-1.5361,0-2.7813,1.2452-2.7813,2.7813v37.2503c0,1.5361,1.2452,2.7813,2.7813,2.7813h55.1473
					c1.5361,0,2.7813-1.2452,2.7813-2.7813V43.2546C113.4529,41.7185,112.2076,40.4733,110.6716,40.4733L110.6716,40.4733z" style="fill: #E8EEF4;"></path>
			</g>
		</g>
		<path class="st2" d="M113.4529,44.981H52.6457v-1.0939c0-1.8854,1.5284-3.4138,3.4138-3.4138h53.9795
			c1.8854,0,3.4138,1.5284,3.4138,3.4138L113.4529,44.981L113.4529,44.981z" style="fill: #E8EEF4;"></path>
	</g>
	<g>

			<linearGradient id="SVGID_3_" gradientUnits="userSpaceOnUse" x1="150.871" y1="137.2059" x2="221.8436" y2="137.2059" gradientTransform="matrix(1 0 0 -1 0 166)">
			<stop offset="0" style="stop-color:#FBFCFD"></stop>
			<stop offset="1" style="stop-color:#F1F5FA"></stop>
		</linearGradient>
		<path class="st3" d="M153.6991,54.156c-1.5596,0-2.8281-1.2695-2.8281-2.8291V6.2614c0-1.5596,1.2686-2.8291,2.8281-2.8291
			h65.3164c1.5596,0,2.8281,1.2695,2.8281,2.8291v45.0654c0,1.5596-1.2686,2.8291-2.8281,2.8291L153.6991,54.156L153.6991,54.156z" style="fill: url(#SVGID_3_);"></path>
		<g>
			<path class="st2" d="M219.0152,3.9325c1.284,0,2.3286,1.0446,2.3286,2.3286v45.0661c0,1.284-1.0446,2.3286-2.3286,2.3286
				h-65.3161c-1.284,0-2.3286-1.0446-2.3286-2.3286V6.2611c0-1.284,1.0446-2.3286,2.3286-2.3286H219.0152 M219.0152,2.9325h-65.3161
				c-1.8383,0-3.3286,1.4902-3.3286,3.3286v45.0661c0,1.8383,1.4903,3.3286,3.3286,3.3286h65.3161
				c1.8383,0,3.3286-1.4902,3.3286-3.3286V6.2611C222.3438,4.4228,220.8536,2.9325,219.0152,2.9325L219.0152,2.9325z" style="fill: #E8EEF4;"></path>
		</g>
	</g>

		<linearGradient id="SVGID_4_" gradientUnits="userSpaceOnUse" x1="548.1986" y1="1389.5895" x2="591.7156" y2="1389.5895" gradientTransform="matrix(0 -1 -1 0 1572.6423 602.2729)">
		<stop offset="0" style="stop-color:#919FB9;stop-opacity:0.2"></stop>
		<stop offset="0.1914" style="stop-color:#95A3BC;stop-opacity:0.1617"></stop>
		<stop offset="0.392" style="stop-color:#A2AEC4;stop-opacity:0.1216"></stop>
		<stop offset="0.5968" style="stop-color:#B7C0D1;stop-opacity:0.0806"></stop>
		<stop offset="0.8031" style="stop-color:#D4DAE4;stop-opacity:0.0394"></stop>
		<stop offset="1" style="stop-color:#F7F9FB;stop-opacity:0"></stop>
	</linearGradient>
	<polygon class="st4" points="215.7352,10.5573 215.7352,54.0743 150.3706,54.0743 150.3706,10.5573" style="opacity: 0.7;fill: url(#SVGID_4_);enable-background: new    ;"></polygon>

		<radialGradient id="SVGID_5_" cx="9.5997" cy="-514.6204" r="78.724" gradientTransform="matrix(1.2016 0 0 -0.1148 130.495 59.7525)" gradientUnits="userSpaceOnUse">
		<stop offset="0" style="stop-color:#919FB9"></stop>
		<stop offset="0.198" style="stop-color:#9FACC2;stop-opacity:0.802"></stop>
		<stop offset="0.5752" style="stop-color:#C5CDDB;stop-opacity:0.4248"></stop>
		<stop offset="1" style="stop-color:#F7F9FB;stop-opacity:0"></stop>
	</radialGradient>
	<path class="st5" d="M244.1659,121.4541c0,5.335-45.7278,4.3401-102.1359,4.3401s-102.136,0.9949-102.136-4.3401
		s45.7278-9.6599,102.1359-9.6599S244.1659,116.1191,244.1659,121.4541z" style="opacity: 0.7;fill: url(#SVGID_5_);enable-background: new    ;"></path>

		<linearGradient id="SVGID_6_" gradientUnits="userSpaceOnUse" x1="155.2291" y1="64.2194" x2="126.6951" y2="142.6157" gradientTransform="matrix(1 0 0 -1 0 166)">
		<stop offset="0" style="stop-color:#D8E0EA"></stop>
		<stop offset="0.4752" style="stop-color:#E2E9F1"></stop>
		<stop offset="1" style="stop-color:#E8EEF4"></stop>
	</linearGradient>
	<path class="st6" d="M206.3572,106.7942h-131c-1.6569,0-3-1.3431-3-3v-83c0-1.6569,1.3431-3,3-3h131c1.6569,0,3,1.3431,3,3v83
		C209.3572,105.4511,208.0141,106.7942,206.3572,106.7942z" style="fill: url(#SVGID_6_);"></path>

		<linearGradient id="SVGID_7_" gradientUnits="userSpaceOnUse" x1="140.8572" y1="75.3225" x2="140.8572" y2="131.6747" gradientTransform="matrix(1 0 0 -1 0 166)">
		<stop offset="0" style="stop-color:#F7F8FB"></stop>
		<stop offset="1" style="stop-color:#E2EAF3"></stop>
	</linearGradient>
	<path class="st7" d="M206.3572,105.7942h-131c-1.1046,0-2-0.8954-2-2v-83c0-1.1046,0.8954-2,2-2h131c1.1046,0,2,0.8954,2,2v83
		C208.3572,104.8988,207.4618,105.7942,206.3572,105.7942z" style="fill: url(#SVGID_7_);"></path>

		<linearGradient id="SVGID_8_" gradientUnits="userSpaceOnUse" x1="73.3572" y1="142.2058" x2="208.3572" y2="142.2058" gradientTransform="matrix(1 0 0 -1 0 166)">
		<stop offset="0.0013" style="stop-color:#EDF3F7"></stop>
		<stop offset="1" style="stop-color:#EDF2F7"></stop>
	</linearGradient>
	<path class="st8" d="M208.3572,28.7942h-135v-8c0-1.1046,0.8954-2,2-2h131c1.1046,0,2,0.8954,2,2V28.7942z" style="fill: url(#SVGID_8_);"></path>
	<g>
		<path class="st9" d="M199.041,100.7942H82.6734c-2.3838,0-4.3162-1.9324-4.3162-4.3162V37.1104
			c0-2.3838,1.9324-4.3162,4.3162-4.3162H199.041c2.3838,0,4.3162,1.9324,4.3162,4.3162V96.478
			C203.3572,98.8618,201.4248,100.7942,199.041,100.7942z" style="fill: #FFFFFF;"></path>

			<linearGradient id="SVGID_9_" gradientUnits="userSpaceOnUse" x1="201.1173" y1="64.4847" x2="80.6577" y2="134.0321" gradientTransform="matrix(1 0 0 -1 0 166)">
			<stop offset="0" style="stop-color:#E3EAF1"></stop>
			<stop offset="1" style="stop-color:#D9E2ED"></stop>
		</linearGradient>
		<path class="st10" d="M199.041,32.7942h-3v1h3V32.7942L199.041,32.7942L199.041,32.7942z M192.041,32.7942h-3v1h3V32.7942
			L192.041,32.7942z M185.041,32.7942h-3v1h3V32.7942L185.041,32.7942z M178.041,32.7942h-3v1h3V32.7942L178.041,32.7942z
			 M171.041,32.7942h-3v1h3V32.7942L171.041,32.7942z M164.041,32.7942h-3v1h3V32.7942L164.041,32.7942z M157.041,32.7942h-3v1h3
			V32.7942L157.041,32.7942z M150.041,32.7942h-3v1h3V32.7942L150.041,32.7942z M143.041,32.7942h-3v1h3V32.7942L143.041,32.7942z
			 M136.041,32.7942h-3v1h3V32.7942L136.041,32.7942z M129.041,32.7942h-3v1h3V32.7942L129.041,32.7942z M122.041,32.7942h-3v1h3
			V32.7942L122.041,32.7942z M115.041,32.7942h-3v1h3V32.7942L115.041,32.7942z M108.041,32.7942h-3v1h3V32.7942L108.041,32.7942z
			 M101.041,32.7942h-3v1h3V32.7942L101.041,32.7942z M94.041,32.7942h-3v1h3V32.7942L94.041,32.7942z M87.041,32.7942h-3v1h3
			V32.7942L87.041,32.7942z M80.2013,33.5718c-0.8159,0.5711-1.4251,1.4171-1.6933,2.4036l0.965,0.2623
			c0.2025-0.745,0.6648-1.4008,1.3017-1.8466L80.2013,33.5718L80.2013,33.5718z M79.3572,39.9622h-1v3h1V39.9622L79.3572,39.9622z
			 M79.3572,46.9622h-1v3h1V46.9622L79.3572,46.9622z M79.3572,53.9622h-1v3h1V53.9622L79.3572,53.9622z M79.3572,60.9622h-1v3h1
			V60.9622L79.3572,60.9622z M79.3572,67.9622h-1v3h1V67.9622L79.3572,67.9622z M79.3572,74.9622h-1v3h1V74.9622L79.3572,74.9622z
			 M79.3572,81.9622h-1v3h1V81.9622L79.3572,81.9622z M79.3572,88.9622h-1v3h1V88.9622L79.3572,88.9622z M79.3572,95.9622h-1v0.5159
			l0,0c0,0.002,0,0.0042,0,0.0062c0,0.0006,0,0.0013,0,0.0019c0,0.0014,0,0.0033,0,0.0047c0,0.0006,0,0.0012,0,0.0017
			c0,0.002,0,0.0041,0,0.0062c0,0.0003,0,0.0007,0,0.0011c0,0.0018,0,0.0034,0,0.0052c0,0.0006,0,0.0014,0,0.002
			c0,0.0018,0,0.0032,0,0.005c0,0.0004,0,0.0009,0,0.0013c0,0.002,0,0.0042,0.0001,0.0062c0,0.0005,0,0.0009,0,0.0014
			c0,0.0017,0,0.0032,0,0.0049c0,0.0006,0,0.0011,0,0.0018c0,0.002,0,0.004,0.0001,0.006c0,0.0002,0,0.0004,0,0.0005
			c0,0.0019,0.0001,0.0041,0.0001,0.006c0,0.0006,0,0.0011,0,0.0017c0,0.0016,0,0.0032,0.0001,0.0048c0,0.0005,0,0.0011,0,0.0016
			c0,0.002,0.0001,0.0041,0.0001,0.0061c0,0.0004,0,0.0008,0,0.0012c0,0.0017,0.0001,0.0034,0.0001,0.0051
			c0,0.0006,0,0.0012,0,0.0018c0,0.0017,0.0001,0.0034,0.0001,0.0051c0,0.0004,0,0.0007,0,0.0012
			c0,0.002,0.0001,0.0041,0.0001,0.0062c0,0.0005,0,0.0011,0,0.0016c0,0.0017,0.0001,0.0031,0.0001,0.0048
			c0,0.0006,0,0.0012,0,0.0018c0,0.0019,0.0001,0.0037,0.0001,0.0056c0,0.0005,0,0.0009,0,0.0015
			c0,0.0017,0.0001,0.0035,0.0001,0.0052c0,0.0006,0,0.0013,0,0.002c0,0.0016,0.0001,0.0032,0.0001,0.0048
			c0,0.0005,0,0.001,0,0.0016c0.0001,0.002,0.0001,0.0042,0.0002,0.0062c0,0.0003,0,0.0007,0,0.001
			c0,0.0017,0.0001,0.0035,0.0002,0.0052c0,0.0006,0,0.0012,0.0001,0.0017c0.0001,0.0019,0.0001,0.0036,0.0002,0.0055
			c0,0.0003,0,0.0005,0,0.0008c0.0001,0.0022,0.0001,0.0041,0.0002,0.0063c0,0.0004,0,0.0009,0.0001,0.0014
			c0.0001,0.0017,0.0001,0.0035,0.0002,0.0052c0,0.0005,0,0.0008,0,0.0013c0.0001,0.0022,0.0002,0.0043,0.0002,0.0064
			c0,0.0001,0,0,0,0.0001c0.0001,0.0022,0.0002,0.0041,0.0002,0.0062c0,0.0005,0,0.001,0.0001,0.0016
			c0.0001,0.0017,0.0001,0.0034,0.0002,0.0051c0,0.0004,0,0.0009,0,0.0013c0.0001,0.002,0.0002,0.0043,0.0003,0.0063
			c0,0.0004,0,0.0007,0,0.001c0.0001,0.0017,0.0002,0.0036,0.0002,0.0053c0,0.0006,0,0.0011,0.0001,0.0016
			c0.0001,0.0019,0.0002,0.004,0.0003,0.0059c0,0.0001,0,0.0002,0,0.0003c0.0001,0.0022,0.0002,0.0042,0.0003,0.0064
			c0,0.0005,0,0.001,0.0001,0.0014c0.0001,0.0017,0.0002,0.0032,0.0002,0.0049c0,0.0006,0.0001,0.0011,0.0001,0.0017
			c0.0001,0.002,0.0002,0.0041,0.0003,0.0061c0,0.0002,0,0.0002,0,0.0004c0.0001,0.0019,0.0002,0.0041,0.0003,0.0059
			c0,0.0005,0.0001,0.001,0.0001,0.0015c0.0001,0.0017,0.0002,0.0036,0.0003,0.0054c0,0.0004,0,0.0006,0,0.001
			c0.0001,0.0022,0.0002,0.0044,0.0004,0.0066v0.0001c0.0001,0.002,0.0002,0.0041,0.0004,0.0061c0,0.0005,0,0.001,0.0001,0.0014
			c0.0001,0.002,0.0002,0.004,0.0004,0.006c0,0.0001,0,0.0002,0,0.0003c0.0001,0.0022,0.0003,0.0043,0.0004,0.0065
			c0,0.0003,0,0.0007,0.0001,0.001c0.0001,0.0019,0.0002,0.0037,0.0003,0.0056c0,0.0003,0,0.0007,0.0001,0.001
			c0.0003,0.0043,0.0005,0.0087,0.0008,0.013c0,0.0004,0,0.0006,0.0001,0.001c0.0001,0.002,0.0002,0.0037,0.0004,0.0057
			c0,0.0003,0,0.0006,0.0001,0.0008c0.0001,0.0022,0.0003,0.0045,0.0004,0.0066v0.0001c0.0002,0.0022,0.0003,0.0041,0.0004,0.0062
			c0,0.0004,0.0001,0.0008,0.0001,0.0011c0.0003,0.0043,0.0006,0.0087,0.0009,0.0129c0,0.0002,0,0.0004,0,0.0006
			c0.0001,0.002,0.0003,0.004,0.0004,0.006c0,0.0003,0,0.0005,0.0001,0.0008c0.0003,0.0043,0.0007,0.0088,0.001,0.0131
			c0,0.0003,0,0.0005,0,0.0007c0.0002,0.002,0.0003,0.0041,0.0005,0.0061c0,0.0002,0,0.0004,0,0.0005
			c0.0002,0.0023,0.0004,0.0044,0.0005,0.0067l0,0c0.0002,0.0021,0.0004,0.0042,0.0005,0.0063c0,0.0003,0.0001,0.0007,0.0001,0.001
			c0.0004,0.0043,0.0007,0.0087,0.0011,0.013c0,0.0002,0,0.0005,0.0001,0.0007c0.0002,0.002,0.0003,0.0039,0.0005,0.0059
			c0,0.0003,0,0.0005,0.0001,0.0008c0.0004,0.0043,0.0008,0.0087,0.0011,0.013c0,0.0003,0.0001,0.0006,0.0001,0.0008
			c0.0002,0.0021,0.0004,0.0042,0.0006,0.0063v0.0001c0.0002,0.0023,0.0004,0.0045,0.0006,0.0068c0,0,0,0,0,0.0001
			c0.0002,0.0021,0.0004,0.0041,0.0006,0.0063c0,0.0003,0.0001,0.0006,0.0001,0.0009c0.0004,0.0043,0.0008,0.0087,0.0013,0.013
			c0,0.0002,0,0.0005,0.0001,0.0007c0.0002,0.002,0.0004,0.0039,0.0006,0.0059c0,0.0003,0.0001,0.0005,0.0001,0.0008
			c0.0004,0.0043,0.0009,0.0087,0.0013,0.0129c0,0.0003,0.0001,0.0006,0.0001,0.0008c0.0002,0.0021,0.0004,0.0041,0.0006,0.0062
			c0,0.0001,0,0.0001,0,0.0002c0.0005,0.0044,0.0009,0.0088,0.0014,0.0132c0,0.0002,0,0.0004,0.0001,0.0006
			c0.0007,0.0067,0.0015,0.0134,0.0022,0.02c0,0.0001,0,0,0,0.0001c0.0005,0.0045,0.001,0.0089,0.0015,0.0134c0,0,0,0.0001,0,0.0002
			c0.0008,0.0068,0.0016,0.0133,0.0024,0.0201c0,0,0,0.0001,0,0.0002c0.0806,0.6678,0.3136,1.2884,0.6634,1.8264l0.8384-0.545
			c-0.3488-0.5366-0.5331-1.1605-0.5331-1.8042v-0.5161H79.3572z M82.4447,99.7865l-0.0677,0.9977
			c0.0734,0.005,0.1473,0.0081,0.2217,0.0094c0.0001,0,0.0004,0,0.0005,0c0.0026,0,0.0052,0.0001,0.0078,0.0001
			c0.0004,0,0.0011,0,0.0015,0c0.0012,0,0.0025,0,0.0037,0c0.0007,0,0.0016,0,0.0023,0c0.0018,0,0.0036,0,0.0054,0.0001
			c0.0009,0,0.002,0,0.0029,0c0.001,0,0.002,0,0.003,0c0.0014,0,0.0027,0,0.0041,0c0.0009,0,0.0019,0,0.0029,0
			c0.0014,0,0.003,0,0.0044,0c0.0007,0,0.0015,0,0.0022,0c0.0016,0,0.0033,0,0.0049,0c0.0007,0,0.0014,0,0.0021,0
			c0.0017,0,0.0032,0,0.005,0c0.0006,0,0.0012,0,0.0018,0c0.0019,0,0.004,0,0.0059,0c0.0002,0,0.0004,0,0.0006,0
			c0.0019,0,0.0038,0,0.0057,0c0.0006,0,0.0011,0,0.0017,0c0.002,0,0.0041,0,0.0061,0l0,0h2.7035v-1h-2.7035
			C82.5965,99.7942,82.5203,99.7916,82.4447,99.7865L82.4447,99.7865z M92.3769,99.7942h-3v1h3V99.7942L92.3769,99.7942z
			 M99.3769,99.7942h-3v1h3V99.7942L99.3769,99.7942z M106.3769,99.7942h-3v1h3V99.7942L106.3769,99.7942z M113.3769,99.7942h-3v1h3
			V99.7942L113.3769,99.7942z M120.3769,99.7942h-3v1h3V99.7942L120.3769,99.7942z M127.3769,99.7942h-3v1h3V99.7942
			L127.3769,99.7942z M134.3769,99.7942h-3v1h3V99.7942L134.3769,99.7942z M141.3769,99.7942h-3v1h3V99.7942L141.3769,99.7942z
			 M148.3769,99.7942h-3v1h3V99.7942L148.3769,99.7942z M155.3769,99.7942h-3v1h3V99.7942L155.3769,99.7942z M162.3769,99.7942h-3v1
			h3V99.7942L162.3769,99.7942z M169.3769,99.7942h-3v1h3V99.7942L169.3769,99.7942z M176.3769,99.7942h-3v1h3V99.7942
			L176.3769,99.7942z M183.3769,99.7942h-3v1h3V99.7942L183.3769,99.7942z M190.3769,99.7942h-3v1h3V99.7942L190.3769,99.7942z
			 M197.3769,99.7942h-3v1h3V99.7942L197.3769,99.7942z M202.1743,97.5678c-0.2539,0.7302-0.7602,1.353-1.4256,1.7538l0.5159,0.8566
			c0.1842-0.1109,0.3594-0.2352,0.5243-0.3715c0.0001-0.0001-0.0001,0,0.0001,0c0.0014-0.0012,0.0029-0.0024,0.0043-0.0036
			c0.0001-0.0001,0.0002-0.0002,0.0003-0.0003c0.0014-0.0012,0.0028-0.0023,0.0042-0.0035c0.0001-0.0001,0.0001,0,0.0002-0.0001
			c0.0089-0.0074,0.0178-0.0148,0.0266-0.0223l0.0002-0.0001c0.0014-0.0012,0.0027-0.0023,0.0041-0.0034
			c0.0002-0.0002,0.0004-0.0003,0.0006-0.0005c0.0012-0.001,0.0025-0.0021,0.0037-0.0031c0.0003-0.0003,0.0007-0.0006,0.001-0.0009
			c0.0012-0.001,0.0024-0.002,0.0036-0.0031c0.0003-0.0003,0.0006-0.0005,0.0009-0.0008c0.0012-0.001,0.0024-0.0021,0.0036-0.0031
			c0.0002-0.0002,0.0006-0.0005,0.0008-0.0007c0.0071-0.0061,0.0142-0.0122,0.0213-0.0183
			c0.0001-0.0001,0.0002-0.0002,0.0003-0.0003c0.0012-0.001,0.0023-0.002,0.0034-0.003c0.0004-0.0004,0.0009-0.0008,0.0013-0.0012
			c0.0011-0.0009,0.0021-0.0018,0.0031-0.0027c0.0004-0.0004,0.001-0.0009,0.0014-0.0012c0.001-0.0009,0.002-0.0018,0.0031-0.0027
			c0.0005-0.0004,0.001-0.0009,0.0015-0.0013c0.001-0.0009,0.0021-0.0018,0.0031-0.0027c0.0004-0.0004,0.0009-0.0008,0.0013-0.0011
			c0.001-0.0009,0.0022-0.0019,0.0032-0.0028c0.0005-0.0004,0.0009-0.0008,0.0014-0.0012c0.0011-0.001,0.0021-0.0019,0.0032-0.0028
			c0.0003-0.0003,0.0006-0.0005,0.0009-0.0008c0.0053-0.0047,0.0106-0.0093,0.0158-0.014c0.0003-0.0003,0.0007-0.0006,0.001-0.0009
			c0.001-0.0009,0.002-0.0018,0.0031-0.0027c0.0006-0.0005,0.0009-0.0008,0.0016-0.0014c0.001-0.0009,0.002-0.0018,0.003-0.0027
			c0.0006-0.0005,0.0009-0.0008,0.0016-0.0014c0.0009-0.0008,0.0019-0.0017,0.0028-0.0025c0.0006-0.0005,0.0011-0.001,0.0017-0.0016
			c0.001-0.0009,0.0019-0.0017,0.0029-0.0026c0.0005-0.0004,0.001-0.0009,0.0015-0.0014c0.001-0.0009,0.002-0.0018,0.003-0.0027
			c0.0005-0.0005,0.001-0.0009,0.0015-0.0014c0.001-0.0009,0.002-0.0018,0.0031-0.0027c0.0004-0.0004,0.0009-0.0009,0.0013-0.0012
			c0.001-0.0009,0.0021-0.0019,0.0031-0.0028c0.0004-0.0004,0.0007-0.0006,0.0011-0.001c0.0024-0.0022,0.0049-0.0045,0.0074-0.0067
			l0.0002-0.0002c0.001-0.0009,0.0021-0.0019,0.0031-0.0029c0.0005-0.0005,0.0009-0.0008,0.0014-0.0013
			c0.0009-0.0008,0.0018-0.0017,0.0027-0.0025c0.0006-0.0005,0.0013-0.0012,0.0019-0.0017
			c0.0009-0.0008,0.0018-0.0016,0.0027-0.0025c0.0006-0.0005,0.0011-0.001,0.0017-0.0016c0.0009-0.0008,0.0018-0.0017,0.0027-0.0025
			c0.0006-0.0005,0.0013-0.0012,0.0019-0.0018c0.0009-0.0008,0.0016-0.0015,0.0024-0.0023c0.0007-0.0006,0.0015-0.0014,0.0022-0.002
			c0.0008-0.0007,0.0015-0.0014,0.0023-0.0021c0.0008-0.0007,0.0016-0.0015,0.0024-0.0022c0.0007-0.0007,0.0014-0.0013,0.0021-0.002
			c0.0007-0.0006,0.0015-0.0014,0.0022-0.002c0.0008-0.0007,0.0016-0.0015,0.0024-0.0022c0.0009-0.0008,0.0016-0.0015,0.0025-0.0023
			c0.0009-0.0009,0.0019-0.0018,0.0028-0.0027c0.0012-0.0011,0.0023-0.0021,0.0034-0.0032
			c0.0006-0.0006,0.0013-0.0012,0.0019-0.0018c0.0009-0.0008,0.0017-0.0016,0.0026-0.0025c0.0007-0.0006,0.0013-0.0013,0.002-0.0019
			c0.0009-0.0008,0.0016-0.0015,0.0024-0.0023c0.0007-0.0007,0.0015-0.0014,0.0022-0.002c0.0008-0.0007,0.0016-0.0015,0.0024-0.0023
			c0.0007-0.0006,0.0013-0.0012,0.002-0.0018c0.0009-0.0008,0.0017-0.0016,0.0026-0.0025c0.0006-0.0006,0.0013-0.0013,0.002-0.0019
			c0.0008-0.0007,0.0016-0.0016,0.0024-0.0023c0.0007-0.0007,0.0014-0.0013,0.0021-0.002c0.0007-0.0006,0.0015-0.0014,0.0022-0.0021
			c0.0008-0.0008,0.0016-0.0015,0.0024-0.0023s0.0014-0.0014,0.0022-0.0021c0.0007-0.0007,0.0014-0.0013,0.0021-0.002
			c0.001-0.0009,0.002-0.0019,0.0029-0.0028s0.0017-0.0016,0.0026-0.0025c0.0011-0.001,0.0023-0.0022,0.0033-0.0032
			c0.0007-0.0006,0.0013-0.0012,0.0019-0.0018c0.0008-0.0007,0.0016-0.0016,0.0024-0.0023c0.0007-0.0007,0.0014-0.0013,0.0021-0.002
			c0.0009-0.0009,0.0016-0.0016,0.0025-0.0024c0.0007-0.0006,0.0012-0.0012,0.0019-0.0018
			c0.0009-0.0008,0.0016-0.0016,0.0025-0.0024c0.0006-0.0006,0.0014-0.0014,0.002-0.002c0.0008-0.0007,0.0016-0.0016,0.0024-0.0023
			c0.0006-0.0006,0.0014-0.0013,0.002-0.002c0.0008-0.0007,0.0016-0.0016,0.0023-0.0023c0.0007-0.0006,0.0014-0.0014,0.002-0.002
			c0.0009-0.0008,0.0017-0.0017,0.0026-0.0025c0.0006-0.0006,0.0012-0.0012,0.0018-0.0018
			c0.0009-0.0008,0.0019-0.0018,0.0027-0.0027c0.0006-0.0006,0.0011-0.0011,0.0017-0.0017
			c0.0011-0.0011,0.0024-0.0024,0.0035-0.0035c0.0003-0.0003,0.0005-0.0005,0.0008-0.0008c0.0015-0.0014,0.003-0.0029,0.0044-0.0043
			c0.0004-0.0004,0.0008-0.0008,0.0013-0.0013c0.001-0.0011,0.0021-0.0021,0.0031-0.0031c0.0005-0.0005,0.001-0.001,0.0015-0.0015
			c0.001-0.0009,0.0018-0.0018,0.0028-0.0027c0.0006-0.0006,0.0013-0.0013,0.002-0.002c0.0008-0.0007,0.0016-0.0016,0.0024-0.0024
			c0.0007-0.0006,0.0013-0.0013,0.002-0.002c0.0008-0.0008,0.0016-0.0016,0.0024-0.0024c0.0007-0.0007,0.0013-0.0013,0.0021-0.0021
			c0.0008-0.0008,0.0016-0.0016,0.0023-0.0023c0.0006-0.0006,0.0013-0.0013,0.002-0.002c0.0008-0.0008,0.0016-0.0016,0.0024-0.0024
			c0.0006-0.0007,0.0013-0.0014,0.002-0.002c0.001-0.0011,0.002-0.002,0.0031-0.0031c0.0004-0.0004,0.0007-0.0007,0.0011-0.0011
			c0.0013-0.0013,0.0026-0.0026,0.0038-0.0039c0.0002-0.0002,0.0005-0.0005,0.0006-0.0006c0.0015-0.0015,0.0029-0.003,0.0045-0.0045
			c0.0001-0.0001,0.0002-0.0002,0.0003-0.0003c0.0013-0.0013,0.0027-0.0027,0.004-0.0041c0.0004-0.0004,0.0008-0.0008,0.0012-0.0012
			c0.0011-0.0011,0.0021-0.0022,0.0033-0.0033c0.0005-0.0005,0.0008-0.0009,0.0013-0.0013c0.001-0.0011,0.0019-0.0019,0.0029-0.003
			c0.0005-0.0005,0.0011-0.0011,0.0016-0.0016c0.001-0.0011,0.0019-0.002,0.003-0.0031c0.0004-0.0004,0.0008-0.0009,0.0013-0.0013
			c0.0011-0.0012,0.0022-0.0022,0.0033-0.0034c0.0003-0.0004,0.0006-0.0007,0.001-0.001c0.0012-0.0013,0.0024-0.0025,0.0036-0.0038
			c0.0002-0.0002,0.0005-0.0005,0.0007-0.0007c0.0012-0.0013,0.0025-0.0026,0.0037-0.0039
			c0.0002-0.0002,0.0005-0.0005,0.0007-0.0007c0.0044-0.0046,0.0088-0.0091,0.0132-0.0137
			c0.0003-0.0003,0.0005-0.0005,0.0008-0.0008c0.0012-0.0013,0.0023-0.0024,0.0034-0.0036
			c0.0004-0.0004,0.0009-0.0009,0.0013-0.0014c0.001-0.0011,0.002-0.0022,0.0031-0.0032c0.0004-0.0004,0.0008-0.0008,0.0012-0.0012
			c0.0011-0.0012,0.0021-0.0022,0.0032-0.0034c0.0004-0.0004,0.0008-0.0008,0.0012-0.0013c0.001-0.0011,0.0021-0.0022,0.0031-0.0033
			c0.0004-0.0004,0.0008-0.0008,0.0012-0.0013c0.001-0.0011,0.0022-0.0023,0.0032-0.0034c0.0004-0.0004,0.0008-0.0008,0.0011-0.0012
			c0.0013-0.0014,0.0025-0.0026,0.0038-0.004c0.0001-0.0001,0.0003-0.0003,0.0004-0.0005c0.0044-0.0047,0.0087-0.0092,0.0131-0.014
			c0.0001-0.0001,0.0003-0.0004,0.0005-0.0005c0.0014-0.0015,0.0026-0.0027,0.0039-0.0042
			c0.0001-0.0001,0.0003-0.0003,0.0004-0.0004c0.0013-0.0014,0.0025-0.0027,0.0038-0.0041
			c0.0003-0.0003,0.0005-0.0006,0.0008-0.0009c0.0012-0.0013,0.0023-0.0025,0.0035-0.0038
			c0.0002-0.0003,0.0005-0.0006,0.0008-0.0009c0.0012-0.0013,0.0022-0.0024,0.0034-0.0037c0.0003-0.0004,0.0006-0.0007,0.0009-0.001
			c0.0012-0.0013,0.0023-0.0025,0.0035-0.0038c0.0002-0.0003,0.0005-0.0006,0.0008-0.0008c0.0012-0.0013,0.0025-0.0027,0.0037-0.004
			c0.0002-0.0002,0.0004-0.0004,0.0005-0.0006c0.0044-0.0048,0.0085-0.0094,0.0129-0.0142
			c0.0001-0.0001,0.0002-0.0003,0.0003-0.0004c0.0013-0.0014,0.0026-0.0029,0.0039-0.0043
			c0.0002-0.0003,0.0005-0.0005,0.0007-0.0008c0.0012-0.0013,0.0024-0.0026,0.0035-0.0039
			c0.0002-0.0003,0.0005-0.0006,0.0008-0.0009c0.0011-0.0012,0.0023-0.0026,0.0034-0.0038c0.0003-0.0004,0.0006-0.0007,0.0009-0.001
			c0.0011-0.0012,0.0023-0.0026,0.0034-0.0038c0.0003-0.0003,0.0005-0.0005,0.0008-0.0009
			c0.0013-0.0014,0.0024-0.0027,0.0036-0.0041c0.0002-0.0002,0.0004-0.0004,0.0005-0.0006c0.0071-0.0079,0.0142-0.016,0.0212-0.024
			c0.0001-0.0001,0.0002-0.0002,0.0003-0.0003c0.0013-0.0014,0.0025-0.0029,0.0038-0.0043
			c0.0003-0.0003,0.0005-0.0006,0.0008-0.0009c0.0011-0.0013,0.0023-0.0026,0.0034-0.0039
			c0.0002-0.0002,0.0005-0.0006,0.0007-0.0008c0.0013-0.0014,0.0023-0.0026,0.0035-0.004c0.0002-0.0002,0.0004-0.0005,0.0006-0.0007
			c0.0013-0.0014,0.0024-0.0028,0.0037-0.0042c0.0002-0.0002,0.0003-0.0004,0.0005-0.0005c0.0013-0.0014,0.0026-0.003,0.0038-0.0044
			c0.0001-0.0001,0.0002-0.0002,0.0003-0.0004c0.0056-0.0065,0.0111-0.0129,0.0168-0.0194
			c0.0001-0.0002,0.0002-0.0002,0.0003-0.0004c0.0013-0.0015,0.0026-0.003,0.0039-0.0046c0.0001-0.0001,0.0001-0.0001,0.0002-0.0002
			c0.0013-0.0015,0.0026-0.003,0.0039-0.0046c0.0002-0.0002,0.0003-0.0004,0.0005-0.0005c0.0012-0.0014,0.0024-0.0028,0.0036-0.0043
			c0.0002-0.0002,0.0004-0.0004,0.0006-0.0007c0.0011-0.0013,0.0023-0.0028,0.0034-0.0041
			c0.0002-0.0003,0.0005-0.0006,0.0007-0.0008c0.0013-0.0015,0.0026-0.0031,0.0039-0.0046c0,0,0,0,0.0001-0.0001
			c0.0069-0.0081,0.0138-0.0164,0.0206-0.0246c0.0002-0.0002,0.0003-0.0004,0.0005-0.0006
			c0.0012-0.0014,0.0024-0.0029,0.0036-0.0043c0.0002-0.0002,0.0004-0.0005,0.0005-0.0006
			c0.0011-0.0014,0.0023-0.0028,0.0034-0.0041c0.0002-0.0003,0.0005-0.0006,0.0007-0.0009
			c0.0012-0.0014,0.0024-0.0029,0.0036-0.0043c0.0001-0.0002,0.0003-0.0003,0.0004-0.0005
			c0.0081-0.0099,0.0163-0.0199,0.0244-0.0299c0.0001-0.0001,0.0001-0.0001,0.0002-0.0002c0.0013-0.0016,0.0024-0.003,0.0037-0.0046
			c0.0002-0.0002,0.0003-0.0005,0.0005-0.0007c0.0012-0.0015,0.0023-0.0029,0.0035-0.0044
			c0.0002-0.0002,0.0002-0.0003,0.0004-0.0005c0.0012-0.0015,0.0025-0.0031,0.0037-0.0046
			c0.0001-0.0001,0.0002-0.0002,0.0003-0.0004c0.008-0.01,0.0159-0.02,0.0238-0.03c0.0002-0.0002,0.0004-0.0005,0.0006-0.0008
			c0.0011-0.0014,0.0023-0.003,0.0034-0.0044c0.0001-0.0002,0.0002-0.0003,0.0004-0.0005c0.0012-0.0015,0.0025-0.0032,0.0037-0.0047
			c0.0001-0.0001,0.0002-0.0002,0.0002-0.0003c0.008-0.0102,0.0158-0.0203,0.0237-0.0306l0.0001-0.0001
			c0.0013-0.0017,0.0025-0.0033,0.0038-0.005c0.0001-0.0001,0.0002-0.0002,0.0002-0.0003c0.0012-0.0015,0.0025-0.0033,0.0037-0.0048
			c0.0001-0.0002,0.0002-0.0002,0.0003-0.0004c0.0011-0.0015,0.0024-0.0032,0.0036-0.0047
			c0.0001-0.0002,0.0002-0.0002,0.0003-0.0004c0.0012-0.0016,0.0023-0.0031,0.0036-0.0047
			c0.0001-0.0001,0.0002-0.0003,0.0003-0.0004c0.0078-0.0102,0.0155-0.0206,0.0232-0.0309c0,0,0.0002-0.0002,0.0002-0.0003
			c0.0011-0.0015,0.0025-0.0033,0.0036-0.0049c0.0001-0.0001,0.0002-0.0003,0.0003-0.0004
			c0.0011-0.0015,0.0023-0.0031,0.0034-0.0046c0.0002-0.0002,0.0004-0.0005,0.0005-0.0007
			c0.0012-0.0016,0.0023-0.0031,0.0035-0.0048c0,0,0.0001-0.0002,0.0002-0.0002c0.0013-0.0017,0.0025-0.0034,0.0038-0.0051h0.0001
			c0.0064-0.0087,0.0127-0.0174,0.0191-0.0262l0,0c0.0012-0.0016,0.0024-0.0034,0.0036-0.005
			c0.0001-0.0002,0.0003-0.0004,0.0004-0.0005c0.0011-0.0015,0.0023-0.0031,0.0034-0.0047
			c0.0002-0.0002,0.0003-0.0004,0.0004-0.0006c0.0011-0.0015,0.0023-0.0032,0.0034-0.0047
			c0.0001-0.0002,0.0002-0.0003,0.0004-0.0005c0.0075-0.0105,0.0149-0.0209,0.0223-0.0314
			c0.0001-0.0001,0.0002-0.0003,0.0003-0.0004c0.0011-0.0016,0.0023-0.0033,0.0034-0.0048
			c0.0001-0.0002,0.0002-0.0004,0.0003-0.0005c0.0011-0.0015,0.0022-0.0032,0.0033-0.0047
			c0.0001-0.0002,0.0003-0.0004,0.0004-0.0006c0.0011-0.0016,0.0022-0.0031,0.0033-0.0047
			c0.0001-0.0002,0.0002-0.0004,0.0004-0.0006c0.0011-0.0016,0.0022-0.0032,0.0033-0.0047
			c0.0002-0.0002,0.0002-0.0004,0.0004-0.0005c0.0062-0.0089,0.0122-0.0176,0.0183-0.0266c0,0,0,0,0.0001-0.0001
			c0.0012-0.0017,0.0023-0.0034,0.0034-0.0051c0.0002-0.0002,0.0003-0.0004,0.0004-0.0006c0.001-0.0016,0.002-0.003,0.0031-0.0046
			c0.0002-0.0002,0.0004-0.0006,0.0005-0.0009c0.001-0.0014,0.002-0.0029,0.0029-0.0043c0.0002-0.0004,0.0005-0.0007,0.0007-0.0011
			c0.001-0.0016,0.002-0.003,0.0031-0.0046c0.0001-0.0002,0.0002-0.0004,0.0003-0.0005c0.006-0.0089,0.0119-0.0177,0.0178-0.0266
			c0.0002-0.0003,0.0004-0.0006,0.0006-0.0009c0.001-0.0015,0.0019-0.0029,0.0028-0.0043c0.0002-0.0004,0.0005-0.0007,0.0007-0.0011
			c0.0009-0.0014,0.0018-0.0028,0.0027-0.0041c0.0002-0.0004,0.0005-0.0008,0.0008-0.0012
			c0.0009-0.0014,0.0019-0.0029,0.0028-0.0043c0.0002-0.0003,0.0004-0.0006,0.0006-0.0009c0.001-0.0015,0.002-0.003,0.003-0.0045
			c0.0002-0.0003,0.0003-0.0005,0.0005-0.0008c0.0047-0.0071,0.0094-0.0144,0.014-0.0215c0-0.0001,0.0001-0.0001,0.0001-0.0001
			c0.0011-0.0017,0.0022-0.0034,0.0033-0.0051c0.0002-0.0003,0.0003-0.0005,0.0005-0.0008c0.0009-0.0014,0.0019-0.003,0.0028-0.0043
			c0.0003-0.0005,0.0006-0.0009,0.0009-0.0014c0.0008-0.0013,0.0017-0.0027,0.0025-0.0039
			c0.0003-0.0005,0.0006-0.0009,0.0009-0.0013c0.0009-0.0014,0.0017-0.0027,0.0026-0.004c0.0003-0.0005,0.0005-0.0009,0.0009-0.0013
			c0.0009-0.0014,0.0019-0.003,0.0028-0.0044c0.0002-0.0003,0.0003-0.0005,0.0005-0.0007c0.001-0.0016,0.002-0.0033,0.0031-0.0049
			c0.0001-0.0002,0.0003-0.0004,0.0004-0.0006c0.0045-0.0072,0.009-0.0143,0.0135-0.0216c0.0002-0.0003,0.0005-0.0007,0.0006-0.001
			c0.0009-0.0015,0.0019-0.003,0.0028-0.0045c0.0002-0.0003,0.0004-0.0006,0.0005-0.0008c0.001-0.0016,0.0018-0.0029,0.0028-0.0045
			c0.0002-0.0004,0.0004-0.0006,0.0006-0.001c0.0009-0.0015,0.0019-0.003,0.0028-0.0045c0.0002-0.0003,0.0004-0.0006,0.0005-0.0009
			c0.0009-0.0015,0.0018-0.0029,0.0027-0.0044c0.0002-0.0004,0.0004-0.0007,0.0006-0.001c0.001-0.0017,0.0021-0.0034,0.0031-0.0051
			c0,0,0-0.0001,0.0001-0.0001c0.0034-0.0055,0.0067-0.0109,0.0101-0.0165c0.0002-0.0003,0.0003-0.0005,0.0005-0.0008
			c0.0009-0.0015,0.0019-0.0031,0.0028-0.0046c0.0002-0.0004,0.0004-0.0007,0.0006-0.001c0.0009-0.0015,0.0017-0.0028,0.0026-0.0043
			c0.0002-0.0004,0.0006-0.0009,0.0008-0.0014c0.0009-0.0014,0.0016-0.0026,0.0024-0.004c0.0003-0.0005,0.0005-0.0009,0.0009-0.0014
			c0.0008-0.0014,0.0016-0.0026,0.0024-0.004c0.0003-0.0005,0.0006-0.001,0.0009-0.0015c0.0009-0.0014,0.0017-0.0029,0.0026-0.0043
			c0.0002-0.0003,0.0004-0.0007,0.0006-0.001c0.0009-0.0015,0.0019-0.0032,0.0028-0.0047c0.0002-0.0003,0.0003-0.0005,0.0005-0.0008
			c0.0043-0.0072,0.0087-0.0147,0.013-0.022c0.0002-0.0004,0.0004-0.0006,0.0006-0.001c0.0009-0.0015,0.0017-0.0029,0.0026-0.0044
			c0.0003-0.0005,0.0005-0.0009,0.0008-0.0013c0.0008-0.0014,0.0015-0.0025,0.0023-0.004c0.0003-0.0006,0.0007-0.0011,0.001-0.0017
			c0.0007-0.0012,0.0015-0.0027,0.0022-0.0038c0.0003-0.0005,0.0006-0.0011,0.0009-0.0016
			c0.0007-0.0013,0.0015-0.0025,0.0022-0.0038c0.0003-0.0005,0.0006-0.0011,0.0009-0.0016
			c0.0008-0.0014,0.0016-0.0028,0.0024-0.0042c0.0002-0.0004,0.0005-0.0008,0.0007-0.0012c0.001-0.0016,0.0019-0.0033,0.0028-0.0049
			c0.0001-0.0002,0.0002-0.0003,0.0003-0.0005c0.0022-0.0038,0.0042-0.0073,0.0063-0.0111
			c0.0002-0.0003,0.0003-0.0006,0.0005-0.0009c0.0009-0.0015,0.0017-0.003,0.0026-0.0045c0.0003-0.0005,0.0005-0.001,0.0008-0.0014
			c0.0008-0.0013,0.0016-0.0027,0.0023-0.004c0.0003-0.0006,0.0006-0.0011,0.0009-0.0017c0.0007-0.0013,0.0014-0.0025,0.0022-0.0038
			c0.0003-0.0005,0.0006-0.0012,0.0009-0.0017c0.0007-0.0012,0.0015-0.0026,0.0022-0.0038
			c0.0003-0.0006,0.0006-0.0011,0.0009-0.0017c0.0007-0.0013,0.0015-0.0027,0.0023-0.004c0.0003-0.0005,0.0005-0.0009,0.0008-0.0014
			c0.0008-0.0014,0.0015-0.0027,0.0023-0.0042c0.0002-0.0005,0.0005-0.001,0.0008-0.0014c0.0009-0.0015,0.0018-0.0032,0.0027-0.0047
			c0.0001-0.0002,0.0002-0.0005,0.0004-0.0007c0.0021-0.0038,0.0041-0.0073,0.0062-0.0111
			c0.0002-0.0004,0.0005-0.0008,0.0007-0.0013c0.0007-0.0013,0.0015-0.0027,0.0022-0.004c0.0004-0.0007,0.0008-0.0015,0.0012-0.0022
			c0.0006-0.0012,0.0012-0.0022,0.0019-0.0034c0.0004-0.0007,0.0008-0.0014,0.0012-0.0021
			c0.0006-0.0011,0.0012-0.0022,0.0018-0.0033c0.0004-0.0007,0.0009-0.0015,0.0013-0.0023
			c0.0006-0.0012,0.0012-0.0021,0.0018-0.0033c0.0004-0.0007,0.0008-0.0015,0.0012-0.0022c0.0005-0.0009,0.0011-0.002,0.0016-0.003
			c0.0005-0.0009,0.001-0.0018,0.0014-0.0026c0.0005-0.001,0.001-0.0019,0.0016-0.0028c0.0005-0.0009,0.0009-0.0017,0.0014-0.0026
			c0.0006-0.0011,0.0012-0.0022,0.0018-0.0033c0.0004-0.0007,0.0008-0.0014,0.0011-0.0021
			c0.0009-0.0017,0.0019-0.0035,0.0028-0.0051c0.0002-0.0003,0.0003-0.0006,0.0005-0.0009
			c0.0008-0.0016,0.0017-0.0033,0.0026-0.0048c0.0004-0.0007,0.0008-0.0015,0.0012-0.0022
			c0.0006-0.0011,0.0012-0.0023,0.0018-0.0033c0.0004-0.0007,0.0008-0.0015,0.0012-0.0022
			c0.0006-0.0011,0.0012-0.0023,0.0018-0.0033c0.0004-0.0008,0.0009-0.0016,0.0013-0.0024c0.0006-0.0011,0.001-0.0019,0.0016-0.003
			c0.0005-0.0009,0.001-0.0018,0.0014-0.0027c0.0005-0.001,0.0009-0.0017,0.0014-0.0027s0.0011-0.002,0.0016-0.003
			c0.0004-0.0008,0.0008-0.0015,0.0013-0.0024c0.0005-0.001,0.001-0.002,0.0016-0.003c0.0004-0.0008,0.0009-0.0017,0.0013-0.0025
			c0.0005-0.001,0.0011-0.002,0.0016-0.003c0.0004-0.0007,0.0008-0.0015,0.0012-0.0022c0.0005-0.0011,0.0011-0.0021,0.0017-0.0032
			c0.0003-0.0006,0.0005-0.001,0.0008-0.0016c0.0012-0.0023,0.0024-0.0046,0.0036-0.0069c0.0004-0.0007,0.0008-0.0015,0.0012-0.0023
			c0.0005-0.001,0.001-0.0019,0.0015-0.0029c0.0005-0.0009,0.0009-0.0016,0.0013-0.0025c0.0006-0.0011,0.0011-0.0021,0.0017-0.0032
			c0.0004-0.0007,0.0008-0.0015,0.0012-0.0023c0.0006-0.0011,0.0012-0.0023,0.0018-0.0034c0.0004-0.0007,0.0006-0.0012,0.001-0.0019
			c0.0006-0.0011,0.0012-0.0023,0.0018-0.0035c0.0004-0.0007,0.0007-0.0014,0.0011-0.0022
			c0.0006-0.0011,0.0011-0.0022,0.0017-0.0033c0.0004-0.0007,0.0007-0.0014,0.0011-0.0022
			c0.0005-0.0011,0.0011-0.0023,0.0017-0.0033c0.0004-0.0007,0.0007-0.0015,0.0011-0.0022
			c0.0005-0.0011,0.0011-0.0022,0.0017-0.0033c0.0004-0.0007,0.0006-0.0012,0.001-0.002c0.0006-0.0012,0.0012-0.0024,0.0018-0.0035
			c0.0003-0.0006,0.0005-0.001,0.0008-0.0016c0.0023-0.0045,0.0045-0.009,0.0068-0.0135c0.0001-0.0002,0.0003-0.0007,0.0005-0.0009
			c0.0007-0.0014,0.0014-0.0027,0.002-0.0041c0.0002-0.0004,0.0005-0.001,0.0007-0.0014c0.0007-0.0014,0.0013-0.0027,0.002-0.0041
			c0.0002-0.0004,0.0005-0.001,0.0007-0.0014c0.0007-0.0013,0.0013-0.0026,0.002-0.0039c0.0002-0.0005,0.0005-0.0012,0.0008-0.0016
			c0.0006-0.0013,0.0013-0.0026,0.0019-0.0038c0.0002-0.0005,0.0005-0.0011,0.0008-0.0016
			c0.0006-0.0013,0.0012-0.0025,0.0019-0.0038c0.0002-0.0005,0.0005-0.0011,0.0008-0.0016c0.0006-0.0013,0.0013-0.0027,0.002-0.0041
			c0.0001-0.0002,0.0002-0.0004,0.0003-0.0006c0.0042-0.0085,0.0083-0.017,0.0124-0.0255c0.0001-0.0002,0.0002-0.0005,0.0003-0.0007
			c0.0007-0.0014,0.0014-0.0029,0.0021-0.0044c0.0002-0.0004,0.0004-0.0008,0.0006-0.0012c0.0006-0.0013,0.0013-0.0028,0.002-0.0041
			c0.0002-0.0005,0.0005-0.001,0.0007-0.0015c0.0007-0.0014,0.0013-0.0027,0.002-0.0041c0.0002-0.0004,0.0003-0.0007,0.0005-0.0011
			c0.0007-0.0014,0.0014-0.003,0.0021-0.0044c0.0001-0.0002,0.0003-0.0007,0.0004-0.0009c0.0007-0.0015,0.0015-0.0031,0.0022-0.0046
			c0.0001-0.0002,0.0001-0.0002,0.0002-0.0005c0.004-0.0086,0.008-0.017,0.012-0.0256c0.0001-0.0002,0.0004-0.0007,0.0005-0.001
			c0.0007-0.0015,0.0013-0.0029,0.002-0.0044c0.0002-0.0004,0.0003-0.0007,0.0005-0.0011c0.0007-0.0015,0.0013-0.0029,0.002-0.0044
			c0.0002-0.0004,0.0003-0.0006,0.0005-0.001c0.0007-0.0015,0.0014-0.0031,0.0021-0.0046c0.0001-0.0002,0.0002-0.0005,0.0004-0.0008
			c0.0007-0.0015,0.0014-0.0031,0.0021-0.0046c0.0001-0.0002,0.0003-0.0006,0.0004-0.0009
			c0.0065-0.0141,0.0128-0.0282,0.0191-0.0425l0.0001-0.0001c0.0479-0.108,0.0916-0.2184,0.1307-0.3309L202.1743,97.5678
			L202.1743,97.5678z M203.3572,90.9228h-1v3h1V90.9228L203.3572,90.9228z M203.3572,83.9228h-1v3h1V83.9228L203.3572,83.9228z
			 M203.3572,76.9228h-1v3h1V76.9228L203.3572,76.9228z M203.3572,69.9228h-1v3h1V69.9228L203.3572,69.9228z M203.3572,62.9228h-1v3
			h1V62.9228L203.3572,62.9228z M203.3572,55.9228h-1v3h1V55.9228L203.3572,55.9228z M203.3572,48.9228h-1v3h1V48.9228
			L203.3572,48.9228z M203.3572,41.9228h-1v3h1V41.9228L203.3572,41.9228z M202.8154,35.0152l-0.8739,0.4861
			c0.2719,0.4888,0.4156,1.0452,0.4156,1.6091v0.8124h1v-0.8124l0,0c0-0.0027,0-0.0054,0-0.0081c0-0.0007,0-0.0016,0-0.0024
			c0-0.0019,0-0.0039,0-0.0058c0-0.001,0-0.0018,0-0.0028c0-0.002,0-0.004,0-0.006c0-0.0006,0-0.0015,0-0.0021
			c0-0.0027,0-0.0054-0.0001-0.0081c0-0.0006,0-0.0011,0-0.0017c0-0.0022,0-0.0043-0.0001-0.0065c0-0.0007,0-0.0018,0-0.0025
			c0-0.0019,0-0.0039-0.0001-0.0058c0-0.0009,0-0.0016,0-0.0025c0-0.0023-0.0001-0.0047-0.0001-0.007c0-0.0003,0-0.0008,0-0.0011
			c0-0.0027-0.0001-0.0054-0.0001-0.0081c0-0.0007,0-0.0015,0-0.0022c0-0.002-0.0001-0.0039-0.0001-0.0059
			c0-0.0009,0-0.0018-0.0001-0.0027c0-0.002-0.0001-0.004-0.0001-0.0059c0-0.0009,0-0.0014-0.0001-0.0023
			c-0.0001-0.0027-0.0001-0.0054-0.0002-0.0081c0-0.0003,0-0.0004,0-0.0007c-0.0001-0.0025-0.0001-0.0049-0.0002-0.0074
			c0-0.0009,0-0.0016-0.0001-0.0025c0-0.002-0.0001-0.0039-0.0001-0.0059c0-0.0009-0.0001-0.0016-0.0001-0.0025
			c0-0.0021-0.0001-0.0042-0.0002-0.0063c0-0.0006,0-0.0013-0.0001-0.0018c-0.0001-0.0027-0.0002-0.0054-0.0002-0.008
			c0-0.0007,0-0.0012-0.0001-0.0019c-0.0001-0.002-0.0001-0.0041-0.0002-0.0061c0-0.0009-0.0001-0.0019-0.0001-0.0028
			c-0.0001-0.0018-0.0001-0.0037-0.0002-0.0055c0-0.0009-0.0001-0.0017-0.0001-0.0026c-0.0001-0.0025-0.0002-0.0049-0.0002-0.0074
			c0-0.0003,0-0.0004,0-0.0007c-0.0001-0.0027-0.0002-0.0054-0.0003-0.0081c0-0.0007-0.0001-0.0014-0.0001-0.0021
			c-0.0001-0.002-0.0002-0.004-0.0002-0.006c-0.0001-0.0009-0.0001-0.0017-0.0001-0.0026
			c-0.0001-0.0021-0.0002-0.0041-0.0002-0.0061c0-0.0007-0.0001-0.0012-0.0001-0.0019c-0.0001-0.0027-0.0002-0.0055-0.0004-0.0082
			c0-0.0003,0-0.0005,0-0.0008c-0.0001-0.0024-0.0002-0.0048-0.0003-0.0073c0-0.0009-0.0001-0.0015-0.0001-0.0023
			c-0.0001-0.002-0.0002-0.0039-0.0003-0.0059c0-0.0007-0.0001-0.0018-0.0001-0.0025c-0.0001-0.0024-0.0002-0.0047-0.0004-0.007
			c0-0.0003,0-0.0006,0-0.0009c-0.0002-0.0027-0.0003-0.0054-0.0004-0.0082c0-0.0006-0.0001-0.0012-0.0001-0.0018
			c-0.0001-0.0021-0.0002-0.0042-0.0003-0.0063c0-0.0007-0.0001-0.0017-0.0002-0.0025c-0.0001-0.002-0.0002-0.0039-0.0003-0.0059
			c-0.0001-0.0007-0.0001-0.0016-0.0002-0.0023c-0.0003-0.0054-0.0006-0.0107-0.0009-0.0161
			c-0.0001-0.0007-0.0001-0.0017-0.0002-0.0024c-0.0001-0.0019-0.0002-0.0037-0.0004-0.0056
			c-0.0001-0.001-0.0001-0.0017-0.0002-0.0027c-0.0001-0.002-0.0002-0.0039-0.0004-0.0059
			c-0.0001-0.0009-0.0001-0.0013-0.0002-0.0022c-0.0002-0.0027-0.0003-0.0053-0.0005-0.0079c0-0.0006-0.0001-0.001-0.0001-0.0016
			c-0.0001-0.0022-0.0003-0.0042-0.0004-0.0064c-0.0001-0.0009-0.0001-0.0018-0.0002-0.0026
			c-0.0001-0.0019-0.0003-0.0039-0.0004-0.0058c-0.0001-0.0009-0.0001-0.0015-0.0002-0.0023
			c-0.0002-0.0024-0.0003-0.0047-0.0005-0.007c0-0.0003-0.0001-0.0007-0.0001-0.001c-0.0002-0.0027-0.0004-0.0054-0.0006-0.0081
			c0-0.0006-0.0001-0.0011-0.0001-0.0017c-0.0002-0.0021-0.0003-0.0043-0.0005-0.0064c-0.0001-0.0009-0.0001-0.0015-0.0002-0.0023
			c-0.0002-0.002-0.0003-0.0041-0.0005-0.0062c0-0.0006-0.0001-0.0013-0.0001-0.0019c-0.0002-0.0027-0.0005-0.0054-0.0007-0.0081
			c0-0.0001,0-0.0002,0-0.0004c-0.0002-0.0026-0.0004-0.0051-0.0006-0.0077c-0.0001-0.0007-0.0001-0.0014-0.0002-0.0021
			c-0.0002-0.002-0.0003-0.0041-0.0005-0.0061c-0.0001-0.0009-0.0001-0.0014-0.0002-0.0022
			c-0.0002-0.0023-0.0004-0.0045-0.0006-0.0068c0-0.0004-0.0001-0.0008-0.0001-0.0013c-0.0002-0.0027-0.0005-0.0054-0.0007-0.0082
			c0-0.0003-0.0001-0.0009-0.0001-0.0012c-0.0002-0.0023-0.0004-0.0045-0.0006-0.0068c-0.0001-0.0009-0.0001-0.0014-0.0002-0.0023
			c-0.0002-0.002-0.0004-0.004-0.0005-0.006c-0.0001-0.0007-0.0001-0.0014-0.0002-0.0022c-0.0005-0.0053-0.001-0.0107-0.0015-0.016
			c-0.0001-0.0007-0.0001-0.0013-0.0002-0.002c-0.0002-0.002-0.0004-0.0041-0.0006-0.0061
			c-0.0001-0.0007-0.0001-0.0014-0.0002-0.0021c-0.0002-0.0023-0.0005-0.0045-0.0007-0.0067c0-0.0003-0.0001-0.001-0.0001-0.0013
			c-0.0003-0.0028-0.0005-0.0055-0.0009-0.0083l0,0c-0.0003-0.0026-0.0005-0.0053-0.0008-0.0079
			c-0.0001-0.0006-0.0002-0.0014-0.0002-0.002c-0.0002-0.0021-0.0004-0.0042-0.0007-0.0063
			c-0.0001-0.0007-0.0001-0.0011-0.0002-0.0018c-0.0003-0.0025-0.0005-0.005-0.0008-0.0074c0-0.0003-0.0001-0.0003-0.0001-0.0006
			c-0.0003-0.0027-0.0006-0.0055-0.0009-0.0083c0-0.0004-0.0001-0.0006-0.0001-0.001c-0.0003-0.0023-0.0005-0.0046-0.0008-0.0069
			c-0.0001-0.0007-0.0002-0.0014-0.0002-0.0021c-0.0002-0.0022-0.0005-0.0043-0.0007-0.0065
			c-0.0001-0.0006-0.0001-0.001-0.0002-0.0016c-0.0006-0.0054-0.0013-0.0108-0.0019-0.0162
			c-0.0001-0.0006-0.0002-0.0011-0.0002-0.0016c-0.0002-0.0022-0.0005-0.0042-0.0008-0.0064
			c-0.0001-0.0007-0.0002-0.0014-0.0002-0.0021c-0.0003-0.0023-0.0006-0.0045-0.0009-0.0068c0-0.0004-0.0001-0.0007-0.0001-0.0011
			c-0.0003-0.0027-0.0007-0.0055-0.001-0.0082c0-0.0003,0-0.0003-0.0001-0.0006c-0.0003-0.0025-0.0006-0.0049-0.0009-0.0074
			c-0.0001-0.0007-0.0002-0.0012-0.0002-0.0019c-0.0002-0.0021-0.0005-0.0041-0.0008-0.0062
			c-0.0001-0.0007-0.0002-0.0014-0.0003-0.0021c-0.0003-0.0025-0.0006-0.005-0.001-0.0075c0-0.0001,0-0.0003-0.0001-0.0004
			c-0.0003-0.0027-0.0007-0.0055-0.0011-0.0082c-0.0001-0.0006-0.0001-0.0008-0.0002-0.0013
			c-0.0003-0.0022-0.0006-0.0044-0.0009-0.0067c-0.0001-0.0007-0.0002-0.0012-0.0003-0.0019
			c-0.0003-0.0022-0.0006-0.0044-0.0009-0.0066c-0.0001-0.0004-0.0001-0.001-0.0002-0.0014
			c-0.0008-0.0054-0.0015-0.0108-0.0023-0.0162c-0.0001-0.0004-0.0002-0.0011-0.0002-0.0015
			c-0.0003-0.0022-0.0006-0.0044-0.0009-0.0066c-0.0001-0.0006-0.0002-0.0012-0.0002-0.0017
			c-0.0003-0.0024-0.0007-0.0048-0.001-0.0072c-0.0001-0.0003-0.0001-0.0004-0.0001-0.0007
			c-0.0004-0.0028-0.0008-0.0055-0.0012-0.0083c0-0.0001,0-0.0003-0.0001-0.0004c-0.0004-0.0025-0.0007-0.0051-0.0011-0.0076
			c-0.0001-0.0005-0.0002-0.001-0.0002-0.0015c-0.0004-0.0023-0.0007-0.0046-0.0011-0.007
			c-0.0001-0.0004-0.0001-0.0006-0.0002-0.001c-0.0008-0.0055-0.0017-0.011-0.0025-0.0164
			c-0.0001-0.0004-0.0001-0.0005-0.0002-0.001c-0.0004-0.0024-0.0007-0.0047-0.0011-0.007
			c-0.0001-0.0006-0.0002-0.001-0.0002-0.0015c-0.0004-0.0023-0.0008-0.0048-0.0011-0.0072c0-0.0003-0.0001-0.0006-0.0002-0.0009
			c-0.0009-0.0055-0.0017-0.0109-0.0027-0.0163c-0.0001-0.0004-0.0001-0.0007-0.0002-0.0012
			c-0.0004-0.0023-0.0008-0.0046-0.0012-0.007c-0.0001-0.0004-0.0002-0.001-0.0002-0.0014
			c-0.0009-0.0054-0.0018-0.0108-0.0027-0.0163c-0.0001-0.0003-0.0001-0.0004-0.0001-0.0006
			c-0.0004-0.0024-0.0009-0.005-0.0013-0.0074c-0.0001-0.0004-0.0002-0.0009-0.0002-0.0013
			c-0.0004-0.0024-0.0008-0.0048-0.0013-0.0071c-0.0001-0.0003-0.0001-0.0007-0.0002-0.0009
			c-0.001-0.0055-0.0019-0.0109-0.0029-0.0164c-0.0001-0.0003-0.0001-0.0006-0.0002-0.0009
			c-0.0004-0.0024-0.0009-0.0047-0.0013-0.0071c-0.0001-0.0004-0.0002-0.0009-0.0002-0.0013
			c-0.0005-0.0025-0.0009-0.0051-0.0014-0.0076l-0.0001-0.0003c-0.001-0.0054-0.002-0.011-0.003-0.0164
			c-0.0001-0.0004-0.0002-0.0007-0.0002-0.0011c-0.0005-0.0024-0.0009-0.0048-0.0013-0.0072
			c-0.0001-0.0003-0.0002-0.0007-0.0002-0.001c-0.001-0.0055-0.0021-0.0109-0.0031-0.0164c0-0.0001-0.0001-0.0003-0.0001-0.0004
			c-0.0005-0.0025-0.001-0.0049-0.0015-0.0074c-0.0001-0.0004-0.0002-0.001-0.0002-0.0014c-0.0005-0.0025-0.001-0.005-0.0015-0.0076
			l-0.0001-0.0002c-0.0011-0.0056-0.0022-0.011-0.0033-0.0166c0-0.0001-0.0001-0.0003-0.0001-0.0004
			c-0.0005-0.0026-0.001-0.0051-0.0016-0.0077c0-0.0003-0.0001-0.0005-0.0001-0.0007c-0.0017-0.0082-0.0034-0.0164-0.0051-0.0246
			c-0.0001-0.0003-0.0001-0.0003-0.0002-0.0006c-0.0005-0.0025-0.0011-0.0051-0.0016-0.0076
			c-0.0001-0.0003-0.0001-0.0005-0.0002-0.0008c-0.0012-0.0054-0.0023-0.0109-0.0035-0.0164l-0.0001-0.0003
			c-0.0006-0.0026-0.0011-0.0051-0.0017-0.0078c-0.0001-0.0003-0.0001-0.0005-0.0002-0.0008
			c-0.0006-0.0026-0.0012-0.0052-0.0017-0.0078c0-0.0001,0-0.0001,0-0.0002c-0.0012-0.0055-0.0024-0.0109-0.0036-0.0164
			c-0.0001-0.0003-0.0001-0.0005-0.0002-0.0008c-0.0005-0.0024-0.0011-0.0049-0.0016-0.0073
			c-0.0001-0.0003-0.0002-0.0007-0.0002-0.0009c-0.0018-0.0081-0.0037-0.0161-0.0056-0.0242
			c-0.0001-0.0003-0.0002-0.0007-0.0002-0.0009c-0.0006-0.0025-0.0012-0.0051-0.0018-0.0076c0-0.0001,0-0.0002-0.0001-0.0003
			c-0.0013-0.0054-0.0026-0.0109-0.0039-0.0164c0-0.0001-0.0001-0.0003-0.0001-0.0004c-0.0006-0.0025-0.0012-0.005-0.0018-0.0075
			c-0.0001-0.0003-0.0001-0.0006-0.0002-0.0009c-0.002-0.0081-0.0039-0.0161-0.0059-0.0242
			c-0.0001-0.0003-0.0001-0.0005-0.0002-0.0007c-0.0006-0.0025-0.0013-0.005-0.0019-0.0075c0-0.0001-0.0001-0.0005-0.0002-0.0006
			c-0.0013-0.0054-0.0027-0.0108-0.0041-0.0163c0-0.0001,0,0-0.0001-0.0002c-0.0006-0.0026-0.0013-0.0052-0.002-0.0077
			c-0.0001-0.0003-0.0001-0.0005-0.0002-0.0008c-0.0007-0.0026-0.0013-0.0052-0.002-0.0077l-0.0001-0.0002
			c-0.0014-0.0054-0.0028-0.0107-0.0042-0.0161c-0.0001-0.0003-0.0002-0.0006-0.0002-0.0009
			c-0.0006-0.0024-0.0013-0.0047-0.0019-0.0071c-0.0001-0.0003-0.0002-0.0007-0.0003-0.001
			c-0.0021-0.008-0.0042-0.0159-0.0064-0.0238c-0.0001-0.0003-0.0002-0.0006-0.0002-0.0009
			c-0.0007-0.0025-0.0013-0.0049-0.002-0.0074c-0.0001-0.0003-0.0001-0.0002-0.0002-0.0005
			c-0.0015-0.0054-0.0029-0.0108-0.0044-0.0161l-0.0001-0.0003c-0.0007-0.0025-0.0014-0.005-0.0021-0.0075
			c-0.0001-0.0004-0.0002-0.0006-0.0003-0.001c-0.0022-0.008-0.0045-0.0159-0.0067-0.0238
			c-0.0001-0.0001-0.0001-0.0003-0.0002-0.0005c-0.0007-0.0025-0.0014-0.0049-0.0021-0.0074
			c-0.0001-0.0003-0.0001-0.0005-0.0002-0.0008c-0.0023-0.0079-0.0046-0.0158-0.0069-0.0237
			c-0.0001-0.0003-0.0002-0.0005-0.0002-0.0008c-0.0007-0.0025-0.0015-0.005-0.0022-0.0075c0-0.0001-0.0001-0.0002-0.0001-0.0003
			c-0.0016-0.0053-0.0032-0.0107-0.0048-0.016c-0.0001-0.0001-0.0001-0.0002-0.0001-0.0003
			c-0.0008-0.0025-0.0015-0.0051-0.0023-0.0076c-0.0001-0.0003-0.0001-0.0003-0.0002-0.0006
			c-0.0024-0.0079-0.0049-0.0159-0.0073-0.0238c0-0.0001-0.0001-0.0004-0.0002-0.0005c-0.0008-0.0026-0.0016-0.0051-0.0024-0.0076
			c0-0.0001,0-0.0001-0.0001-0.0003c-0.0025-0.0079-0.005-0.0159-0.0075-0.0238c-0.0001-0.0003-0.0002-0.0004-0.0002-0.0007
			c-0.0008-0.0025-0.0016-0.0051-0.0025-0.0077l0,0c-0.0017-0.0053-0.0034-0.0106-0.0051-0.0159
			c0-0.0001-0.0002-0.0005-0.0002-0.0006c-0.0008-0.0023-0.0016-0.0047-0.0023-0.0071c-0.0001-0.0004-0.0002-0.0006-0.0003-0.001
			c-0.0025-0.0077-0.0051-0.0155-0.0077-0.0232c-0.0001-0.0003-0.0002-0.0007-0.0003-0.001
			c-0.0008-0.0024-0.0016-0.0047-0.0024-0.0071c-0.0001-0.0003-0.0001-0.0003-0.0002-0.0005
			c-0.0017-0.0052-0.0035-0.0105-0.0053-0.0157l-0.0001-0.0003c-0.0009-0.0025-0.0017-0.0049-0.0025-0.0074
			c-0.0001-0.0003-0.0002-0.0005-0.0003-0.0008c-0.0027-0.0077-0.0053-0.0155-0.008-0.0232
			c-0.0001-0.0003-0.0002-0.0007-0.0003-0.0009c-0.0008-0.0023-0.0016-0.0047-0.0025-0.007
			c-0.0001-0.0003-0.0001-0.0004-0.0002-0.0006c-0.0027-0.0077-0.0054-0.0154-0.0082-0.0231
			c-0.0002-0.0004-0.0002-0.0007-0.0004-0.0011c-0.0008-0.0023-0.0017-0.0047-0.0025-0.007c0-0.0001-0.0002-0.0004-0.0002-0.0006
			c-0.0018-0.0051-0.0037-0.0103-0.0056-0.0155c0-0.0001-0.0002-0.0004-0.0002-0.0006c-0.0009-0.0023-0.0017-0.0046-0.0025-0.0069
			c-0.0002-0.0004-0.0003-0.0008-0.0004-0.0012c-0.0028-0.0076-0.0056-0.0151-0.0084-0.0227
			c-0.0002-0.0004-0.0002-0.0007-0.0004-0.0011c-0.0008-0.0022-0.0016-0.0043-0.0024-0.0065
			c-0.0002-0.0004-0.0003-0.0009-0.0005-0.0013c-0.0019-0.005-0.0038-0.0101-0.0057-0.0151
			c-0.0001-0.0001-0.0002-0.0004-0.0002-0.0005c-0.0009-0.0023-0.0017-0.0045-0.0026-0.0067
			c-0.0002-0.0005-0.0004-0.001-0.0006-0.0015c-0.0008-0.0021-0.0016-0.0042-0.0024-0.0063
			c-0.0001-0.0004-0.0003-0.0008-0.0004-0.0012c-0.0019-0.0049-0.0038-0.0099-0.0058-0.0149
			c-0.0002-0.0004-0.0004-0.0009-0.0005-0.0013c-0.0008-0.002-0.0016-0.0041-0.0024-0.0061
			c-0.0002-0.0005-0.0004-0.001-0.0006-0.0015c-0.0009-0.0023-0.0019-0.0047-0.0028-0.007l-0.0001-0.0002
			c-0.001-0.0026-0.002-0.0051-0.003-0.0077c-0.0001-0.0001-0.0002-0.0004-0.0002-0.0005
			c-0.0009-0.0022-0.0018-0.0045-0.0027-0.0067c-0.0002-0.0005-0.0004-0.0011-0.0006-0.0016
			c-0.0008-0.002-0.0016-0.004-0.0024-0.006c-0.0002-0.0004-0.0004-0.001-0.0005-0.0014c-0.002-0.0049-0.0039-0.0098-0.0059-0.0147
			c-0.0002-0.0004-0.0004-0.001-0.0005-0.0014c-0.0008-0.0019-0.0016-0.0039-0.0024-0.0059
			c-0.0002-0.0006-0.0005-0.0011-0.0007-0.0018c-0.0008-0.002-0.0017-0.0041-0.0025-0.0061
			c-0.0002-0.0004-0.0003-0.0007-0.0005-0.0011c-0.001-0.0025-0.002-0.0049-0.0031-0.0074
			c-0.0001-0.0001-0.0001-0.0002-0.0001-0.0003c-0.0009-0.0023-0.0019-0.0047-0.0029-0.007
			c-0.0002-0.0005-0.0004-0.0009-0.0006-0.0014c-0.0008-0.002-0.0016-0.0039-0.0024-0.0059
			c-0.0003-0.0006-0.0004-0.001-0.0007-0.0017c-0.0009-0.0023-0.0019-0.0045-0.0028-0.0068
			c-0.0001-0.0001-0.0001-0.0002-0.0002-0.0003c-0.001-0.0024-0.0021-0.0049-0.0031-0.0073
			c-0.0002-0.0004-0.0004-0.0009-0.0005-0.0013c-0.0008-0.002-0.0017-0.004-0.0025-0.006c-0.0003-0.0006-0.0004-0.001-0.0007-0.0016
			c-0.0008-0.002-0.0016-0.0039-0.0025-0.0058c-0.0002-0.0005-0.0004-0.001-0.0006-0.0015
			c-0.002-0.0048-0.0041-0.0096-0.0061-0.0144c-0.0003-0.0006-0.0005-0.0011-0.0008-0.0018
			c-0.0008-0.0018-0.0016-0.0036-0.0023-0.0054c-0.0003-0.0006-0.0006-0.0013-0.0009-0.002
			c-0.0008-0.0019-0.0016-0.0038-0.0025-0.0057c-0.0002-0.0005-0.0004-0.0009-0.0006-0.0014
			c-0.0011-0.0024-0.0021-0.0048-0.0031-0.0072c-0.0002-0.0004-0.0002-0.0005-0.0004-0.0009
			c-0.0009-0.002-0.0017-0.004-0.0026-0.006c-0.0003-0.0007-0.0007-0.0015-0.001-0.0023c-0.0007-0.0017-0.0015-0.0033-0.0022-0.005
			c-0.0003-0.0007-0.0006-0.0013-0.0009-0.0021c-0.0009-0.0021-0.0018-0.0042-0.0027-0.0063
			c-0.0001-0.0003-0.0002-0.0005-0.0003-0.0007c-0.001-0.0023-0.0021-0.0047-0.0031-0.007
			c-0.0003-0.0006-0.0006-0.0013-0.0009-0.0019c-0.0007-0.0017-0.0015-0.0034-0.0023-0.0051
			c-0.0003-0.0007-0.0007-0.0016-0.0011-0.0023c-0.0008-0.0017-0.0015-0.0034-0.0023-0.0051
			c-0.0003-0.0006-0.0005-0.0012-0.0009-0.0019c-0.001-0.0023-0.0021-0.0046-0.0031-0.007
			c-0.0002-0.0004-0.0002-0.0005-0.0004-0.0008c-0.0009-0.002-0.0018-0.0041-0.0027-0.0061
			c-0.0003-0.0007-0.0008-0.0016-0.0011-0.0024c-0.0007-0.0015-0.0014-0.003-0.0021-0.0045
			c-0.0004-0.0009-0.0008-0.0018-0.0012-0.0026c-0.0008-0.0017-0.0015-0.0033-0.0023-0.0049
			c-0.0003-0.0006-0.0006-0.0013-0.0009-0.002c-0.001-0.0022-0.0021-0.0045-0.0031-0.0067
			c-0.0003-0.0007-0.0006-0.0013-0.001-0.0021c-0.0007-0.0016-0.0015-0.0033-0.0023-0.0049
			c-0.0004-0.0007-0.0008-0.0017-0.0011-0.0024c-0.0007-0.0015-0.0014-0.0031-0.0022-0.0046
			c-0.0004-0.0009-0.0008-0.0017-0.0012-0.0025c-0.0008-0.0018-0.0016-0.0035-0.0025-0.0053
			c-0.0003-0.0006-0.0005-0.0012-0.0009-0.0018c-0.001-0.0021-0.002-0.0042-0.003-0.0063
			c-0.0004-0.0009-0.0008-0.0018-0.0013-0.0026c-0.0007-0.0014-0.0013-0.0028-0.002-0.0043
			c-0.0005-0.001-0.0009-0.0018-0.0014-0.0028c-0.0006-0.0013-0.0013-0.0027-0.0019-0.0041
			c-0.0005-0.001-0.0009-0.0019-0.0014-0.0029c-0.001-0.0021-0.002-0.0042-0.003-0.0063c-0.0004-0.0007-0.0008-0.0015-0.0011-0.0023
			c-0.0007-0.0015-0.0015-0.0031-0.0022-0.0046c-0.0004-0.0009-0.0009-0.0019-0.0013-0.0027
			c-0.0006-0.0014-0.0013-0.0028-0.002-0.0041c-0.0005-0.001-0.0009-0.0018-0.0014-0.0028
			c-0.0007-0.0014-0.0014-0.0029-0.0021-0.0043c-0.0004-0.0009-0.0009-0.0018-0.0013-0.0026
			c-0.001-0.0021-0.0021-0.0042-0.0031-0.0063c-0.0005-0.001-0.0009-0.0018-0.0014-0.0028
			c-0.0006-0.0013-0.0013-0.0025-0.0019-0.0038c-0.0005-0.0011-0.001-0.0022-0.0016-0.0033
			c-0.0006-0.0012-0.0012-0.0024-0.0018-0.0036c-0.0005-0.001-0.0011-0.0022-0.0016-0.0032
			c-0.0007-0.0014-0.0014-0.0029-0.0022-0.0043c-0.0007-0.0015-0.0015-0.003-0.0022-0.0044s-0.0013-0.0027-0.002-0.0041
			c-0.0006-0.0012-0.0011-0.0021-0.0017-0.0033c-0.0005-0.0011-0.0011-0.0023-0.0017-0.0034
			c-0.0005-0.0011-0.0012-0.0024-0.0017-0.0035c-0.0005-0.0011-0.0011-0.0022-0.0017-0.0033
			c-0.0005-0.0011-0.0011-0.0022-0.0016-0.0033c-0.0008-0.0015-0.0015-0.003-0.0023-0.0045
			c-0.0009-0.0017-0.0017-0.0033-0.0025-0.005c-0.0005-0.0011-0.001-0.0021-0.0016-0.0031
			c-0.0006-0.0012-0.0012-0.0024-0.0018-0.0036c-0.0005-0.001-0.001-0.002-0.0016-0.003c-0.0006-0.0012-0.0012-0.0024-0.0018-0.0036
			c-0.0005-0.0011-0.0011-0.0021-0.0016-0.0032c-0.0013-0.0024-0.0026-0.005-0.0038-0.0074
			c-0.0003-0.0006-0.0006-0.0012-0.0009-0.0018c-0.0008-0.0014-0.0014-0.0028-0.0022-0.0042
			c-0.0004-0.0008-0.0008-0.0016-0.0012-0.0023c-0.0007-0.0013-0.0013-0.0026-0.002-0.0039
			c-0.0005-0.0009-0.0009-0.0018-0.0014-0.0028c-0.0006-0.0012-0.0014-0.0027-0.002-0.0039
			c-0.0004-0.0007-0.0007-0.0014-0.0011-0.0022c-0.0014-0.0026-0.0026-0.005-0.004-0.0077
			c-0.0004-0.0008-0.0008-0.0015-0.0013-0.0023c-0.0007-0.0013-0.0014-0.0027-0.0021-0.004
			c-0.0005-0.0009-0.0009-0.0017-0.0014-0.0026c-0.0007-0.0013-0.0014-0.0027-0.0021-0.004
			c-0.0004-0.0007-0.0008-0.0015-0.0012-0.0022c-0.0026-0.0048-0.0051-0.0095-0.0076-0.0143
			c-0.0003-0.0006-0.0007-0.0013-0.001-0.0019c-0.0009-0.0016-0.0015-0.0028-0.0023-0.0044
			c-0.0004-0.0007-0.0007-0.0013-0.0011-0.002c-0.0008-0.0014-0.0016-0.0029-0.0023-0.0043
			c-0.0003-0.0006-0.0006-0.0011-0.0009-0.0017c-0.0016-0.0029-0.0032-0.0059-0.0047-0.0088
			c-0.0003-0.0005-0.0005-0.001-0.0008-0.0015c-0.0009-0.0016-0.0016-0.0029-0.0024-0.0044
			c-0.0003-0.0006-0.0007-0.0012-0.001-0.0018c-0.0008-0.0014-0.0017-0.0031-0.0025-0.0045
			c-0.0003-0.0005-0.0006-0.0011-0.0009-0.0016c-0.0029-0.0052-0.0058-0.0105-0.0087-0.0158
			c-0.0001-0.0001-0.0002-0.0003-0.0002-0.0004c-0.0009-0.0017-0.0019-0.0034-0.0028-0.0051
			c-0.0002-0.0003-0.0004-0.0007-0.0006-0.0011C202.8165,35.0172,202.816,35.0162,202.8154,35.0152L202.8154,35.0152z
			 M199.041,32.7942v1c0.1526,0,0.3058,0.0104,0.4556,0.0309l0.1357-0.9908c-0.0205-0.0028-0.0406-0.0054-0.0612-0.0079
			c-0.0004,0-0.0007-0.0001-0.0011-0.0001c-0.002-0.0002-0.004-0.0005-0.006-0.0007c-0.0004,0-0.0008-0.0001-0.0013-0.0001
			c-0.0015-0.0002-0.0031-0.0004-0.0046-0.0006c-0.0008-0.0001-0.0015-0.0002-0.0023-0.0003
			c-0.0013-0.0001-0.0026-0.0003-0.0038-0.0004c-0.0015-0.0002-0.0029-0.0004-0.0044-0.0005
			c-0.0008-0.0001-0.0014-0.0002-0.0023-0.0003c-0.0012-0.0001-0.0023-0.0003-0.0035-0.0004
			c-0.0006-0.0001-0.0012-0.0001-0.0017-0.0002c-0.0024-0.0003-0.0048-0.0005-0.0072-0.0008c-0.0003,0-0.0006-0.0001-0.0009-0.0001
			c-0.1079-0.0122-0.217-0.0204-0.3271-0.0246h-0.0002c-0.0044-0.0002-0.0088-0.0003-0.0132-0.0005
			c-0.0004,0-0.0011,0-0.0015-0.0001c-0.0042-0.0001-0.0083-0.0003-0.0124-0.0004c-0.0006,0-0.001,0-0.0016,0
			c-0.004-0.0001-0.0081-0.0002-0.0121-0.0004c-0.0006,0-0.0016,0-0.0021-0.0001c-0.0015,0-0.003-0.0001-0.0045-0.0001
			c-0.0013,0-0.0025-0.0001-0.0038-0.0001c-0.0011,0-0.0022,0-0.0032-0.0001c-0.0009,0-0.0018,0-0.0027-0.0001
			c-0.001,0-0.002,0-0.0031-0.0001c-0.0017,0-0.0033-0.0001-0.005-0.0001c-0.0009,0-0.0018,0-0.0027-0.0001
			c-0.0012,0-0.0023,0-0.0034-0.0001c-0.0009,0-0.0018,0-0.0027,0c-0.0017,0-0.0035-0.0001-0.0052-0.0001
			c-0.0008,0-0.0016,0-0.0024,0c-0.0013,0-0.0025,0-0.0038-0.0001c-0.0008,0-0.0015,0-0.0023,0
			c-0.0019,0-0.0037-0.0001-0.0056-0.0001c-0.0007,0-0.0014,0-0.0021,0c-0.0013,0-0.0029,0-0.0042-0.0001
			c-0.0007,0-0.0014,0-0.0021,0c-0.0019,0-0.0038-0.0001-0.0057-0.0001c-0.0005,0-0.001,0-0.0015,0c-0.0015,0-0.0032,0-0.0047,0
			c-0.0006,0-0.0013,0-0.002,0c-0.0019,0-0.004,0-0.0059-0.0001c-0.0003,0-0.0007,0-0.001,0c-0.0017,0-0.0036,0-0.0053,0
			c-0.0006,0-0.0011,0-0.0017,0c-0.002,0-0.004,0-0.006,0c-0.0002,0-0.0005,0-0.0007,0c-0.0019,0-0.0037,0-0.0056,0
			c-0.0005,0-0.001,0-0.0015,0c-0.002,0-0.0042,0-0.0062,0c-0.0002,0-0.0004,0-0.0006,0c-0.0019,0-0.0038,0-0.0056,0
			c-0.0006,0-0.0011,0-0.0017,0C199.0451,32.7942,199.043,32.7942,199.041,32.7942L199.041,32.7942z" style="fill: url(#SVGID_9_);"></path>
	</g>

		<linearGradient id="SVGID_10_" gradientUnits="userSpaceOnUse" x1="141.3572" y1="48.2058" x2="141.3572" y2="59.2058" gradientTransform="matrix(1 0 0 -1 0 166)">
		<stop offset="0" style="stop-color:#E9F0FA"></stop>
		<stop offset="0.3998" style="stop-color:#E4EBF4"></stop>
		<stop offset="0.9107" style="stop-color:#D6DEE5"></stop>
		<stop offset="1" style="stop-color:#D3DBE1"></stop>
	</linearGradient>
	<rect x="129.3572" y="106.7942" class="st11" width="24" height="11" style="fill: url(#SVGID_10_);"></rect>

		<linearGradient id="SVGID_11_" gradientUnits="userSpaceOnUse" x1="127.3572" y1="47.2058" x2="155.3572" y2="47.2058" gradientTransform="matrix(1 0 0 -1 0 166)">
		<stop offset="0" style="stop-color:#E9F4FA"></stop>
		<stop offset="0.4582" style="stop-color:#E5EFF4"></stop>
		<stop offset="1" style="stop-color:#DCE2E6"></stop>
	</linearGradient>
	<rect x="127.3572" y="117.7942" class="st12" width="28" height="2" style="fill: url(#SVGID_11_);"></rect>
	<g>

			<radialGradient id="SVGID_12_" cx="146.0252" cy="94.4402" r="21.534" gradientTransform="matrix(1 0 0 -1.014 0 168.248)" gradientUnits="userSpaceOnUse">
			<stop offset="0" style="stop-color:#3A68A2;stop-opacity:0.7"></stop>
			<stop offset="0.0417" style="stop-color:#3A68A0;stop-opacity:0.6791"></stop>
			<stop offset="0.5793" style="stop-color:#3C6891;stop-opacity:0.4104"></stop>
			<stop offset="1" style="stop-color:#3C688B;stop-opacity:0.2"></stop>
		</radialGradient>
		<path class="st13" d="M158.2285,89.6619h-30.4433c-1.8682,0-3.3826-1.5144-3.3826-3.3826V45.6881h28.7317l8.4768,8.8793v31.7119
			C161.6111,88.1474,160.0967,89.6619,158.2285,89.6619z" style="opacity: 0.7;fill: url(#SVGID_12_);enable-background: new    ;"></path>
		<g>
			<g>

					<linearGradient id="SVGID_13_" gradientUnits="userSpaceOnUse" x1="119.8256" y1="82.0503" x2="153.5063" y2="115.7312" gradientTransform="matrix(1 0 0 -1 0 166)">
					<stop offset="0.0016" style="stop-color:#FF7240"></stop>
					<stop offset="1" style="stop-color:#FE4C49"></stop>
				</linearGradient>
				<path class="st14" d="M147.164,43.9265h-23.6781c-1.8682,0-3.3826,1.5144-3.3826,3.3826v35.5172
					c0,1.8682,1.5144,3.3826,3.3826,3.3826h30.4433c1.8681,0,3.3826-1.5144,3.3826-3.3826v-28.752L147.164,43.9265z" style="fill: url(#SVGID_13_);"></path>
				<path class="st15" d="M148.8553,54.0743h8.4565L147.164,43.9265v8.4565C147.164,53.3171,147.9213,54.0743,148.8553,54.0743z" style="fill: #D32630;"></path>
			</g>
		</g>
	</g>

		<linearGradient id="SVGID_14_" gradientUnits="userSpaceOnUse" x1="78.3572" y1="142.2058" x2="180.3572" y2="142.2058" gradientTransform="matrix(1 0 0 -1 0 166)">
		<stop offset="0" style="stop-color:#FFFFFF"></stop>
		<stop offset="1" style="stop-color:#FFFFFF"></stop>
	</linearGradient>
	<path class="st16" d="M178.3572,25.7942h-98c-1.1046,0-2-0.8954-2-2l0,0c0-1.1046,0.8954-2,2-2h98c1.1046,0,2,0.8954,2,2l0,0
		C180.3572,24.8988,179.4618,25.7942,178.3572,25.7942z" style="fill: url(#SVGID_14_);"></path>

		<linearGradient id="SVGID_15_" gradientUnits="userSpaceOnUse" x1="187.3572" y1="140.2058" x2="187.3572" y2="144.2058" gradientTransform="matrix(1 0 0 -1 0 166)">
		<stop offset="0" style="stop-color:#DAE3EE"></stop>
		<stop offset="1" style="stop-color:#D8E1EA"></stop>
	</linearGradient>
	<path class="st17" d="M187.3572,25.7942L187.3572,25.7942c-1.1046,0-2-0.8954-2-2l0,0c0-1.1046,0.8954-2,2-2l0,0
		c1.1046,0,2,0.8954,2,2l0,0C189.3572,24.8988,188.4618,25.7942,187.3572,25.7942z" style="fill: url(#SVGID_15_);"></path>

		<linearGradient id="SVGID_16_" gradientUnits="userSpaceOnUse" x1="194.3572" y1="140.2058" x2="194.3572" y2="144.2058" gradientTransform="matrix(1 0 0 -1 0 166)">
		<stop offset="0" style="stop-color:#DAE3EE"></stop>
		<stop offset="1" style="stop-color:#D8E1EA"></stop>
	</linearGradient>
	<path class="st18" d="M194.3572,25.7942L194.3572,25.7942c-1.1046,0-2-0.8954-2-2l0,0c0-1.1046,0.8954-2,2-2l0,0
		c1.1046,0,2,0.8954,2,2l0,0C196.3572,24.8988,195.4618,25.7942,194.3572,25.7942z" style="fill: url(#SVGID_16_);"></path>

		<linearGradient id="SVGID_17_" gradientUnits="userSpaceOnUse" x1="201.3572" y1="140.2058" x2="201.3572" y2="144.2058" gradientTransform="matrix(1 0 0 -1 0 166)">
		<stop offset="0" style="stop-color:#DAE3EE"></stop>
		<stop offset="1" style="stop-color:#D8E1EA"></stop>
	</linearGradient>
	<path class="st19" d="M201.3572,25.7942L201.3572,25.7942c-1.1046,0-2-0.8954-2-2l0,0c0-1.1046,0.8954-2,2-2l0,0
		c1.1046,0,2,0.8954,2,2l0,0C203.3572,24.8988,202.4618,25.7942,201.3572,25.7942z" style="fill: url(#SVGID_17_);"></path>
	<path class="st2" d="M222.3438,8.2766h-72.0885V6.9797c0-2.2352,1.812-4.0472,4.0472-4.0472h63.9942
		c2.2352,0,4.0472,1.812,4.0472,4.0472L222.3438,8.2766L222.3438,8.2766z" style="fill: #E8EEF4;"></path>
	<g>

			<linearGradient id="SVGID_18_" gradientUnits="userSpaceOnUse" x1="56.4473" y1="123.2729" x2="58.4473" y2="123.2729" gradientTransform="matrix(1 0 0 -1 0 166)">
			<stop offset="0" style="stop-color:#FFFFFF"></stop>
			<stop offset="1" style="stop-color:#FBFDFD"></stop>
		</linearGradient>
		<circle class="st20" cx="57.4473" cy="42.7271" r="1" style="fill: url(#SVGID_18_);"></circle>

			<linearGradient id="SVGID_19_" gradientUnits="userSpaceOnUse" x1="59.4473" y1="123.2729" x2="61.4473" y2="123.2729" gradientTransform="matrix(1 0 0 -1 0 166)">
			<stop offset="0" style="stop-color:#FFFFFF"></stop>
			<stop offset="1" style="stop-color:#FBFDFD"></stop>
		</linearGradient>
		<circle class="st21" cx="60.4473" cy="42.7271" r="1" style="fill: url(#SVGID_19_);"></circle>
	</g>
	<g>
		<g>
			<g>

					<linearGradient id="SVGID_20_" gradientUnits="userSpaceOnUse" x1="177.3974" y1="112.264" x2="177.3974" y2="122.1951" gradientTransform="matrix(1 0 0 -1 0 166)">
					<stop offset="0" style="stop-color:#D4DCE7"></stop>
					<stop offset="1" style="stop-color:#B6C4D5"></stop>
				</linearGradient>
				<path class="st22" d="M183.5907,53.736h-2v-3.7393c0-1.1406-0.4502-2.207-1.2666-3.0029
					c-0.8164-0.7949-1.8916-1.2178-3.0371-1.1875c-2.252,0.0576-4.083,2.0459-4.083,4.4316v3.498h-2v-3.498
					c0-3.4609,2.7051-6.3457,6.0312-6.4316c1.6729-0.0352,3.2773,0.5791,4.4844,1.7549c1.2061,1.1758,1.8711,2.751,1.8711,4.4355
					L183.5907,53.736L183.5907,53.736z" style="fill: url(#SVGID_20_);"></path>
			</g>

				<linearGradient id="SVGID_21_" gradientUnits="userSpaceOnUse" x1="177.3973" y1="96.9814" x2="177.3973" y2="112.2641" gradientTransform="matrix(1 0 0 -1 0 166)">
				<stop offset="0" style="stop-color:#FFCB5D"></stop>
				<stop offset="1" style="stop-color:#FFA961"></stop>
			</linearGradient>
			<path class="st23" d="M187.3572,69.0186h-19.9198V55.8041c0-1.1422,0.9259-2.0682,2.0682-2.0682h15.7834
				c1.1422,0,2.0682,0.9259,2.0682,2.0682L187.3572,69.0186L187.3572,69.0186z" style="fill: url(#SVGID_21_);"></path>
		</g>
		<g>
			<circle class="st9" cx="177.3973" cy="60.2247" r="1.6443" style="fill: #FFFFFF;"></circle>
			<rect x="176.77" y="60.2971" class="st9" width="1.2545" height="4.8313" style="fill: #FFFFFF;"></rect>
		</g>
	</g>
	<g>

			<linearGradient id="SVGID_22_" gradientUnits="userSpaceOnUse" x1="60.5971" y1="145.7518" x2="139.7079" y2="145.7518" gradientTransform="matrix(1 0 0 -1 0 166)">
			<stop offset="0" style="stop-color:#F7FFFF"></stop>
			<stop offset="1" style="stop-color:#98D9FF"></stop>
		</linearGradient>
		<path class="st24" d="M61.5971,33.7946c-0.5522,0-1-0.4473-1-1V17.7019c0-6.0654,4.9346-11,11-11h67.1108c0.5527,0,1,0.4473,1,1
			s-0.4473,1-1,1H71.5971c-4.9624,0-9,4.0371-9,9v15.0928C62.5971,33.3474,62.1493,33.7946,61.5971,33.7946z" style="fill: url(#SVGID_22_);"></path>
	</g>
	<g>

			<linearGradient id="SVGID_23_" gradientUnits="userSpaceOnUse" x1="183.1713" y1="62.2764" x2="230.3079" y2="79.4327" gradientTransform="matrix(1 0 0 -1 0 166)">
			<stop offset="0" style="stop-color:#99CEFF"></stop>
			<stop offset="0.2617" style="stop-color:#9CD0FF"></stop>
			<stop offset="0.4565" style="stop-color:#A5D5FF"></stop>
			<stop offset="0.6296" style="stop-color:#B6DDFF"></stop>
			<stop offset="0.79" style="stop-color:#CCE9FF"></stop>
			<stop offset="0.9404" style="stop-color:#E9F8FF"></stop>
			<stop offset="1" style="stop-color:#F7FFFF"></stop>
		</linearGradient>
		<path class="st25" d="M211.3436,118.7946h-21.9863c-0.5527,0-1-0.4473-1-1s0.4473-1,1-1h21.9863c4.9629,0,9-4.0371,9-9V64.863
			c0-0.5527,0.4473-1,1-1s1,0.4473,1,1v42.9316C222.3436,113.8601,217.4091,118.7946,211.3436,118.7946z" style="fill: url(#SVGID_23_);"></path>
	</g>
	<g>

			<linearGradient id="SVGID_24_" gradientUnits="userSpaceOnUse" x1="60.597" y1="61.0047" x2="102.453" y2="61.0047" gradientTransform="matrix(1 0 0 -1 0 166)">
			<stop offset="0" style="stop-color:#94D4F8"></stop>
			<stop offset="1" style="stop-color:#F7FFFF"></stop>
		</linearGradient>
		<path class="st26" d="M101.453,118.7946H71.597c-6.0654,0-11-4.9346-11-11V92.196c0-0.5527,0.4478-1,1-1s1,0.4473,1,1v15.5986
			c0,4.9629,4.0376,9,9,9h29.856c0.5522,0,1,0.4473,1,1S102.0053,118.7946,101.453,118.7946z" style="fill: url(#SVGID_24_);"></path>
	</g>
	<g>
		<path class="st9" d="M130.2089,61.5944h5.4814v1.2354h-4.0781v2.0752h3.9941v1.2354h-3.9941v3.4541h-1.4033V61.5944z" style="fill: #FFFFFF;"></path>
		<path class="st9" d="M136.7606,62.0622c0-0.4316,0.3604-0.7793,0.7803-0.7793c0.4316,0,0.7793,0.3477,0.7793,0.7793
			s-0.3477,0.7793-0.7793,0.7793C137.121,62.8415,136.7606,62.4939,136.7606,62.0622z M136.9169,63.8015h1.2598v5.793h-1.2598
			V63.8015z" style="fill: #FFFFFF;"></path>
		<path class="st9" d="M139.8085,61.5944h1.2598v8h-1.2598V61.5944z" style="fill: #FFFFFF;"></path>
		<path class="st9" d="M145.2802,63.6579c1.7383,0,2.8545,1.3311,2.8545,3.1543v0.2998h-4.4736
			c0.0957,0.875,0.7549,1.5947,1.8467,1.5947c0.5635,0,1.2354-0.2275,1.6426-0.6357l0.5762,0.8271
			c-0.5762,0.5518-1.4268,0.8398-2.3506,0.8398c-1.7393,0-3.0342-1.2109-3.0342-3.0459
			C142.3417,65.0124,143.5643,63.6579,145.2802,63.6579z M143.6483,66.2243h3.2627c-0.0244-0.6836-0.4922-1.5352-1.6309-1.5352
			C144.2001,64.6892,143.7089,65.5163,143.6483,66.2243z" style="fill: #FFFFFF;"></path>
	</g>

		<linearGradient id="SVGID_25_" gradientUnits="userSpaceOnUse" x1="2083.6128" y1="802.3104" x2="2094.373" y2="802.3104" gradientTransform="matrix(-1 0 0 1 2155.97 -740.4591)">
		<stop offset="0" style="stop-color:#919FB9;stop-opacity:0.1"></stop>
		<stop offset="0.1914" style="stop-color:#95A3BC;stop-opacity:0.0809"></stop>
		<stop offset="0.392" style="stop-color:#A2AEC4;stop-opacity:0.0608"></stop>
		<stop offset="0.5968" style="stop-color:#B7C0D1;stop-opacity:0.0403"></stop>
		<stop offset="0.8031" style="stop-color:#D4DAE4;stop-opacity:0.0197"></stop>
		<stop offset="1" style="stop-color:#F7F9FB;stop-opacity:0"></stop>
	</linearGradient>
	<polygon class="st27" points="61.5969,40.4733 72.3572,40.4733 72.3572,83.2293 61.5969,83.2293" style="opacity: 0.7;fill: url(#SVGID_25_);enable-background: new    ;"></polygon>
	<circle class="st28" cx="138.7076" cy="7.7019" r="2.6496" style="fill: #94D4F8;"></circle>
	<circle class="st28" cx="61.5969" cy="92.1957" r="2.6496" style="fill: #94D4F8;"></circle>
	<circle class="st28" cx="189.3572" cy="117.7942" r="2.6496" style="fill: #94D4F8;"></circle>
</g>
</svg>