<!-- Generator: Adobe Illustrator 24.3.0, SVG Export PlugIn . SVG Version: 6.00 Build 0)  --><svg version="1.1" id="Layer_1" xmlns="http://www.w3.org/2000/svg" xmlns:xlink="http://www.w3.org/1999/xlink" x="0px" y="0px" viewBox="0 0 280 165" style="enable-background:new 0 0 280 165;" xml:space="preserve">
<style type="text/css">
	.st0{fill:url(#SVGID_1_);}
	.st1{fill:url(#SVGID_2_);}
	.st2{fill:#E8EEF4;}
	.st3{fill:#EDF2F7;}
	.st4{fill:url(#SVGID_3_);}
	.st5{opacity:0.5;}
	.st6{fill-rule:evenodd;clip-rule:evenodd;fill:#DDE6EE;fill-opacity:0;}
	.st7{opacity:0.1111;fill-rule:evenodd;clip-rule:evenodd;fill:#DDE6EE;enable-background:new    ;}
	.st8{opacity:0.2222;fill-rule:evenodd;clip-rule:evenodd;fill:#DDE6EE;enable-background:new    ;}
	.st9{opacity:0.3333;fill-rule:evenodd;clip-rule:evenodd;fill:#DDE6EE;enable-background:new    ;}
	.st10{opacity:0.4444;fill-rule:evenodd;clip-rule:evenodd;fill:#DDE6EE;enable-background:new    ;}
	.st11{opacity:0.5556;fill-rule:evenodd;clip-rule:evenodd;fill:#DDE6EE;enable-background:new    ;}
	.st12{opacity:0.6667;fill-rule:evenodd;clip-rule:evenodd;fill:#DDE6EE;enable-background:new    ;}
	.st13{opacity:0.7778;fill-rule:evenodd;clip-rule:evenodd;fill:#DDE6EE;enable-background:new    ;}
	.st14{opacity:0.8889;fill-rule:evenodd;clip-rule:evenodd;fill:#DDE6EE;enable-background:new    ;}
	.st15{fill-rule:evenodd;clip-rule:evenodd;fill:#DDE6EE;}
	.st16{opacity:0.3086;fill-rule:evenodd;clip-rule:evenodd;fill:#DDE6EE;enable-background:new    ;}
	.st17{opacity:0.3951;fill-rule:evenodd;clip-rule:evenodd;fill:#DDE6EE;enable-background:new    ;}
	.st18{opacity:0.4815;fill-rule:evenodd;clip-rule:evenodd;fill:#DDE6EE;enable-background:new    ;}
	.st19{opacity:0.5679;fill-rule:evenodd;clip-rule:evenodd;fill:#DDE6EE;enable-background:new    ;}
	.st20{opacity:0.6543;fill-rule:evenodd;clip-rule:evenodd;fill:#DDE6EE;enable-background:new    ;}
	.st21{opacity:0.7407;fill-rule:evenodd;clip-rule:evenodd;fill:#DDE6EE;enable-background:new    ;}
	.st22{opacity:0.8272;fill-rule:evenodd;clip-rule:evenodd;fill:#DDE6EE;enable-background:new    ;}
	.st23{opacity:0.9136;fill-rule:evenodd;clip-rule:evenodd;fill:#DDE6EE;enable-background:new    ;}
	.st24{fill-rule:evenodd;clip-rule:evenodd;fill:#FFFFFF;}
	.st25{fill:url(#SVGID_4_);}
	.st26{fill:url(#SVGID_5_);}
	.st27{fill:#DDE6EE;fill-opacity:0;}
	.st28{opacity:0.1111;fill:#DDE6EE;enable-background:new    ;}
	.st29{opacity:0.2222;fill:#DDE6EE;enable-background:new    ;}
	.st30{opacity:0.3333;fill:#DDE6EE;enable-background:new    ;}
	.st31{opacity:0.4444;fill:#DDE6EE;enable-background:new    ;}
	.st32{opacity:0.5556;fill:#DDE6EE;enable-background:new    ;}
	.st33{opacity:0.6667;fill:#DDE6EE;enable-background:new    ;}
	.st34{opacity:0.7778;fill:#DDE6EE;enable-background:new    ;}
	.st35{opacity:0.8889;fill:#DDE6EE;enable-background:new    ;}
	.st36{fill:#DDE6EE;}
	.st37{fill:#FFFFFF;}
	.st38{fill:url(#SVGID_6_);}
	.st39{opacity:0.7;fill:url(#SVGID_7_);enable-background:new    ;}
	.st40{fill:url(#SVGID_8_);fill-opacity:0;}
	.st41{fill:url(#SVGID_9_);}
	.st42{fill:url(#SVGID_10_);}
	.st43{opacity:0.0556;fill:#DDE6EE;enable-background:new    ;}
	.st44{opacity:0.1667;fill:#DDE6EE;enable-background:new    ;}
	.st45{opacity:0.2778;fill:#DDE6EE;enable-background:new    ;}
	.st46{opacity:0.3889;fill:#DDE6EE;enable-background:new    ;}
	.st47{opacity:0.5;fill:#DDE6EE;enable-background:new    ;}
	.st48{fill:#FFFFFF;fill-opacity:0;}
	.st49{opacity:0.0556;fill:#FBFCFD;enable-background:new    ;}
	.st50{opacity:0.1111;fill:#F7F9FB;enable-background:new    ;}
	.st51{opacity:0.1667;fill:#F4F7F9;enable-background:new    ;}
	.st52{opacity:0.2222;fill:#F0F4F7;enable-background:new    ;}
	.st53{opacity:0.2778;fill:#ECF1F6;enable-background:new    ;}
	.st54{opacity:0.3333;fill:#E8EEF4;enable-background:new    ;}
	.st55{opacity:0.3889;fill:#E5ECF2;enable-background:new    ;}
	.st56{opacity:0.4444;fill:#E1E9F0;enable-background:new    ;}
	.st57{opacity:0.7;fill:url(#SVGID_11_);enable-background:new    ;}
	.st58{fill:url(#SVGID_12_);}
	.st59{fill:#D9E3ED;}
	.st60{fill:url(#SVGID_13_);}
	.st61{fill:url(#SVGID_14_);}
	.st62{fill:url(#SVGID_15_);}
	.st63{fill:url(#SVGID_16_);}
	.st64{fill:url(#SVGID_17_);}
	.st65{fill:url(#SVGID_18_);}
	.st66{fill:url(#SVGID_19_);}
	.st67{fill:url(#SVGID_20_);}
	.st68{opacity:0.7;fill:url(#SVGID_21_);enable-background:new    ;}
	.st69{fill:url(#SVGID_22_);}
	.st70{fill:url(#SVGID_23_);}
	.st71{fill:url(#SVGID_24_);}
	.st72{fill:url(#SVGID_25_);}
	.st73{opacity:0.7;fill:url(#SVGID_26_);enable-background:new    ;}
</style>
<g>

		<linearGradient id="SVGID_1_" gradientUnits="userSpaceOnUse" x1="140" y1="76.4985" x2="140" y2="5.9717" gradientTransform="matrix(1 0 0 -1 0 166)">
		<stop offset="0.0016" style="stop-color:#FAFBFD"></stop>
		<stop offset="1" style="stop-color:#EFF1F7"></stop>
	</linearGradient>
	<path class="st0" d="M47.1616,109.3742c-55.5298,0-12.8334,42.0263,38.5649,42.0263c94.0309,0,82.0876,11.0904,128.0311,11.0904
		c59.7086,0,59.4162-77.8615,4.0093-77.8615C113.4502,84.6294,127.6683,109.3742,47.1616,109.3742z" style="fill: url(#SVGID_1_);"></path>
	<g>
		<g>

				<linearGradient id="SVGID_2_" gradientUnits="userSpaceOnUse" x1="63.7889" y1="92.3719" x2="128.9687" y2="170.0501" gradientTransform="matrix(1 0 0 -1 0 166)">
				<stop offset="0" style="stop-color:#FBFCFD"></stop>
				<stop offset="1" style="stop-color:#F1F5FA"></stop>
			</linearGradient>
			<path class="st1" d="M56.2328,66.6947c-1.0729,0-1.9459-0.873-1.9459-1.9463V4.8293c0-1.0729,0.873-1.9459,1.9459-1.9459h80.292
				c1.0729,0,1.9459,0.873,1.9459,1.9459v59.9191c0,1.0733-0.873,1.9463-1.9459,1.9463
				C136.5248,66.6947,56.2328,66.6947,56.2328,66.6947z" style="fill: url(#SVGID_2_);"></path>
			<path class="st2" d="M136.5249,3.3341c0.8244,0,1.4951,0.6707,1.4951,1.4951v59.9193c0,0.8244-0.6707,1.4951-1.4951,1.4951
				H56.233c-0.8244,0-1.4951-0.6707-1.4951-1.4951V4.8292c0-0.8244,0.6707-1.4951,1.4951-1.4951L136.5249,3.3341 M136.5249,2.4325
				H56.233c-1.3237,0-2.3968,1.0731-2.3968,2.3968v59.9193c0,1.3237,1.0731,2.3968,2.3968,2.3968h80.2919
				c1.3237,0,2.3968-1.0731,2.3968-2.3968V4.8292C138.9216,3.5055,137.8486,2.4325,136.5249,2.4325L136.5249,2.4325z" style="fill: #E8EEF4;"></path>
		</g>
		<rect x="54.9707" y="3.4337" class="st3" width="83.0326" height="3.7924" style="fill: #EDF2F7;"></rect>
		<g>

				<linearGradient id="SVGID_3_" gradientUnits="userSpaceOnUse" x1="91.6371" y1="146.7439" x2="101.9324" y2="134.4745" gradientTransform="matrix(1 0 0 -1 0 166)">
				<stop offset="0" style="stop-color:#F0F4F7"></stop>
				<stop offset="1" style="stop-color:#D2DDE8"></stop>
			</linearGradient>
			<path class="st4" d="M101.7306,32.3481H90.9451c-0.6618,0-1.1984-0.5365-1.1984-1.1984V18.5666
				c0-0.6618,0.5365-1.1984,1.1984-1.1984h10.7855c0.6618,0,1.1984,0.5365,1.1984,1.1984v12.5831
				C102.929,31.8116,102.3924,32.3481,101.7306,32.3481z" style="fill: url(#SVGID_3_);"></path>
			<g class="st5" style="opacity: 0.5;">
				<polygon class="st6" points="92.5965,28.2711 95.1484,24.8688 95.9948,25.9985 97.766,23.8732 101.431,28.2711" style="fill-rule: evenodd;clip-rule: evenodd;fill: #DDE6EE;fill-opacity: 0;"></polygon>
				<polygon class="st7" points="92.7055,28.2166 95.1484,24.9596 95.9925,26.0863 97.766,23.9583 101.3146,28.2166" style="opacity: 0.1111;fill-rule: evenodd;clip-rule: evenodd;fill: #DDE6EE;enable-background: new    ;"></polygon>
				<polygon class="st8" points="92.8145,28.1621 95.1483,25.0505 95.9902,26.1742 97.766,24.0434 101.1983,28.1621" style="opacity: 0.2222;fill-rule: evenodd;clip-rule: evenodd;fill: #DDE6EE;enable-background: new    ;"></polygon>
				<polygon class="st9" points="92.9235,28.1076 95.1483,25.1413 95.988,26.262 97.766,24.1286 101.082,28.1076" style="opacity: 0.3333;fill-rule: evenodd;clip-rule: evenodd;fill: #DDE6EE;enable-background: new    ;"></polygon>
				<polygon class="st10" points="93.0325,28.0532 95.1483,25.2322 95.9857,26.3498 97.766,24.2137 100.9656,28.0532" style="opacity: 0.4444;fill-rule: evenodd;clip-rule: evenodd;fill: #DDE6EE;enable-background: new    ;"></polygon>
				<polygon class="st11" points="93.1415,27.9987 95.1482,25.323 95.9834,26.4377 97.766,24.2988 100.8493,27.9987" style="opacity: 0.5556;fill-rule: evenodd;clip-rule: evenodd;fill: #DDE6EE;enable-background: new    ;"></polygon>
				<polygon class="st12" points="93.2504,27.9442 95.1482,25.4139 95.9812,26.5255 97.766,24.3839 100.7329,27.9442" style="opacity: 0.6667;fill-rule: evenodd;clip-rule: evenodd;fill: #DDE6EE;enable-background: new    ;"></polygon>
				<polygon class="st13" points="93.3594,27.8897 95.1482,25.5047 95.9789,26.6134 97.766,24.469 100.6166,27.8897" style="opacity: 0.7778;fill-rule: evenodd;clip-rule: evenodd;fill: #DDE6EE;enable-background: new    ;"></polygon>
				<polygon class="st14" points="93.4684,27.8352 95.1482,25.5956 95.9766,26.7012 97.766,24.5541 100.5003,27.8352" style="opacity: 0.8889;fill-rule: evenodd;clip-rule: evenodd;fill: #DDE6EE;enable-background: new    ;"></polygon>
				<polygon class="st15" points="93.5774,27.7807 95.1481,25.6864 95.9743,26.7891 97.766,24.6392 100.3839,27.7807" style="fill-rule: evenodd;clip-rule: evenodd;fill: #DDE6EE;"></polygon>
			</g>
			<g class="st5" style="opacity: 0.5;">
				<path class="st8" d="M95.1481,24.9737c-0.9077,0-1.6463-0.7386-1.6463-1.6463s0.7386-1.6463,1.6463-1.6463
					c0.9079,0,1.6465,0.7386,1.6465,1.6463C96.7945,24.2351,96.0559,24.9737,95.1481,24.9737z" style="opacity: 0.2222;fill-rule: evenodd;clip-rule: evenodd;fill: #DDE6EE;enable-background: new    ;"></path>
				<path class="st16" d="M95.1481,21.7477c0.8712,0,1.5799,0.7086,1.5799,1.5797s-0.7086,1.5797-1.5799,1.5797
					c-0.8711,0-1.5798-0.7086-1.5798-1.5797S94.277,21.7477,95.1481,21.7477z" style="opacity: 0.3086;fill-rule: evenodd;clip-rule: evenodd;fill: #DDE6EE;enable-background: new    ;"></path>
				<path class="st17" d="M95.1481,21.8142c0.8346,0,1.5133,0.6787,1.5133,1.5132s-0.6787,1.5132-1.5133,1.5132
					c-0.8345,0-1.5132-0.6787-1.5132-1.5132S94.3136,21.8142,95.1481,21.8142z" style="opacity: 0.3951;fill-rule: evenodd;clip-rule: evenodd;fill: #DDE6EE;enable-background: new    ;"></path>
				<path class="st18" d="M95.1481,21.8808c0.798,0,1.4467,0.6487,1.4467,1.4466s-0.6487,1.4466-1.4467,1.4466
					c-0.7979,0-1.4466-0.6487-1.4466-1.4466S94.3502,21.8808,95.1481,21.8808z" style="opacity: 0.4815;fill-rule: evenodd;clip-rule: evenodd;fill: #DDE6EE;enable-background: new    ;"></path>
				<path class="st19" d="M95.1481,21.9474c0.7614,0,1.3801,0.6187,1.3801,1.38s-0.6187,1.38-1.3801,1.38
					c-0.7613,0-1.38-0.6187-1.38-1.38S94.3868,21.9474,95.1481,21.9474z" style="opacity: 0.5679;fill-rule: evenodd;clip-rule: evenodd;fill: #DDE6EE;enable-background: new    ;"></path>
				<path class="st20" d="M95.1481,22.014c0.7248,0,1.3135,0.5887,1.3135,1.3134s-0.5887,1.3135-1.3135,1.3135
					c-0.7247,0-1.3134-0.5887-1.3134-1.3135S94.4234,22.014,95.1481,22.014z" style="opacity: 0.6543;fill-rule: evenodd;clip-rule: evenodd;fill: #DDE6EE;enable-background: new    ;"></path>
				<path class="st21" d="M95.1481,22.0805c0.6882,0,1.2469,0.5588,1.2469,1.2469s-0.5588,1.2469-1.2469,1.2469
					s-1.2469-0.5588-1.2469-1.2469S94.46,22.0805,95.1481,22.0805z" style="opacity: 0.7407;fill-rule: evenodd;clip-rule: evenodd;fill: #DDE6EE;enable-background: new    ;"></path>
				<path class="st22" d="M95.1481,22.1471c0.6516,0,1.1803,0.5288,1.1803,1.1803s-0.5288,1.1803-1.1803,1.1803
					s-1.1803-0.5288-1.1803-1.1803C93.9678,22.6759,94.4966,22.1471,95.1481,22.1471z" style="opacity: 0.8272;fill-rule: evenodd;clip-rule: evenodd;fill: #DDE6EE;enable-background: new    ;"></path>
				<path class="st23" d="M95.1481,22.2137c0.6149,0,1.1137,0.4988,1.1137,1.1137s-0.4988,1.1137-1.1137,1.1137
					s-1.1137-0.4988-1.1137-1.1137S94.5332,22.2137,95.1481,22.2137z" style="opacity: 0.9136;fill-rule: evenodd;clip-rule: evenodd;fill: #DDE6EE;enable-background: new    ;"></path>
				<circle class="st15" cx="95.1481" cy="23.3274" r="1.0472" style="fill-rule: evenodd;clip-rule: evenodd;fill: #DDE6EE;"></circle>
			</g>
			<polygon class="st24" points="93.2778,27.4811 94.8485,25.3868 95.6747,26.4895 97.4664,24.3396 100.0843,27.4811" style="fill-rule: evenodd;clip-rule: evenodd;fill: #FFFFFF;"></polygon>
			<circle class="st24" cx="94.8485" cy="23.0278" r="1.0472" style="fill-rule: evenodd;clip-rule: evenodd;fill: #FFFFFF;"></circle>
		</g>
		<g>
			<g>

					<linearGradient id="SVGID_4_" gradientUnits="userSpaceOnUse" x1="65.8136" y1="141.1418" x2="78.9959" y2="141.1418" gradientTransform="matrix(1 0 0 -1 0 166)">
					<stop offset="0" style="stop-color:#F0F4F7"></stop>
					<stop offset="1" style="stop-color:#D2DDE8"></stop>
				</linearGradient>
				<path class="st25" d="M75.4007,17.3683H67.012c-0.6618,0-1.1984,0.5365-1.1984,1.1984v12.5831
					c0,0.6618,0.5365,1.1984,1.1984,1.1984h10.7855c0.6618,0,1.1984-0.5365,1.1984-1.1984V20.9634L75.4007,17.3683z" style="fill: url(#SVGID_4_);"></path>

					<linearGradient id="SVGID_5_" gradientUnits="userSpaceOnUse" x1="75.6928" y1="145.3286" x2="77.1329" y2="146.7688" gradientTransform="matrix(1 0 0 -1 0 166)">
					<stop offset="0" style="stop-color:#E2E9EF"></stop>
					<stop offset="1" style="stop-color:#E2E9F0"></stop>
				</linearGradient>
				<path class="st26" d="M75.9999,20.9634h2.996l-3.5952-3.5952v2.996C75.4007,20.6951,75.669,20.9634,75.9999,20.9634z" style="fill: url(#SVGID_5_);"></path>
			</g>
			<g>
				<g class="st5" style="opacity: 0.5;">
					<g>
						<polygon class="st27" points="68.2298,26.3129 68.2298,24.8182 72.0895,23.2142 72.0895,25.3547 71.5389,25.5669
							72.0895,25.7792 72.0895,27.9141" style="fill: #DDE6EE;fill-opacity: 0;"></polygon>
						<path class="st28" d="M68.2964,26.2684v-1.4057l3.7265-1.5487v1.995l-0.6692,0.2579l0.6692,0.258v1.9895L68.2964,26.2684z" style="opacity: 0.1111;fill: #DDE6EE;enable-background: new    ;"></path>
						<path class="st29" d="M68.363,26.2239V24.907l3.5933-1.4933v1.8496l-0.7877,0.3036l0.7877,0.3037v1.8441L68.363,26.2239z" style="opacity: 0.2222;fill: #DDE6EE;enable-background: new    ;"></path>
						<path class="st30" d="M68.4296,26.1795v-1.228l3.4602-1.438v1.7041l-0.9062,0.3493l0.9062,0.3494v1.6987L68.4296,26.1795z" style="opacity: 0.3333;fill: #DDE6EE;enable-background: new    ;"></path>
						<path class="st31" d="M68.4961,26.135v-1.1391l3.327-1.3827v1.5586l-1.0247,0.395l1.0247,0.3951v1.5533L68.4961,26.135z" style="opacity: 0.4444;fill: #DDE6EE;enable-background: new    ;"></path>
						<path class="st32" d="M68.5627,26.0906v-1.0502l3.1939-1.3273v1.4132l-1.1433,0.4406l1.1433,0.4408v1.408L68.5627,26.0906z" style="opacity: 0.5556;fill: #DDE6EE;enable-background: new    ;"></path>
						<path class="st33" d="M68.6293,26.0461v-0.9614l3.0607-1.272v1.2677l-1.2618,0.4863l1.2618,0.4865v1.2626L68.6293,26.0461z" style="opacity: 0.6667;fill: #DDE6EE;enable-background: new    ;"></path>
						<path class="st34" d="M68.6959,26.0017v-0.8725l2.9276-1.2166v1.1223l-1.3803,0.532l1.3803,0.5322v1.1172L68.6959,26.0017z" style="opacity: 0.7778;fill: #DDE6EE;enable-background: new    ;"></path>
						<path class="st35" d="M68.7625,25.9572v-0.7836l2.7944-1.1613v0.9768l-1.4988,0.5777l1.4988,0.5779v0.9718L68.7625,25.9572z" style="opacity: 0.8889;fill: #DDE6EE;enable-background: new    ;"></path>
						<path class="st36" d="M71.4903,27.0168l-2.6613-1.104V25.218l2.6613-1.1059v0.8314l-1.6173,0.6233l1.6173,0.6236V27.0168z" style="fill: #DDE6EE;"></path>
					</g>
					<g>
						<polygon class="st27" points="71.2719,27.939 72.4182,23.1923 74.1387,23.1923 72.9856,27.939" style="fill: #DDE6EE;fill-opacity: 0;"></polygon>
						<path class="st28" d="M72.4706,23.2588h1.5834l-1.1207,4.6136h-1.5769L72.4706,23.2588z" style="opacity: 0.1111;fill: #DDE6EE;enable-background: new    ;"></path>
						<path class="st29" d="M72.523,23.3254h1.4463l-1.0883,4.4804h-1.44L72.523,23.3254z" style="opacity: 0.2222;fill: #DDE6EE;enable-background: new    ;"></path>
						<path class="st30" d="M72.5754,23.392h1.3092l-1.056,4.3473h-1.303L72.5754,23.392z" style="opacity: 0.3333;fill: #DDE6EE;enable-background: new    ;"></path>
						<path class="st31" d="M72.6279,23.4586H73.8l-1.0237,4.2141h-1.1661L72.6279,23.4586z" style="opacity: 0.4444;fill: #DDE6EE;enable-background: new    ;"></path>
						<path class="st32" d="M72.6803,23.5251h1.035l-0.9913,4.081h-1.0292L72.6803,23.5251z" style="opacity: 0.5556;fill: #DDE6EE;enable-background: new    ;"></path>
						<path class="st33" d="M72.7327,23.5917h0.8979l-0.959,3.9478h-0.8923L72.7327,23.5917z" style="opacity: 0.6667;fill: #DDE6EE;enable-background: new    ;"></path>
						<path class="st34" d="M72.7851,23.6583h0.7608l-0.9266,3.8147h-0.7554L72.7851,23.6583z" style="opacity: 0.7778;fill: #DDE6EE;enable-background: new    ;"></path>
						<path class="st35" d="M72.8375,23.7249h0.6237l-0.8943,3.6815h-0.6185L72.8375,23.7249z" style="opacity: 0.8889;fill: #DDE6EE;enable-background: new    ;"></path>
						<path class="st36" d="M72.89,23.7914h0.4865l-0.8619,3.5483H72.033L72.89,23.7914z" style="fill: #DDE6EE;"></path>
					</g>
					<g>
						<polygon class="st27" points="73.3037,25.7792 73.8543,25.5669 73.3037,25.3547 73.3037,23.2142 77.1633,24.8182
							77.1633,26.3129 73.3037,27.9141" style="fill: #DDE6EE;fill-opacity: 0;"></polygon>
						<path class="st28" d="M73.3702,25.8249l0.6692-0.258l-0.6692-0.2579v-1.995l3.7265,1.5487v1.4057l-3.7265,1.546V25.8249z" style="opacity: 0.1111;fill: #DDE6EE;enable-background: new    ;"></path>
						<path class="st29" d="M73.4368,25.8706l0.7877-0.3037l-0.7877-0.3036v-1.8496l3.5933,1.4933v1.3169l-3.5933,1.4908V25.8706z" style="opacity: 0.2222;fill: #DDE6EE;enable-background: new    ;"></path>
						<path class="st30" d="M73.5034,25.9163l0.9062-0.3494l-0.9062-0.3493v-1.7041l3.4602,1.438v1.228l-3.4602,1.4355V25.9163z" style="opacity: 0.3333;fill: #DDE6EE;enable-background: new    ;"></path>
						<path class="st31" d="M73.57,25.962l1.0247-0.3951l-1.0247-0.395v-1.5586l3.327,1.3827v1.1391l-3.327,1.3803V25.962z" style="opacity: 0.4444;fill: #DDE6EE;enable-background: new    ;"></path>
						<path class="st32" d="M73.6366,26.0077l1.1433-0.4408l-1.1433-0.4406V23.713l3.1939,1.3273v1.0502l-3.1939,1.325V26.0077z" style="opacity: 0.5556;fill: #DDE6EE;enable-background: new    ;"></path>
						<path class="st33" d="M73.7031,26.0533l1.2618-0.4865l-1.2618-0.4863v-1.2677l3.0607,1.272v0.9614l-3.0607,1.2698V26.0533z" style="opacity: 0.6667;fill: #DDE6EE;enable-background: new    ;"></path>
						<path class="st34" d="M73.7697,26.099l1.3803-0.5322l-1.3803-0.532v-1.1223l2.9276,1.2166v0.8725l-2.9276,1.2145V26.099z" style="opacity: 0.7778;fill: #DDE6EE;enable-background: new    ;"></path>
						<path class="st35" d="M73.8363,26.1447l1.4988-0.5779l-1.4988-0.5777v-0.9768l2.7944,1.1613v0.7836l-2.7944,1.1593V26.1447z" style="opacity: 0.8889;fill: #DDE6EE;enable-background: new    ;"></path>
						<path class="st36" d="M73.9029,26.1904l1.6174-0.6236l-1.6174-0.6233v-0.8314l2.6613,1.1059v0.6947l-2.6613,1.104V26.1904z" style="fill: #DDE6EE;"></path>
					</g>
				</g>
				<g>
					<path class="st37" d="M71.1907,26.7172l-2.6613-1.104v-0.6947l2.6613-1.1059v0.8314l-1.6174,0.6233l1.6174,0.6236V26.7172z" style="fill: #FFFFFF;"></path>
					<path class="st37" d="M72.5904,23.4919h0.4865l-0.8619,3.5483h-0.4816L72.5904,23.4919z" style="fill: #FFFFFF;"></path>
					<path class="st37" d="M73.6033,25.8908l1.6174-0.6236l-1.6174-0.6233v-0.8314l2.6613,1.1059v0.6947l-2.6613,1.104V25.8908z" style="fill: #FFFFFF;"></path>
				</g>
			</g>
		</g>
		<g>
			<g>
				<g>
					<path class="st37" d="M122.5409,17.3683h-7.8923c-0.6618,0-1.1984,0.5365-1.1984,1.1984v12.5831
						c0,0.6618,0.5365,1.1984,1.1984,1.1984h10.7855c0.6618,0,1.1984-0.5365,1.1984-1.1984v-9.6899
						c0-0.3178-0.1263-0.6226-0.351-0.8474l-2.8932-2.8932C123.1636,17.4945,122.8587,17.3683,122.5409,17.3683z" style="fill: #FFFFFF;"></path>

						<linearGradient id="SVGID_6_" gradientUnits="userSpaceOnUse" x1="113.4502" y1="141.1418" x2="126.6325" y2="141.1418" gradientTransform="matrix(1 0 0 -1 0 166)">
						<stop offset="0" style="stop-color:#F0F4F7"></stop>
						<stop offset="1" style="stop-color:#E7EDF3"></stop>
					</linearGradient>
					<path class="st38" d="M122.5409,18.2699c0.0793,0,0.1538,0.0309,0.2098,0.0869l2.8932,2.8931
						c0.0561,0.0561,0.0869,0.1306,0.0869,0.2099v9.6899c0,0.1636-0.1331,0.2968-0.2968,0.2968h-10.7855
						c-0.1636,0-0.2968-0.1331-0.2968-0.2968V18.5666c0-0.1636,0.1331-0.2968,0.2968-0.2968L122.5409,18.2699 M122.5409,17.3683
						h-7.8923c-0.6618,0-1.1984,0.5365-1.1984,1.1984v12.5831c0,0.6619,0.5365,1.1984,1.1984,1.1984h10.7855
						c0.6618,0,1.1984-0.5365,1.1984-1.1984v-9.6899c0-0.3178-0.1263-0.6226-0.351-0.8474l-2.8932-2.8932
						C123.1636,17.4945,122.8587,17.3683,122.5409,17.3683L122.5409,17.3683z" style="fill: url(#SVGID_6_);"></path>
				</g>

					<linearGradient id="SVGID_7_" gradientUnits="userSpaceOnUse" x1="1078.9539" y1="1012.0621" x2="1137.9414" y2="1022.4632" gradientTransform="matrix(0 -1 -1 0 1124.4294 1150.6497)">
					<stop offset="0" style="stop-color:#919FB9;stop-opacity:0.3"></stop>
					<stop offset="0.1914" style="stop-color:#95A3BC;stop-opacity:0.2426"></stop>
					<stop offset="0.392" style="stop-color:#A2AEC4;stop-opacity:0.1824"></stop>
					<stop offset="0.5968" style="stop-color:#B7C0D1;stop-opacity:0.121"></stop>
					<stop offset="0.8031" style="stop-color:#D4DAE4;stop-opacity:0.0591"></stop>
					<stop offset="1" style="stop-color:#F7F9FB;stop-opacity:0"></stop>
				</linearGradient>
				<polygon class="st39" points="138.7959,17.3683 138.7959,67.0357 75.5376,67.0357 75.5376,17.3683" style="opacity: 0.7;fill: url(#SVGID_7_);enable-background: new    ;"></polygon>

					<linearGradient id="SVGID_8_" gradientUnits="userSpaceOnUse" x1="123.3294" y1="145.3286" x2="124.7695" y2="146.7688" gradientTransform="matrix(1 0 0 -1 0 166)">
					<stop offset="0" style="stop-color:#E2E9EF"></stop>
					<stop offset="1" style="stop-color:#E2E9F0"></stop>
				</linearGradient>
				<path class="st40" d="M123.6365,20.9634h2.996l-3.5952-3.5952v2.996C123.0373,20.6951,123.3056,20.9634,123.6365,20.9634z" style="fill: url(#SVGID_8_);fill-opacity: 0;"></path>
			</g>
		</g>
		<g>
			<g>

					<linearGradient id="SVGID_9_" gradientUnits="userSpaceOnUse" x1="68.5015" y1="123.1107" x2="73.6399" y2="108.9929" gradientTransform="matrix(1 0 0 -1 1.2973 166.2115)">
					<stop offset="0" style="stop-color:#F0F4F7"></stop>
					<stop offset="1" style="stop-color:#D2DDE8"></stop>
				</linearGradient>
				<path class="st41" d="M75.5376,41.9529h-8.3281c-0.6618,0-1.1984,0.5365-1.1984,1.1984v12.4884
					c0,0.6619,0.5365,1.1984,1.1984,1.1984h10.7021c0.6618,0,1.1984-0.5365,1.1984-1.1984V45.5254L75.5376,41.9529z" style="fill: url(#SVGID_9_);"></path>

					<linearGradient id="SVGID_10_" gradientUnits="userSpaceOnUse" x1="74.6437" y1="122.4858" x2="76.0746" y2="123.9168" gradientTransform="matrix(1 0.0074 0.0074 -1 0.254 167.2413)">
					<stop offset="0" style="stop-color:#E2E9EF"></stop>
					<stop offset="1" style="stop-color:#E2E9F0"></stop>
				</linearGradient>
				<path class="st42" d="M76.1064,45.6009l2.977,0.022l-3.5459-3.5988l-0.022,2.9769
					C75.513,45.3299,75.7776,45.5985,76.1064,45.6009z" style="fill: url(#SVGID_10_);"></path>
			</g>
			<g>
				<g class="st5" style="opacity: 0.5;">
					<g>
						<path class="st27" d="M72.7726,54.4524c-1.9699-0.0146-3.5605-1.629-3.5459-3.5988s1.6289-3.5605,3.5988-3.5459l0.5954,0.0044
							l-0.022,2.9769l2.977,0.022l-0.0044,0.5954C76.3568,52.8762,74.7425,54.4669,72.7726,54.4524z" style="fill: #DDE6EE;fill-opacity: 0;"></path>
						<path class="st43" d="M72.825,47.3738l0.5289,0.0556l-0.0216,2.9253l2.9253,0.0216l0.0478,0.5296
							c-0.0143,1.9336-1.5984,3.4946-3.5321,3.4802c-1.9337-0.0143-3.4946-1.5985-3.4803-3.5321
							C69.3071,48.9205,70.8913,47.3595,72.825,47.3738z" style="opacity: 0.0556;fill: #DDE6EE;enable-background: new    ;"></path>
						<path class="st28" d="M72.8245,47.44l0.4623,0.1068l-0.0213,2.8736l2.8736,0.0213l0.0999,0.4638
							c-0.014,1.8974-1.568,3.4286-3.4655,3.4146s-3.4286-1.5681-3.4146-3.4655C69.373,48.9572,70.927,47.426,72.8245,47.44z" style="opacity: 0.1111;fill: #DDE6EE;enable-background: new    ;"></path>
						<path class="st44" d="M72.824,47.5061l0.3958,0.158l-0.0209,2.8219l2.8219,0.0209l0.1521,0.3981
							c-0.0138,1.8612-1.5375,3.3627-3.3988,3.3489c-1.8613-0.0138-3.3627-1.5376-3.3489-3.3988
							C69.4389,48.9939,70.9627,47.4924,72.824,47.5061z" style="opacity: 0.1667;fill: #DDE6EE;enable-background: new    ;"></path>
						<path class="st29" d="M72.8235,47.5723l0.3292,0.2092l-0.0205,2.7702l2.7702,0.0205l0.2043,0.3323
							c-0.0135,1.825-1.5071,3.2968-3.3322,3.2833s-3.2968-1.5072-3.2833-3.3322C69.5048,49.0305,70.9984,47.5588,72.8235,47.5723z" style="opacity: 0.2222;fill: #DDE6EE;enable-background: new    ;"></path>
						<path class="st45" d="M72.823,47.6385l0.2627,0.2604l-0.0201,2.7185l2.7185,0.0201l0.2565,0.2665
							c-0.0132,1.7888-1.4766,3.2308-3.2655,3.2176s-3.2308-1.4767-3.2176-3.2655C69.5707,49.0672,71.0341,47.6252,72.823,47.6385z" style="opacity: 0.2778;fill: #DDE6EE;enable-background: new    ;"></path>
						<path class="st30" d="M72.8225,47.7046l0.1962,0.3116l-0.0197,2.6669l2.6669,0.0197l0.3086,0.2008
							c-0.013,1.7527-1.4462,3.1649-3.1989,3.1519s-3.1649-1.4462-3.1519-3.1989C69.6366,49.1039,71.0698,47.6916,72.8225,47.7046z" style="opacity: 0.3333;fill: #DDE6EE;enable-background: new    ;"></path>
						<path class="st46" d="M72.822,47.7708l0.1296,0.3628l-0.0193,2.6152l2.6152,0.0193l0.3608,0.135
							c-0.0127,1.7165-1.4157,3.099-3.1323,3.0863c-1.7165-0.0127-3.099-1.4158-3.0863-3.1323
							C69.7025,49.1405,71.1055,47.7581,72.822,47.7708z" style="opacity: 0.3889;fill: #DDE6EE;enable-background: new    ;"></path>
						<path class="st31" d="M72.8215,47.8369l0.0631,0.414l-0.019,2.5635l2.5635,0.019l0.413,0.0692
							c-0.0124,1.6803-1.3853,3.033-3.0656,3.0206s-3.033-1.3853-3.0206-3.0656C69.7683,49.1772,71.1412,47.8245,72.8215,47.8369z" style="opacity: 0.4444;fill: #DDE6EE;enable-background: new    ;"></path>
						<path class="st47" d="M72.799,50.88l2.9769,0.022c-0.0122,1.6441-1.3549,2.9671-2.999,2.9549
							c-1.6441-0.0122-2.9671-1.3549-2.9549-2.999s1.3549-2.9671,2.999-2.9549L72.799,50.88z" style="opacity: 0.5;fill: #DDE6EE;enable-background: new    ;"></path>
					</g>
					<g>
						<path class="st48" d="M72.799,50.88l0.0154-2.0839l0.0154-2.0839l0.5954,0.0044c0.4925,0.0036,0.9613,0.1073,1.3872,0.2915
							c0.4259,0.1842,0.809,0.4489,1.13,0.7747s0.58,0.7127,0.7579,1.1413s0.2745,0.8988,0.2709,1.3913l-0.0044,0.5954
							l-2.0839-0.0154L72.799,50.88z" style="fill: #FFFFFF;fill-opacity: 0;"></path>
						<path class="st49" d="M72.8955,46.7789c0.0135,0.0001,0.5559,0.0049,0.5689,0.0066c0.4689,0.0072,0.9155,0.1076,1.3219,0.2834
							c0.418,0.1807,0.794,0.4405,1.109,0.7603c0.3151,0.3198,0.5693,0.6995,0.7438,1.1202
							c0.1697,0.409,0.2635,0.8569,0.2638,1.3259c0.0015,0.013-0.0017,0.5555-0.0019,0.569l-2.0177-0.0149l-2.0177-0.0149
							l0.0149-2.0177L72.8955,46.7789z" style="opacity: 0.0556;fill: #FBFCFD;enable-background: new    ;"></path>
						<path class="st50" d="M72.9612,46.8456c0.0269,0.0002,0.5165,0.0054,0.5425,0.0087c0.4454,0.0108,0.8697,0.108,1.2566,0.2753
							c0.4102,0.1773,0.779,0.4322,1.0881,0.7459c0.3091,0.3137,0.5585,0.6863,0.7297,1.099
							c0.1615,0.3894,0.2525,0.815,0.2566,1.2605c0.0029,0.0261,0.0009,0.5157,0.0007,0.5426l-1.9516-0.0144l-1.9516-0.0144
							l0.0144-1.9516L72.9612,46.8456z" style="opacity: 0.1111;fill: #F7F9FB;enable-background: new    ;"></path>
						<path class="st51" d="M73.0268,46.9122c0.0403,0.0003,0.477,0.0059,0.5161,0.0109c0.4219,0.0143,0.8239,0.1083,1.1913,0.2672
							c0.4023,0.1739,0.764,0.4238,1.0672,0.7315c0.3031,0.3077,0.5477,0.6731,0.7156,1.0779
							c0.1534,0.3697,0.2414,0.7731,0.2495,1.1951c0.0044,0.0391,0.0036,0.4758,0.0033,0.5162l-1.8854-0.0139l-1.8854-0.0139
							l0.0139-1.8854L73.0268,46.9122z" style="opacity: 0.1667;fill: #F4F7F9;enable-background: new    ;"></path>
						<path class="st52" d="M73.0925,46.9789c0.0538,0.0004,0.4376,0.0064,0.4896,0.0131c0.3984,0.0179,0.7781,0.1087,1.126,0.2591
							c0.3944,0.1704,0.749,0.4155,1.0462,0.7171c0.2972,0.3016,0.5369,0.6598,0.7015,1.0567
							c0.1452,0.3501,0.2304,0.7311,0.2424,1.1297c0.0059,0.0521,0.0062,0.436,0.0058,0.4898l-1.8192-0.0135l-1.8193-0.0135
							l0.0135-1.8192L73.0925,46.9789z" style="opacity: 0.2222;fill: #F0F4F7;enable-background: new    ;"></path>
						<path class="st53" d="M73.1582,47.0455c0.0672,0.0005,0.3981,0.007,0.4632,0.0152c0.3748,0.0215,0.7323,0.1091,1.0608,0.251
							c0.3865,0.167,0.7341,0.4071,1.0253,0.7026c0.2912,0.2956,0.5261,0.6466,0.6874,1.0356
							c0.1371,0.3305,0.2194,0.6892,0.2353,1.0643c0.0073,0.0652,0.0089,0.3961,0.0084,0.4634l-1.7531-0.013l-1.7531-0.013
							l0.013-1.7531L73.1582,47.0455z" style="opacity: 0.2778;fill: #ECF1F6;enable-background: new    ;"></path>
						<path class="st54" d="M73.2238,47.1122c0.0807,0.0006,0.3586,0.0075,0.4367,0.0174c0.3513,0.025,0.6865,0.1094,0.9955,0.2429
							c0.3787,0.1636,0.7191,0.3987,1.0044,0.6882c0.2853,0.2895,0.5153,0.6334,0.6733,1.0144
							c0.1289,0.3109,0.2083,0.6473,0.2281,0.9989c0.0088,0.0782,0.0115,0.3563,0.0109,0.4369l-1.6869-0.0125l-1.6869-0.0125
							l0.0125-1.6869L73.2238,47.1122z" style="opacity: 0.3333;fill: #E8EEF4;enable-background: new    ;"></path>
						<path class="st55" d="M73.2895,47.1788c0.0941,0.0007,0.3192,0.008,0.4103,0.0196c0.3278,0.0286,0.6407,0.1098,0.9302,0.2348
							c0.3708,0.1601,0.7041,0.3904,0.9834,0.6738c0.2793,0.2835,0.5045,0.6202,0.6592,0.9933
							c0.1207,0.2913,0.1973,0.6054,0.221,0.9335c0.0102,0.0913,0.0142,0.3164,0.0135,0.4105l-1.6208-0.012l-1.6208-0.012
							l0.012-1.6208L73.2895,47.1788z" style="opacity: 0.3889;fill: #E5ECF2;enable-background: new    ;"></path>
						<path class="st56" d="M73.3552,47.2454c0.1076,0.0008,0.2797,0.0085,0.3839,0.0217c0.3042,0.0321,0.5949,0.1101,0.8649,0.2267
							c0.3629,0.1567,0.6891,0.382,0.9625,0.6594c0.2733,0.2774,0.4938,0.6069,0.6451,0.9721
							c0.1126,0.2717,0.1862,0.5635,0.2139,0.8681c0.0117,0.1043,0.0168,0.2766,0.0161,0.3841L74.887,50.366l-1.5546-0.0115
							l0.0115-1.5546L73.3552,47.2454z" style="opacity: 0.4444;fill: #E1E9F0;enable-background: new    ;"></path>
						<path class="st47" d="M73.4208,47.3121l-0.011,1.4885l-0.011,1.4885l1.4885,0.011l1.4885,0.011
							c0.003-0.411-0.0774-0.8032-0.2254-1.1605s-0.3636-0.6796-0.631-0.951c-0.2674-0.2714-0.5865-0.4917-0.9415-0.645
							C74.2228,47.4013,73.8319,47.3151,73.4208,47.3121z" style="opacity: 0.5;fill: #DDE6EE;enable-background: new    ;"></path>
					</g>
				</g>
				<g>
					<path class="st37" d="M72.23,47.3033c-1.6441-0.0122-2.9868,1.3108-2.999,2.9549s1.3108,2.9868,2.9549,2.999
						s2.9868-1.3108,2.999-2.9549l-2.977-0.022L72.23,47.3033z" style="fill: #FFFFFF;"></path>
					<path class="st37" d="M72.8298,46.7123l-0.022,2.977l2.977,0.022C75.7969,48.0671,74.474,46.7244,72.8298,46.7123z" style="fill: #FFFFFF;"></path>
				</g>
			</g>
		</g>
	</g>

		<radialGradient id="SVGID_11_" cx="14.7393" cy="-524.4476" r="70.9844" gradientTransform="matrix(1.2016 0 0 -0.1148 130.2934 74.135)" gradientUnits="userSpaceOnUse">
		<stop offset="0" style="stop-color:#919FB9;stop-opacity:0.6"></stop>
		<stop offset="0.1914" style="stop-color:#95A3BC;stop-opacity:0.4852"></stop>
		<stop offset="0.392" style="stop-color:#A2AEC4;stop-opacity:0.3648"></stop>
		<stop offset="0.5968" style="stop-color:#B7C0D1;stop-opacity:0.2419"></stop>
		<stop offset="0.8031" style="stop-color:#D4DAE4;stop-opacity:0.1181"></stop>
		<stop offset="1" style="stop-color:#F7F9FB;stop-opacity:0"></stop>
	</radialGradient>
	<path class="st57" d="M240.0927,136.7067c0,4.8102-41.2295,3.9132-92.0886,3.9132s-92.0886,0.897-92.0886-3.9132
		s41.2295-8.7096,92.0886-8.7096S240.0927,131.8965,240.0927,136.7067z" style="opacity: 0.7;fill: url(#SVGID_11_);enable-background: new    ;"></path>
	<g>
		<g>

				<linearGradient id="SVGID_12_" gradientUnits="userSpaceOnUse" x1="167.8384" y1="72.6574" x2="231.8302" y2="72.6574" gradientTransform="matrix(1 0 0 -1 0 166)">
				<stop offset="0" style="stop-color:#FAFCFD"></stop>
				<stop offset="1" style="stop-color:#F9FBFD"></stop>
			</linearGradient>
			<path class="st58" d="M170.928,125.338c-1.7038,0-3.0896-1.3859-3.0896-3.0888V64.4363c0-1.7033,1.3859-3.0892,3.0896-3.0892
				h57.8125c1.7038,0,3.0897,1.3859,3.0897,3.0892v57.8129c0,1.7029-1.3859,3.0888-3.0897,3.0888
				C228.7405,125.338,170.928,125.338,170.928,125.338z" style="fill: url(#SVGID_12_);"></path>
			<path class="st59" d="M228.7407,61.7977c1.4549,0,2.6385,1.1837,2.6385,2.6386v57.8127c0,1.4549-1.1837,2.6386-2.6385,2.6386
				H170.928c-1.4549,0-2.6386-1.1837-2.6386-2.6386V64.4363c0-1.4549,1.1837-2.6386,2.6386-2.6386L228.7407,61.7977
				 M228.7407,60.8961H170.928c-1.9552,0-3.5402,1.585-3.5402,3.5402v57.8127c0,1.9552,1.585,3.5402,3.5402,3.5402h57.8127
				c1.9552,0,3.5402-1.585,3.5402-3.5402V64.4363C232.2809,62.4811,230.6959,60.8961,228.7407,60.8961L228.7407,60.8961z" style="fill: #D9E3ED;"></path>
		</g>
		<path class="st2" d="M232.2809,65.7144h-64.997v-1.1693c0-2.0153,1.6337-3.6491,3.649-3.6491h57.6989
			c2.0153,0,3.649,1.6337,3.649,3.6491v1.1693H232.2809z" style="fill: #E8EEF4;"></path>
	</g>

		<linearGradient id="SVGID_13_" gradientUnits="userSpaceOnUse" x1="149.7421" y1="33.3784" x2="149.7421" y2="125.3444" gradientTransform="matrix(1 0 0 -1 0 166)">
		<stop offset="0" style="stop-color:#CFDAE5"></stop>
		<stop offset="1" style="stop-color:#F0F4F7"></stop>
	</linearGradient>
	<path class="st60" d="M211.0528,132.6216H88.4314c-1.9918,0-3.6065-1.6147-3.6065-3.6065v-84.753
		c0-1.9918,1.6147-3.6065,3.6065-3.6065h122.6214c1.9918,0,3.6065,1.6147,3.6065,3.6065v84.753
		C214.6593,131.0069,213.0446,132.6216,211.0528,132.6216z" style="fill: url(#SVGID_13_);"></path>

		<linearGradient id="SVGID_14_" gradientUnits="userSpaceOnUse" x1="149.7421" y1="34.2801" x2="149.7421" y2="124.4428" gradientTransform="matrix(1 0 0 -1 0 166)">
		<stop offset="0" style="stop-color:#F7F8FB"></stop>
		<stop offset="1" style="stop-color:#E8EEF5"></stop>
	</linearGradient>
	<path class="st61" d="M85.7265,128.1134V45.1637c0-1.9918,1.6147-3.6065,3.6065-3.6065h120.8181
		c1.9918,0,3.6065,1.6147,3.6065,3.6065v82.9497c0,1.9918-1.6147,3.6065-3.6065,3.6065H89.333
		C87.3412,131.72,85.7265,130.1053,85.7265,128.1134z" style="fill: url(#SVGID_14_);"></path>

		<linearGradient id="SVGID_15_" gradientUnits="userSpaceOnUse" x1="149.7421" y1="34.28" x2="149.7421" y2="111.82" gradientTransform="matrix(1 0 0 -1 0 166)">
		<stop offset="0" style="stop-color:#FBFCFD"></stop>
		<stop offset="1" style="stop-color:#F1F5FA"></stop>
	</linearGradient>
	<path class="st62" d="M210.799,131.72H88.6851c-1.634,0-2.9586-1.3246-2.9586-2.9586V54.18h128.0311v74.5813
		C213.7576,130.3953,212.433,131.72,210.799,131.72z" style="fill: url(#SVGID_15_);"></path>
	<g>
		<path class="st37" d="M205.7936,127.9971H94.2066c-2.4066,0-4.3575-1.9509-4.3575-4.3575V60.3407
			c0-2.4066,1.9509-4.3575,4.3575-4.3575h111.587c2.4066,0,4.3575,1.9509,4.3575,4.3575v63.2989
			C210.1511,126.0462,208.2002,127.9971,205.7936,127.9971z" style="fill: #FFFFFF;"></path>

			<linearGradient id="SVGID_16_" gradientUnits="userSpaceOnUse" x1="209.3244" y1="39.7595" x2="90.6767" y2="108.2608" gradientTransform="matrix(1 0 0 -1 0 166)">
			<stop offset="0" style="stop-color:#E3EAF1"></stop>
			<stop offset="1" style="stop-color:#D9E2ED"></stop>
		</linearGradient>
		<path class="st63" d="M205.7937,55.9833h-3.0287v1.0096h3.0287V55.9833L205.7937,55.9833L205.7937,55.9833z M198.7267,55.9833
			h-3.0287v1.0096h3.0287V55.9833L198.7267,55.9833z M191.6597,55.9833h-3.0287v1.0096h3.0287V55.9833L191.6597,55.9833z
			 M184.5928,55.9833h-3.0287v1.0096h3.0287V55.9833L184.5928,55.9833z M177.5258,55.9833h-3.0287v1.0096h3.0287V55.9833
			L177.5258,55.9833z M170.4588,55.9833h-3.0287v1.0096h3.0287V55.9833L170.4588,55.9833z M163.3918,55.9833h-3.0287v1.0096h3.0287
			V55.9833L163.3918,55.9833z M156.3249,55.9833h-3.0287v1.0096h3.0287V55.9833L156.3249,55.9833z M149.2579,55.9833h-3.0287v1.0096
			h3.0287V55.9833L149.2579,55.9833z M142.191,55.9833h-3.0287v1.0096h3.0287V55.9833L142.191,55.9833z M135.124,55.9833h-3.0287
			v1.0096h3.0287V55.9833L135.124,55.9833z M128.057,55.9833h-3.0287v1.0096h3.0287V55.9833L128.057,55.9833z M120.9901,55.9833
			h-3.0287v1.0096h3.0287V55.9833L120.9901,55.9833z M113.9231,55.9833h-3.0287v1.0096h3.0287V55.9833L113.9231,55.9833z
			 M106.8561,55.9833h-3.0287v1.0096h3.0287V55.9833L106.8561,55.9833z M99.7892,55.9833h-3.0287v1.0096h3.0287V55.9833
			L99.7892,55.9833z M92.7505,56.2325c-0.6607,0.2342-1.2482,0.6233-1.7187,1.1236c-0.0001,0.0001,0,0-0.0001,0.0001
			c-0.0013,0.0013-0.0025,0.0027-0.0038,0.004c-0.0002,0.0002-0.0002,0.0002-0.0004,0.0004
			c-0.0012,0.0013-0.0024,0.0026-0.0036,0.0038c-0.0002,0.0002-0.0004,0.0004-0.0006,0.0006
			c-0.0093,0.0099-0.0185,0.0198-0.0276,0.0298l-0.0001,0.0001c-0.0012,0.0013-0.0024,0.0026-0.0036,0.0039
			c-0.0002,0.0002-0.0004,0.0004-0.0006,0.0006c-0.0012,0.0013-0.0023,0.0025-0.0035,0.0038
			c-0.0002,0.0002-0.0004,0.0004-0.0005,0.0006c-0.0012,0.0013-0.0023,0.0026-0.0035,0.0039
			c-0.0002,0.0002-0.0002,0.0002-0.0004,0.0004c-0.0012,0.0014-0.0025,0.0027-0.0037,0.0041l-0.0001,0.0001
			c-0.0066,0.0072-0.013,0.0144-0.0195,0.0216L90.96,57.4341c-0.0011,0.0013-0.0022,0.0025-0.0034,0.0038
			c-0.0002,0.0002-0.0005,0.0005-0.0007,0.0007c-0.0011,0.0012-0.0022,0.0024-0.0033,0.0037
			c-0.0003,0.0003-0.0005,0.0006-0.0008,0.0009c-0.0011,0.0012-0.0021,0.0024-0.0032,0.0036
			c-0.0003,0.0003-0.0005,0.0006-0.0008,0.0009c-0.0011,0.0012-0.0021,0.0023-0.0031,0.0035
			c-0.0004,0.0004-0.0006,0.0007-0.001,0.0011c-0.001,0.0011-0.002,0.0022-0.003,0.0034c-0.0004,0.0004-0.0006,0.0007-0.001,0.0011
			c-0.0011,0.0012-0.002,0.0023-0.0031,0.0035c-0.0003,0.0003-0.0006,0.0007-0.0009,0.001
			c-0.0047,0.0053-0.0095,0.0108-0.0141,0.0161c-0.0003,0.0003-0.0005,0.0006-0.0008,0.0009
			c-0.001,0.0011-0.002,0.0023-0.0029,0.0034c-0.0004,0.0004-0.0007,0.0008-0.0011,0.0013
			c-0.0009,0.0011-0.0018,0.002-0.0027,0.0031c-0.0005,0.0005-0.0009,0.001-0.0014,0.0016
			c-0.0009,0.001-0.0018,0.0021-0.0027,0.0031c-0.0005,0.0005-0.0009,0.001-0.0013,0.0015
			c-0.0008,0.001-0.0017,0.0019-0.0025,0.0029c-0.0006,0.0007-0.001,0.0012-0.0017,0.0019
			c-0.0008,0.0009-0.0016,0.0018-0.0024,0.0028c-0.0006,0.0007-0.0011,0.0013-0.0017,0.002
			c-0.0007,0.0008-0.0015,0.0017-0.0022,0.0025c-0.0007,0.0008-0.0013,0.0015-0.002,0.0023s-0.0014,0.0017-0.0022,0.0025
			c-0.0005,0.0006-0.0011,0.0013-0.0016,0.0019c-0.0028,0.0033-0.0055,0.0065-0.0083,0.0098
			c-0.0006,0.0007-0.0013,0.0016-0.0019,0.0023c-0.0008,0.0009-0.0015,0.0018-0.0023,0.0027
			c-0.0005,0.0006-0.001,0.0012-0.0016,0.0019c-0.0008,0.0009-0.0016,0.0019-0.0024,0.0029
			c-0.0006,0.0007-0.0011,0.0012-0.0017,0.002c-0.0008,0.0009-0.0015,0.0017-0.0022,0.0026
			c-0.0006,0.0007-0.0012,0.0014-0.0018,0.0021c-0.0007,0.0008-0.0014,0.0017-0.0022,0.0026
			c-0.0006,0.0007-0.0013,0.0015-0.0019,0.0023c-0.0007,0.0008-0.0014,0.0017-0.0021,0.0025
			c-0.0006,0.0007-0.0011,0.0013-0.0017,0.0021c-0.0007,0.0009-0.0015,0.0018-0.0022,0.0027
			c-0.0007,0.0008-0.0012,0.0014-0.0019,0.0023c-0.0007,0.0008-0.0014,0.0016-0.002,0.0024
			c-0.0006,0.0007-0.0015,0.0018-0.0021,0.0025c-0.0006,0.0008-0.0013,0.0015-0.0019,0.0023
			c-0.0012,0.0015-0.0026,0.0031-0.0038,0.0046c-0.0007,0.0009-0.0014,0.0017-0.0022,0.0026
			c-0.0005,0.0006-0.0012,0.0015-0.0018,0.0021c-0.0007,0.0009-0.0015,0.0018-0.0022,0.0027
			c-0.0006,0.0007-0.0012,0.0014-0.0018,0.0021c-0.0006,0.0008-0.0013,0.0015-0.0019,0.0023
			c-0.0007,0.0008-0.0015,0.0018-0.0022,0.0027c-0.0006,0.0008-0.0012,0.0015-0.0018,0.0022
			c-0.0007,0.0008-0.0013,0.0016-0.002,0.0025c-0.0006,0.0008-0.0013,0.0016-0.0019,0.0023
			c-0.0007,0.0008-0.0014,0.0017-0.0021,0.0026c-0.0006,0.0008-0.0012,0.0015-0.0019,0.0023
			c-0.0008,0.0009-0.0014,0.0018-0.0022,0.0027c-0.0005,0.0007-0.0011,0.0013-0.0016,0.002
			c-0.0008,0.0009-0.0017,0.002-0.0024,0.003c-0.0005,0.0007-0.0011,0.0013-0.0016,0.002
			c-0.0009,0.0011-0.0017,0.0021-0.0026,0.0032c-0.0004,0.0005-0.0009,0.0011-0.0013,0.0016
			c-0.0013,0.0016-0.0026,0.0032-0.0039,0.0048c-0.0004,0.0005-0.0007,0.0009-0.0011,0.0014
			c-0.0009,0.0012-0.002,0.0024-0.0029,0.0036c-0.0004,0.0005-0.0008,0.0009-0.0011,0.0014
			c-0.0009,0.0011-0.0019,0.0023-0.0027,0.0034c-0.0005,0.0006-0.001,0.0012-0.0015,0.0019
			c-0.0008,0.0011-0.0016,0.002-0.0024,0.0031c-0.0005,0.0006-0.001,0.0013-0.0015,0.0019c-0.0008,0.001-0.0016,0.002-0.0024,0.003
			c-0.0005,0.0006-0.001,0.0013-0.0015,0.0019c-0.0008,0.0011-0.0017,0.0021-0.0025,0.0032
			c-0.0005,0.0006-0.0009,0.0011-0.0013,0.0017c-0.0009,0.0012-0.0017,0.0021-0.0026,0.0033
			c-0.0004,0.0005-0.0009,0.0011-0.0013,0.0016c-0.0009,0.0012-0.002,0.0025-0.0029,0.0037
			c-0.0003,0.0004-0.0006,0.0008-0.0009,0.0012c-0.0012,0.0015-0.0025,0.0032-0.0037,0.0047c0,0-0.0001,0.0001-0.0002,0.0002
			c-0.0026,0.0033-0.0053,0.0067-0.0079,0.0101c-0.0003,0.0004-0.0006,0.0008-0.0009,0.0011
			c-0.001,0.0013-0.002,0.0025-0.003,0.0038c-0.0004,0.0005-0.0007,0.001-0.0011,0.0014c-0.0009,0.0012-0.0018,0.0024-0.0028,0.0035
			c-0.0004,0.0005-0.0008,0.0011-0.0012,0.0015c-0.0009,0.0012-0.0018,0.0023-0.0027,0.0035
			c-0.0003,0.0004-0.0008,0.001-0.0011,0.0014c-0.001,0.0013-0.0018,0.0023-0.0028,0.0036
			c-0.0004,0.0005-0.0007,0.0009-0.0011,0.0014c-0.001,0.0013-0.0021,0.0028-0.0031,0.0041
			c-0.0002,0.0002-0.0004,0.0006-0.0006,0.0008c-0.0011,0.0014-0.0022,0.0029-0.0033,0.0043
			c-0.0002,0.0002-0.0004,0.0006-0.0006,0.0008c-0.0051,0.0067-0.0105,0.0137-0.0156,0.0204
			c-0.0001,0.0002-0.0004,0.0005-0.0005,0.0007c-0.0012,0.0015-0.0023,0.003-0.0034,0.0045
			c-0.0002,0.0002-0.0003,0.0004-0.0004,0.0006c-0.0012,0.0015-0.0022,0.0029-0.0033,0.0044
			c-0.0002,0.0003-0.0005,0.0006-0.0007,0.0009c-0.0011,0.0015-0.0022,0.0029-0.0033,0.0044
			c-0.0002,0.0002-0.0003,0.0005-0.0005,0.0007c-0.0011,0.0014-0.0022,0.0029-0.0032,0.0043
			c-0.0002,0.0003-0.0005,0.0006-0.0007,0.0009c-0.0011,0.0015-0.0024,0.0032-0.0035,0.0047
			c-0.0001,0.0001-0.0001,0.0002-0.0002,0.0003c-0.0065,0.0087-0.013,0.0175-0.0194,0.0263l0,0
			c-0.0013,0.0018-0.0025,0.0034-0.0038,0.0052c0,0-0.0001,0.0002-0.0002,0.0002c-0.0012,0.0017-0.0024,0.0033-0.0036,0.0049
			c-0.0001,0.0001-0.0002,0.0003-0.0003,0.0004c-0.0102,0.014-0.0203,0.0281-0.0304,0.0422
			c-0.0001,0.0002-0.0001,0.0002-0.0002,0.0004c-0.0012,0.0017-0.0024,0.0034-0.0036,0.0051c0,0.0001-0.0001,0.0001-0.0001,0.0001
			c-0.0677,0.0954-0.1315,0.1936-0.1914,0.2945l0.8679,0.5157c0.4005-0.6741,1.0263-1.189,1.762-1.4498L92.7505,56.2325
			L92.7505,56.2325z M90.8588,62.0467h-1.0096v3.0287h1.0096V62.0467L90.8588,62.0467z M90.8588,69.1136h-1.0096v3.0287h1.0096
			V69.1136L90.8588,69.1136z M90.8588,76.1806h-1.0096v3.0287h1.0096V76.1806L90.8588,76.1806z M90.8588,83.2476h-1.0096v3.0287
			h1.0096V83.2476L90.8588,83.2476z M90.8588,90.3145h-1.0096v3.0287h1.0096V90.3145L90.8588,90.3145z M90.8588,97.3815h-1.0096
			v3.0287h1.0096V97.3815L90.8588,97.3815z M90.8588,104.4484h-1.0096v3.0287h1.0096V104.4484L90.8588,104.4484z M90.8588,111.5154
			h-1.0096v3.0287h1.0096V111.5154L90.8588,111.5154z M90.8588,118.5824h-1.0096v3.0287h1.0096V118.5824L90.8588,118.5824z
			 M91.2073,125.1291l-0.9038,0.4499c0.0623,0.1252,0.1303,0.2467,0.204,0.3647c0.0001,0.0001,0.0001,0.0002,0.0002,0.0004
			c0.0011,0.0017,0.0022,0.0036,0.0033,0.0053l0.0001,0.0001c0.0012,0.0019,0.0023,0.0036,0.0034,0.0055c0,0,0,0.0001,0.0001,0.0001
			c0.0069,0.011,0.0139,0.022,0.0209,0.0329c0.0002,0.0003,0.0004,0.0006,0.0005,0.0008c0.001,0.0015,0.002,0.0031,0.003,0.0046
			c0.0002,0.0003,0.0004,0.0006,0.0005,0.0008c0.001,0.0015,0.0019,0.0029,0.0029,0.0044c0.0003,0.0004,0.0005,0.0008,0.0007,0.0012
			c0.0009,0.0014,0.0019,0.003,0.0028,0.0043c0.0002,0.0003,0.0004,0.0007,0.0006,0.001c0.001,0.0015,0.0019,0.003,0.0029,0.0045
			c0.0002,0.0003,0.0004,0.0006,0.0006,0.0009c0.001,0.0016,0.0022,0.0034,0.0033,0.0051c0,0.0001,0.0001,0.0002,0.0002,0.0002
			c0.0024,0.0037,0.0048,0.0073,0.0071,0.0109l0,0c0.0011,0.0017,0.0023,0.0034,0.0034,0.0051
			c0.0003,0.0005,0.0006,0.0009,0.0009,0.0014c0.0008,0.0013,0.0017,0.0026,0.0025,0.0038
			c0.0004,0.0006,0.0008,0.0011,0.0012,0.0018c0.0008,0.0013,0.0015,0.0022,0.0023,0.0035
			c0.0004,0.0007,0.0008,0.0013,0.0013,0.0019c0.0008,0.0011,0.0015,0.0023,0.0023,0.0034
			c0.0004,0.0006,0.0008,0.0012,0.0012,0.0018c0.0008,0.0013,0.0015,0.0023,0.0023,0.0035
			c0.0004,0.0006,0.0008,0.0013,0.0012,0.0019c0.0008,0.0011,0.0015,0.0023,0.0023,0.0034
			c0.0004,0.0006,0.0008,0.0012,0.0012,0.0017c0.0008,0.0013,0.0016,0.0024,0.0025,0.0037
			c0.0003,0.0005,0.0007,0.0011,0.0011,0.0016c0.0011,0.0017,0.0023,0.0034,0.0034,0.0051c0,0.0001,0,0,0.0001,0.0001
			c0.0011,0.0017,0.0023,0.0035,0.0035,0.0052c0.0005,0.0008,0.0009,0.0014,0.0015,0.0022c0.0007,0.001,0.0014,0.0021,0.0021,0.0031
			c0.0005,0.0007,0.001,0.0015,0.0015,0.0022c0.0007,0.001,0.0013,0.0019,0.002,0.0029c0.0005,0.0008,0.001,0.0015,0.0016,0.0023
			c0.0006,0.0009,0.0013,0.002,0.002,0.0029c0.0005,0.0008,0.0011,0.0016,0.0016,0.0024c0.0006,0.0009,0.0012,0.0017,0.0018,0.0026
			s0.0012,0.0017,0.0018,0.0026c0.0005,0.0008,0.0012,0.0017,0.0017,0.0025c0.0006,0.0009,0.0012,0.0018,0.0018,0.0027
			c0.0005,0.0008,0.0011,0.0016,0.0016,0.0024c0.0006,0.0009,0.0012,0.0018,0.0019,0.0027
			c0.0006,0.0009,0.0011,0.0016,0.0017,0.0025s0.0013,0.0018,0.0019,0.0027c0.0004,0.0006,0.0009,0.0012,0.0012,0.0018
			c0.0026,0.0037,0.005,0.0073,0.0076,0.011c0.0005,0.0007,0.0011,0.0016,0.0016,0.0023c0.0006,0.0009,0.0013,0.0018,0.0019,0.0028
			c0.0005,0.0008,0.0011,0.0015,0.0016,0.0023c0.0007,0.0009,0.0013,0.0019,0.002,0.0028c0.0005,0.0008,0.001,0.0014,0.0016,0.0022
			c0.0006,0.0009,0.0014,0.0019,0.002,0.0029c0.0005,0.0008,0.0011,0.0015,0.0016,0.0023c0.0006,0.0008,0.0012,0.0018,0.0018,0.0026
			c0.0006,0.0009,0.0012,0.0017,0.0018,0.0026s0.0012,0.0017,0.0019,0.0026c0.0005,0.0008,0.001,0.0015,0.0016,0.0022
			c0.0007,0.001,0.0014,0.0019,0.0021,0.0029c0.0004,0.0005,0.0008,0.0012,0.0012,0.0017c0.0008,0.0012,0.0016,0.0023,0.0024,0.0035
			c0.0002,0.0003,0.0004,0.0005,0.0006,0.0008c0.003,0.0042,0.006,0.0084,0.009,0.0127c0.0002,0.0003,0.0006,0.0008,0.0008,0.0011
			c0.0008,0.0011,0.0016,0.0022,0.0024,0.0033c0.0004,0.0006,0.0008,0.0011,0.0012,0.0016
			c0.0008,0.0011,0.0015,0.0021,0.0023,0.0032c0.0005,0.0007,0.0009,0.0013,0.0014,0.0019c0.0007,0.001,0.0014,0.002,0.0022,0.003
			c0.0005,0.0007,0.001,0.0013,0.0014,0.002c0.0008,0.001,0.0014,0.002,0.0022,0.003c0.0005,0.0007,0.001,0.0013,0.0015,0.002
			c0.0007,0.001,0.0015,0.0021,0.0022,0.003c0.0004,0.0005,0.0009,0.0012,0.0013,0.0018c0.0008,0.0011,0.0016,0.0022,0.0024,0.0033
			c0.0004,0.0005,0.0008,0.001,0.0012,0.0016c0.0008,0.0011,0.0017,0.0023,0.0025,0.0034c0.0003,0.0004,0.0005,0.0007,0.0008,0.0011
			c0.0031,0.0043,0.0063,0.0086,0.0095,0.0128c0.0001,0.0001,0.0003,0.0004,0.0004,0.0005
			c0.0009,0.0012,0.0018,0.0024,0.0027,0.0037c0.0003,0.0004,0.0006,0.0008,0.001,0.0013c0.0009,0.0012,0.0017,0.0024,0.0026,0.0035
			c0.0003,0.0004,0.0007,0.0009,0.001,0.0013c0.0009,0.0012,0.0018,0.0024,0.0027,0.0036c0.0003,0.0004,0.0006,0.0008,0.0009,0.0012
			c0.0009,0.0012,0.0018,0.0024,0.0027,0.0036c0.0003,0.0004,0.0005,0.0007,0.0009,0.0012c0.001,0.0013,0.0019,0.0025,0.0028,0.0038
			c0.0003,0.0003,0.0005,0.0006,0.0007,0.001c0.001,0.0013,0.0019,0.0026,0.0029,0.0038c0.0002,0.0003,0.0005,0.0007,0.0007,0.001
			c0.001,0.0013,0.002,0.0026,0.003,0.0039c0.0001,0.0001,0.0002,0.0003,0.0003,0.0004c0.0057,0.0076,0.0114,0.0151,0.0172,0.0226
			c0.0002,0.0002,0.0004,0.0005,0.0006,0.0007c0.001,0.0014,0.0021,0.0027,0.0031,0.0041c0.0002,0.0002,0.0003,0.0004,0.0005,0.0006
			c0.001,0.0013,0.0021,0.0027,0.0031,0.004c0.0003,0.0003,0.0004,0.0006,0.0007,0.0009c0.001,0.0013,0.002,0.0026,0.003,0.0039
			c0.0002,0.0002,0.0005,0.0007,0.0007,0.0009c0.001,0.0013,0.002,0.0026,0.003,0.0039c0.0002,0.0003,0.0004,0.0005,0.0007,0.0009
			c0.0011,0.0014,0.0021,0.0027,0.0031,0.004c0.0001,0.0001,0,0,0.0001,0.0001c0.0083,0.0107,0.0167,0.0215,0.0252,0.0322
			c0.0001,0.0001,0.0003,0.0004,0.0004,0.0005c0.0011,0.0014,0.0023,0.0029,0.0034,0.0043l0.0002,0.0003
			c0.0109,0.0138,0.0219,0.0275,0.033,0.0412l0.0001,0.0001c0.4337,0.5343,0.9912,0.9639,1.629,1.245l0.4072-0.9238
			C92.1424,126.3896,91.5562,125.8299,91.2073,125.1291L91.2073,125.1291z M99.4665,126.9875h-3.0287v1.0096h3.0287V126.9875
			L99.4665,126.9875z M106.5335,126.9875h-3.0287v1.0096h3.0287V126.9875L106.5335,126.9875z M113.6004,126.9875h-3.0287v1.0096
			h3.0287V126.9875L113.6004,126.9875z M120.6674,126.9875h-3.0287v1.0096h3.0287V126.9875L120.6674,126.9875z M127.7344,126.9875
			h-3.0287v1.0096h3.0287V126.9875L127.7344,126.9875z M134.8014,126.9875h-3.0287v1.0096h3.0287V126.9875L134.8014,126.9875z
			 M141.8683,126.9875h-3.0287v1.0096h3.0287V126.9875L141.8683,126.9875z M148.9353,126.9875h-3.0287v1.0096h3.0287V126.9875
			L148.9353,126.9875z M156.0023,126.9875h-3.0287v1.0096h3.0287V126.9875L156.0023,126.9875z M163.0692,126.9875h-3.0287v1.0096
			h3.0287V126.9875L163.0692,126.9875z M170.1362,126.9875h-3.0287v1.0096h3.0287V126.9875L170.1362,126.9875z M177.2032,126.9875
			h-3.0287v1.0096h3.0287V126.9875L177.2032,126.9875z M184.2701,126.9875h-3.0287v1.0096h3.0287V126.9875L184.2701,126.9875z
			 M191.3371,126.9875h-3.0287v1.0096h3.0287V126.9875L191.3371,126.9875z M198.4041,126.9875h-3.0287v1.0096h3.0287V126.9875
			L198.4041,126.9875z M205.471,126.9875h-3.0287v1.0096h3.0287V126.9875L205.471,126.9875z M209.1407,123.7178
			c-0.0178,0.7816-0.3111,1.5361-0.8257,2.1245l0.7599,0.6646c0.5611-0.6416,0.9371-1.4493,1.0446-2.3396v-0.0001
			c0.0003-0.0023,0.0005-0.0043,0.0008-0.0066c0-0.0001,0-0.0003,0-0.0004c0.0002-0.002,0.0005-0.0043,0.0007-0.0063
			c0-0.0001,0-0.0004,0.0001-0.0005c0.0002-0.0022,0.0005-0.0044,0.0008-0.0065c0-0.0001,0-0.0001,0-0.0001
			c0.001-0.0091,0.0021-0.0181,0.0031-0.0272c0-0.0002,0-0.0003,0-0.0005c0.0002-0.002,0.0004-0.0041,0.0007-0.0061
			c0-0.0004,0.0001-0.0007,0.0001-0.0011c0.0002-0.0019,0.0004-0.0038,0.0006-0.0057c0-0.0004,0.0001-0.0007,0.0001-0.0011
			c0.0002-0.0019,0.0004-0.0036,0.0006-0.0054c0-0.0004,0.0001-0.0009,0.0002-0.0014c0.0002-0.0019,0.0004-0.0037,0.0006-0.0055
			c0-0.0004,0.0001-0.0007,0.0001-0.0011c0.0002-0.002,0.0004-0.0042,0.0006-0.0062c0-0.0001,0-0.0003,0-0.0004
			c0.0005-0.0044,0.0009-0.009,0.0013-0.0134c0-0.0005,0.0001-0.001,0.0001-0.0015c0.0002-0.0017,0.0003-0.0034,0.0005-0.0051
			c0.0001-0.0006,0.0001-0.0013,0.0002-0.0019c0.0002-0.0016,0.0003-0.003,0.0004-0.0046c0.0001-0.0008,0.0002-0.0015,0.0002-0.0023
			c0.0001-0.0014,0.0003-0.0028,0.0004-0.0042c0.0001-0.0008,0.0002-0.0016,0.0002-0.0023
			c0.0002-0.0016,0.0003-0.0028,0.0004-0.0044c0.0001-0.0008,0.0001-0.0015,0.0002-0.0022
			c0.0001-0.0016,0.0003-0.0032,0.0004-0.0048c0.0001-0.0006,0.0001-0.0012,0.0002-0.0017
			c0.0002-0.0017,0.0003-0.0037,0.0005-0.0054c0-0.0004,0.0001-0.0009,0.0001-0.0013c0.0002-0.0023,0.0004-0.0042,0.0006-0.0065
			c0.0001-0.0006,0.0001-0.0012,0.0002-0.0017c0.0001-0.0014,0.0003-0.0033,0.0004-0.0047c0.0001-0.001,0.0002-0.0018,0.0002-0.0027
			c0.0001-0.0013,0.0002-0.0025,0.0003-0.0038c0.0001-0.001,0.0002-0.002,0.0003-0.0029c0.0001-0.0012,0.0002-0.0023,0.0003-0.0035
			c0.0001-0.0011,0.0002-0.0021,0.0003-0.0032c0.0001-0.0012,0.0002-0.0023,0.0003-0.0034c0.0001-0.001,0.0002-0.0021,0.0003-0.0031
			c0.0001-0.0011,0.0002-0.0022,0.0003-0.0034c0.0001-0.001,0.0002-0.0021,0.0002-0.0031c0.0001-0.0012,0.0002-0.0023,0.0003-0.0035
			c0.0001-0.0011,0.0002-0.0021,0.0003-0.0032c0.0001-0.0009,0.0001-0.0017,0.0002-0.0026
			c0.0002-0.0026,0.0004-0.0051,0.0006-0.0078c0-0.0009,0.0001-0.0014,0.0002-0.0022c0.0001-0.0013,0.0002-0.0025,0.0003-0.0038
			c0.0001-0.0009,0.0001-0.0018,0.0002-0.0027c0.0001-0.0013,0.0002-0.0026,0.0003-0.0038
			c0.0001-0.0009,0.0001-0.0018,0.0002-0.0027c0.0001-0.0012,0.0002-0.0025,0.0003-0.0038
			c0.0001-0.0009,0.0001-0.0018,0.0002-0.0027c0.0001-0.0013,0.0002-0.0026,0.0003-0.004c0-0.0007,0.0001-0.0017,0.0002-0.0024
			c0.0001-0.0013,0.0002-0.0026,0.0003-0.004c0-0.0009,0.0001-0.0017,0.0002-0.0026c0.0001-0.0014,0.0002-0.0027,0.0003-0.004
			c0-0.0006,0.0001-0.0011,0.0001-0.0016c0.0004-0.0056,0.0007-0.011,0.0011-0.0166c0-0.0002,0-0.0004,0-0.0005
			c0.0001-0.0017,0.0002-0.0033,0.0003-0.0049c0-0.0004,0.0001-0.0011,0.0001-0.0015c0.0001-0.0015,0.0002-0.0032,0.0003-0.0047
			c0-0.0006,0.0001-0.0011,0.0001-0.0017c0.0001-0.0016,0.0002-0.0031,0.0003-0.0047c0-0.0006,0.0001-0.001,0.0001-0.0016
			c0.0001-0.0016,0.0002-0.0032,0.0003-0.0048c0-0.0004,0.0001-0.0011,0.0001-0.0015c0.0001-0.0017,0.0002-0.0034,0.0003-0.0051
			c0-0.0002,0-0.0005,0-0.0006c0.0005-0.0101,0.0011-0.0201,0.0016-0.0303v-0.0001c0.0001-0.002,0.0002-0.0039,0.0003-0.0059
			c0-0.0001,0-0.0003,0-0.0004c0.0001-0.0019,0.0002-0.0038,0.0003-0.0057c0-0.0001,0-0.0005,0-0.0006
			c0.0015-0.0328,0.0026-0.0657,0.0033-0.0986L209.1407,123.7178L209.1407,123.7178z M210.1511,116.6739h-1.0096v3.0287h1.0096
			V116.6739L210.1511,116.6739z M210.1511,109.6069h-1.0096v3.0287h1.0096V109.6069L210.1511,109.6069z M210.1511,102.5399h-1.0096
			v3.0287h1.0096V102.5399L210.1511,102.5399z M210.1511,95.473h-1.0096v3.0287h1.0096V95.473L210.1511,95.473z M210.1511,88.406
			h-1.0096v3.0287h1.0096V88.406L210.1511,88.406z M210.1511,81.339h-1.0096v3.0287h1.0096V81.339L210.1511,81.339z
			 M210.1511,74.272h-1.0096v3.0287h1.0096V74.272L210.1511,74.272z M210.1511,67.2051h-1.0096v3.0287h1.0096V67.2051
			L210.1511,67.2051z M210.1465,60.1381l-1.0085,0.0462c0.0024,0.0518,0.0036,0.104,0.0036,0.1564v2.8261h1.0096v-2.8261
			c0-0.0022,0-0.0045,0-0.0067c0-0.0007,0-0.0013,0-0.002c0-0.0016,0-0.0032,0-0.0048c0-0.0008,0-0.0015,0-0.0023
			c0-0.0015,0-0.0031,0-0.0045c0-0.0007,0-0.0015,0-0.0023c0-0.0016,0-0.0029,0-0.0045c0-0.0008,0-0.0016,0-0.0024
			c0-0.0015,0-0.0031,0-0.0045c0-0.0007,0-0.0014,0-0.0021c0-0.0018,0-0.0033,0-0.005c0-0.0006,0-0.0011,0-0.0017
			c0-0.002,0-0.0038-0.0001-0.0058c0-0.0003,0-0.0005,0-0.0008c0-0.0023,0-0.0045-0.0001-0.0068l0,0
			C210.1501,60.2355,210.1487,60.1867,210.1465,60.1381L210.1465,60.1381z M205.7937,55.9833v1.0096
			c0.6763,0,1.3275,0.2004,1.8833,0.5795l0.5688-0.8341c-0.0485-0.0331-0.0978-0.0652-0.1477-0.0964
			c-0.0002-0.0001-0.0003-0.0002-0.0004-0.0003c-0.0036-0.0023-0.0073-0.0045-0.0109-0.0068
			c-0.0001-0.0001-0.0002-0.0001-0.0003-0.0002c-0.0017-0.0011-0.0035-0.0022-0.0052-0.0033
			c-0.0001-0.0001-0.0002-0.0001-0.0002-0.0002c-0.0037-0.0023-0.0073-0.0045-0.011-0.0068
			c-0.0001-0.0001-0.0002-0.0001-0.0003-0.0002c-0.0016-0.001-0.0033-0.002-0.0049-0.003
			c-0.0003-0.0002-0.0005-0.0003-0.0008-0.0005c-0.0018-0.0011-0.0035-0.0021-0.0052-0.0032l0,0
			c-0.0017-0.0011-0.0036-0.0022-0.0053-0.0032c-0.0003-0.0002-0.0007-0.0004-0.001-0.0006
			c-0.0015-0.0009-0.0029-0.0018-0.0044-0.0027c-0.0003-0.0002-0.0006-0.0004-0.0009-0.0005
			c-0.0017-0.0011-0.0035-0.0021-0.0052-0.0032l0,0c-0.0019-0.0011-0.0037-0.0022-0.0056-0.0034l-0.0002-0.0001
			c-0.0016-0.001-0.0032-0.0019-0.0049-0.0029c-0.0004-0.0002-0.0008-0.0005-0.0012-0.0007
			c-0.0015-0.0009-0.0032-0.0019-0.0048-0.0029c-0.0002-0.0001-0.0002-0.0001-0.0004-0.0003
			c-0.0019-0.0011-0.0036-0.0021-0.0054-0.0032c-0.0002-0.0001-0.0003-0.0001-0.0004-0.0003
			c-0.0015-0.0009-0.0032-0.0019-0.0047-0.0028c-0.0004-0.0002-0.0007-0.0004-0.0011-0.0007
			c-0.0014-0.0008-0.0029-0.0017-0.0043-0.0025c-0.0004-0.0002-0.0008-0.0005-0.0011-0.0007
			c-0.0018-0.001-0.0034-0.002-0.0052-0.0031c-0.0002-0.0001-0.0004-0.0002-0.0005-0.0003
			c-0.0015-0.0009-0.0031-0.0018-0.0046-0.0027c-0.0004-0.0003-0.0009-0.0005-0.0013-0.0008
			c-0.0014-0.0008-0.0028-0.0016-0.0042-0.0025c-0.0004-0.0002-0.0008-0.0005-0.0011-0.0007
			c-0.0018-0.001-0.0034-0.002-0.0052-0.0031c-0.0002-0.0001-0.0004-0.0002-0.0005-0.0003
			c-0.0015-0.0009-0.0031-0.0018-0.0047-0.0027c-0.0004-0.0002-0.0008-0.0005-0.0013-0.0007
			c-0.0014-0.0008-0.0028-0.0016-0.0042-0.0024c-0.0004-0.0002-0.0008-0.0005-0.0013-0.0007
			c-0.0018-0.001-0.0033-0.0019-0.0051-0.003c-0.0004-0.0002-0.0007-0.0004-0.001-0.0006c-0.0014-0.0008-0.0025-0.0015-0.004-0.0023
			c-0.0007-0.0004-0.0014-0.0008-0.0021-0.0012c-0.0011-0.0006-0.0021-0.0012-0.0032-0.0018
			c-0.0007-0.0004-0.0013-0.0008-0.002-0.0012c-0.0016-0.0009-0.0029-0.0017-0.0045-0.0026
			c-0.0006-0.0003-0.0011-0.0006-0.0017-0.001c-0.0013-0.0007-0.0023-0.0013-0.0037-0.0021
			c-0.0007-0.0004-0.0014-0.0008-0.0021-0.0012c-0.0011-0.0006-0.002-0.0011-0.0031-0.0017
			c-0.0008-0.0005-0.0015-0.0009-0.0023-0.0013c-0.001-0.0005-0.0022-0.0013-0.0032-0.0018
			c-0.0011-0.0006-0.0022-0.0013-0.0034-0.0019c-0.001-0.0005-0.0021-0.0012-0.003-0.0017s-0.0016-0.0009-0.0025-0.0014
			s-0.0017-0.001-0.0027-0.0015c-0.0009-0.0005-0.0017-0.001-0.0025-0.0014c-0.0008-0.0005-0.0016-0.0009-0.0025-0.0014
			c-0.0014-0.0008-0.003-0.0017-0.0044-0.0025c-0.0008-0.0005-0.0018-0.001-0.0026-0.0015s-0.0017-0.001-0.0025-0.0014
			c-0.0008-0.0005-0.0018-0.001-0.0026-0.0015c-0.0009-0.0005-0.0018-0.001-0.0026-0.0015s-0.0017-0.0009-0.0025-0.0014
			c-0.0016-0.0009-0.0033-0.0018-0.0049-0.0027c-0.0006-0.0003-0.0014-0.0008-0.002-0.0011
			c-0.001-0.0006-0.002-0.0011-0.0031-0.0017c-0.0006-0.0003-0.0015-0.0008-0.0021-0.0012c-0.001-0.0005-0.002-0.0011-0.003-0.0016
			c-0.0005-0.0003-0.0013-0.0007-0.0017-0.0009c-0.0023-0.0012-0.0045-0.0025-0.0068-0.0037
			c-0.0002-0.0001-0.0005-0.0003-0.0007-0.0004c-0.0011-0.0006-0.0021-0.0012-0.0032-0.0018
			c-0.0006-0.0003-0.0012-0.0006-0.0018-0.001c-0.0011-0.0006-0.0022-0.0012-0.0033-0.0018
			c-0.0006-0.0003-0.001-0.0005-0.0016-0.0008c-0.0023-0.0012-0.0046-0.0025-0.0069-0.0037
			c-0.0002-0.0001-0.0005-0.0003-0.0007-0.0004c-0.0011-0.0006-0.002-0.0011-0.0031-0.0017
			c-0.0007-0.0004-0.0014-0.0007-0.0021-0.0011c-0.001-0.0005-0.002-0.0011-0.003-0.0016
			c-0.0006-0.0003-0.0011-0.0006-0.0017-0.0009c-0.0035-0.0019-0.007-0.0037-0.0105-0.0056
			c-0.0007-0.0004-0.0016-0.0008-0.0023-0.0012c-0.001-0.0005-0.002-0.0011-0.003-0.0016
			c-0.0006-0.0003-0.0011-0.0006-0.0018-0.0009c-0.0036-0.0019-0.0071-0.0038-0.0108-0.0057
			c-0.0006-0.0003-0.0013-0.0007-0.002-0.001c-0.001-0.0005-0.002-0.0011-0.003-0.0016c-0.0007-0.0004-0.0013-0.0007-0.002-0.001
			c-0.0011-0.0006-0.0021-0.0011-0.0032-0.0017c-0.0002-0.0001-0.0004-0.0002-0.0006-0.0003
			c-0.0023-0.0012-0.0045-0.0023-0.0067-0.0035c-0.0006-0.0003-0.0015-0.0008-0.0021-0.0011
			c-0.0011-0.0006-0.0021-0.0011-0.0031-0.0016c-0.0006-0.0003-0.0012-0.0006-0.0018-0.001
			c-0.0011-0.0006-0.0021-0.0011-0.0032-0.0016c-0.0004-0.0002-0.0009-0.0005-0.0013-0.0007
			c-0.0021-0.0011-0.0042-0.0022-0.0064-0.0033c-0.0006-0.0003-0.0011-0.0006-0.0018-0.0009
			c-0.0011-0.0006-0.0022-0.0011-0.0033-0.0017c-0.0005-0.0002-0.001-0.0005-0.0015-0.0008
			c-0.0012-0.0006-0.0024-0.0012-0.0036-0.0018c-0.0001-0.0001-0.0002-0.0001-0.0003-0.0002
			c-0.0024-0.0012-0.0047-0.0024-0.0071-0.0036c-0.0007-0.0004-0.0013-0.0006-0.002-0.001c-0.001-0.0005-0.002-0.001-0.0031-0.0016
			c-0.0007-0.0004-0.0013-0.0007-0.002-0.001c-0.001-0.0005-0.002-0.001-0.0031-0.0016c-0.0006-0.0003-0.0011-0.0006-0.0017-0.0009
			c-0.002-0.001-0.004-0.002-0.006-0.003c-0.0006-0.0003-0.0012-0.0006-0.0018-0.0009c-0.0011-0.0005-0.0022-0.0011-0.0032-0.0016
			c-0.0005-0.0002-0.0012-0.0006-0.0017-0.0009c-0.0011-0.0006-0.0022-0.0011-0.0034-0.0017
			c-0.0004-0.0002-0.0008-0.0004-0.0011-0.0006c-0.0024-0.0012-0.0048-0.0024-0.0072-0.0036
			c-0.0004-0.0002-0.0006-0.0003-0.001-0.0005c-0.0013-0.0006-0.0025-0.0012-0.0038-0.0019
			c-0.0004-0.0002-0.0007-0.0003-0.0011-0.0005c-0.0013-0.0006-0.0027-0.0013-0.0039-0.0019
			c-0.0001-0.0001-0.0003-0.0001-0.0004-0.0002c-0.0029-0.0014-0.0057-0.0028-0.0086-0.0042c-0.0001-0.0001,0.0001,0,0,0
			c-0.0013-0.0006-0.0026-0.0013-0.0039-0.0019c-0.0004-0.0002-0.0007-0.0003-0.0011-0.0005
			c-0.0013-0.0006-0.0026-0.0013-0.0039-0.0019c-0.0002-0.0001-0.0004-0.0002-0.0006-0.0003
			c-0.0028-0.0014-0.0055-0.0027-0.0083-0.0041c-0.0001-0.0001-0.0001,0-0.0002-0.0001c-0.0013-0.0006-0.0026-0.0012-0.0038-0.0019
			c-0.0004-0.0002-0.0007-0.0003-0.0011-0.0005c-0.0013-0.0006-0.0027-0.0013-0.004-0.0019
			c-0.0001-0.0001-0.0002-0.0001-0.0003-0.0001c-0.0043-0.0021-0.0085-0.0041-0.0128-0.0062
			c-0.0002-0.0001-0.0005-0.0002-0.0007-0.0004c-0.0014-0.0007-0.0027-0.0013-0.0041-0.0019
			c-0.0002-0.0001-0.0003-0.0002-0.0006-0.0003c-0.0042-0.002-0.0083-0.004-0.0125-0.006
			c-0.0004-0.0002-0.0005-0.0003-0.0009-0.0004c-0.0013-0.0006-0.0025-0.0012-0.0038-0.0018
			c-0.0004-0.0002-0.0007-0.0003-0.0011-0.0005c-0.0042-0.002-0.0083-0.0039-0.0125-0.0059
			c-0.0001-0.0001-0.0003-0.0002-0.0005-0.0002c-0.0014-0.0006-0.0028-0.0013-0.0042-0.0019
			c-0.0001-0.0001-0.0005-0.0003-0.0007-0.0003c-0.0042-0.0019-0.0083-0.0039-0.0125-0.0058
			c-0.0003-0.0001-0.0007-0.0003-0.001-0.0004c-0.0013-0.0006-0.0026-0.0012-0.0039-0.0018
			c-0.0004-0.0002-0.0006-0.0003-0.001-0.0005c-0.0042-0.0019-0.0083-0.0038-0.0126-0.0058
			c-0.0001-0.0001-0.0005-0.0002-0.0006-0.0003c-0.0014-0.0006-0.0027-0.0012-0.004-0.0018
			c-0.0002-0.0001-0.0005-0.0003-0.0008-0.0004c-0.0058-0.0027-0.0117-0.0053-0.0175-0.0079
			c-0.0001-0.0001-0.0004-0.0002-0.0005-0.0002c-0.006-0.0027-0.0118-0.0053-0.0178-0.0079
			c-0.0001-0.0001-0.0003-0.0002-0.0005-0.0002c-0.0059-0.0026-0.0118-0.0052-0.0178-0.0078
			c-0.0002-0.0001-0.0003-0.0002-0.0006-0.0003c-0.006-0.0026-0.012-0.0052-0.018-0.0078c-0.0001-0.0001-0.0001,0-0.0002-0.0001
			c-0.0061-0.0026-0.0122-0.0053-0.0183-0.0079l0,0c-0.0246-0.0105-0.0492-0.0208-0.074-0.0308h-0.0001
			c-0.0015-0.0006-0.0031-0.0012-0.0046-0.0019l0,0c-0.0062-0.0025-0.0124-0.005-0.0186-0.0075h-0.0001
			c-0.0124-0.0049-0.0247-0.0098-0.0372-0.0146c-0.0001,0-0.0002-0.0001-0.0003-0.0001c-0.0062-0.0024-0.0123-0.0048-0.0185-0.0071
			h-0.0001c-0.0062-0.0024-0.0123-0.0047-0.0185-0.007c-0.0003-0.0001-0.0003-0.0001-0.0005-0.0002
			c-0.0187-0.007-0.0375-0.014-0.0563-0.0208l-0.0002-0.0001c-0.0016-0.0006-0.003-0.0011-0.0046-0.0017
			c-0.0001,0-0.0001,0-0.0002-0.0001c-0.0046-0.0017-0.0092-0.0033-0.0138-0.0049c-0.0001,0-0.0004-0.0001-0.0005-0.0002
			c-0.0014-0.0005-0.0029-0.001-0.0043-0.0015c-0.0003-0.0001-0.0005-0.0002-0.0008-0.0003
			c-0.0045-0.0016-0.009-0.0032-0.0135-0.0048c-0.0001,0-0.0002-0.0001-0.0003-0.0001c-0.0014-0.0005-0.003-0.001-0.0044-0.0015
			c-0.0003-0.0001-0.0004-0.0001-0.0007-0.0002c-0.0045-0.0016-0.0091-0.0032-0.0136-0.0047c-0.0001,0-0.0002-0.0001-0.0004-0.0001
			c-0.0015-0.0005-0.0029-0.001-0.0044-0.0015c-0.0001,0-0.0005-0.0002-0.0006-0.0002c-0.0062-0.0021-0.0124-0.0042-0.0185-0.0063
			c-0.0001,0-0.0003-0.0001-0.0005-0.0001c-0.0046-0.0016-0.0092-0.0031-0.0138-0.0047c-0.0001,0-0.0003-0.0001-0.0004-0.0001
			c-0.0014-0.0005-0.0028-0.0009-0.0042-0.0014c-0.0004-0.0001-0.0008-0.0003-0.0012-0.0004c-0.006-0.002-0.0121-0.004-0.0181-0.006
			c-0.0004-0.0001-0.0005-0.0002-0.0009-0.0003c-0.0061-0.002-0.0121-0.004-0.0183-0.006c-0.0003-0.0001-0.0008-0.0003-0.001-0.0003
			c-0.0061-0.002-0.0121-0.0039-0.0182-0.0059c-0.0003-0.0001-0.0007-0.0002-0.0009-0.0003
			c-0.0061-0.0019-0.0121-0.0038-0.0182-0.0057c-0.0004-0.0001-0.0008-0.0003-0.0013-0.0004
			c-0.0014-0.0004-0.0028-0.0009-0.0042-0.0013l-0.0002-0.0001c-0.0046-0.0014-0.0092-0.0029-0.0138-0.0043
			c-0.0003-0.0001-0.0007-0.0002-0.0009-0.0003c-0.0014-0.0004-0.0029-0.0009-0.0043-0.0013c-0.0001,0-0.0003-0.0001-0.0004-0.0001
			c-0.0045-0.0014-0.009-0.0028-0.0136-0.0041c-0.0003-0.0001-0.0008-0.0002-0.001-0.0003
			c-0.0014-0.0004-0.0028-0.0009-0.0042-0.0013c-0.0003-0.0001-0.0004-0.0001-0.0006-0.0002
			c-0.0045-0.0014-0.009-0.0027-0.0135-0.004c-0.0004-0.0001-0.0006-0.0002-0.001-0.0003
			c-0.0015-0.0004-0.0029-0.0009-0.0043-0.0013c-0.0003-0.0001-0.0003-0.0001-0.0006-0.0002
			c-0.0044-0.0013-0.0089-0.0026-0.0133-0.0039c-0.0004-0.0001-0.0009-0.0003-0.0014-0.0004
			c-0.0013-0.0004-0.0027-0.0008-0.004-0.0012c-0.0004-0.0001-0.0007-0.0002-0.0011-0.0003
			c-0.0044-0.0013-0.0088-0.0025-0.0131-0.0038c-0.0004-0.0001-0.0007-0.0002-0.0011-0.0003
			c-0.0014-0.0004-0.0029-0.0008-0.0043-0.0012c-0.0001,0-0.0005-0.0001-0.0006-0.0002c-0.0046-0.0013-0.0091-0.0026-0.0136-0.0039
			c-0.0003-0.0001-0.0006-0.0002-0.0009-0.0002c-0.0014-0.0004-0.0029-0.0008-0.0043-0.0012
			c-0.0003-0.0001-0.0006-0.0002-0.0009-0.0002c-0.0045-0.0013-0.009-0.0025-0.0135-0.0038
			c-0.0003-0.0001-0.0006-0.0002-0.0009-0.0002c-0.0014-0.0004-0.0028-0.0008-0.0042-0.0012
			c-0.0004-0.0001-0.0006-0.0002-0.001-0.0003c-0.0043-0.0012-0.0086-0.0024-0.0129-0.0035
			c-0.0005-0.0001-0.0011-0.0003-0.0016-0.0004c-0.0013-0.0004-0.0026-0.0007-0.0039-0.0011
			c-0.0004-0.0001-0.0009-0.0002-0.0013-0.0004c-0.0014-0.0004-0.0028-0.0008-0.0043-0.0011h-0.0001
			c-0.0031-0.0008-0.0062-0.0017-0.0092-0.0025c-0.0001,0-0.0005-0.0001-0.0006-0.0002c-0.0014-0.0004-0.0028-0.0008-0.0042-0.0011
			c-0.0003-0.0001-0.0009-0.0002-0.0012-0.0003c-0.0014-0.0004-0.0028-0.0007-0.0042-0.0011c-0.0001,0-0.0004-0.0001-0.0006-0.0002
			c-0.003-0.0008-0.0059-0.0016-0.0089-0.0023c-0.0003-0.0001-0.0004-0.0001-0.0006-0.0002
			c-0.0014-0.0004-0.0027-0.0007-0.0041-0.0011c-0.0004-0.0001-0.0009-0.0002-0.0013-0.0003
			c-0.0014-0.0004-0.0028-0.0007-0.0042-0.0011c-0.0003-0.0001-0.0003-0.0001-0.0006-0.0002
			c-0.0046-0.0012-0.0092-0.0024-0.0138-0.0036c-0.0003-0.0001-0.0006-0.0002-0.0009-0.0002
			c-0.0014-0.0004-0.003-0.0008-0.0044-0.0011c-0.0003-0.0001-0.0003-0.0001-0.0006-0.0002
			c-0.0031-0.0008-0.0061-0.0016-0.0092-0.0023c-0.0001,0-0.0001,0-0.0002-0.0001c-0.0014-0.0004-0.0027-0.0007-0.0041-0.001
			c-0.0004-0.0001-0.0009-0.0002-0.0013-0.0003c-0.0014-0.0003-0.0027-0.0007-0.0041-0.001
			c-0.0004-0.0001-0.0008-0.0002-0.0012-0.0003c-0.0043-0.0011-0.0087-0.0022-0.013-0.0032
			c-0.0005-0.0001-0.001-0.0002-0.0015-0.0004c-0.0013-0.0003-0.0026-0.0006-0.0039-0.001
			c-0.0005-0.0001-0.0009-0.0002-0.0015-0.0004c-0.0029-0.0007-0.0059-0.0014-0.0089-0.0022h-0.0001
			c-0.0012-0.0003-0.0024-0.0006-0.0036-0.0009c-0.0005-0.0001-0.0014-0.0004-0.002-0.0005
			c-0.0013-0.0003-0.0024-0.0006-0.0036-0.0009c-0.0007-0.0002-0.0014-0.0003-0.0021-0.0005
			c-0.0041-0.001-0.0081-0.0019-0.0122-0.0029c-0.0007-0.0002-0.0012-0.0003-0.0019-0.0004
			c-0.0012-0.0003-0.0024-0.0006-0.0036-0.0008c-0.0008-0.0002-0.0014-0.0003-0.0022-0.0005
			c-0.004-0.0009-0.0079-0.0018-0.0119-0.0028c-0.0007-0.0002-0.0015-0.0004-0.0022-0.0005
			c-0.0012-0.0003-0.0024-0.0005-0.0036-0.0008c-0.0007-0.0002-0.0015-0.0003-0.0022-0.0005
			c-0.0012-0.0003-0.0024-0.0006-0.0036-0.0008c-0.0003-0.0001-0.0005-0.0001-0.0008-0.0002
			c-0.0026-0.0006-0.0052-0.0012-0.0078-0.0018c-0.0007-0.0002-0.0012-0.0003-0.0019-0.0004
			c-0.0012-0.0003-0.0024-0.0005-0.0037-0.0008c-0.0007-0.0002-0.0013-0.0003-0.002-0.0004
			c-0.0013-0.0003-0.0025-0.0006-0.0038-0.0009c-0.0001,0-0.0004-0.0001-0.0005-0.0001c-0.0027-0.0006-0.0055-0.0012-0.0082-0.0018
			c-0.0005-0.0001-0.0011-0.0002-0.0017-0.0004c-0.0013-0.0003-0.0025-0.0006-0.0039-0.0008
			c-0.0007-0.0001-0.0011-0.0002-0.0018-0.0004c-0.0013-0.0003-0.0026-0.0006-0.0039-0.0009
			c-0.0003-0.0001-0.0005-0.0001-0.0007-0.0002c-0.0028-0.0006-0.0056-0.0012-0.0084-0.0018
			c-0.0004-0.0001-0.0008-0.0002-0.0012-0.0003c-0.0013-0.0003-0.0026-0.0006-0.0038-0.0008
			c-0.0007-0.0001-0.0013-0.0003-0.002-0.0004c-0.0012-0.0003-0.0025-0.0005-0.0037-0.0008
			c-0.0007-0.0001-0.0012-0.0003-0.0019-0.0004c-0.0022-0.0005-0.0045-0.001-0.0067-0.0014
			c-0.0007-0.0002-0.0013-0.0003-0.0019-0.0004c-0.0013-0.0003-0.0025-0.0005-0.0037-0.0008
			c-0.0005-0.0001-0.0014-0.0003-0.002-0.0004c-0.0013-0.0003-0.0025-0.0005-0.0038-0.0008
			c-0.0004-0.0001-0.0009-0.0002-0.0013-0.0003c-0.0029-0.0006-0.0058-0.0012-0.0086-0.0018l-0.0004-0.0001
			c-0.0014-0.0003-0.0027-0.0006-0.0041-0.0008c-0.0005-0.0001-0.0011-0.0002-0.0016-0.0003
			c-0.0013-0.0003-0.0027-0.0005-0.004-0.0008c-0.0004-0.0001-0.001-0.0002-0.0014-0.0003
			c-0.0026-0.0005-0.0053-0.0011-0.0079-0.0016c-0.0004-0.0001-0.0007-0.0001-0.0012-0.0002
			c-0.0012-0.0002-0.0024-0.0005-0.0036-0.0007c-0.0007-0.0001-0.0016-0.0003-0.0023-0.0005
			c-0.0012-0.0002-0.0023-0.0005-0.0035-0.0007c-0.0007-0.0001-0.0014-0.0003-0.002-0.0004
			c-0.0022-0.0004-0.0043-0.0008-0.0064-0.0013c-0.0008-0.0002-0.0015-0.0003-0.0023-0.0005
			c-0.0011-0.0002-0.0022-0.0004-0.0033-0.0006c-0.001-0.0002-0.0016-0.0003-0.0025-0.0005
			c-0.0012-0.0002-0.0022-0.0004-0.0034-0.0007c-0.0008-0.0002-0.0018-0.0004-0.0026-0.0005
			c-0.001-0.0002-0.002-0.0004-0.003-0.0006c-0.0018-0.0003-0.0034-0.0006-0.0052-0.001c-0.0011-0.0002-0.0023-0.0004-0.0034-0.0006
			c-0.0008-0.0002-0.0016-0.0003-0.0025-0.0005c-0.0011-0.0002-0.0022-0.0004-0.0033-0.0006
			c-0.0008-0.0002-0.0018-0.0003-0.0027-0.0005c-0.001-0.0002-0.0021-0.0004-0.0031-0.0006
			c-0.0017-0.0003-0.0035-0.0007-0.0052-0.001c-0.0011-0.0002-0.0022-0.0004-0.0034-0.0006
			c-0.0008-0.0002-0.0016-0.0003-0.0024-0.0005c-0.0012-0.0002-0.0023-0.0004-0.0035-0.0006
			c-0.0008-0.0002-0.0018-0.0003-0.0026-0.0005c-0.001-0.0002-0.002-0.0004-0.0031-0.0006
			c-0.0017-0.0003-0.0036-0.0006-0.0052-0.001c-0.0011-0.0002-0.0022-0.0004-0.0032-0.0006
			c-0.0008-0.0002-0.0019-0.0003-0.0027-0.0005c-0.0011-0.0002-0.0021-0.0004-0.0032-0.0006
			c-0.0008-0.0001-0.0018-0.0003-0.0027-0.0005c-0.0011-0.0002-0.0021-0.0004-0.0032-0.0006
			c-0.0014-0.0003-0.0027-0.0005-0.0041-0.0007s-0.0027-0.0005-0.0041-0.0007c-0.001-0.0002-0.002-0.0004-0.003-0.0005
			c-0.0011-0.0002-0.002-0.0003-0.0031-0.0005c-0.001-0.0002-0.0022-0.0004-0.0031-0.0005
			c-0.0009-0.0002-0.0018-0.0003-0.0027-0.0005c-0.0014-0.0002-0.0031-0.0005-0.0045-0.0008
			c-0.0012-0.0002-0.0025-0.0004-0.0037-0.0006c-0.0011-0.0002-0.0021-0.0004-0.0032-0.0005
			c-0.001-0.0002-0.0019-0.0003-0.0029-0.0005c-0.001-0.0002-0.0021-0.0004-0.0031-0.0005
			c-0.0009-0.0002-0.0019-0.0003-0.0029-0.0005c-0.0016-0.0003-0.0028-0.0005-0.0044-0.0007
			c-0.0012-0.0002-0.0024-0.0004-0.0036-0.0006c-0.0011-0.0002-0.0023-0.0004-0.0034-0.0006
			c-0.0009-0.0002-0.002-0.0003-0.003-0.0005c-0.0011-0.0002-0.002-0.0003-0.0031-0.0005
			c-0.0009-0.0002-0.0018-0.0003-0.0027-0.0005c-0.0014-0.0002-0.0027-0.0004-0.0041-0.0007
			c-0.0012-0.0002-0.0025-0.0004-0.0037-0.0006c-0.0013-0.0002-0.0025-0.0004-0.0038-0.0006
			c-0.0009-0.0001-0.0018-0.0003-0.0027-0.0004c-0.0011-0.0002-0.0021-0.0003-0.0032-0.0005
			c-0.001-0.0002-0.0019-0.0003-0.0028-0.0004c-0.0014-0.0002-0.0028-0.0004-0.0042-0.0007
			c-0.001-0.0002-0.0019-0.0003-0.0029-0.0005c-0.0015-0.0002-0.0029-0.0005-0.0045-0.0007
			c-0.0008-0.0001-0.0017-0.0003-0.0025-0.0004c-0.0013-0.0002-0.0025-0.0004-0.0038-0.0006
			c-0.0007-0.0001-0.0015-0.0002-0.0023-0.0004c-0.0014-0.0002-0.0026-0.0004-0.004-0.0006
			c-0.0012-0.0002-0.0026-0.0004-0.0038-0.0006c-0.0013-0.0002-0.0026-0.0004-0.0039-0.0006
			c-0.0009-0.0001-0.0018-0.0003-0.0027-0.0004c-0.0011-0.0002-0.0024-0.0004-0.0035-0.0005
			c-0.0008-0.0001-0.0017-0.0003-0.0025-0.0004c-0.0014-0.0002-0.0024-0.0004-0.0039-0.0006
			c-0.0012-0.0002-0.0024-0.0004-0.0036-0.0005c-0.0014-0.0002-0.0027-0.0004-0.0041-0.0006
			c-0.001-0.0001-0.0019-0.0003-0.0029-0.0004c-0.001-0.0001-0.0023-0.0003-0.0033-0.0005
			c-0.0009-0.0001-0.0018-0.0003-0.0027-0.0004c-0.0013-0.0002-0.0025-0.0004-0.0038-0.0005
			c-0.0009-0.0001-0.0016-0.0002-0.0025-0.0004c-0.0018-0.0003-0.0035-0.0005-0.0054-0.0008
			c-0.0009-0.0001-0.0018-0.0003-0.0028-0.0004s-0.0023-0.0003-0.0033-0.0005c-0.001-0.0001-0.0019-0.0003-0.0028-0.0004
			c-0.0011-0.0002-0.0025-0.0003-0.0036-0.0005c-0.0008-0.0001-0.0017-0.0002-0.0025-0.0003
			c-0.002-0.0003-0.0036-0.0005-0.0056-0.0008c-0.0007-0.0001-0.0016-0.0002-0.0023-0.0003
			c-0.0013-0.0002-0.0025-0.0003-0.0038-0.0005c-0.0008-0.0001-0.0016-0.0002-0.0024-0.0003
			c-0.0013-0.0002-0.0027-0.0004-0.004-0.0005c-0.0007-0.0001-0.0015-0.0002-0.0023-0.0003
			c-0.002-0.0003-0.0036-0.0005-0.0056-0.0007c-0.0008-0.0001-0.0016-0.0002-0.0024-0.0003
			c-0.0013-0.0002-0.0023-0.0003-0.0036-0.0005c-0.0009-0.0001-0.0018-0.0002-0.0027-0.0004
			c-0.0013-0.0002-0.0023-0.0003-0.0036-0.0005c-0.0009-0.0001-0.0017-0.0002-0.0026-0.0003
			c-0.0017-0.0002-0.0037-0.0005-0.0054-0.0007c-0.001-0.0001-0.0019-0.0002-0.0028-0.0004
			c-0.0011-0.0001-0.0022-0.0003-0.0033-0.0004c-0.0009-0.0001-0.0018-0.0002-0.0027-0.0003
			c-0.0013-0.0002-0.0024-0.0003-0.0037-0.0005c-0.0009-0.0001-0.0016-0.0002-0.0025-0.0003
			c-0.0018-0.0002-0.0038-0.0005-0.0057-0.0007c-0.0007-0.0001-0.0014-0.0002-0.0021-0.0003
			c-0.0013-0.0002-0.0026-0.0003-0.0039-0.0005c-0.0009-0.0001-0.0017-0.0002-0.0026-0.0003
			c-0.0013-0.0002-0.0025-0.0003-0.0037-0.0004c-0.0008-0.0001-0.0016-0.0002-0.0025-0.0003
			c-0.0018-0.0002-0.0038-0.0005-0.0057-0.0007c-0.0007-0.0001-0.0014-0.0002-0.0021-0.0002
			c-0.0013-0.0001-0.0028-0.0003-0.004-0.0005c-0.0008-0.0001-0.0016-0.0002-0.0025-0.0003
			c-0.0013-0.0001-0.0027-0.0003-0.004-0.0005c-0.0007-0.0001-0.0015-0.0002-0.0023-0.0003
			c-0.0018-0.0002-0.004-0.0005-0.0058-0.0007c-0.0005-0.0001-0.0011-0.0001-0.0016-0.0002
			c-0.0016-0.0002-0.0029-0.0003-0.0045-0.0005c-0.0008-0.0001-0.0016-0.0002-0.0024-0.0003
			c-0.0013-0.0001-0.0026-0.0003-0.0039-0.0004c-0.0008-0.0001-0.0016-0.0002-0.0025-0.0003
			c-0.0016-0.0002-0.0031-0.0003-0.0047-0.0005c-0.0009-0.0001-0.0018-0.0002-0.0026-0.0003
			c-0.0016-0.0002-0.003-0.0003-0.0046-0.0005c-0.0007-0.0001-0.0015-0.0002-0.0022-0.0002
			c-0.0014-0.0002-0.0026-0.0003-0.0041-0.0004c-0.0008-0.0001-0.0016-0.0002-0.0024-0.0002
			c-0.0016-0.0002-0.003-0.0003-0.0046-0.0005c-0.0009-0.0001-0.0017-0.0002-0.0026-0.0003
			c-0.0016-0.0002-0.003-0.0003-0.0046-0.0005c-0.0009-0.0001-0.0018-0.0002-0.0028-0.0003
			c-0.0011-0.0001-0.0024-0.0002-0.0036-0.0004c-0.0009-0.0001-0.0017-0.0002-0.0025-0.0003
			c-0.0016-0.0002-0.0028-0.0003-0.0044-0.0004c-0.0007-0.0001-0.0013-0.0001-0.002-0.0002
			c-0.0019-0.0002-0.0038-0.0004-0.0057-0.0005c-0.0006-0.0001-0.0013-0.0001-0.002-0.0002
			c-0.0014-0.0001-0.0029-0.0003-0.0043-0.0004c-0.0007-0.0001-0.0015-0.0001-0.0023-0.0002
			c-0.0016-0.0001-0.0031-0.0003-0.0047-0.0004c-0.0005,0-0.001-0.0001-0.0014-0.0001c-0.0019-0.0002-0.0041-0.0004-0.0059-0.0005
			c-0.0007-0.0001-0.0015-0.0001-0.0022-0.0002c-0.0014-0.0001-0.0027-0.0002-0.0042-0.0004
			c-0.0007-0.0001-0.0015-0.0001-0.0022-0.0002c-0.0016-0.0001-0.0029-0.0003-0.0045-0.0004
			c-0.0006-0.0001-0.0011-0.0001-0.0017-0.0001c-0.002-0.0002-0.004-0.0004-0.0061-0.0005c-0.0005,0-0.0011-0.0001-0.0017-0.0001
			c-0.0014-0.0001-0.0032-0.0003-0.0046-0.0004c-0.0006-0.0001-0.0014-0.0001-0.0021-0.0002
			c-0.0017-0.0002-0.0032-0.0003-0.0049-0.0004c-0.0005,0-0.0008-0.0001-0.0013-0.0001c-0.002-0.0002-0.0041-0.0003-0.0061-0.0005
			c-0.0006-0.0001-0.0013-0.0001-0.0019-0.0002c-0.0016-0.0001-0.0029-0.0002-0.0045-0.0004
			c-0.0007-0.0001-0.0014-0.0001-0.0021-0.0002c-0.0016-0.0001-0.0029-0.0002-0.0045-0.0004c-0.0007,0-0.0012-0.0001-0.0019-0.0001
			c-0.002-0.0002-0.004-0.0003-0.0061-0.0005c-0.0005,0-0.0011-0.0001-0.0016-0.0001c-0.0016-0.0001-0.0031-0.0002-0.0047-0.0004
			c-0.0008-0.0001-0.0015-0.0001-0.0022-0.0002c-0.0014-0.0001-0.0028-0.0002-0.0043-0.0003c-0.0007,0-0.0013-0.0001-0.002-0.0001
			c-0.002-0.0001-0.004-0.0003-0.006-0.0004c-0.0005,0-0.0012-0.0001-0.0017-0.0001c-0.0016-0.0001-0.0031-0.0002-0.0047-0.0003
			c-0.0006,0-0.0014-0.0001-0.0021-0.0001c-0.0014-0.0001-0.0029-0.0002-0.0044-0.0003c-0.0007,0-0.0013-0.0001-0.002-0.0001
			c-0.002-0.0001-0.004-0.0003-0.006-0.0004c-0.0005,0-0.0009-0.0001-0.0014-0.0001c-0.0017-0.0001-0.0032-0.0002-0.005-0.0003
			c-0.0007,0-0.0014-0.0001-0.0021-0.0001c-0.0014-0.0001-0.0029-0.0002-0.0044-0.0003c-0.0007,0-0.0013-0.0001-0.002-0.0001
			c-0.002-0.0001-0.004-0.0003-0.006-0.0004c-0.0005,0-0.001-0.0001-0.0015-0.0001c-0.0016-0.0001-0.0033-0.0002-0.0049-0.0003
			c-0.0007,0-0.0013-0.0001-0.002-0.0001c-0.0014-0.0001-0.0031-0.0002-0.0045-0.0003c-0.0006,0-0.0012-0.0001-0.0019-0.0001
			c-0.0022-0.0001-0.0041-0.0002-0.0063-0.0004c-0.0001,0-0.0002,0-0.0003,0c-0.0019-0.0001-0.0042-0.0002-0.006-0.0004
			c-0.0006,0-0.0012-0.0001-0.0018-0.0001c-0.0016-0.0001-0.0031-0.0002-0.0047-0.0003c-0.0006,0-0.0012-0.0001-0.0018-0.0001
			c-0.0022-0.0001-0.004-0.0002-0.0061-0.0003c-0.0002,0-0.0004,0-0.0006,0c-0.0019-0.0001-0.0039-0.0002-0.0058-0.0003
			c-0.0007,0-0.0013-0.0001-0.002-0.0001c-0.0015-0.0001-0.0029-0.0001-0.0043-0.0002c-0.0007,0-0.0015-0.0001-0.0022-0.0001
			c-0.0017-0.0001-0.0037-0.0002-0.0054-0.0003c-0.0003,0-0.0006,0-0.0009,0c-0.0022-0.0001-0.004-0.0002-0.0062-0.0003
			c-0.0006,0-0.0012-0.0001-0.0018-0.0001c-0.0014-0.0001-0.0031-0.0001-0.0046-0.0002c-0.0007,0-0.0013-0.0001-0.002-0.0001
			c-0.0017-0.0001-0.0037-0.0002-0.0055-0.0002c-0.0003,0-0.0006,0-0.0008,0c-0.0022-0.0001-0.0042-0.0002-0.0063-0.0003
			c-0.0005,0-0.0011,0-0.0016-0.0001c-0.0018-0.0001-0.0032-0.0001-0.0049-0.0002c-0.0006,0-0.0012,0-0.0018-0.0001
			c-0.0019-0.0001-0.004-0.0002-0.0059-0.0002c-0.0002,0-0.0003,0-0.0004,0c-0.0022-0.0001-0.0043-0.0002-0.0065-0.0002
			c-0.0005,0-0.001,0-0.0015-0.0001c-0.0018-0.0001-0.0032-0.0001-0.0049-0.0002c-0.0006,0-0.0012,0-0.0018-0.0001
			c-0.0017-0.0001-0.0034-0.0001-0.0051-0.0002c-0.0004,0-0.0008,0-0.0013,0c-0.002-0.0001-0.0043-0.0001-0.0063-0.0002
			c-0.0005,0-0.001,0-0.0016-0.0001c-0.0014,0-0.0033-0.0001-0.0047-0.0002c-0.0007,0-0.0015,0-0.0022-0.0001
			c-0.0018-0.0001-0.0033-0.0001-0.005-0.0002c-0.0004,0-0.0008,0-0.0012,0c-0.002-0.0001-0.0043-0.0001-0.0063-0.0002
			c-0.0005,0-0.001,0-0.0015,0c-0.0016,0-0.0033-0.0001-0.0049-0.0001c-0.0007,0-0.0014,0-0.002-0.0001
			c-0.0016,0-0.003-0.0001-0.0046-0.0001c-0.0007,0-0.0013,0-0.0019,0c-0.002-0.0001-0.0042-0.0001-0.0062-0.0001
			c-0.0004,0-0.0009,0-0.0014,0c-0.0018,0-0.0033-0.0001-0.005-0.0001c-0.0007,0-0.0014,0-0.002,0
			c-0.0017,0-0.0031-0.0001-0.0049-0.0001c-0.0005,0-0.001,0-0.0015,0c-0.0021,0-0.0043-0.0001-0.0064-0.0001
			c-0.0003,0-0.0007,0-0.0011,0c-0.0018,0-0.0036-0.0001-0.0053-0.0001c-0.0006,0-0.0012,0-0.0018,0
			c-0.0016,0-0.0033-0.0001-0.0049-0.0001c-0.0005,0-0.0011,0-0.0016,0c-0.0022,0-0.0042-0.0001-0.0064-0.0001
			c-0.0003,0-0.0007,0-0.0009,0c-0.0017,0-0.0035,0-0.0053-0.0001c-0.0008,0-0.0014,0-0.0022,0c-0.0016,0-0.0031,0-0.0047-0.0001
			c-0.0005,0-0.001,0-0.0016,0c-0.0022,0-0.0043,0-0.0065-0.0001c-0.0001,0-0.0003,0-0.0004,0c-0.0019,0-0.0039,0-0.0058-0.0001
			c-0.0007,0-0.0014,0-0.0021,0c-0.0015,0-0.003,0-0.0045,0c-0.0007,0-0.0014,0-0.0021,0c-0.002,0-0.0042,0-0.0063,0
			c0,0-0.0001,0-0.0002,0c-0.0021,0-0.004,0-0.006,0c-0.0007,0-0.0014,0-0.0021,0c-0.0015,0-0.0031,0-0.0045,0
			c-0.0007,0-0.0013,0-0.002,0C205.7979,55.9833,205.7957,55.9833,205.7937,55.9833L205.7937,55.9833z" style="fill: url(#SVGID_16_);"></path>
	</g>

		<linearGradient id="SVGID_17_" gradientUnits="userSpaceOnUse" x1="91.1362" y1="118.1314" x2="183.1023" y2="118.1314" gradientTransform="matrix(1 0 0 -1 0 166)">
		<stop offset="0" style="stop-color:#FFFFFF"></stop>
		<stop offset="1" style="stop-color:#FFFFFF"></stop>
	</linearGradient>
	<path class="st64" d="M181.299,49.6719H92.9395c-0.9959,0-1.8033-0.8073-1.8033-1.8033l0,0c0-0.9959,0.8073-1.8033,1.8033-1.8033
		h88.3595c0.9959,0,1.8033,0.8073,1.8033,1.8033l0,0C183.1023,48.8645,182.295,49.6719,181.299,49.6719z" style="fill: url(#SVGID_17_);"></path>

		<linearGradient id="SVGID_18_" gradientUnits="userSpaceOnUse" x1="189.4137" y1="118.5822" x2="193.9219" y2="118.5822" gradientTransform="matrix(1 0 0 -1 0 166)">
		<stop offset="0" style="stop-color:#D6E0E8"></stop>
		<stop offset="1" style="stop-color:#DDE5ED"></stop>
	</linearGradient>
	<circle class="st65" cx="191.6678" cy="47.4178" r="2.2541" style="fill: url(#SVGID_18_);"></circle>

		<linearGradient id="SVGID_19_" gradientUnits="userSpaceOnUse" x1="197.5283" y1="118.5822" x2="202.0365" y2="118.5822" gradientTransform="matrix(1 0 0 -1 0 166)">
		<stop offset="0" style="stop-color:#D6E0E8"></stop>
		<stop offset="1" style="stop-color:#DDE5ED"></stop>
	</linearGradient>
	<circle class="st66" cx="199.7824" cy="47.4178" r="2.2541" style="fill: url(#SVGID_19_);"></circle>

		<linearGradient id="SVGID_20_" gradientUnits="userSpaceOnUse" x1="205.4166" y1="118.5822" x2="209.9248" y2="118.5822" gradientTransform="matrix(1 0 0 -1 0 166)">
		<stop offset="0" style="stop-color:#D6E0E8"></stop>
		<stop offset="1" style="stop-color:#DDE5ED"></stop>
	</linearGradient>
	<circle class="st67" cx="207.6707" cy="47.4178" r="2.2541" style="fill: url(#SVGID_20_);"></circle>
	<g>

			<radialGradient id="SVGID_21_" cx="158.5954" cy="63.7271" r="21.3147" gradientTransform="matrix(1 0 0 -1.014 0 167.8183)" gradientUnits="userSpaceOnUse">
			<stop offset="0" style="stop-color:#3A68A2;stop-opacity:0.7"></stop>
			<stop offset="0.0417" style="stop-color:#3A68A0;stop-opacity:0.6791"></stop>
			<stop offset="0.5793" style="stop-color:#3C6891;stop-opacity:0.4104"></stop>
			<stop offset="1" style="stop-color:#3C688B;stop-opacity:0.2"></stop>
		</radialGradient>
		<path class="st68" d="M170.6745,120.2h-30.1333c-1.8491,0-3.3481-1.499-3.3481-3.3482V76.6741h28.4391l8.3905,8.7889v31.3889
			C174.0226,118.701,172.5236,120.2,170.6745,120.2z" style="opacity: 0.7;fill: url(#SVGID_21_);enable-background: new    ;"></path>
		<g>
			<g>

					<linearGradient id="SVGID_22_" gradientUnits="userSpaceOnUse" x1="132.6627" y1="51.4538" x2="166.0005" y2="84.7918" gradientTransform="matrix(1 0 0 -1 0 166)">
					<stop offset="0" style="stop-color:#09BDF8"></stop>
					<stop offset="1" style="stop-color:#1591D4"></stop>
				</linearGradient>
				<path class="st69" d="M159.7227,74.9304h-23.437c-1.8491,0-3.3481,1.499-3.3481,3.3482v35.1556
					c0,1.8491,1.499,3.3482,3.3481,3.3482h30.1333c1.8491,0,3.3482-1.499,3.3482-3.3482V84.9749L159.7227,74.9304z" style="fill: url(#SVGID_22_);"></path>

					<linearGradient id="SVGID_23_" gradientUnits="userSpaceOnUse" x1="160.213" y1="81.5155" x2="164.745" y2="86.0474" gradientTransform="matrix(1 0 0 -1 0 166)">
					<stop offset="0" style="stop-color:#2651A1"></stop>
					<stop offset="1" style="stop-color:#1E3C74"></stop>
				</linearGradient>
				<path class="st70" d="M161.3967,84.9749h8.3704l-10.0444-10.0444v8.3704C159.7227,84.2253,160.4722,84.9749,161.3967,84.9749z" style="fill: url(#SVGID_23_);"></path>
			</g>
		</g>
	</g>

		<linearGradient id="SVGID_24_" gradientUnits="userSpaceOnUse" x1="144.3651" y1="101.6945" x2="144.3651" y2="133.1038" gradientTransform="matrix(1 0 0 -1 0 166)">
		<stop offset="0" style="stop-color:#FFCB5D"></stop>
		<stop offset="1" style="stop-color:#FFA961"></stop>
	</linearGradient>
	<path class="st71" d="M135.9688,52.1102l19.9658-0.0872l-9.9294,12.2825L135.9688,52.1102z M142.1244,49.3236
		c0.0041,0.9395-0.0817,1.8564-0.2074,2.7606l8.4984-0.0371c-0.044-10.0672-7.7834-18.2934-17.6198-19.1509
		C138.3553,36.2671,142.0939,42.3459,142.1244,49.3236z" style="fill: url(#SVGID_24_);"></path>

		<linearGradient id="SVGID_25_" gradientUnits="userSpaceOnUse" x1="119.821" y1="88.5422" x2="135.2626" y2="103.9838" gradientTransform="matrix(1 0 0 -1 0 166)">
		<stop offset="0" style="stop-color:#C9D3E6"></stop>
		<stop offset="0.9984" style="stop-color:#EDF0F6"></stop>
	</linearGradient>
	<path class="st72" d="M129.1516,73.0955l-6.6378-5.6031l1.771-1.7709l5.603,6.6378L129.1516,73.0955z M127.6362,76.0496
		l-8.4346-2.0767l-0.3918,2.4737l8.6636,0.6314L127.6362,76.0496z M133.8704,70.6809l-0.6313-8.6635l-2.4737,0.3918l2.0767,8.4346
		L133.8704,70.6809z" style="fill: url(#SVGID_25_);"></path>
	<g>
		<path class="st37" d="M137.87,95.6367h2.682c2.2488,0,3.7738,1.4924,3.7738,3.6118s-1.525,3.6012-3.7738,3.6012h-2.682V95.6367z
			 M140.552,101.7359c1.5682,0,2.476-1.1244,2.476-2.4874c0-1.3947-0.8646-2.498-2.476-2.498h-1.4167v4.9854H140.552z" style="fill: #FFFFFF;"></path>
		<path class="st37" d="M145.1949,100.2329c0-1.4924,1.0267-2.7357,2.6811-2.7357c1.6765,0,2.6926,1.2433,2.6926,2.7357
			c0,1.503-1.0161,2.7463-2.6926,2.7463C146.2215,102.9791,145.1949,101.7359,145.1949,100.2329z M149.3904,100.2329
			c0-0.9192-0.5406-1.7302-1.5145-1.7302c-0.9624,0-1.503,0.8109-1.503,1.7302c0,0.9298,0.5406,1.7407,1.503,1.7407
			C148.8498,101.9736,149.3904,101.1627,149.3904,100.2329z" style="fill: #FFFFFF;"></path>
		<path class="st37" d="M155.244,99.584c0-0.8109-0.4112-1.0813-1.0487-1.0813c-0.5847,0-1.0821,0.346-1.341,0.7026v3.6444h-1.1358
			v-5.2231h1.1358v0.7132c0.346-0.4103,1.0161-0.8426,1.8376-0.8426c1.1253,0,1.687,0.6049,1.687,1.6756v3.6769h-1.1349
			L155.244,99.584L155.244,99.584z" style="fill: #FFFFFF;"></path>
		<path class="st37" d="M160.1791,97.4972c1.5673,0,2.5737,1.2001,2.5737,2.844v0.2703h-4.0336
			c0.0863,0.7889,0.6806,1.4379,1.665,1.4379c0.508,0,1.1138-0.2052,1.481-0.5732l0.5195,0.7458
			c-0.5195,0.4975-1.2864,0.7572-2.1194,0.7572c-1.5682,0-2.7357-1.0918-2.7357-2.7463
			C157.5297,98.7184,158.6321,97.4972,160.1791,97.4972z M158.7078,99.8111h2.9417c-0.022-0.6163-0.4438-1.3841-1.4704-1.3841
			C159.2053,98.427,158.7624,99.1728,158.7078,99.8111z" style="fill: #FFFFFF;"></path>
		<path class="st37" d="M164.4636,101.4541c0.4112,0,0.7572,0.346,0.7572,0.7572c0,0.4006-0.346,0.7467-0.7572,0.7467
			c-0.4103,0-0.7458-0.346-0.7458-0.7467C163.7178,101.8002,164.0533,101.4541,164.4636,101.4541z M163.7716,95.6367h1.3841
			l-0.1946,5.0065h-0.9835L163.7716,95.6367z" style="fill: #FFFFFF;"></path>
	</g>

		<linearGradient id="SVGID_26_" gradientUnits="userSpaceOnUse" x1="214.4329" y1="72.6573" x2="223.9019" y2="72.6573" gradientTransform="matrix(1 0 0 -1 0 166)">
		<stop offset="0" style="stop-color:#919FB9;stop-opacity:0.1"></stop>
		<stop offset="0.1914" style="stop-color:#95A3BC;stop-opacity:0.0809"></stop>
		<stop offset="0.392" style="stop-color:#A2AEC4;stop-opacity:0.0608"></stop>
		<stop offset="0.5968" style="stop-color:#B7C0D1;stop-opacity:0.0403"></stop>
		<stop offset="0.8031" style="stop-color:#D4DAE4;stop-opacity:0.0197"></stop>
		<stop offset="1" style="stop-color:#F7F9FB;stop-opacity:0"></stop>
	</linearGradient>
	<rect x="214.4329" y="60.8961" class="st73" width="9.469" height="64.8931" style="opacity: 0.7;fill: url(#SVGID_26_);enable-background: new    ;"></rect>
</g>
</svg>