<!-- Generator: Adobe Illustrator 24.3.0, SVG Export PlugIn . SVG Version: 6.00 Build 0)  --><svg version="1.1" id="Layer_1" xmlns="http://www.w3.org/2000/svg" xmlns:xlink="http://www.w3.org/1999/xlink" x="0px" y="0px" viewBox="0 0 280 165" style="enable-background:new 0 0 280 165;" xml:space="preserve">
<style type="text/css">
	.st0{opacity:0.75;}
	.st1{fill:url(#SVGID_1_);}
	.st2{fill:url(#SVGID_2_);}
	.st3{fill:url(#SVGID_3_);}
	.st4{fill:url(#SVGID_4_);}
	.st5{fill:url(#SVGID_5_);}
	.st6{fill:url(#SVGID_6_);}
	.st7{fill:url(#SVGID_7_);}
	.st8{opacity:0.4;fill:url(#SVGID_8_);enable-background:new    ;}
	.st9{fill:url(#SVGID_9_);}
	.st10{fill:url(#SVGID_10_);}
	.st11{fill:#FFFFFF;}
	.st12{fill:url(#SVGID_11_);}
	.st13{fill:url(#SVGID_12_);}
	.st14{fill:url(#SVGID_13_);}
	.st15{fill:none;stroke:url(#SVGID_14_);stroke-width:2.8837;stroke-miterlimit:10;stroke-dasharray:8.651,2.8837;}
	.st16{display:none;}
	.st17{display:inline;opacity:0.2;fill:url(#SVGID_15_);enable-background:new    ;}
	.st18{display:inline;opacity:0.3;fill:url(#SVGID_16_);enable-background:new    ;}
	.st19{display:inline;opacity:0.3;fill:url(#SVGID_17_);enable-background:new    ;}
	.st20{opacity:0.3;fill:url(#SVGID_18_);enable-background:new    ;}
	.st21{fill:url(#SVGID_19_);}
	.st22{fill:url(#SVGID_20_);}
	.st23{fill:url(#SVGID_21_);}
	.st24{opacity:0.7;fill:url(#SVGID_22_);enable-background:new    ;}
	.st25{fill:url(#SVGID_23_);}
	.st26{fill:url(#SVGID_24_);}
	.st27{fill:url(#SVGID_25_);}
	.st28{fill:url(#SVGID_26_);}
	.st29{fill:url(#SVGID_27_);}
	.st30{fill:url(#SVGID_28_);}
	.st31{fill:url(#SVGID_29_);}
	.st32{fill:url(#SVGID_30_);}
	.st33{fill:url(#SVGID_31_);}
	.st34{fill:url(#SVGID_32_);}
	.st35{fill:url(#SVGID_33_);}
	.st36{fill:url(#SVGID_34_);}
	.st37{fill:url(#SVGID_35_);}
	.st38{fill:url(#SVGID_36_);}
	.st39{fill:url(#SVGID_37_);}
	.st40{fill:url(#SVGID_38_);}
	.st41{fill:url(#SVGID_39_);}
	.st42{fill:url(#SVGID_40_);}
	.st43{fill:url(#SVGID_41_);}
	.st44{fill:url(#SVGID_42_);}
</style>
<g>
	<g>
		<g class="st0" style="opacity: 0.75;">
			
				<linearGradient id="SVGID_1_" gradientUnits="userSpaceOnUse" x1="113.0649" y1="131.0418" x2="163.1032" y2="131.0418" gradientTransform="matrix(0.9999 0.0136 0.0136 -0.9999 -0.2222 157.8138)">
				<stop offset="0" style="stop-color:#E8ECF3"></stop>
				<stop offset="0.9987" style="stop-color:#DDE5ED"></stop>
			</linearGradient>
			<circle class="st1" cx="139.6302" cy="28.663" r="25.0189" style="fill: url(#SVGID_1_);"></circle>
			
				<linearGradient id="SVGID_2_" gradientUnits="userSpaceOnUse" x1="81.4966" y1="119.8122" x2="144.0195" y2="119.8122" gradientTransform="matrix(0.9251 6.501843e-06 -6.893269e-06 -1 43.4334 165.7436)">
				<stop offset="0" style="stop-color:#F0F4F7"></stop>
				<stop offset="1" style="stop-color:#E7EDF3"></stop>
			</linearGradient>
			<rect x="118.8252" y="32.0467" class="st2" width="57.8397" height="27.7709" style="fill: url(#SVGID_2_);"></rect>
			
				<linearGradient id="SVGID_3_" gradientUnits="userSpaceOnUse" x1="101.7712" y1="133.819" x2="130.6716" y2="105.6944" gradientTransform="matrix(0.9999 0.0136 0.0136 -0.9999 -0.2222 157.8138)">
				<stop offset="0" style="stop-color:#DDE6ED"></stop>
				<stop offset="1" style="stop-color:#EDF1F5"></stop>
			</linearGradient>
			<circle class="st3" cx="117.6163" cy="39.6497" r="20.1631" style="fill: url(#SVGID_3_);"></circle>
			
				<linearGradient id="SVGID_4_" gradientUnits="userSpaceOnUse" x1="162.8354" y1="104.8662" x2="184.9332" y2="127.5735" gradientTransform="matrix(0.9999 0.0136 0.0136 -0.9999 -0.2222 157.8138)">
				<stop offset="0" style="stop-color:#E7EDF3"></stop>
				<stop offset="1" style="stop-color:#F3F6F8"></stop>
			</linearGradient>
			<circle class="st4" cx="175.2253" cy="43.9704" r="15.8424" style="fill: url(#SVGID_4_);"></circle>
			
				<linearGradient id="SVGID_5_" gradientUnits="userSpaceOnUse" x1="154.454" y1="125.0074" x2="172.6559" y2="143.7114" gradientTransform="matrix(0.9999 0.0136 0.0136 -0.9999 -0.2222 157.8138)">
				<stop offset="0" style="stop-color:#E7EDF3"></stop>
				<stop offset="1" style="stop-color:#F3F6F8"></stop>
			</linearGradient>
			<circle class="st5" cx="165.1437" cy="25.6922" r="13.0493" style="fill: url(#SVGID_5_);"></circle>
		</g>
		
			<linearGradient id="SVGID_6_" gradientUnits="userSpaceOnUse" x1="143.6698" y1="93.7269" x2="143.6698" y2="143.3671" gradientTransform="matrix(1 0 0 -1 0 166)">
			<stop offset="0" style="stop-color:#FFFFFF"></stop>
			<stop offset="1" style="stop-color:#FFFFFF;stop-opacity:0"></stop>
		</linearGradient>
		<rect x="97.4531" y="22.6329" class="st6" width="92.4335" height="49.6402" style="fill: url(#SVGID_6_);"></rect>
	</g>
	
		<linearGradient id="SVGID_7_" gradientUnits="userSpaceOnUse" x1="140" y1="86.499" x2="140" y2="6.0031" gradientTransform="matrix(1 0 0 -1 0 166)">
		<stop offset="0.0016" style="stop-color:#FAFBFD"></stop>
		<stop offset="1" style="stop-color:#EFF1F7"></stop>
	</linearGradient>
	<path class="st7" d="M38.655,81.2433c-26.891,12.7642-31.5366,74.5456,28.5486,74.5456c109.9231,0,90.2865,7.0188,143.995,7.0188
		c57.8696,0,57.7494-29.0731,34.6675-41.5038c-12.1366-6.5362-34.1644-4.7651-53.6718-8.4411
		C105.1858,96.4664,87.7815,57.9246,38.655,81.2433z" style="fill: url(#SVGID_7_);"></path>
	
		<radialGradient id="SVGID_8_" cx="14.6376" cy="-530.2501" r="77.7901" gradientTransform="matrix(1.2016 0 0 -0.1148 130.2934 82.8055)" gradientUnits="userSpaceOnUse">
		<stop offset="0" style="stop-color:#919FB9;stop-opacity:0.6"></stop>
		<stop offset="0.1914" style="stop-color:#95A3BC;stop-opacity:0.4852"></stop>
		<stop offset="0.392" style="stop-color:#A2AEC4;stop-opacity:0.3648"></stop>
		<stop offset="0.5968" style="stop-color:#B7C0D1;stop-opacity:0.2419"></stop>
		<stop offset="0.8031" style="stop-color:#D4DAE4;stop-opacity:0.1181"></stop>
		<stop offset="1" style="stop-color:#F7F9FB;stop-opacity:0"></stop>
	</radialGradient>
	<path class="st8" d="M248.8017,146.2701c0,5.2715-45.1833,4.2885-100.9198,4.2885s-100.9198,0.983-100.9198-4.2885
		s45.1833-9.5448,100.9198-9.5448S248.8017,140.9986,248.8017,146.2701z" style="opacity: 0.4;fill: url(#SVGID_8_);enable-background: new    ;"></path>
	<g>
		
			<linearGradient id="SVGID_9_" gradientUnits="userSpaceOnUse" x1="143.1037" y1="25.5998" x2="143.1037" y2="95.8544" gradientTransform="matrix(1 0 0 -1 0 166)">
			<stop offset="0" style="stop-color:#F2F6F8"></stop>
			<stop offset="0.3998" style="stop-color:#ECF1F6"></stop>
			<stop offset="0.9107" style="stop-color:#DDE3EF"></stop>
			<stop offset="1" style="stop-color:#D9E0EE"></stop>
		</linearGradient>
		<path class="st9" d="M203.9493,140.4002H82.2582v-66.491c0-2.0786,1.685-3.7636,3.7636-3.7636h114.1638
			c2.0786,0,3.7636,1.685,3.7636,3.7636L203.9493,140.4002L203.9493,140.4002z" style="fill: url(#SVGID_9_);"></path>
		
			<linearGradient id="SVGID_10_" gradientUnits="userSpaceOnUse" x1="143.1038" y1="26.8543" x2="143.1038" y2="90.8363" gradientTransform="matrix(1 0 0 -1 0 166)">
			<stop offset="0" style="stop-color:#F3F6F8"></stop>
			<stop offset="0.0444" style="stop-color:#F3F6F8"></stop>
			<stop offset="1" style="stop-color:#F9FCFE"></stop>
		</linearGradient>
		<path class="st10" d="M201.4402,139.1457H84.7673V77.6728c0-1.3857,1.1234-2.5091,2.5091-2.5091h111.6547
			c1.3857,0,2.5091,1.1234,2.5091,2.5091V139.1457z" style="fill: url(#SVGID_10_);"></path>
		<g>
			<path class="st11" d="M196.7429,138.7564H89.4645c-1.2085,0-2.1881-0.9797-2.1881-2.1882V79.3747
				c0-1.2085,0.9797-2.1881,2.1881-2.1881h107.2784c1.2085,0,2.1882,0.9797,2.1882,2.1881v57.1936
				C198.9311,137.7768,197.9514,138.7564,196.7429,138.7564z" style="fill: #FFFFFF;"></path>
			
				<linearGradient id="SVGID_11_" gradientUnits="userSpaceOnUse" x1="143.1037" y1="27.2436" x2="143.1037" y2="88.8135" gradientTransform="matrix(1 0 0 -1 0 166)">
				<stop offset="0" style="stop-color:#EBF0F5"></stop>
				<stop offset="1" style="stop-color:#DAE3EE"></stop>
			</linearGradient>
			<path class="st12" d="M196.7429,78.0566c0.7268,0,1.318,0.5913,1.318,1.3181v57.1936c0,0.7268-0.5913,1.318-1.318,1.318H89.4645
				c-0.7268,0-1.3181-0.5912-1.3181-1.318V79.3747c0-0.7268,0.5913-1.3181,1.3181-1.3181H196.7429 M196.7429,77.1865H89.4645
				c-1.2085,0-2.1882,0.9797-2.1882,2.1882v57.1936c0,1.2085,0.9797,2.1881,2.1882,2.1881h107.2784
				c1.2085,0,2.1882-0.9797,2.1882-2.1881V79.3747C198.9311,78.1662,197.9514,77.1865,196.7429,77.1865L196.7429,77.1865z" style="fill: url(#SVGID_11_);"></path>
		</g>
		<g>
			
				<linearGradient id="SVGID_12_" gradientUnits="userSpaceOnUse" x1="71.8455" y1="22.4634" x2="213.1074" y2="22.4634" gradientTransform="matrix(1 0 0 -1 0 166)">
				<stop offset="0" style="stop-color:#E4EFF4"></stop>
				<stop offset="0.0893" style="stop-color:#E0ECF2"></stop>
				<stop offset="0.6002" style="stop-color:#D1DDE8"></stop>
				<stop offset="1" style="stop-color:#CBD8E5"></stop>
			</linearGradient>
			<path class="st13" d="M213.1074,145.4184H71.8455v-1.3331c0-1.3423,1.0882-2.4305,2.4305-2.4305h136.4008
				c1.3423,0,2.4305,1.0882,2.4305,2.4305v1.3331H213.1074z" style="fill: url(#SVGID_12_);"></path>
			
				<linearGradient id="SVGID_13_" gradientUnits="userSpaceOnUse" x1="142.4764" y1="18.9507" x2="142.4764" y2="21.8362" gradientTransform="matrix(1 0 0 -1 0 166)">
				<stop offset="0" style="stop-color:#CBD8E5"></stop>
				<stop offset="0.5958" style="stop-color:#C5D5E5"></stop>
				<stop offset="1" style="stop-color:#BED0E5"></stop>
			</linearGradient>
			<rect x="71.8455" y="144.1638" class="st14" width="141.2618" height="2.8855" style="fill: url(#SVGID_13_);"></rect>
		</g>
		
			<linearGradient id="SVGID_14_" gradientUnits="userSpaceOnUse" x1="142.4764" y1="22.9033" x2="142.4764" y2="25.7871" gradientTransform="matrix(1 0 0 -1 0 166)">
			<stop offset="0" style="stop-color:#D9E2ED"></stop>
			<stop offset="1" style="stop-color:#CBD8E5"></stop>
		</linearGradient>
		<line class="st15" x1="84.7673" y1="141.6548" x2="200.1856" y2="141.6548" style="fill: none;stroke: url(#SVGID_14_);stroke-width: 2.8837;stroke-miterlimit: 10;stroke-dasharray: 8.651,2.8837;"></line>
		<g class="st16" style="display: none;">
			
				<linearGradient id="SVGID_15_" gradientUnits="userSpaceOnUse" x1="143.1038" y1="79.5453" x2="143.1038" y2="88.3271" gradientTransform="matrix(1 0 0 -1 0 166)">
				<stop offset="0" style="stop-color:#CEDAE5"></stop>
				<stop offset="1" style="stop-color:#D6DBE6"></stop>
			</linearGradient>
			<path class="st17" d="M198.9311,86.4547H87.2764v-7.5273c0-0.6929,0.5617-1.2545,1.2545-1.2545h109.1456
				c0.6929,0,1.2545,0.5617,1.2545,1.2545v7.5273H198.9311z" style="display: inline;opacity: 0.2;fill: url(#SVGID_15_);enable-background: new    ;"></path>
			
				<linearGradient id="SVGID_16_" gradientUnits="userSpaceOnUse" x1="92.9218" y1="82.0544" x2="92.9218" y2="85.818" gradientTransform="matrix(1 0 0 -1 0 166)">
				<stop offset="0" style="stop-color:#CEDAE5"></stop>
				<stop offset="1" style="stop-color:#D6DBE6"></stop>
			</linearGradient>
			<path class="st18" d="M92.9218,83.9456L92.9218,83.9456c-1.0393,0-1.8818-0.8425-1.8818-1.8818l0,0
				c0-1.0393,0.8425-1.8818,1.8818-1.8818l0,0c1.0393,0,1.8818,0.8425,1.8818,1.8818l0,0
				C94.8036,83.1031,93.9611,83.9456,92.9218,83.9456z" style="display: inline;opacity: 0.3;fill: url(#SVGID_16_);enable-background: new    ;"></path>
			
				<linearGradient id="SVGID_17_" gradientUnits="userSpaceOnUse" x1="99.1946" y1="82.0544" x2="99.1946" y2="85.818" gradientTransform="matrix(1 0 0 -1 0 166)">
				<stop offset="0" style="stop-color:#CEDAE5"></stop>
				<stop offset="1" style="stop-color:#D6DBE6"></stop>
			</linearGradient>
			<path class="st19" d="M99.1946,83.9456L99.1946,83.9456c-1.0393,0-1.8818-0.8425-1.8818-1.8818l0,0
				c0-1.0393,0.8425-1.8818,1.8818-1.8818l0,0c1.0393,0,1.8818,0.8425,1.8818,1.8818l0,0
				C101.0764,83.1031,100.2339,83.9456,99.1946,83.9456z" style="display: inline;opacity: 0.3;fill: url(#SVGID_17_);enable-background: new    ;"></path>
		</g>
	</g>
	
		<radialGradient id="SVGID_18_" cx="-657.146" cy="-950.2053" r="95.0478" gradientTransform="matrix(0.4451 0 0 -0.0594 435.5751 70.8911)" gradientUnits="userSpaceOnUse">
		<stop offset="0" style="stop-color:#6E86B9"></stop>
		<stop offset="0.1466" style="stop-color:#738ABB;stop-opacity:0.8534"></stop>
		<stop offset="0.3242" style="stop-color:#8297C3;stop-opacity:0.6758"></stop>
		<stop offset="0.518" style="stop-color:#9AABCE;stop-opacity:0.482"></stop>
		<stop offset="0.7232" style="stop-color:#BDC8DF;stop-opacity:0.2768"></stop>
		<stop offset="0.9354" style="stop-color:#E8EDF4;stop-opacity:0.0646"></stop>
		<stop offset="1" style="stop-color:#F7F9FB;stop-opacity:0"></stop>
	</radialGradient>
	<ellipse class="st20" cx="143.0794" cy="127.3333" rx="45.6262" ry="6.0294" style="opacity: 0.3;fill: url(#SVGID_18_);enable-background: new    ;"></ellipse>
	<g>
		
			<linearGradient id="SVGID_19_" gradientUnits="userSpaceOnUse" x1="143.0794" y1="54.3432" x2="143.0794" y2="65.1961" gradientTransform="matrix(1 0 0 -1 0 166)">
			<stop offset="0" style="stop-color:#E9ECF3"></stop>
			<stop offset="0.3903" style="stop-color:#E3E9F2"></stop>
			<stop offset="0.8891" style="stop-color:#D4E0EF"></stop>
			<stop offset="1" style="stop-color:#CFDEEE"></stop>
		</linearGradient>
		<path class="st21" d="M133.989,111.6568h-4.8235l-10.8529-10.8529h4.8235L133.989,111.6568z M152.1698,111.5177h4.8235
			l10.8529-10.7137h-4.8235L152.1698,111.5177z" style="fill: url(#SVGID_19_);"></path>
		
			<linearGradient id="SVGID_20_" gradientUnits="userSpaceOnUse" x1="143.0332" y1="38.6668" x2="143.0332" y2="60.3726" gradientTransform="matrix(1 0 0 -1 0 166)">
			<stop offset="0" style="stop-color:#E9ECF3"></stop>
			<stop offset="0.4582" style="stop-color:#E3E9F1"></stop>
			<stop offset="1" style="stop-color:#D5E2EC"></stop>
		</linearGradient>
		<rect x="127.3567" y="105.6274" class="st22" width="31.3529" height="21.7058" style="fill: url(#SVGID_20_);"></rect>
		
			<linearGradient id="SVGID_21_" gradientUnits="userSpaceOnUse" x1="143.0331" y1="53.1373" x2="143.0331" y2="60.3726" gradientTransform="matrix(1 0 0 -1 0 166)">
			<stop offset="0" style="stop-color:#E9ECF3"></stop>
			<stop offset="0.9556" style="stop-color:#ECF2F5"></stop>
			<stop offset="1" style="stop-color:#ECF2F5"></stop>
		</linearGradient>
		<rect x="140.6214" y="105.6274" class="st23" width="4.8235" height="7.2353" style="fill: url(#SVGID_21_);"></rect>
	</g>
	<g>
		
			<radialGradient id="SVGID_22_" cx="286.0043" cy="260.7943" r="12.3323" gradientTransform="matrix(1.4091 0 0 -0.5668 -253.6365 228.5017)" gradientUnits="userSpaceOnUse">
			<stop offset="0" style="stop-color:#6085B4;stop-opacity:0.7"></stop>
			<stop offset="0.0942" style="stop-color:#688BB6;stop-opacity:0.6529"></stop>
			<stop offset="0.4429" style="stop-color:#839FBD;stop-opacity:0.4785"></stop>
			<stop offset="0.7557" style="stop-color:#92ACC1;stop-opacity:0.3222"></stop>
			<stop offset="1" style="stop-color:#98B0C2;stop-opacity:0.2"></stop>
		</radialGradient>
		<path class="st24" d="M161.3007,85.5652h-29.3252c-1.1997,0-2.1722-0.8607-2.1722-1.9225v-10.574h33.6697v10.5739
			C163.4729,84.7044,162.5004,85.5652,161.3007,85.5652z" style="opacity: 0.7;fill: url(#SVGID_22_);enable-background: new    ;"></path>
		
			<linearGradient id="SVGID_23_" gradientUnits="userSpaceOnUse" x1="124.8981" y1="86.4987" x2="157.0238" y2="118.6244" gradientTransform="matrix(1 0 0 -1 0 166)">
			<stop offset="0" style="stop-color:#2651A1"></stop>
			<stop offset="1" style="stop-color:#1E3C74"></stop>
		</linearGradient>
		<path class="st25" d="M150.9144,41.2662H129.192c-2.3994,0-4.3445,1.9451-4.3445,4.3445v32.0405
			c0,2.3994,1.9451,4.3445,4.3445,4.3445h27.1529c2.3994,0,4.3445-1.9451,4.3445-4.3445V51.0413L150.9144,41.2662z" style="fill: url(#SVGID_23_);"></path>
		
			<linearGradient id="SVGID_24_" gradientUnits="userSpaceOnUse" x1="151.3915" y1="115.4359" x2="155.802" y2="119.8463" gradientTransform="matrix(1 0 0 -1 0 166)">
			<stop offset="0" style="stop-color:#09BDF8"></stop>
			<stop offset="1" style="stop-color:#1591D4"></stop>
		</linearGradient>
		<path class="st26" d="M152.5436,51.0413h8.1459l-9.7751-9.7751v8.1459C150.9144,50.3119,151.6439,51.0413,152.5436,51.0413z" style="fill: url(#SVGID_24_);"></path>
	</g>
	
		<linearGradient id="SVGID_25_" gradientUnits="userSpaceOnUse" x1="136.7924" y1="70.6014" x2="149.3664" y2="70.6014" gradientTransform="matrix(1 0 0 -1 0 166)">
		<stop offset="0" style="stop-color:#FFCB5D"></stop>
		<stop offset="1" style="stop-color:#FFA961"></stop>
	</linearGradient>
	<polygon class="st27" points="136.7924,94.166 142.9999,101.4862 149.3664,94.166 145.5737,94.166 145.5737,89.311 
		140.7507,89.311 140.7507,94.166" style="fill: url(#SVGID_25_);"></polygon>
	
		<linearGradient id="SVGID_26_" gradientUnits="userSpaceOnUse" x1="2116.6782" y1="-779.4685" x2="2129.2522" y2="-779.4685" gradientTransform="matrix(-1 0 0 1 2266.0447 805.3617)">
		<stop offset="0" style="stop-color:#FFCB5D"></stop>
		<stop offset="1" style="stop-color:#FFA961"></stop>
	</linearGradient>
	<polygon class="st28" points="149.3664,27.1258 143.1589,19.8056 136.7924,27.1258 140.5851,27.1258 140.5851,31.9808 
		145.4081,31.9808 145.4081,27.1258" style="fill: url(#SVGID_26_);"></polygon>
	<g>
		
			<linearGradient id="SVGID_27_" gradientUnits="userSpaceOnUse" x1="197.1952" y1="57.4559" x2="200.5654" y2="57.4559" gradientTransform="matrix(1 0 0 -1 -85.3045 107.4883)">
			<stop offset="0" style="stop-color:#DDE4EA"></stop>
			<stop offset="0.271" style="stop-color:#D7DFE9"></stop>
			<stop offset="0.5487" style="stop-color:#E8F1F5"></stop>
			<stop offset="0.5687" style="stop-color:#E8F1F5"></stop>
			<stop offset="1" style="stop-color:#ECEBF9"></stop>
		</linearGradient>
		<rect x="111.8907" y="37.3969" class="st29" width="3.3702" height="25.271" style="fill: url(#SVGID_27_);"></rect>
		
			<linearGradient id="SVGID_28_" gradientUnits="userSpaceOnUse" x1="196.3357" y1="58.3013" x2="201.3911" y2="58.3013" gradientTransform="matrix(1 0 0 -1 -85.3045 107.4883)">
			<stop offset="0" style="stop-color:#DDE4EA"></stop>
			<stop offset="0.271" style="stop-color:#D7DFEE"></stop>
			<stop offset="0.5487" style="stop-color:#E8EFF6"></stop>
			<stop offset="1" style="stop-color:#ECEBF9"></stop>
		</linearGradient>
		<polygon class="st30" points="114.9944,40.4494 116.0866,39.3572 113.5589,36.8295 111.0312,39.3572 112.1234,40.4494 
			111.0312,41.5416 112.1234,42.6338 111.0312,43.726 112.1234,44.8182 111.0312,45.9104 112.1234,47.0026 111.0312,48.0948 
			112.1234,49.187 111.0312,50.2792 112.1234,51.3714 111.0312,52.4636 112.1234,53.5558 111.0312,54.648 112.1234,55.7402 
			111.0312,56.8324 112.1234,57.9246 111.0312,59.0168 113.5589,61.5445 116.0866,59.0168 114.9944,57.9246 116.0866,56.8324 
			114.9944,55.7402 116.0866,54.648 114.9944,53.5558 116.0866,52.4636 114.9944,51.3714 116.0866,50.2792 114.9944,49.187 
			116.0866,48.0948 114.9944,47.0026 116.0866,45.9104 114.9944,44.8182 116.0866,43.726 114.9944,42.6338 116.0866,41.5416" style="fill: url(#SVGID_28_);"></polygon>
		
			<linearGradient id="SVGID_29_" gradientUnits="userSpaceOnUse" x1="194.9484" y1="70.3723" x2="207.8676" y2="70.3723" gradientTransform="matrix(1 0 0 -1 -85.3045 107.4883)">
			<stop offset="0" style="stop-color:#DDE4EA"></stop>
			<stop offset="0.274" style="stop-color:#DFE5ED"></stop>
			<stop offset="0.5474" style="stop-color:#DFE5ED"></stop>
			<stop offset="0.7304" style="stop-color:#E6E9EF"></stop>
			<stop offset="1" style="stop-color:#ECECF0"></stop>
		</linearGradient>
		<path class="st31" d="M122.5631,37.9586h-12.9192v-0.5617c0-0.6204,0.503-1.1234,1.1234-1.1234h10.6724L122.5631,37.9586z" style="fill: url(#SVGID_29_);"></path>
		
			<linearGradient id="SVGID_30_" gradientUnits="userSpaceOnUse" x1="194.9484" y1="72.0574" x2="202.7953" y2="72.0574" gradientTransform="matrix(1 0 0 -1 -85.3045 107.4883)">
			<stop offset="0" style="stop-color:#DDE4EA"></stop>
			<stop offset="0.274" style="stop-color:#DFE5ED"></stop>
			<stop offset="0.5474" style="stop-color:#DFE5ED"></stop>
			<stop offset="0.7304" style="stop-color:#E6E9EF"></stop>
			<stop offset="1" style="stop-color:#ECECF0"></stop>
		</linearGradient>
		<rect x="109.6439" y="34.5884" class="st32" width="7.8469" height="1.6851" style="fill: url(#SVGID_30_);"></rect>
		
			<linearGradient id="SVGID_31_" gradientUnits="userSpaceOnUse" x1="197.1783" y1="73.4673" x2="200.5485" y2="73.4673" gradientTransform="matrix(1 0 0 -1 -85.3045 107.4883)">
			<stop offset="0" style="stop-color:#DDE4EA"></stop>
			<stop offset="0.274" style="stop-color:#DFE5ED"></stop>
			<stop offset="0.5474" style="stop-color:#DFE5ED"></stop>
			<stop offset="0.7304" style="stop-color:#E6E9EF"></stop>
			<stop offset="1" style="stop-color:#ECECF0"></stop>
		</linearGradient>
		<path class="st33" d="M114.4001,33.4593h-1.6824c-0.4661,0-0.8439,0.3778-0.8439,0.8439v0.2795h3.3702v-0.2795
			C115.244,33.8371,114.8662,33.4593,114.4001,33.4593z" style="fill: url(#SVGID_31_);"></path>
		
			<linearGradient id="SVGID_32_" gradientUnits="userSpaceOnUse" x1="194.9315" y1="71.4985" x2="202.7953" y2="71.4985" gradientTransform="matrix(1 0 0 -1 -85.3045 107.4883)">
			<stop offset="0" style="stop-color:#E4EAEF"></stop>
			<stop offset="0.215" style="stop-color:#D7DFE7"></stop>
			<stop offset="0.4077" style="stop-color:#D1DBE4"></stop>
			<stop offset="1" style="stop-color:#E7E9EE"></stop>
		</linearGradient>
		<rect x="109.627" y="35.7118" class="st34" width="7.8638" height="0.5561" style="fill: url(#SVGID_32_);"></rect>
		<g>
			
				<linearGradient id="SVGID_33_" gradientUnits="userSpaceOnUse" x1="196.0887" y1="42.009" x2="201.6719" y2="42.009" gradientTransform="matrix(1 0 0 -1 -85.3045 107.4883)">
				<stop offset="0" style="stop-color:#DDE4EA"></stop>
				<stop offset="0.274" style="stop-color:#DFE5ED"></stop>
				<stop offset="0.5474" style="stop-color:#DFE5ED"></stop>
				<stop offset="0.7304" style="stop-color:#E6E9EF"></stop>
				<stop offset="1" style="stop-color:#ECECF0"></stop>
			</linearGradient>
			<rect x="110.7842" y="64.9147" class="st35" width="5.5832" height="1.1291" style="fill: url(#SVGID_33_);"></rect>
			
				<linearGradient id="SVGID_34_" gradientUnits="userSpaceOnUse" x1="198.8803" y1="39.7594" x2="198.8803" y2="40.8885" gradientTransform="matrix(1 0 0 -1 -85.3045 107.4883)">
				<stop offset="0" style="stop-color:#DDE4EA"></stop>
				<stop offset="0.2728" style="stop-color:#DCE3EB"></stop>
				<stop offset="0.285" style="stop-color:#DCE3EB"></stop>
				<stop offset="0.5487" style="stop-color:#E2E7EE"></stop>
				<stop offset="0.7176" style="stop-color:#E8EBF0"></stop>
				<stop offset="1" style="stop-color:#EEEEF1"></stop>
			</linearGradient>
			<rect x="108.5374" y="66.5998" class="st36" width="10.0768" height="1.1291" style="fill: url(#SVGID_34_);"></rect>
			
				<linearGradient id="SVGID_35_" gradientUnits="userSpaceOnUse" x1="197.74" y1="42.8515" x2="199.9868" y2="42.8515" gradientTransform="matrix(1 0 0 -1 -85.3045 107.4883)">
				<stop offset="0" style="stop-color:#E4EAEF"></stop>
				<stop offset="0.215" style="stop-color:#D7DFE7"></stop>
				<stop offset="0.4077" style="stop-color:#D1DBE4"></stop>
				<stop offset="1" style="stop-color:#E7E9EE"></stop>
			</linearGradient>
			<rect x="112.4355" y="64.3587" class="st37" width="2.2468" height="0.5561" style="fill: url(#SVGID_35_);"></rect>
			
				<linearGradient id="SVGID_36_" gradientUnits="userSpaceOnUse" x1="194.9484" y1="43.9721" x2="207.8676" y2="43.9721" gradientTransform="matrix(1 0 0 -1 -85.3045 107.4883)">
				<stop offset="0" style="stop-color:#DDE4EA"></stop>
				<stop offset="0.274" style="stop-color:#DFE5ED"></stop>
				<stop offset="0.5474" style="stop-color:#DFE5ED"></stop>
				<stop offset="0.7304" style="stop-color:#E6E9EF"></stop>
				<stop offset="1" style="stop-color:#ECECF0"></stop>
			</linearGradient>
			<path class="st38" d="M121.4397,64.3587h-10.6724c-0.6204,0-1.1234-0.503-1.1234-1.1234v-0.5617h12.9192L121.4397,64.3587z" style="fill: url(#SVGID_36_);"></path>
			
				<linearGradient id="SVGID_37_" gradientUnits="userSpaceOnUse" x1="197.1952" y1="40.0431" x2="200.5654" y2="40.0431" gradientTransform="matrix(1 0 0 -1 -85.3045 107.4883)">
				<stop offset="0" style="stop-color:#DDE4EA"></stop>
				<stop offset="0.274" style="stop-color:#DFE5ED"></stop>
				<stop offset="0.5474" style="stop-color:#DFE5ED"></stop>
				<stop offset="0.7304" style="stop-color:#E6E9EF"></stop>
				<stop offset="1" style="stop-color:#ECECF0"></stop>
			</linearGradient>
			<path class="st39" d="M114.417,68.8466h-1.6824c-0.4661,0-0.8439-0.3778-0.8439-0.8439v-1.959h3.3702v1.959
				C115.2609,68.4688,114.8831,68.8466,114.417,68.8466z" style="fill: url(#SVGID_37_);"></path>
			
				<radialGradient id="SVGID_38_" cx="193.8081" cy="40.3268" r="1.1234" gradientTransform="matrix(1 0 0 -1 -85.3045 107.4883)" gradientUnits="userSpaceOnUse">
				<stop offset="0" style="stop-color:#DDE4EA"></stop>
				<stop offset="0.274" style="stop-color:#DFE5ED"></stop>
				<stop offset="0.5474" style="stop-color:#DFE5ED"></stop>
				<stop offset="0.7304" style="stop-color:#E6E9EF"></stop>
				<stop offset="1" style="stop-color:#ECECF0"></stop>
			</radialGradient>
			<circle class="st40" cx="108.5036" cy="67.1615" r="1.1234" style="fill: url(#SVGID_38_);"></circle>
			
				<linearGradient id="SVGID_39_" gradientUnits="userSpaceOnUse" x1="197.1783" y1="41.1665" x2="200.5485" y2="41.1665" gradientTransform="matrix(1 0 0 -1 -85.3045 107.4883)">
				<stop offset="0" style="stop-color:#E4EAEF"></stop>
				<stop offset="0.215" style="stop-color:#D7DFE7"></stop>
				<stop offset="0.4077" style="stop-color:#D1DBE4"></stop>
				<stop offset="1" style="stop-color:#E7E9EE"></stop>
			</linearGradient>
			<rect x="111.8738" y="66.0438" class="st41" width="3.3702" height="0.5561" style="fill: url(#SVGID_39_);"></rect>
			
				<linearGradient id="SVGID_40_" gradientUnits="userSpaceOnUse" x1="7553.877" y1="40.4153" x2="7733.6328" y2="40.4153" gradientTransform="matrix(-0.0061 0 0 -1 165.2356 107.4883)">
				<stop offset="0" style="stop-color:#DDE4EA"></stop>
				<stop offset="0.274" style="stop-color:#DFE5ED"></stop>
				<stop offset="0.5474" style="stop-color:#DFE5ED"></stop>
				<stop offset="0.7304" style="stop-color:#E6E9EF"></stop>
				<stop offset="1" style="stop-color:#ECECF0"></stop>
			</linearGradient>
			<path class="st42" d="M118.0864,68.1993h0.6803c0.226,0,0.4092-0.1832,0.4092-0.4093v-1.434c0-0.226-0.1832-0.4093-0.4092-0.4093
				h-0.6803V68.1993z" style="fill: url(#SVGID_40_);"></path>
		</g>
		
			<linearGradient id="SVGID_41_" gradientUnits="userSpaceOnUse" x1="196.3357" y1="57.7552" x2="201.3911" y2="57.7552" gradientTransform="matrix(1 0 0 -1 -85.3045 107.4883)">
			<stop offset="0" style="stop-color:#E7EBEF"></stop>
			<stop offset="0.781" style="stop-color:#D5DFEB"></stop>
			<stop offset="0.855" style="stop-color:#DAE1EB"></stop>
			<stop offset="0.9987" style="stop-color:#E0E3EA"></stop>
		</linearGradient>
		<path class="st43" d="M112.1234,40.4494l-1.0922-1.0922h5.0553L112.1234,40.4494z M116.0866,41.5416h-5.0553l1.0922,1.0922
			L116.0866,41.5416z M116.0866,43.726h-5.0553l1.0922,1.0922L116.0866,43.726z M116.0866,59.0168h-5.0553l1.0922,1.0922
			L116.0866,59.0168z M116.0866,56.8324h-5.0553l1.0922,1.0922L116.0866,56.8324z M116.0866,54.648h-5.0553l1.0922,1.0922
			L116.0866,54.648z M116.0866,52.4636h-5.0553l1.0922,1.0922L116.0866,52.4636z M116.0866,50.2792h-5.0553l1.0922,1.0922
			L116.0866,50.2792z M116.0866,48.0948h-5.0553l1.0922,1.0922L116.0866,48.0948z M116.0866,45.9104h-5.0553l1.0922,1.0922
			L116.0866,45.9104z" style="fill: url(#SVGID_41_);"></path>
	</g>
	
		<linearGradient id="SVGID_42_" gradientUnits="userSpaceOnUse" x1="-53.1046" y1="92.1502" x2="-22.4478" y2="92.1502" gradientTransform="matrix(1 0 0 -1 203.1483 151.167)">
		<stop offset="0" style="stop-color:#DEE3EE"></stop>
		<stop offset="1" style="stop-color:#C8DAE7"></stop>
	</linearGradient>
	<path class="st44" d="M178.5022,60.9722l-7.0273-1.7474l-0.2432-0.208l0.2432-0.208l7.0273-1.7474
		c1.5524-0.386,2.498-1.9574,2.1119-3.5099l-0.3494-1.4054c-0.3278-1.3177-1.5095-2.1982-2.8088-2.1982
		c-0.2314,0-0.4664,0.0279-0.7011,0.0863l-2.811,0.6989c-2.3287,0.5791-3.747,2.9362-3.1679,5.2648l-1.1621,0.9936
		c-0.2016,0.1724-0.4136,0.3309-0.6317,0.4795c-0.8287-0.4387-1.7069-0.7829-2.6228-1.0106l-5.7091-1.4197v2.9847l3.9869,0.9914
		l-14.5934,3.6288l3.6516,0.8163c0.8326,0.1861,1.6803,0.279,2.5277,0.279c0.9393,0,1.8781-0.1142,2.7958-0.3424l7.3406-1.8253
		c0.9159-0.2278,1.7941-0.5719,2.6228-1.0107c0.2182,0.1487,0.4302,0.3072,0.6318,0.4795l1.1621,0.9937
		c-0.5791,2.3286,0.8392,4.6856,3.1679,5.2648l2.811,0.6989c0.2346,0.0584,0.4698,0.0863,0.7011,0.0863
		c1.2993,0,2.481-0.8803,2.8088-2.1982l0.3494-1.4055C181.0002,62.9297,180.0546,61.3582,178.5022,60.9722z M173.1309,53.8294
		c0.2993-0.4972,0.7741-0.8481,1.3372-0.9881l2.8111-0.699c0.0589-0.0146,0.1184-0.022,0.1768-0.022
		c0.2716,0,0.6066,0.1721,0.7006,0.5499l0.3494,1.4056c0.063,0.2533-0.0245,0.4521-0.0822,0.5481
		c-0.0578,0.096-0.1925,0.2664-0.4457,0.3295l-4.9191,1.2232l-0.1747-0.7027C172.7442,54.9106,172.8318,54.3266,173.1309,53.8294z
		 M178.5059,63.9579l-0.3493,1.4053c-0.0941,0.378-0.4291,0.5501-0.7007,0.5501c-0.0584,0-0.118-0.0074-0.1769-0.0221
		l-2.8109-0.6989c-0.5632-0.1401-1.038-0.4909-1.3372-0.9881c-0.2991-0.4973-0.3867-1.0811-0.2467-1.6442l0.1748-0.7028
		l4.919,1.2231c0.2532,0.063,0.3879,0.2334,0.4457,0.3294C178.4814,63.5057,178.5689,63.7046,178.5059,63.9579z" style="fill: url(#SVGID_42_);"></path>
	<g>
		<path class="st11" d="M160.6504,60.0166h-2.6914v-2h2.6914V60.0166z M154.959,60.0166h-4v-2h4V60.0166z M147.959,60.0166h-4v-2h4
			V60.0166z M140.959,60.0166h-4v-2h4V60.0166z M133.959,60.0166h-4v-2h4V60.0166z M126.959,60.0166h-4v-2h4V60.0166z" style="fill: #FFFFFF;"></path>
	</g>
</g>
</svg>